<svg width="96" height="64" viewBox="0 0 96 64" fill="none" xmlns="http://www.w3.org/2000/svg">
<rect width="96" height="64" rx="10" fill="#FFFAF2"/>
<rect x="0.5" y="0.5" width="95" height="63" rx="9.5" stroke="#FF7700" stroke-opacity="0.3"/>
<path d="M48 34V21M48 34C49.6 30.8 53.6667 30.3333 55.5 30.5V18C51.9 18 49 20 48 21M48 34C46.4 30.8 42.3333 30.3333 40.5 30.5V20M48 34C50.1327 33 55.0584 31.6 57.6991 34V20.5C57.3527 20.3333 56.4438 20 55.5799 20M48 34C46.1667 33 41.7 31.6 38.5 34V20.5C38.8333 20.3333 39.7 20 40.5 20M48 21C46.8333 20 43.7 18 40.5 18V20" stroke="#FF7700" stroke-width="1.5" stroke-linecap="round" stroke-linejoin="round"/>
<path d="M37.188 52V44.74H39.773C40.631 44.74 41.258 44.9197 41.654 45.279C42.05 45.6383 42.248 46.126 42.248 46.742C42.248 47.1087 42.1417 47.4423 41.929 47.743C41.7163 48.0363 41.4157 48.2233 41.027 48.304V48.315C41.4597 48.3957 41.8007 48.5937 42.05 48.909C42.3067 49.217 42.435 49.569 42.435 49.965C42.435 50.581 42.204 51.076 41.742 51.45C41.28 51.8167 40.62 52 39.762 52H37.188ZM38.068 51.175H39.971C40.4917 51.175 40.8767 51.0687 41.126 50.856C41.3827 50.6433 41.511 50.3463 41.511 49.965C41.511 49.5763 41.3827 49.2793 41.126 49.074C40.8767 48.8613 40.4917 48.755 39.971 48.755H38.068V51.175ZM38.068 47.93H39.784C40.8107 47.93 41.324 47.534 41.324 46.742C41.324 45.9573 40.8107 45.565 39.784 45.565H38.068V47.93ZM45.0455 43.97V50.603C45.0455 50.8817 45.0969 51.076 45.1995 51.186C45.3022 51.2887 45.4672 51.34 45.6945 51.34C45.8412 51.34 45.9622 51.329 46.0575 51.307C46.1529 51.285 46.2812 51.2447 46.4425 51.186L46.2995 51.956C46.1822 52.0073 46.0539 52.044 45.9145 52.066C45.7752 52.0953 45.6322 52.11 45.4855 52.11C45.0382 52.11 44.7045 51.989 44.4845 51.747C44.2719 51.505 44.1655 51.1347 44.1655 50.636V43.97H45.0455ZM49.8488 46.39C50.3695 46.39 50.8278 46.5037 51.2238 46.731C51.6272 46.9583 51.9425 47.2883 52.1698 47.721C52.3972 48.1463 52.5108 48.656 52.5108 49.25C52.5108 49.844 52.3972 50.3573 52.1698 50.79C51.9425 51.2153 51.6272 51.5417 51.2238 51.769C50.8278 51.9963 50.3695 52.11 49.8488 52.11C49.3355 52.11 48.8772 51.9963 48.4738 51.769C48.0705 51.5417 47.7552 51.2153 47.5278 50.79C47.3005 50.3573 47.1868 49.844 47.1868 49.25C47.1868 48.656 47.3005 48.1463 47.5278 47.721C47.7552 47.2883 48.0705 46.9583 48.4738 46.731C48.8772 46.5037 49.3355 46.39 49.8488 46.39ZM49.8488 47.149C49.4748 47.149 49.1558 47.2333 48.8918 47.402C48.6278 47.5707 48.4225 47.8127 48.2758 48.128C48.1365 48.436 48.0668 48.81 48.0668 49.25C48.0668 49.6827 48.1365 50.0567 48.2758 50.372C48.4225 50.6873 48.6278 50.9293 48.8918 51.098C49.1558 51.2667 49.4748 51.351 49.8488 51.351C50.2228 51.351 50.5418 51.2667 50.8058 51.098C51.0698 50.9293 51.2715 50.6873 51.4108 50.372C51.5575 50.0567 51.6308 49.6827 51.6308 49.25C51.6308 48.81 51.5575 48.436 51.4108 48.128C51.2715 47.8127 51.0698 47.5707 50.8058 47.402C50.5418 47.2333 50.2228 47.149 49.8488 47.149ZM58.7985 45.488L58.9965 46.269C58.9892 46.269 58.9782 46.269 58.9635 46.269C58.9489 46.269 58.9342 46.269 58.9195 46.269C58.5602 46.269 58.2815 46.3423 58.0835 46.489C57.8929 46.6283 57.7975 46.8557 57.7975 47.171L57.2585 46.896C57.2585 46.61 57.3245 46.3607 57.4565 46.148C57.5885 45.9353 57.7682 45.774 57.9955 45.664C58.2229 45.5467 58.4722 45.488 58.7435 45.488C58.7509 45.488 58.7582 45.488 58.7655 45.488C58.7802 45.488 58.7912 45.488 58.7985 45.488ZM57.1265 51.296C57.6472 51.296 58.0542 51.417 58.3475 51.659C58.6409 51.8937 58.7875 52.209 58.7875 52.605C58.7875 52.9643 58.6665 53.276 58.4245 53.54C58.1899 53.804 57.8709 54.0057 57.4675 54.145C57.0715 54.2917 56.6242 54.365 56.1255 54.365C55.2602 54.365 54.6112 54.2183 54.1785 53.925C53.7532 53.6317 53.5405 53.2797 53.5405 52.869C53.5405 52.5757 53.6359 52.3117 53.8265 52.077C54.0245 51.8497 54.3545 51.7213 54.8165 51.692L54.7395 51.857C54.4902 51.791 54.2775 51.681 54.1015 51.527C53.9329 51.3657 53.8485 51.1347 53.8485 50.834C53.8485 50.5333 53.9585 50.2767 54.1785 50.064C54.4059 49.844 54.7395 49.7083 55.1795 49.657L55.7625 49.954H55.6525C55.2932 49.9907 55.0365 50.0823 54.8825 50.229C54.7359 50.3683 54.6625 50.5223 54.6625 50.691C54.6625 50.8963 54.7359 51.0503 54.8825 51.153C55.0365 51.2483 55.2492 51.296 55.5205 51.296H57.1265ZM56.1145 53.628C56.5399 53.628 56.8882 53.584 57.1595 53.496C57.4382 53.408 57.6435 53.2943 57.7755 53.155C57.9075 53.0157 57.9735 52.8653 57.9735 52.704C57.9735 52.506 57.8929 52.3483 57.7315 52.231C57.5775 52.1137 57.2952 52.055 56.8845 52.055H55.1905C54.9559 52.055 54.7579 52.1137 54.5965 52.231C54.4352 52.3557 54.3545 52.5243 54.3545 52.737C54.3545 53.0083 54.5085 53.2247 54.8165 53.386C55.1319 53.5473 55.5645 53.628 56.1145 53.628ZM56.0375 46.39C56.4775 46.39 56.8662 46.4707 57.2035 46.632C57.5482 46.786 57.8159 47.0023 58.0065 47.281C58.1972 47.5597 58.2925 47.8823 58.2925 48.249C58.2925 48.6083 58.1972 48.931 58.0065 49.217C57.8159 49.4957 57.5482 49.7157 57.2035 49.877C56.8662 50.031 56.4775 50.108 56.0375 50.108C55.3115 50.108 54.7542 49.9357 54.3655 49.591C53.9769 49.239 53.7825 48.7917 53.7825 48.249C53.7825 47.8823 53.8779 47.5597 54.0685 47.281C54.2665 47.0023 54.5342 46.786 54.8715 46.632C55.2089 46.4707 55.5975 46.39 56.0375 46.39ZM56.0375 47.105C55.6562 47.105 55.3372 47.2113 55.0805 47.424C54.8239 47.6293 54.6955 47.9043 54.6955 48.249C54.6955 48.5863 54.8239 48.8613 55.0805 49.074C55.3372 49.2867 55.6562 49.393 56.0375 49.393C56.4189 49.393 56.7379 49.2867 56.9945 49.074C57.2512 48.8613 57.3795 48.5863 57.3795 48.249C57.3795 47.9043 57.2512 47.6293 56.9945 47.424C56.7379 47.2113 56.4189 47.105 56.0375 47.105Z" fill="#FF7700"/>
</svg>
