<svg width="46" height="47" viewBox="0 0 46 47" fill="none" xmlns="http://www.w3.org/2000/svg">
<circle cx="22.9009" cy="23.6907" r="22.7405" fill="#FCF7F3"/>
<path d="M14.4917 32.06V28.112C14.4917 26.7466 14.9729 25.5828 15.9352 24.6205C16.8975 23.6581 18.0614 23.177 19.4267 23.177H30.0123C30.6374 23.177 31.1679 23.3908 31.6038 23.8185C32.0398 24.2462 32.2577 24.7726 32.2577 25.3977C32.2577 25.9077 32.1015 26.3642 31.7889 26.7672C31.4764 27.1702 31.0816 27.4375 30.6045 27.5691L28.3097 28.2353V32.7756C28.3097 33.0388 28.2522 33.2773 28.137 33.4911C28.0219 33.705 27.8656 33.8777 27.6682 34.0093C27.4708 34.1409 27.2528 34.2232 27.0143 34.2561C26.7758 34.289 26.5331 34.2561 26.2864 34.1574L20.9566 32.06H14.4917ZM26.8292 28.6055H20.7838C20.5535 28.6055 20.3644 28.6795 20.2163 28.8275C20.0683 28.9756 19.9778 29.1401 19.9449 29.3211C19.912 29.502 19.9408 29.6871 20.0312 29.8762C20.1217 30.0654 20.2821 30.2011 20.5124 30.2834L26.8292 32.7756V28.6055ZM15.9722 30.5795H18.7605C18.6618 30.415 18.5836 30.2381 18.5261 30.049C18.4685 29.8598 18.4397 29.6665 18.4397 29.4691C18.4397 28.8275 18.67 28.2765 19.1306 27.8159C19.5912 27.3553 20.1423 27.125 20.7838 27.125H26.6565L30.2344 26.138C30.4647 26.0722 30.621 25.9652 30.7032 25.8172C30.7855 25.6691 30.8101 25.5046 30.7772 25.3237C30.7443 25.1427 30.6621 24.9865 30.5305 24.8549C30.3989 24.7233 30.2262 24.6575 30.0123 24.6575H19.4267C18.4726 24.6575 17.6583 24.9947 16.9839 25.6691C16.3094 26.3436 15.9722 27.1579 15.9722 28.112V30.5795ZM21.4007 22.19C20.315 22.19 19.3856 21.8034 18.6124 21.0302C17.8393 20.2571 17.4527 19.3277 17.4527 18.242C17.4527 17.1563 17.8393 16.2268 18.6124 15.4537C19.3856 14.6805 20.315 14.2939 21.4007 14.2939C22.4864 14.2939 23.4158 14.6805 24.189 15.4537C24.9621 16.2268 25.3487 17.1563 25.3487 18.242C25.3487 19.3277 24.9621 20.2571 24.189 21.0302C23.4158 21.8034 22.4864 22.19 21.4007 22.19ZM21.4007 20.7095C22.0916 20.7095 22.6756 20.4709 23.1526 19.9939C23.6297 19.5168 23.8682 18.9329 23.8682 18.242C23.8682 17.5511 23.6297 16.9671 23.1526 16.49C22.6756 16.013 22.0916 15.7744 21.4007 15.7744C20.7098 15.7744 20.1258 16.013 19.6488 16.49C19.1717 16.9671 18.9332 17.5511 18.9332 18.242C18.9332 18.9329 19.1717 19.5168 19.6488 19.9939C20.1258 20.4709 20.7098 20.7095 21.4007 20.7095Z" fill="#E06900"/>
</svg>
