<svg width="75" height="76" viewBox="0 0 75 76" fill="none" xmlns="http://www.w3.org/2000/svg">
<circle cx="38" cy="38.5" r="36" fill="#FFEBDE"/>
<path d="M42.9107 39.8928L45.7485 41.3117C49.9191 43.397 52.5535 47.6597 52.5535 52.3225V52.3225C52.5535 53.0024 52.0024 53.5535 51.3225 53.5535H23.2489C22.569 53.5535 22.0178 53.0024 22.0178 52.3225V52.3225C22.0178 47.6597 24.6523 43.397 28.8228 41.3117L31.6607 39.8928M32.4643 41.5V45.1046M42.9107 40.6964V45.5178M42.9107 45.5178H45.6428C46.3529 45.5178 46.9285 46.0935 46.9285 46.8035V49.0535C46.9285 49.7636 46.3529 50.3393 45.6428 50.3393H44.5178M42.9107 45.5178H40.1785C39.4685 45.5178 38.8928 46.0935 38.8928 46.8035V49.0535C38.8928 49.7636 39.4685 50.3393 40.1785 50.3393H41.3035" stroke="#FF7700" stroke-width="1.92857" stroke-linecap="round" stroke-linejoin="round"/>
<path d="M30.0783 33.4643H44.5179M44.5179 33.4643V26.875C44.5179 24.7447 42.791 23.0178 40.6607 23.0178H33.9107C31.7805 23.0178 30.0536 24.7447 30.0536 26.875V35.0714C30.0536 39.0656 33.2915 42.3035 37.2857 42.3035V42.3035C41.2799 42.3035 44.5179 39.0656 44.5179 35.0714V33.4643ZM37.2857 26.0163V30.5878M34.875 28.1771H39.6964" stroke="#FF7700" stroke-width="1.92857" stroke-linecap="round" stroke-linejoin="round"/>
<circle cx="32.4643" cy="47.9286" r="2.57143" stroke="#FF7700" stroke-width="1.28571"/>
</svg>
