<svg width="254" height="235" viewBox="0 0 254 235" fill="none" xmlns="http://www.w3.org/2000/svg">
<rect x="0.996338" width="252.007" height="234.974" rx="12.2731" fill="#FFEADE"/>
<path d="M124.689 53.9583C127.578 52.1292 127.441 52.5604 129.504 51.25C130.503 50.6146 131.083 50.1646 131.43 50.4167C131.74 50.6417 131.622 51.25 131.622 52.5C131.622 53.4063 131.761 54.3042 131.815 55.2083C131.973 57.8146 132.346 64.0271 132.97 66.6667C133.196 67.6188 133.122 68.6333 133.356 69.5833C133.415 69.7868 133.415 70.0049 133.356 70.2083C133.241 70.4866 133.035 70.7092 132.778 70.8333C131.722 71.4688 132.294 71.3021 131.237 71.875C130.033 72.5271 129.752 72.5 129.504 72.9167C129.288 73.2833 129.273 73.6958 129.311 74.1667C129.504 76.4583 130.852 79.3417 131.815 79.1667C132.163 79.1021 132.739 78.5771 132.778 78.5417C132.913 78.4167 133.105 78.3333 133.163 78.125C133.188 77.9875 133.188 77.8459 133.163 77.7083C133.178 77.7083 133.201 78.0729 133.356 78.125C133.434 78.1521 133.508 78.0813 133.548 78.125C133.589 78.1688 133.525 78.3188 133.548 78.3333C133.571 78.3479 133.691 78.125 133.741 78.125C133.974 78.1563 133.565 83.3229 133.548 83.5417C133.406 85.3458 133.313 87.1542 133.163 88.9583C132.926 91.825 132.812 94.4104 132.585 99.5833C132.094 110.756 132.007 123.333 132.007 123.333C131.913 136.904 132.113 159.475 132.2 161.25C132.2 161.308 132.229 161.817 132.2 162.5C132.163 163.394 132.144 163.852 132.007 164.167C131.834 164.569 131.341 165.04 128.541 165.208C126.87 165.353 125.189 165.283 123.533 165C122.263 164.782 121.03 164.361 119.874 163.75C119.24 163.41 118.645 163.013 118.333 162.292C118.146 161.834 118.079 161.329 118.141 160.833C119.341 149.013 119.065 137.067 119.874 125.208C120.529 115.588 121.018 96.7313 121.993 93.9583C122.436 92.6979 122.364 91.2771 122.763 90C122.821 89.8167 123.002 89.2604 122.763 88.9583C122.685 88.883 122.593 88.8256 122.494 88.7898C122.395 88.754 122.29 88.7404 122.185 88.75C121.147 88.7375 119.843 87.0833 117.756 84.375C117.361 83.8625 116.954 83.3208 116.793 82.5C116.7 82.019 116.7 81.5227 116.793 81.0417C117.151 79.0063 119.104 64.0625 121.415 57.7083C121.68 56.9441 122.072 56.2382 122.57 55.625C123.013 55.0875 123.443 54.75 124.689 53.9583Z" fill="white"/>
<path d="M141.637 48.125C141.701 48.1172 141.766 48.1172 141.83 48.125C142.282 48.125 146.593 48.9334 148.956 49.1667C149.208 49.1917 149.755 49.2417 150.496 49.375C151.529 49.5605 152.085 49.6667 152.615 50C153.322 50.4459 153.674 51.1042 153.963 51.6667C155.134 53.9375 155.908 55.7834 157.237 60.4167C157.372 60.8896 157.645 61.875 157.237 62.2917C157.018 62.5146 156.731 62.4375 156.082 62.5C155.492 62.5706 154.91 62.7103 154.348 62.9167C153.52 63.1954 152.74 63.6175 152.037 64.1667C150.554 65.2438 150.258 65.7855 148.57 67.2917C147.061 68.6396 145.737 70.2355 144.141 71.4584C144.023 71.548 143.49 71.9521 143.563 72.2917C143.617 72.5396 143.948 72.5792 143.948 72.7084C143.933 72.9167 142.985 73.2709 142.215 72.9167C141.506 72.5896 141.708 72.0417 140.867 71.0417C140.358 70.4375 139.293 69.525 138.363 69.1667C138.136 69.0952 137.934 68.9497 137.785 68.75C137.602 68.4414 137.534 68.0694 137.593 67.7084C138.005 63.975 138.941 58.75 138.941 58.75C138.941 58.75 140.674 49.0771 141.059 48.5417C141.117 48.4651 141.181 48.3953 141.252 48.3334L141.637 48.125Z" fill="white"/>
<path d="M150.304 72.7083C150.474 72.5358 150.669 72.395 150.881 72.2916C151.178 72.1562 151.332 72.1854 151.652 72.0833C151.926 71.9868 152.186 71.8464 152.422 71.6666C157.218 68.3333 158.2 67.0833 158.2 67.0833C158.319 66.9312 158.564 66.6083 158.778 66.6666C159.199 66.7854 159.163 68.3187 159.163 68.9583C159.134 73.1645 160.126 73.9083 159.933 78.9583C159.843 81.3395 159.585 82.2062 158.97 82.7083C158.441 83.1416 157.43 83.4833 156.467 83.5416C155.964 83.5729 155.823 83.5041 155.696 83.5416C154.013 84.0458 157.237 101.875 157.237 101.875C160.028 129.227 162.121 148.556 162.822 151.667C163.146 152.963 163.146 154.329 162.822 155.625C162.509 156.923 161.837 158.086 160.896 158.958C157.753 161.996 152.422 163.369 149.726 163.958C145.847 164.806 141.252 163.958 141.252 163.958C141.252 163.958 140.718 138.904 139.711 91.6666C139.407 83.5583 139.195 78.4541 139.133 78.125C139.108 77.9874 139.108 77.8458 139.133 77.7083C139.149 77.5489 139.217 77.4009 139.326 77.2916C139.361 77.2625 139.518 77.1479 139.904 77.2916C140.537 77.5291 140.93 78.1562 141.059 78.3333C141.423 78.8312 142.284 79.2895 144.526 78.9583C146.537 78.6604 146.696 78.4875 147.993 78.75C148.844 78.9229 149.148 79.1812 149.533 78.9583C150.404 78.4625 150.325 76.4062 150.304 75.8333C150.246 74.3354 149.803 73.2416 150.304 72.7083Z" fill="white"/>
<path d="M81.7407 105.625C82.0122 105.388 82.4629 105.694 83.2814 106.042C84.6392 106.619 85.7851 106.804 87.5184 107.083C88.8666 107.292 88.6085 107.121 89.2518 107.292C90.9235 107.738 91.2355 108.575 92.911 108.958C93.7103 109.142 93.6679 108.958 94.6444 109.167C95.8519 109.427 96.397 109.813 97.3407 110.208C98.2844 110.604 99.6768 111.185 101.385 111.042C102.188 110.975 103.646 110.852 104.852 109.792C105.064 109.604 105.458 109.344 106.2 108.75C107.511 107.708 108.168 107.177 108.704 106.667C109.319 106.14 109.962 105.653 110.63 105.208C110.786 105.1 111.134 104.86 111.4 105C111.483 105.046 111.55 105.119 111.593 105.208V106.458C111.544 106.838 111.473 107.417 111.4 108.125C111.275 109.344 111.219 110.248 111.207 110.417C110.687 118.271 106.2 157.708 106.2 157.708C103.821 177.877 102.88 187.173 102.926 188.958C102.926 189.213 102.733 190.725 102.348 193.75C102.321 193.97 102.256 194.182 102.155 194.375C102.008 194.627 101.811 194.841 101.578 195C101.038 195.365 99.8559 195.602 98.111 195.208C97.1076 194.981 96.6512 194.71 96.3777 195C96.318 195.063 96.214 195.208 96.1851 196.458C96.1755 196.906 96.1697 197.129 96.1851 197.5C96.2236 198.458 96.2872 199.971 95.7999 200.833C95.3127 201.696 94.2707 201.875 93.1036 202.083C92.185 202.242 88.518 202.871 86.7481 200.625C85.8833 199.529 85.8101 198.179 85.7851 197.708C83.0888 148.596 81.7407 124.04 81.7407 110.625V107.292C81.629 106.496 81.4576 105.873 81.7407 105.625Z" fill="#FF7700"/>
<path d="M75.3852 71.4585C74.8883 71.4355 74.5609 72.3022 74.037 73.3335C72.9181 75.5335 70.5915 79.1043 69.8 80.2085C69.5664 80.4986 69.4307 80.8658 69.4148 81.2501C69.4148 81.9564 69.9541 82.4876 70.1852 82.7085C75.8955 88.1855 78.7498 90.9251 81.7407 93.5418C83.293 94.9022 87.2354 98.4418 89.2518 99.7918C89.2518 99.7918 89.7526 100.127 90.4074 100.625C91.6766 101.59 92.3218 102.083 92.9111 102.917C93.5832 103.871 93.3252 104.004 93.8741 104.583C94.5555 105.263 95.451 105.636 96.3778 105.625C96.5051 105.6 96.6356 105.6 96.7629 105.625C97.1693 105.754 97.3061 106.275 97.7259 107.5C98.1458 108.725 98.2709 108.958 98.4963 109.167C98.8166 109.463 99.2312 109.613 99.6518 109.583C100.154 109.515 100.16 109.154 101 108.75C101.46 108.529 101.56 108.588 101.963 108.333C102.238 108.153 102.496 107.944 102.733 107.708C102.733 107.708 102.926 107.513 103.118 107.292C103.889 106.375 105.044 104.986 104.852 103.542C104.677 102.258 103.504 101.481 103.118 101.25C102.716 100.813 101.984 100.021 101 98.9584C100.461 98.3772 100.185 98.0834 99.8444 97.9168C98.8815 97.4459 98.1573 97.9168 97.1481 97.9168C96.6801 97.9168 95.9772 97.8084 93.8741 96.2501C92.3712 95.1248 90.9543 93.8708 89.637 92.5001C88.1117 90.9543 86.5343 89.4689 85.0148 87.9168C83.553 86.423 81.3266 84.1522 78.4666 81.2501C78.4666 81.2501 78.8384 80.6501 79.4296 79.7918C80.2924 78.5418 80.6757 78.1147 80.9453 77.1751C80.9607 77.121 80.9684 77.0939 80.9704 77.0835C81.1976 75.9189 77.9775 75.5064 76.3481 72.7085C75.9745 72.0647 75.7877 71.4772 75.3852 71.4585Z" fill="white"/>
<path d="M112.941 31.4584C112.586 31.5438 112.423 32.0938 112.363 32.2917C111.735 34.3626 110.77 36.298 110.052 38.3334C109.905 39.4355 109.617 41.6251 108.704 43.5417C108.551 43.7862 108.482 44.0814 108.511 44.3751C108.607 44.8709 109.116 45.1542 109.667 45.4167C111.327 46.2105 112.157 46.6063 112.748 46.4584C113.461 46.2792 113.214 45.898 115.252 43.5417C115.454 43.3084 116.022 42.4126 117.178 40.6251C117.309 40.4481 117.377 40.2265 117.37 40.0001C117.33 39.5146 116.781 39.4709 116.6 38.9584C116.282 38.0563 116.802 37.0292 116.985 36.6667C117.496 35.6605 117.979 35.6251 117.948 35.2084C117.892 34.4167 116.224 34.6271 114.674 33.1251C113.792 32.2688 113.441 31.3376 112.941 31.4584Z" fill="white"/>
<path d="M98.1112 40.625C98.3885 40.548 98.6427 41.0875 100.037 42.7084C100.445 43.1813 100.651 43.4 101 43.5417C101.624 43.7938 101.888 43.4667 102.348 43.75C102.845 44.0584 102.706 44.548 103.311 45C103.739 45.3209 103.943 45.173 104.082 45.4167C104.486 46.1209 103.119 47.9167 103.119 47.9167L102.348 47.0834C101.069 45.7084 99.9061 44.4563 98.3038 43.9584C97.8165 43.8063 97.2291 43.7063 97.1482 43.3334C97.0943 43.0875 97.3042 42.9167 97.5334 42.5C98.09 41.4834 97.8146 40.7084 98.1112 40.625Z" fill="white"/>
<path d="M128.541 38.5417C128.321 40.0834 128.901 41.3688 129.504 42.7084C129.72 43.2182 129.978 43.7063 130.274 44.1667C131.045 45.3417 131.592 45.5626 131.815 46.4584C131.879 46.7147 131.857 47.1147 131.815 47.9167C131.721 49.6792 131.511 49.9605 131.622 50.6251C131.784 51.5813 132.422 52.1876 132.971 52.7084C133.519 53.2292 135.031 54.6647 136.822 54.1667C137.864 53.8772 138.841 52.9772 139.133 51.8751C139.226 51.5292 139.195 51.0876 139.133 50.2084C138.989 48.1501 138.644 47.6001 138.941 46.6667C139.083 46.2209 139.197 46.2334 139.711 45.4167C140.362 44.3751 140.674 43.5688 141.252 42.0834C142.361 39.2147 142.215 38.5251 142.022 38.1251C142.022 38.1251 141.891 37.9167 141.637 37.5001C140.894 36.2959 140.728 36.0417 140.674 35.6251C140.607 35.0938 140.801 34.9626 140.674 34.7917C140.374 34.3897 139.264 35.0813 137.208 35.6251C135.089 36.1855 134.556 35.9042 134.319 35.6251C134.082 35.3459 134.084 34.9647 133.741 34.7917C133.398 34.6188 133.144 34.848 132.585 35.0001C131.33 35.3397 130.771 34.7063 130.082 35.2084C129.874 35.3584 129.748 35.5897 129.504 36.0417C129.09 36.8084 128.68 37.5709 128.541 38.5417Z" fill="white"/>
<path d="M134.704 69.5834C135.645 69.2105 136.115 69.0251 136.63 68.9584C136.724 68.9459 138.276 68.7709 139.519 69.7917C140.046 70.267 140.501 70.8295 140.867 71.4584C141.283 72.1188 141.589 72.7959 142.215 72.9167C142.343 72.9348 142.472 72.9348 142.6 72.9167C143.417 72.8542 143.948 72.5334 144.526 72.2917C145.024 72.0944 145.541 71.9547 146.067 71.8751C147.139 71.6792 148.222 71.4813 148.763 72.0834C148.94 72.2792 149.017 72.5146 149.341 72.7084C149.664 72.9021 149.919 72.8396 150.111 72.9167C151.074 73.2834 150.747 76.8625 149.919 78.5417C149.788 78.8075 149.586 79.0251 149.341 79.1667C148.819 79.5021 148.272 79.4105 147.8 79.375C146.806 79.3 146.879 79.5334 145.489 79.5834C143.948 79.6396 141.406 79.7313 140.867 78.5417C140.743 78.2709 140.611 77.6834 140.096 77.2917C139.981 77.1968 139.85 77.1261 139.711 77.0834C139.27 76.9563 138.868 77.1917 138.363 77.5C137.036 78.3063 137.177 78.2605 137.015 78.3334C136.321 78.6417 134.977 78.9105 133.933 78.3334C133.702 78.2063 133.548 78.0667 133.356 78.125C132.864 78.2688 133.03 79.3584 132.585 79.5834C132.007 79.8771 130.748 78.5209 130.081 77.2917C129.635 76.4652 129.372 75.5383 129.311 74.5834C129.251 73.8021 129.207 73.2438 129.504 72.7084C129.8 72.173 130.095 72.2709 131.43 71.4584C132.51 70.8001 132.699 70.5063 133.741 70.0001C134.126 69.8105 134.467 69.6771 134.704 69.5834Z" fill="white"/>
<path d="M130.467 186.042C130.523 186.042 130.557 186.129 130.659 186.25C131.106 186.785 131.925 186.725 132.585 186.667C132.874 186.642 134.386 186.508 135.089 186.25C135.15 186.221 135.215 186.207 135.282 186.207C135.348 186.207 135.413 186.221 135.474 186.25C135.532 186.3 135.579 186.364 135.612 186.436C135.646 186.508 135.664 186.586 135.667 186.667C135.78 187.571 135.99 188.465 136.052 189.375C136.069 189.64 136.127 190.177 136.245 191.25C136.374 192.437 136.414 192.69 136.63 192.917C136.957 193.265 136.971 193.415 137.689 193.854C137.962 194.038 138.509 194.768 138.748 195C139.835 195.927 140.378 195.556 140.674 195.417C140.753 195.379 140.867 195.29 141.059 193.75C141.213 192.575 141.042 192.125 141.445 191.562C141.637 191.308 141.863 191.25 142.022 191.042C142.704 190.142 142.282 188.75 142.215 185.833C142.215 185.546 142.198 185.123 142.408 185C142.704 184.827 143.068 185.475 143.948 185.833C144.688 186.133 145.433 186.083 146.067 186.042C146.968 185.981 147.326 185.775 147.608 186.042C147.889 186.308 147.837 186.71 147.8 187.292C147.584 190.792 147.633 190.431 147.608 190.625C147.415 192.175 147.259 192.729 147.608 193.333C147.7 193.494 147.8 193.594 148.185 193.958C149.341 195.031 149.58 195.108 150.111 195.625C151.201 196.681 151.12 196.629 152.326 197.812C152.657 198.137 153.193 198.86 153.193 199.167C153.179 199.856 151.298 200.127 151.074 200.208C149.148 199.896 148.838 199.827 146.259 200C145.416 200.067 144.579 200.206 143.756 200.417C143.241 200.55 142.899 200.669 142.408 200.833C140.574 201.458 139.272 200.715 138.748 200.833C136.114 201.433 133.275 200.54 132.585 200.208C131.803 199.831 132.115 200.34 131.622 199.583C131.045 198.692 131.106 197.854 131.045 196.25C130.948 193.769 130.748 194.637 130.467 190.417C130.353 188.727 130.184 186.092 130.467 186.042Z" fill="#FF7700"/>
<path d="M97.1077 35.2564C96.8477 37.2085 97.2405 39.4439 98.3845 41.0189C98.6465 41.3793 99.1857 41.0522 98.9623 40.6376C98.5074 39.8478 98.1585 38.992 97.9262 38.096C97.7219 37.1915 97.6568 36.2567 97.7336 35.3293C97.7605 34.9564 97.1712 34.8835 97.1211 35.2564H97.1077Z" fill="#010012"/>
<path d="M99.8715 37.7791C100.18 39.6946 100.911 41.5013 102.003 43.0458C102.254 43.3854 102.787 43.0624 102.55 42.6812C101.564 41.1395 100.846 39.4162 100.432 37.5958C100.347 37.1958 99.8041 37.3874 99.8715 37.7791Z" fill="#010012"/>
<path d="M112.812 30.8959C110.619 35.3193 108.963 40.0304 107.885 44.9126C107.559 46.2727 107.318 47.655 107.163 49.0501C107.126 49.448 107.71 49.4939 107.797 49.1272C108.084 47.923 108.286 46.6959 108.567 45.4897C108.848 44.2834 109.126 43.1418 109.445 41.9793C110.092 39.6267 110.856 37.3136 111.733 35.0501C112.235 33.757 112.771 32.4772 113.341 31.2105C113.511 30.8355 112.997 30.5251 112.814 30.8959H112.812Z" fill="#010012"/>
<path d="M95.122 35.1104C94.9463 32.9292 95.2546 30.734 96.0214 28.7077C96.7882 26.6813 97.9912 24.8824 99.5305 23.4605C102.623 20.6125 106.922 19.9188 110.747 21.248C111.801 21.614 112.806 22.1303 113.734 22.7834C114.669 23.4672 115.531 24.2601 116.305 25.148C116.606 25.4813 117.16 25.0146 116.9 24.625C115.643 22.75 113.726 21.4292 111.743 20.6042C109.751 19.7746 107.604 19.4717 105.482 19.7209C103.342 19.969 101.303 20.8322 99.5767 22.2209C97.8567 23.6242 96.478 25.4588 95.5592 27.5667C94.5423 29.9084 94.0782 32.5521 94.4364 35.125C94.4417 35.222 94.4809 35.3131 94.546 35.38C94.611 35.4469 94.6971 35.4846 94.7869 35.4854C94.8775 35.4822 94.9633 35.4407 95.0259 35.3698C95.0886 35.2989 95.1231 35.2043 95.122 35.1063V35.1104Z" fill="#010012"/>
<path d="M118.561 26.85C119.31 28.2604 120.142 29.7437 120.175 31.4187C120.201 32.8187 119.531 34.2146 118.249 34.6542C117.833 34.7958 118.031 35.4167 118.441 35.3375C120.015 35.0354 120.895 33.2812 120.945 31.6792C120.997 29.7542 120.051 28.0417 119.056 26.5292C119.014 26.4644 118.952 26.4193 118.881 26.4031C118.81 26.3869 118.736 26.4008 118.674 26.442C118.612 26.4832 118.567 26.5485 118.549 26.6244C118.53 26.7004 118.539 26.7811 118.574 26.85H118.561Z" fill="#010012"/>
<path d="M117.409 35.8332C117.067 36.3613 116.752 36.9086 116.463 37.4728C116.219 37.952 115.845 38.5561 116.194 39.0853C116.303 39.2343 116.438 39.3583 116.592 39.4499C116.664 39.4957 116.739 39.5353 116.81 39.5811C116.881 39.627 116.939 39.6811 116.953 39.6853C116.966 39.6895 116.966 39.7457 116.953 39.6999C116.933 39.5791 116.953 39.6749 116.937 39.6999C116.868 39.752 116.808 39.977 116.768 40.0666C116.65 40.3145 116.535 40.5624 116.415 40.8082C115.506 42.6832 114.416 44.652 112.729 45.8228C112.269 46.1436 111.81 46.2936 111.279 46.0749C110.747 45.8561 110.3 45.3811 109.867 44.9666C109.783 44.9069 109.683 44.8808 109.583 44.8929C109.484 44.9049 109.391 44.9543 109.321 45.0325C109.252 45.1107 109.21 45.2127 109.203 45.3209C109.195 45.4291 109.223 45.5367 109.282 45.6249C110.052 46.477 111.088 47.3041 112.248 47.0374C112.802 46.9103 113.297 46.5186 113.734 46.1416C114.157 45.778 114.548 45.3735 114.903 44.9332C115.602 44.0357 116.207 43.0576 116.708 42.0165C116.964 41.502 117.209 40.9749 117.451 40.454C117.596 40.2145 117.688 39.9423 117.721 39.6582C117.718 39.5433 117.693 39.4302 117.648 39.3265C117.602 39.2227 117.536 39.1306 117.455 39.0561C117.286 38.9207 117.107 38.8002 116.92 38.6957C116.87 38.6603 116.808 38.6228 116.795 38.5686C116.814 38.6499 116.822 38.5166 116.827 38.4936C116.863 38.3929 116.905 38.2948 116.953 38.1999C117.261 37.5041 117.598 36.8207 117.956 36.1561C118.164 35.7728 117.632 35.4791 117.409 35.8291V35.8332Z" fill="#010012"/>
<path d="M115.93 37.198C115.888 37.1583 115.845 37.1214 115.799 37.0876L115.866 37.1397C115.819 37.0968 115.767 37.0617 115.71 37.0355C115.653 37.0062 115.593 36.9838 115.531 36.9688C115.4 36.9417 115.264 36.9459 115.134 36.9813C115.098 36.993 115.063 37.0091 115.03 37.0293C114.971 37.0699 114.922 37.1257 114.888 37.1918L114.855 37.2438C114.835 37.2803 114.817 37.3187 114.803 37.3584C114.744 37.501 114.71 37.6544 114.703 37.8105C114.701 37.8712 114.715 37.9312 114.743 37.9834C114.761 38.0383 114.791 38.0873 114.832 38.1251C114.871 38.1667 114.918 38.1992 114.969 38.2207C115.021 38.2422 115.075 38.2522 115.13 38.2501C115.199 38.2431 115.266 38.2299 115.333 38.2105C115.399 38.1886 115.464 38.16 115.525 38.1251C115.611 38.0744 115.69 38.009 115.756 37.9313C115.824 37.8545 115.881 37.7666 115.924 37.6709C115.985 37.5418 116.019 37.3994 116.022 37.2543C116.024 37.2363 116.024 37.2181 116.022 37.2001V37.1376C116.018 37.0763 115.998 37.0174 115.966 36.9668C115.926 36.8978 115.871 36.8411 115.805 36.8022C115.752 36.7682 115.695 36.7429 115.635 36.7272C115.517 36.6938 115.393 36.6938 115.275 36.7272C115.072 36.7936 114.9 36.9431 114.797 37.1438C114.732 37.2623 114.697 37.3975 114.695 37.5355C114.694 37.6061 114.703 37.6764 114.722 37.7438C114.743 37.83 114.786 37.9084 114.845 37.9707C114.904 38.0331 114.977 38.077 115.057 38.098C115.164 38.1241 115.275 38.1055 115.369 38.0459L115.45 37.9751C115.498 37.9196 115.532 37.8524 115.55 37.7792L115.512 37.8876C115.529 37.8477 115.544 37.8067 115.556 37.7647C115.576 37.6814 115.576 37.5938 115.556 37.5105L115.545 37.4584L115.564 37.5813C115.561 37.5564 115.561 37.5312 115.564 37.5063L115.552 37.6292C115.556 37.6021 115.562 37.5755 115.572 37.5501L115.531 37.6626C115.543 37.6317 115.558 37.6024 115.575 37.5751L115.51 37.6709C115.53 37.6421 115.554 37.6155 115.579 37.5918L115.494 37.6668C115.52 37.6441 115.549 37.6252 115.579 37.6105L115.477 37.6584C115.503 37.6466 115.53 37.6375 115.558 37.6313L115.444 37.6522C115.467 37.649 115.491 37.649 115.514 37.6522L115.4 37.6397C115.421 37.6423 115.442 37.6479 115.462 37.6563L115.358 37.6105L115.406 37.6376L115.184 37.2459C115.184 37.2668 115.184 37.2876 115.184 37.3084L115.198 37.1855C115.192 37.2332 115.181 37.28 115.165 37.3251L115.206 37.2147C115.188 37.265 115.164 37.3126 115.134 37.3563L115.198 37.2605C115.164 37.3092 115.126 37.3532 115.082 37.3917L115.167 37.3167C115.131 37.3501 115.09 37.3775 115.046 37.398L115.146 37.3501C115.108 37.3683 115.068 37.3816 115.026 37.3897L115.566 37.8063C115.562 37.7578 115.562 37.709 115.566 37.6605L115.554 37.7792C115.561 37.7122 115.576 37.6463 115.598 37.5834L115.562 37.6855C115.572 37.6577 115.583 37.6305 115.597 37.6042L115.371 37.8126C115.427 37.7847 115.486 37.7651 115.546 37.7542L115.45 37.7709C115.504 37.7636 115.558 37.7636 115.612 37.7709H115.521L115.658 37.7876H115.572C115.606 37.7876 115.641 37.7876 115.677 37.8001H115.591C115.619 37.8058 115.646 37.8134 115.674 37.823H115.754C115.795 37.8261 115.836 37.8151 115.87 37.7917C115.931 37.7649 115.981 37.7163 116.013 37.6543C116.044 37.5902 116.056 37.517 116.045 37.4453C116.035 37.3736 116.004 37.3074 115.957 37.2563L115.93 37.198Z" fill="#010012"/>
<path d="M128.271 28.1582C127.638 27.3853 126.571 27.2561 125.7 27.5811C124.766 27.9291 124.067 28.7499 123.56 29.6416C122.486 31.527 122.06 34.2249 123.645 35.9499C124.387 36.7541 125.679 37.2186 126.653 36.6457C126.96 36.4666 126.813 35.8666 126.461 35.9186C125.731 36.0207 125.005 35.9603 124.417 35.4207C124.13 35.1431 123.896 34.8059 123.731 34.4292C123.565 34.0524 123.472 33.6436 123.454 33.227C123.422 32.2667 123.635 31.3152 124.069 30.477C124.431 29.7228 124.912 28.9916 125.61 28.5603C126.307 28.1291 127.212 28.1186 127.834 28.6686C127.898 28.7243 127.979 28.752 128.061 28.7463C128.143 28.7405 128.22 28.7017 128.276 28.6375C128.333 28.5733 128.365 28.4884 128.367 28.3996C128.368 28.3109 128.339 28.2247 128.285 28.1582H128.271Z" fill="#010012"/>
<path d="M131.74 31.798C129.98 34.0841 128.678 36.741 127.917 39.6001C127.704 40.4093 127.539 41.2325 127.424 42.0647C127.368 42.4667 127.928 42.6313 128.002 42.2209C128.623 38.5772 130.044 35.148 132.144 32.2209C132.364 31.9209 131.971 31.5063 131.742 31.8042L131.74 31.798Z" fill="#010012"/>
<path d="M137.388 30.1437C136.725 31.099 136.018 32.0175 135.27 32.8958C134.524 33.775 133.729 34.5896 132.941 35.4333C132.712 35.6812 133.042 36.1437 133.307 35.9187C135.077 34.4312 136.57 32.4958 137.851 30.5187C138.043 30.225 137.579 29.8542 137.379 30.1437H137.388Z" fill="#010012"/>
<path d="M142.825 31.5751C142.237 32.241 141.615 32.8718 140.963 33.4646C140.653 33.7459 140.335 34.0209 140.012 34.2834C139.657 34.5709 139.287 34.8396 138.956 35.1563C138.9 35.218 138.867 35.3006 138.864 35.3874C138.861 35.4743 138.888 35.5591 138.941 35.6251C138.991 35.6897 139.061 35.7331 139.138 35.7476C139.215 35.7621 139.295 35.7467 139.362 35.7042C139.738 35.487 140.092 35.2309 140.422 34.9396C140.774 34.648 141.118 34.3438 141.454 34.0271C142.1 33.4107 142.707 32.7473 143.27 32.0417C143.319 31.9766 143.343 31.894 143.338 31.8103C143.334 31.7267 143.3 31.6481 143.243 31.5902C143.187 31.5324 143.113 31.4996 143.036 31.4983C142.958 31.4971 142.883 31.5274 142.825 31.5834V31.5751Z" fill="#010012"/>
<path d="M128.797 27.9896C129.997 26.1095 131.748 24.7227 133.768 24.0542C135.862 23.3774 138.088 23.3392 140.2 23.9437C142.177 24.4868 143.948 25.6842 145.266 27.3687C146.499 28.9483 147.175 30.9492 147.174 33.0167C147.15 34.1512 146.904 35.2674 146.453 36.2915C146.001 37.3157 145.353 38.2246 144.553 38.9583C144.21 39.2729 144.688 39.9083 145.054 39.6208C146.752 38.2854 147.733 36.125 147.954 33.8917C148.145 31.637 147.573 29.384 146.346 27.55C145.072 25.6283 143.269 24.1923 141.194 23.4479C138.973 22.6595 136.593 22.5521 134.319 23.1375C131.84 23.7625 129.644 25.3396 128.308 27.7C128.115 28.0354 128.597 28.3021 128.795 27.9896H128.797Z" fill="#010012"/>
<path d="M129.504 43.0355C131.089 45.2563 132.5 48.1918 135.318 48.7084C135.936 48.8304 136.572 48.7825 137.168 48.5692C137.765 48.3559 138.302 47.984 138.731 47.4876C139.634 46.4709 140.196 45.1022 140.682 43.8168C140.998 42.9834 141.26 42.1188 141.52 41.2605C141.807 40.4002 142.001 39.5067 142.097 38.598C142.12 38.273 141.701 38.2855 141.612 38.5397C141.36 39.2626 141.186 40.0251 140.978 40.7626C140.779 41.4702 140.544 42.1657 140.275 42.8459C139.794 44.0563 139.312 45.3459 138.592 46.4105C137.914 47.4105 136.953 48.1001 135.771 48.0168C134.588 47.9334 133.529 47.2168 132.71 46.3501C131.657 45.2397 130.875 43.8709 129.92 42.6668C129.727 42.4251 129.342 42.7668 129.513 43.023L129.504 43.0355Z" fill="#010012"/>
<path d="M136.372 37.4043C136.141 38.056 136.011 38.7444 135.986 39.4418C135.947 39.719 136.003 40.0023 136.144 40.2376C136.337 40.4876 136.601 40.4855 136.874 40.4647C137.29 40.4313 137.155 41.1043 137.084 41.3751C137.003 41.6855 136.891 41.9852 136.749 42.2688C136.609 42.5543 136.412 42.8063 136.273 43.1022C136.232 43.1766 136.217 43.265 136.233 43.3503C136.248 43.4356 136.292 43.5117 136.357 43.5637C136.421 43.6157 136.501 43.6399 136.581 43.6316C136.661 43.6233 136.735 43.5831 136.79 43.5188C137.236 43.1022 137.514 42.373 137.689 41.7834C137.839 41.2813 137.928 40.698 137.689 40.2105C137.637 40.1051 137.565 40.0124 137.478 39.9386C137.392 39.8647 137.291 39.8111 137.184 39.7813C137.057 39.7566 136.927 39.7566 136.799 39.7813C136.763 39.7813 136.618 39.7813 136.641 39.8105C136.664 39.8397 136.641 39.7376 136.641 39.7105C136.596 38.9842 136.683 38.2553 136.895 37.5647C136.992 37.2084 136.51 37.1001 136.389 37.4293L136.372 37.4043Z" fill="#010012"/>
<path d="M137.874 38.4397C138.214 38.7401 138.64 38.9035 139.079 38.9022C139.289 38.9018 139.496 38.863 139.694 38.7877C139.934 38.7234 140.144 38.5654 140.283 38.3439C140.311 38.2899 140.322 38.2282 140.317 38.1669C140.311 38.1056 140.289 38.0474 140.252 38.0002C140.216 37.9528 140.168 37.9179 140.113 37.8994C140.059 37.8809 140.001 37.8797 139.946 37.896C139.851 37.9218 139.759 37.9625 139.675 38.0168C139.626 38.0418 139.744 37.9856 139.659 38.0168L139.607 38.0418L139.499 38.0856C139.457 38.1002 139.416 38.1127 139.374 38.1231L139.316 38.1377C139.316 38.1377 139.249 38.1522 139.291 38.1377C139.334 38.1231 139.26 38.1377 139.251 38.1377H139.193H139.062H138.941H138.883C138.85 38.1377 138.823 38.1377 138.871 38.1377C138.791 38.1252 138.71 38.1106 138.629 38.0897C138.592 38.0897 138.554 38.071 138.517 38.0585L138.45 38.0335C138.37 37.9975 138.293 37.9543 138.22 37.9043C138.158 37.8673 138.085 37.8561 138.016 37.8727C137.946 37.8894 137.884 37.9327 137.842 37.9948C137.8 38.0568 137.78 38.1333 137.785 38.2102C137.791 38.287 137.823 38.3589 137.874 38.4127V38.4397Z" fill="#010012"/>
<path d="M131.412 38.3145C131.644 38.5261 131.913 38.6838 132.203 38.7781C132.494 38.8724 132.799 38.9011 133.1 38.8625C133.413 38.8244 133.718 38.7256 133.999 38.5708C134.247 38.4333 134.577 38.2083 134.685 37.9166C134.714 37.8542 134.724 37.7831 134.713 37.714C134.702 37.6449 134.671 37.5814 134.624 37.5331C134.577 37.4849 134.517 37.4543 134.452 37.4461C134.388 37.4379 134.323 37.4524 134.267 37.4875C134.166 37.5568 134.071 37.6356 133.984 37.7229C133.887 37.8018 133.783 37.8716 133.675 37.9312C133.481 38.0294 133.275 38.0955 133.063 38.127C132.605 38.1932 132.139 38.0897 131.742 37.8333C131.472 37.6583 131.164 38.0937 131.412 38.3187V38.3145Z" fill="#010012"/>
<path d="M131.474 47.2562C131.331 47.9996 131.231 48.7517 131.173 49.5083C131.148 49.8708 131.129 50.2374 131.127 50.602C131.102 50.9941 131.121 51.388 131.185 51.7749C131.203 51.836 131.239 51.8889 131.288 51.9259C131.336 51.9629 131.395 51.9821 131.454 51.9804C131.513 51.9788 131.57 51.9565 131.617 51.9168C131.664 51.8772 131.697 51.8223 131.713 51.7604C131.752 51.3988 131.764 51.0344 131.749 50.6708C131.759 50.3041 131.77 49.9395 131.792 49.5749C131.834 48.8458 131.898 48.1166 131.998 47.3958C132.048 47.0333 131.545 46.8833 131.474 47.2562Z" fill="#010012"/>
<path d="M132.165 52.7667C133.051 54.0167 134.476 54.8188 135.95 54.6417C137.265 54.4917 138.606 53.6 139.122 52.2396C139.257 51.8834 138.802 51.5875 138.623 51.9438C138.359 52.4935 137.971 52.9618 137.494 53.305C137.018 53.6482 136.468 53.8551 135.898 53.9063C135.279 53.9363 134.661 53.8119 134.094 53.5428C133.526 53.2736 133.023 52.867 132.624 52.3542C132.404 52.0792 131.955 52.4667 132.161 52.7584L132.165 52.7667Z" fill="#010012"/>
<path d="M129.009 54.1042C128.431 54.6312 127.853 55.1708 127.303 55.7312C127.025 56.0104 126.744 56.2896 126.482 56.5854C126.27 56.8229 126.072 57.1458 126.184 57.4896C126.295 57.8333 126.671 58.0292 126.933 58.2125C127.233 58.4208 127.545 58.6125 127.863 58.7896C128.487 59.1333 129.175 59.5 129.868 59.6229C130.205 59.6854 130.446 59.1771 130.099 58.9979C129.562 58.7042 128.984 58.4979 128.441 58.2146C128.167 58.0729 127.901 57.9208 127.636 57.7604C127.493 57.6729 127.349 57.5854 127.206 57.4937C127.068 57.429 126.939 57.3449 126.821 57.2437C126.775 57.1875 126.794 57.2791 126.806 57.2187C126.817 57.1583 126.896 57.0854 126.927 57.0479C127.035 56.9208 127.15 56.7979 127.262 56.675C127.485 56.425 127.711 56.1812 127.94 55.9375C128.406 55.4403 128.883 54.9542 129.371 54.4792C129.614 54.2417 129.25 53.8854 129.005 54.1062L129.009 54.1042Z" fill="#010012"/>
<path d="M126.782 61.0604C128.13 63.1854 129.479 65.3271 130.885 67.4083C131.125 67.7625 131.655 67.4271 131.43 67.0458C130.149 64.8729 128.72 62.7771 127.256 60.7437C127.042 60.4458 126.574 60.7333 126.782 61.0604Z" fill="#010012"/>
<path d="M145.177 56.5252C144.359 57.839 143.542 59.1585 142.727 60.4835C141.914 61.8002 141.077 63.1064 140.337 64.4731C140.127 64.8647 140.661 65.146 140.892 64.8022C141.754 63.5231 142.527 62.1689 143.318 60.8439C144.11 59.5189 144.896 58.1752 145.681 56.8397C145.874 56.4981 145.381 56.2147 145.177 56.5397V56.5252Z" fill="#010012"/>
<path d="M143.848 50.1958C144.053 50.4979 144.298 50.7654 144.576 50.9896C144.884 51.275 145.194 51.5542 145.504 51.8333C146.114 52.3889 146.727 52.9354 147.342 53.4729L147.48 52.8479C146.072 53.5167 144.63 54.0875 143.185 54.6563C143.117 54.6888 143.063 54.7473 143.032 54.8205C143.001 54.8938 142.996 54.9768 143.018 55.0539C143.039 55.1309 143.087 55.1966 143.15 55.2385C143.214 55.2804 143.289 55.2956 143.363 55.2813C144.838 54.8189 146.281 54.2453 147.683 53.5646C147.9 53.4604 148.047 53.1313 147.823 52.9396C147.22 52.4021 146.619 51.8688 146.015 51.3375C145.71 51.0708 145.41 50.8042 145.104 50.5438C144.82 50.3182 144.548 50.0762 144.289 49.8188C144.238 49.768 144.172 49.7387 144.103 49.7362C144.034 49.7338 143.967 49.7584 143.913 49.8055C143.86 49.8527 143.823 49.9191 143.811 49.9928C143.799 50.0664 143.812 50.1422 143.848 50.2063V50.1958Z" fill="#010012"/>
<path d="M121.889 76.2312C123.454 75.5166 125.009 74.7728 126.572 74.0562C127.357 73.6951 128.141 73.3388 128.926 72.9874C129.708 72.6374 130.509 72.3207 131.27 71.9145C131.607 71.7353 131.351 71.1457 131 71.2687C130.195 71.5562 129.417 71.9499 128.637 72.3103C127.857 72.6707 127.071 73.0353 126.291 73.4041C124.737 74.1374 123.187 74.8853 121.659 75.6957C121.378 75.8437 121.596 76.377 121.889 76.2416V76.2312Z" fill="#010012"/>
<path d="M128.957 73.7791C128.94 75.221 129.276 76.6419 129.931 77.8978C130.549 79.102 131.507 80.3499 132.687 80.9291C132.991 81.0791 133.355 80.6437 133.057 80.3833C132.567 79.9851 132.1 79.5558 131.657 79.0978C131.232 78.6249 130.861 78.0982 130.553 77.5291C129.934 76.3823 129.578 75.0911 129.517 73.7645C129.51 73.6884 129.476 73.6181 129.423 73.5675C129.37 73.517 129.301 73.4899 129.231 73.4918C129.16 73.4936 129.092 73.5242 129.042 73.5775C128.991 73.6307 128.961 73.7027 128.957 73.7791Z" fill="#010012"/>
<path d="M132.425 71.0416C133.269 70.558 134.137 70.1234 135.024 69.7396C135.817 69.4062 136.661 69.1146 137.527 69.1312C138.425 69.1583 139.056 69.6729 139.646 70.3625C140.324 71.1625 140.963 72.0062 141.683 72.7625C141.951 73.0437 142.454 72.6375 142.207 72.3021C141.678 71.575 141.084 70.9021 140.511 70.2187C140.01 69.6208 139.505 68.9687 138.802 68.6458C137.408 68.0041 135.859 68.5666 134.552 69.1875C133.727 69.5913 132.924 70.0441 132.146 70.5437C131.84 70.7354 132.125 71.2166 132.433 71.0437L132.425 71.0416Z" fill="#010012"/>
<path d="M139.295 72.2417C139.79 72.7224 140.254 73.2403 140.682 73.7917C140.886 74.0521 141.077 74.325 141.26 74.6021C141.452 74.9105 141.645 75.2271 141.864 75.5209C142.084 75.8146 142.506 75.4834 142.392 75.1688C142.251 74.8148 142.067 74.4822 141.847 74.1792C141.64 73.875 141.423 73.5792 141.196 73.2917C140.749 72.7333 140.254 72.2227 139.717 71.7667C139.657 71.7093 139.58 71.6787 139.5 71.681C139.42 71.6834 139.344 71.7185 139.287 71.7792C139.232 71.8422 139.203 71.926 139.204 72.0126C139.206 72.0992 139.239 72.1815 139.297 72.2417H139.295Z" fill="#010012"/>
<path d="M139.285 74.5834C139.522 74.9688 139.753 75.3584 139.99 75.7438C140.215 76.1569 140.481 76.5425 140.782 76.8938C140.831 76.9426 140.893 76.973 140.959 76.9805C141.026 76.988 141.092 76.9722 141.15 76.9355C141.207 76.8979 141.251 76.8409 141.274 76.7733C141.298 76.7058 141.3 76.6316 141.281 76.5626C141.079 76.1372 140.837 75.7364 140.557 75.3668C140.299 74.9938 140.037 74.6272 139.786 74.2543C139.766 74.2192 139.74 74.1888 139.709 74.1647C139.678 74.1406 139.643 74.1234 139.606 74.1139C139.569 74.1044 139.531 74.1029 139.493 74.1095C139.456 74.1161 139.42 74.1306 139.388 74.1522C139.355 74.1738 139.327 74.2021 139.305 74.2354C139.283 74.2688 139.267 74.3066 139.258 74.3467C139.249 74.3867 139.248 74.4282 139.254 74.4688C139.26 74.5095 139.273 74.5484 139.293 74.5834H139.285Z" fill="#010012"/>
<path d="M132.065 76.9834C132.866 77.9584 133.777 78.9147 135.056 78.9751C136.335 79.0355 137.498 78.2001 138.667 77.7397C138.709 77.726 138.748 77.7035 138.782 77.6735C138.816 77.6435 138.844 77.6065 138.865 77.5647C138.886 77.523 138.899 77.4772 138.903 77.43C138.908 77.3828 138.903 77.3351 138.891 77.2897C138.878 77.2443 138.857 77.202 138.83 77.1653C138.802 77.1286 138.768 77.0981 138.729 77.0757C138.69 77.0532 138.648 77.0392 138.604 77.0345C138.561 77.0298 138.517 77.0343 138.475 77.048C137.375 77.3543 136.356 78.1397 135.201 78.1709C134.082 78.2001 133.246 77.2814 132.514 76.4834C132.221 76.1626 131.801 76.6543 132.073 76.9834H132.065Z" fill="#010012"/>
<path d="M139.251 77.0834C140.098 77.9604 140.555 79.2875 141.685 79.8292C142.365 80.1563 143.12 80.1646 143.85 80.1479C144.628 80.1317 145.405 80.0621 146.175 79.9396C147.054 79.8121 147.919 79.5887 148.757 79.2729C148.838 79.2453 148.905 79.1843 148.944 79.1032C148.982 79.0221 148.99 78.9277 148.964 78.8407C148.939 78.7536 148.882 78.6811 148.807 78.6391C148.732 78.5971 148.645 78.5891 148.565 78.6167C146.745 79.0604 144.905 79.4667 143.033 79.3792C142.612 79.3784 142.196 79.2707 141.82 79.0646C141.535 78.8812 141.279 78.649 141.063 78.3771C140.582 77.8 140.187 77.1563 139.625 76.6584C139.351 76.4146 138.977 76.8209 139.239 77.0938L139.251 77.0834Z" fill="#010012"/>
<path d="M142.837 74.1665C143.937 74.9853 145.393 75.4165 146.714 75.0999C147.07 75.0145 146.97 74.404 146.614 74.4228C146.012 74.4692 145.407 74.4327 144.813 74.3145C144.219 74.1769 143.652 73.9296 143.135 73.5832C143.1 73.562 143.061 73.5486 143.021 73.5436C142.981 73.5387 142.94 73.5424 142.901 73.5545C142.862 73.5666 142.826 73.5868 142.794 73.6141C142.763 73.6414 142.736 73.6751 142.717 73.7134C142.697 73.7517 142.684 73.7938 142.68 73.8373C142.675 73.8808 142.679 73.9249 142.69 73.9669C142.701 74.009 142.72 74.0483 142.745 74.0826C142.77 74.1168 142.801 74.1453 142.837 74.1665Z" fill="#010012"/>
<path d="M144.249 73.0188C145.026 72.4725 145.914 72.1392 146.837 72.048C147.484 71.9875 148.57 71.9167 148.913 72.673C149.069 73.0188 149.585 72.7584 149.478 72.4C149.154 71.3355 147.892 71.2459 147.024 71.3146C145.921 71.4009 144.862 71.8163 143.964 72.5146C143.682 72.7355 143.952 73.2271 144.253 73.0188H144.249Z" fill="#010012"/>
<path d="M149.843 73.5542C150.239 74.7481 150.306 76.0408 150.036 77.275C149.757 78.5396 149.138 79.5771 148.351 80.5354C148.133 80.7979 148.441 81.2667 148.726 81.0354C149.761 80.2021 150.415 78.8396 150.704 77.4938C151.011 76.1195 150.914 74.6759 150.425 73.3646C150.281 72.9875 149.714 73.1563 149.847 73.5521L149.843 73.5542Z" fill="#010012"/>
<path d="M150.627 72.5999C152.168 72.2666 153.709 72.1041 155.261 71.8999C155.668 71.8479 155.671 71.1854 155.244 71.1999C153.629 71.2926 152.027 71.5663 150.464 72.0166C150.107 72.1104 150.271 72.6749 150.627 72.5999Z" fill="#010012"/>
<path d="M159.188 68.6853C159.3 72.1936 159.381 75.7103 159.278 79.2186C159.255 80.0811 159.223 80.9436 159.182 81.8061C159.19 82.1842 159.118 82.5591 158.97 82.902C158.824 83.1675 158.613 83.3839 158.36 83.527C157.749 83.8957 156.992 83.8853 156.32 83.7728C155.567 83.6457 154.832 83.4124 154.094 83.2124L151.438 82.4874C150.537 82.2395 149.639 81.9791 148.724 81.802C148.644 81.7941 148.564 81.8177 148.499 81.8685C148.433 81.9194 148.387 81.994 148.368 82.0788C148.349 82.1636 148.359 82.2528 148.397 82.3301C148.434 82.4075 148.495 82.4677 148.57 82.4999C150.196 83.0728 151.887 83.4582 153.543 83.9103C154.335 84.1186 155.124 84.3707 155.927 84.5353C156.698 84.6874 157.516 84.7436 158.269 84.4603C158.591 84.3526 158.889 84.1716 159.141 83.9294C159.393 83.6872 159.594 83.3895 159.731 83.0561C159.858 82.6629 159.923 82.2496 159.924 81.8332C159.941 81.3707 159.953 80.9082 159.964 80.4457C160.01 78.6124 160.021 76.7791 159.997 74.9457C159.964 72.8499 159.872 70.7603 159.696 68.6728C159.69 68.6059 159.66 68.5441 159.613 68.4997C159.566 68.4554 159.506 68.4316 159.444 68.4332C159.381 68.4348 159.322 68.4615 159.277 68.5082C159.232 68.5549 159.205 68.6181 159.201 68.6853H159.188Z" fill="#010012"/>
<path d="M119.206 86.6666C119.962 87.4737 120.775 88.2169 121.636 88.8895C122.045 89.2471 122.494 89.5487 122.971 89.7874C123.211 89.8828 123.466 89.9247 123.721 89.9107C123.976 89.8968 124.226 89.8272 124.456 89.7062C125.419 89.2541 126.316 88.5645 127.17 87.9124C128.023 87.2604 128.884 86.5312 129.708 85.7958C130.651 84.9929 131.552 84.1325 132.404 83.2187C132.657 82.9353 132.298 82.4228 131.99 82.6708C131.183 83.3208 130.449 84.0729 129.679 84.7749C128.909 85.477 128.138 86.1624 127.324 86.8083C126.528 87.4474 125.702 88.0412 124.849 88.5874C124.464 88.8333 124.019 89.1624 123.553 89.1395C123.087 89.1166 122.676 88.7228 122.314 88.4687C121.365 87.79 120.463 87.0351 119.618 86.2103C119.562 86.1526 119.487 86.1213 119.41 86.1232C119.333 86.1252 119.259 86.1603 119.206 86.2208C119.152 86.2813 119.124 86.3622 119.125 86.4458C119.127 86.5295 119.16 86.6089 119.215 86.6666H119.206Z" fill="#010012"/>
<path d="M133.178 99.8604C134.569 99.9062 135.959 99.9145 137.35 99.9249C138.74 99.9354 140.133 99.9708 141.521 99.9249C141.945 99.9104 141.924 99.2354 141.504 99.2187C140.115 99.1708 138.723 99.2062 137.334 99.2187C135.946 99.2312 134.553 99.2374 133.165 99.2833C133.093 99.2852 133.025 99.3178 132.976 99.3739C132.927 99.4299 132.9 99.5049 132.902 99.5822C132.904 99.6596 132.934 99.733 132.986 99.7863C133.037 99.8397 133.107 99.8685 133.178 99.8666V99.8604Z" fill="#010012"/>
<path d="M135.983 118.294C137.76 119.081 139.505 119.942 141.262 120.794C141.614 120.963 141.907 120.421 141.556 120.217C139.833 119.23 138.039 118.394 136.193 117.717C135.886 117.602 135.676 118.163 135.983 118.298V118.294Z" fill="#010012"/>
<path d="M140.114 133.958C139.472 140.486 138.844 147.014 138.232 153.542C137.62 160.069 136.989 166.591 136.341 173.106C136.165 174.933 135.991 176.76 135.819 178.59C135.645 180.415 135.461 182.242 135.36 184.073C135.339 184.473 135.957 184.55 136.013 184.152C136.472 180.896 136.732 177.6 137.042 174.325C137.352 171.05 137.66 167.771 137.962 164.494C138.566 157.973 139.154 151.451 139.728 144.929C140.048 141.271 140.363 137.613 140.672 133.954C140.703 133.567 140.152 133.592 140.114 133.969V133.958Z" fill="#010012"/>
<path d="M125.038 164.792C126.264 170.083 127.466 175.381 128.556 180.708C128.862 182.202 129.115 183.719 129.498 185.192C129.602 185.592 130.238 185.504 130.184 185.073C130.014 183.723 129.719 182.385 129.45 181.056C129.18 179.727 128.891 178.362 128.599 177.019C128.017 174.351 127.399 171.691 126.744 169.04C126.374 167.558 125.989 166.083 125.588 164.615C125.563 164.541 125.513 164.48 125.448 164.445C125.383 164.41 125.308 164.403 125.239 164.425C125.169 164.448 125.11 164.498 125.074 164.566C125.037 164.635 125.027 164.715 125.043 164.792H125.038Z" fill="#010012"/>
<path d="M129.656 186.286C130.101 186.729 130.631 187.061 131.208 187.257C131.786 187.454 132.396 187.51 132.995 187.423C133.576 187.339 134.134 187.126 134.634 186.798C135.093 186.49 135.651 186.008 135.869 185.454C135.912 185.371 135.925 185.274 135.906 185.181C135.887 185.088 135.837 185.006 135.766 184.95C135.695 184.894 135.607 184.869 135.519 184.879C135.431 184.889 135.35 184.934 135.291 185.004C135.099 185.179 134.954 185.398 134.767 185.577C134.597 185.739 134.413 185.884 134.218 186.011C133.815 186.284 133.366 186.468 132.897 186.554C132.407 186.63 131.907 186.599 131.428 186.465C130.948 186.331 130.498 186.096 130.103 185.773C129.773 185.5 129.332 185.981 129.648 186.288L129.656 186.286Z" fill="#010012"/>
<path d="M135.436 187.917C135.474 188.75 135.54 189.583 135.642 190.417C135.692 190.823 135.746 191.227 135.809 191.629C135.855 192.051 135.947 192.466 136.081 192.865C136.101 192.926 136.141 192.977 136.192 193.01C136.244 193.043 136.305 193.056 136.364 193.046C136.423 193.036 136.477 193.004 136.517 192.955C136.557 192.906 136.58 192.844 136.582 192.779C136.568 192.372 136.523 191.967 136.447 191.569C136.387 191.152 136.329 190.758 136.277 190.352C136.173 189.54 136.082 188.725 136.004 187.908C135.967 187.521 135.426 187.525 135.426 187.925L135.436 187.917Z" fill="#010012"/>
<path d="M133.827 188.423C133.866 189.012 133.91 189.6 133.957 190.19C133.98 190.485 134.005 190.779 134.032 191.073C134.042 191.374 134.081 191.674 134.149 191.967C134.228 192.217 134.638 192.258 134.675 191.952C134.695 191.654 134.684 191.354 134.642 191.058C134.617 190.762 134.588 190.469 134.559 190.175C134.5 189.585 134.438 188.996 134.367 188.408C134.326 188.04 133.799 188.04 133.824 188.423H133.827Z" fill="#010012"/>
<path d="M132.481 188.554C132.475 189.791 132.586 191.025 132.812 192.237C132.89 192.619 133.485 192.521 133.448 192.127C133.336 190.929 133.18 189.739 133.103 188.537C133.095 188.453 133.058 188.374 132.999 188.318C132.94 188.262 132.864 188.231 132.785 188.234C132.706 188.236 132.631 188.27 132.575 188.329C132.519 188.389 132.485 188.469 132.481 188.554Z" fill="#010012"/>
<path d="M141.495 164.713C141.52 171.617 141.705 178.521 141.88 185.421C141.928 187.363 141.951 189.308 142.049 191.254C142.057 191.34 142.094 191.418 142.154 191.475C142.213 191.532 142.29 191.562 142.369 191.56C142.449 191.558 142.524 191.524 142.581 191.464C142.638 191.404 142.671 191.323 142.675 191.238C142.696 187.771 142.564 184.296 142.483 180.831C142.402 177.367 142.33 173.956 142.234 170.529C142.18 168.588 142.119 166.646 142.042 164.696C142.034 164.623 142.002 164.555 141.951 164.506C141.899 164.457 141.833 164.431 141.765 164.433C141.697 164.435 141.631 164.465 141.582 164.516C141.533 164.567 141.504 164.637 141.5 164.711L141.495 164.713Z" fill="#010012"/>
<path d="M151.313 163.831C150.35 169.154 149.443 174.494 148.578 179.838C148.337 181.329 148.058 182.829 147.917 184.335C147.881 184.723 148.453 184.771 148.536 184.41C148.832 183.104 149.013 181.763 149.231 180.44C149.449 179.117 149.662 177.783 149.88 176.456C150.314 173.801 150.744 171.144 151.17 168.485C151.411 166.985 151.644 165.485 151.879 163.985C151.943 163.588 151.386 163.431 151.313 163.831Z" fill="#010012"/>
<path d="M142.56 185.779C143.969 186.804 146.003 186.746 147.309 185.544C147.588 185.285 147.207 184.792 146.904 185.006C145.693 185.873 144.129 186.01 142.86 185.171C142.504 184.933 142.211 185.533 142.55 185.779H142.56Z" fill="#010012"/>
<path d="M147.571 186.55C147.467 187.501 147.368 188.453 147.274 189.404C147.182 190.35 147.032 191.321 147.033 192.271C147.036 192.349 147.064 192.424 147.113 192.481C147.162 192.539 147.229 192.575 147.301 192.584C147.373 192.592 147.445 192.573 147.504 192.528C147.564 192.484 147.607 192.418 147.625 192.342C147.802 191.413 147.837 190.433 147.921 189.49C148.006 188.546 148.087 187.577 148.162 186.621C148.189 186.261 147.609 186.188 147.571 186.55Z" fill="#010012"/>
<path d="M146.677 193.398C148.347 194.459 149.91 195.708 151.338 197.123C151.688 197.475 152.031 197.838 152.357 198.215C152.526 198.408 152.913 198.84 152.64 199.094C152.366 199.348 151.87 199.302 151.561 199.327C151.026 199.367 150.489 199.396 149.953 199.415C148.723 199.456 147.493 199.456 146.261 199.415C146.205 199.403 146.147 199.405 146.091 199.421C146.036 199.437 145.984 199.466 145.94 199.506C145.896 199.546 145.861 199.596 145.838 199.653C145.814 199.71 145.803 199.771 145.804 199.834C145.805 199.896 145.82 199.957 145.845 200.012C145.871 200.068 145.908 200.116 145.954 200.154C145.999 200.192 146.052 200.218 146.108 200.231C146.165 200.244 146.223 200.244 146.279 200.229C147.492 200.335 148.709 200.373 149.926 200.342C150.543 200.327 151.157 200.296 151.771 200.252C152.214 200.221 152.694 200.181 153.077 199.913C153.288 199.769 153.45 199.555 153.537 199.302C153.624 199.049 153.631 198.773 153.559 198.515C153.41 197.958 152.981 197.531 152.596 197.138C151.822 196.31 150.993 195.544 150.117 194.846C149.13 194.057 148.074 193.375 146.964 192.808C146.893 192.766 146.81 192.756 146.732 192.78C146.655 192.804 146.589 192.861 146.55 192.938C146.511 193.014 146.502 193.104 146.524 193.188C146.546 193.272 146.599 193.343 146.67 193.386L146.677 193.398Z" fill="#010012"/>
<path d="M129.675 187.648C130.014 191.165 130.403 194.675 130.794 198.185C130.844 198.621 130.881 199.06 130.944 199.492C130.961 199.685 131.016 199.872 131.105 200.04C131.194 200.208 131.315 200.354 131.46 200.467C131.759 200.675 132.127 200.715 132.472 200.767C132.878 200.829 133.284 200.885 133.691 200.94C135.297 201.148 136.908 201.294 138.523 201.379C140.351 201.471 142.182 201.471 144.006 201.398C144.082 201.397 144.157 201.373 144.222 201.33C144.288 201.288 144.341 201.227 144.378 201.154C144.513 200.789 144.557 200.392 144.506 200.003C144.455 199.613 144.31 199.245 144.087 198.935C143.619 198.252 142.931 197.794 142.305 197.306C140.919 196.231 139.531 195.159 138.141 194.09C138.092 194.06 138.037 194.041 137.98 194.034C137.924 194.027 137.866 194.032 137.812 194.049C137.757 194.066 137.706 194.095 137.661 194.133C137.617 194.172 137.58 194.219 137.552 194.273C137.525 194.327 137.507 194.386 137.501 194.447C137.494 194.509 137.499 194.57 137.515 194.63C137.531 194.689 137.557 194.744 137.592 194.792C137.628 194.84 137.672 194.881 137.722 194.91C138.952 195.866 140.186 196.819 141.423 197.769C141.986 198.202 142.596 198.602 143.095 199.125C143.459 199.504 143.835 200.131 143.613 200.7L143.985 200.456C140.896 200.567 137.803 200.448 134.729 200.102C133.958 200.017 133.188 199.919 132.406 199.794C132.204 199.763 131.934 199.756 131.848 199.523C131.802 199.365 131.775 199.201 131.767 199.035L131.68 198.317C131.476 196.638 131.269 194.959 131.058 193.281C130.823 191.397 130.579 189.513 130.326 187.631C130.266 187.194 129.633 187.192 129.675 187.648Z" fill="#010012"/>
<path d="M132.788 194.49C132.972 194.332 133.183 194.216 133.409 194.148C133.635 194.08 133.872 194.061 134.105 194.094C134.385 194.124 134.661 194.189 134.927 194.29C135.216 194.39 135.542 194.606 135.852 194.594C135.921 194.589 135.987 194.563 136.043 194.519C136.099 194.474 136.142 194.414 136.167 194.344C136.192 194.274 136.198 194.197 136.184 194.124C136.17 194.05 136.137 193.983 136.089 193.929C135.938 193.793 135.762 193.695 135.572 193.642C135.403 193.573 135.232 193.508 135.056 193.454C134.717 193.342 134.365 193.282 134.01 193.277C133.699 193.268 133.389 193.331 133.102 193.461C132.814 193.592 132.556 193.788 132.345 194.035C132.297 194.1 132.273 194.182 132.278 194.265C132.283 194.348 132.317 194.426 132.373 194.483C132.429 194.54 132.502 194.572 132.579 194.574C132.656 194.575 132.73 194.545 132.788 194.49Z" fill="#010012"/>
<path d="M137.506 197.767C137.66 197.594 137.812 197.423 137.974 197.263L138.097 197.148C138.138 197.11 138.097 197.148 138.124 197.123L138.18 197.077C138.271 197.002 138.373 196.933 138.459 196.869C138.546 196.804 138.652 196.748 138.737 196.694L138.879 196.613L138.96 196.571H138.973C139.181 196.473 139.397 196.4 139.607 196.304C139.682 196.279 139.746 196.225 139.787 196.153C139.828 196.08 139.844 195.995 139.831 195.911C139.819 195.827 139.779 195.751 139.719 195.696C139.659 195.642 139.583 195.612 139.505 195.613C138.994 195.692 138.508 195.902 138.088 196.225C137.654 196.52 137.283 196.911 136.998 197.371C136.805 197.708 137.259 198.048 137.506 197.775V197.767Z" fill="#010012"/>
<path d="M139.384 198.904C139.457 198.825 139.532 198.75 139.611 198.677C139.634 198.654 139.597 198.688 139.64 198.652L139.696 198.604C139.738 198.569 139.78 198.531 139.825 198.498C139.995 198.363 140.176 198.244 140.366 198.142L140.429 198.106H140.443C140.491 198.083 140.541 198.061 140.593 198.04C140.688 198 140.786 197.965 140.884 197.931C141.09 197.865 141.308 197.84 141.51 197.758C141.578 197.735 141.637 197.689 141.679 197.627C141.721 197.565 141.743 197.49 141.743 197.413C141.741 197.335 141.715 197.261 141.67 197.2C141.626 197.14 141.564 197.097 141.495 197.077C140.998 196.988 140.451 197.217 140.012 197.454C139.583 197.686 139.207 198.017 138.91 198.423C138.878 198.456 138.852 198.496 138.834 198.54C138.817 198.584 138.807 198.632 138.807 198.68C138.807 198.728 138.816 198.776 138.834 198.82C138.851 198.864 138.877 198.904 138.909 198.937C138.941 198.97 138.979 198.996 139.021 199.013C139.063 199.029 139.107 199.037 139.152 199.034C139.196 199.032 139.24 199.019 139.279 198.998C139.319 198.977 139.355 198.947 139.384 198.911V198.904Z" fill="#010012"/>
<path d="M146.392 196.227C146.758 195.833 147.198 195.529 147.683 195.336C148.19 195.175 148.722 195.126 149.246 195.194C149.33 195.191 149.41 195.155 149.471 195.094C149.532 195.032 149.571 194.948 149.58 194.858C149.588 194.769 149.567 194.679 149.519 194.605C149.472 194.531 149.402 194.478 149.322 194.454C148.721 194.246 148.006 194.352 147.421 194.577C146.796 194.804 146.251 195.232 145.859 195.804C145.82 195.881 145.808 195.97 145.825 196.055C145.843 196.141 145.889 196.216 145.955 196.267C146.02 196.318 146.1 196.342 146.18 196.334C146.261 196.327 146.336 196.289 146.392 196.227Z" fill="#010012"/>
<path d="M148.095 197.579C148.244 197.383 148.411 197.203 148.593 197.042C148.695 196.954 148.802 196.873 148.913 196.8L149.075 196.702L149.167 196.654C149.181 196.646 149.195 196.639 149.21 196.633C149.324 196.581 149.44 196.536 149.558 196.498C149.619 196.48 149.678 196.463 149.737 196.448C149.814 196.429 149.841 196.425 149.882 196.419C150.138 196.383 150.4 196.379 150.652 196.371C151.028 196.371 151.051 195.817 150.722 195.696C150.144 195.488 149.468 195.625 148.925 195.89C148.357 196.147 147.883 196.599 147.577 197.177C147.407 197.51 147.85 197.89 148.085 197.579H148.095Z" fill="#010012"/>
<path d="M144.487 192.806C144.393 193.119 143.852 192.996 143.634 192.888C143.056 192.6 142.49 192.165 141.82 192.361C141.271 192.521 140.932 193.061 140.766 193.611C140.682 193.935 140.635 194.269 140.628 194.606C140.607 194.956 140.558 195.294 140.52 195.648C140.503 195.733 140.515 195.821 140.553 195.897C140.591 195.974 140.653 196.033 140.728 196.065C140.802 196.096 140.885 196.098 140.961 196.071C141.036 196.043 141.101 195.987 141.142 195.913C141.485 195.313 141.335 194.536 141.527 193.881C141.662 193.388 141.964 193.063 142.457 193.229C142.739 193.325 142.993 193.504 143.264 193.625C143.505 193.735 143.762 193.792 144.023 193.794C144.518 193.794 145.017 193.536 145.144 192.981C145.25 192.525 144.628 192.369 144.497 192.806H144.487Z" fill="#010012"/>
<path d="M144.659 187.96C144.582 188.592 144.547 189.229 144.553 189.867C144.553 190.181 144.541 190.492 144.535 190.813C144.517 191.128 144.517 191.445 144.535 191.76C144.539 191.853 144.574 191.94 144.632 192.008C144.69 192.075 144.768 192.118 144.853 192.129C144.939 192.14 145.025 192.117 145.095 192.065C145.166 192.012 145.217 191.934 145.238 191.844C145.268 191.519 145.278 191.193 145.269 190.867C145.269 190.55 145.269 190.242 145.269 189.919C145.292 189.288 145.274 188.656 145.215 188.027C145.212 187.953 145.185 187.883 145.138 187.83C145.092 187.776 145.029 187.742 144.961 187.733C144.893 187.724 144.824 187.742 144.768 187.784C144.712 187.826 144.671 187.889 144.655 187.96H144.659Z" fill="#010012"/>
<path d="M146.067 187.785C146.013 188.525 145.984 189.267 145.957 190.008L145.915 191.119C145.901 191.465 145.824 191.904 145.928 192.235C146.009 192.487 146.402 192.592 146.506 192.3C146.635 191.962 146.598 191.548 146.608 191.185L146.633 190.033C146.648 189.279 146.666 188.523 146.656 187.769C146.656 187.352 146.09 187.381 146.061 187.785H146.067Z" fill="#010012"/>
<path d="M97.2868 195.304C97.6411 195.696 98.2401 195.873 98.7274 195.95C99.2607 196.031 99.8035 196 100.326 195.858C100.824 195.723 101.293 195.485 101.709 195.158C102.094 194.846 102.672 194.325 102.71 193.769C102.708 193.707 102.691 193.647 102.661 193.595C102.631 193.543 102.588 193.5 102.538 193.47C102.488 193.441 102.432 193.427 102.375 193.428C102.318 193.43 102.262 193.447 102.213 193.479C102.021 193.604 101.892 193.854 101.736 194.031C101.596 194.193 101.442 194.34 101.275 194.469C100.918 194.737 100.519 194.931 100.097 195.042C99.7004 195.149 99.2897 195.18 98.8834 195.133C98.4154 195.081 98.0302 194.854 97.5911 194.717C97.2656 194.611 97.0711 195.073 97.2868 195.311V195.304Z" fill="#010012"/>
<path d="M103.353 195.367C106.527 196.648 109.6 198.206 112.54 200.025C112.721 200.139 112.9 200.252 113.079 200.369C113.172 200.429 113.372 200.523 113.407 200.644C113.472 200.879 112.962 201.06 112.829 201.104C112.047 201.392 111.209 201.431 110.393 201.483C108.613 201.594 106.829 201.6 105.048 201.5C103.053 201.385 101.065 201.158 99.0913 200.821C98.6541 200.746 98.4769 201.446 98.9218 201.55C102.701 202.378 106.565 202.662 110.414 202.396C111.317 202.339 112.253 202.287 113.11 201.952C113.495 201.804 113.88 201.598 114.106 201.21C114.214 201.02 114.261 200.796 114.237 200.574C114.214 200.352 114.122 200.144 113.977 199.985C113.701 199.664 113.285 199.464 112.941 199.25C112.537 199.003 112.133 198.76 111.727 198.521C110.912 198.044 110.087 197.59 109.252 197.158C107.395 196.187 105.483 195.344 103.527 194.635C103.437 194.612 103.343 194.628 103.264 194.679C103.185 194.731 103.128 194.814 103.105 194.91C103.084 195.007 103.099 195.108 103.146 195.193C103.193 195.279 103.269 195.341 103.357 195.367H103.353Z" fill="#010012"/>
<path d="M107.296 196.833C106.83 195.958 105.755 196.942 105.33 197.365C105.05 197.644 104.799 197.956 104.58 198.294C104.475 198.453 104.378 198.619 104.291 198.792C104.178 198.989 104.112 199.214 104.099 199.446C104.101 199.515 104.122 199.581 104.159 199.638C104.196 199.694 104.247 199.737 104.307 199.762C104.367 199.786 104.432 199.791 104.495 199.776C104.558 199.761 104.615 199.728 104.661 199.679C104.779 199.549 104.876 199.398 104.948 199.233C105.023 199.09 105.106 198.948 105.191 198.817C105.264 198.696 105.344 198.58 105.43 198.469C105.528 198.34 105.622 198.217 105.736 198.096C105.934 197.865 106.152 197.656 106.387 197.471C106.441 197.429 106.497 197.385 106.553 197.348C106.583 197.326 106.614 197.306 106.647 197.287L106.68 197.269C106.657 197.281 106.658 197.281 106.68 197.269C106.701 197.256 106.739 197.25 106.766 197.237C106.845 197.206 106.739 197.237 106.811 197.237C106.882 197.237 106.78 197.221 106.847 197.237C106.915 197.254 106.924 197.287 106.847 197.221C106.898 197.27 106.964 197.297 107.032 197.299C107.1 197.301 107.167 197.276 107.22 197.23C107.273 197.183 107.309 197.118 107.322 197.045C107.335 196.973 107.324 196.898 107.29 196.833H107.296Z" fill="#010012"/>
<path d="M109.393 197.358C108.779 197.445 108.212 197.76 107.789 198.25C107.583 198.476 107.407 198.731 107.265 199.008C107.187 199.163 107.123 199.326 107.072 199.494C107.001 199.676 106.986 199.878 107.03 200.071C107.048 200.129 107.079 200.181 107.12 200.222C107.162 200.263 107.212 200.292 107.267 200.306C107.322 200.32 107.38 200.319 107.434 200.302C107.488 200.285 107.537 200.254 107.577 200.21C107.679 200.065 107.754 199.899 107.797 199.723C107.797 199.702 107.841 199.61 107.797 199.7C107.81 199.671 107.82 199.642 107.833 199.61C107.847 199.579 107.885 199.494 107.912 199.435C107.972 199.311 108.04 199.19 108.114 199.075C108.17 198.985 108.066 199.14 108.128 199.054L108.184 198.977C108.226 198.923 108.268 198.869 108.313 198.819C108.357 198.769 108.405 198.717 108.453 198.669L108.521 198.604C108.534 198.592 108.605 198.529 108.54 198.585C108.638 198.501 108.74 198.424 108.846 198.352C108.902 198.315 108.958 198.279 109.016 198.248L109.097 198.204C109.185 198.156 109.031 198.231 109.122 198.19C109.243 198.135 109.364 198.081 109.486 198.031C109.558 198.006 109.62 197.953 109.66 197.883C109.7 197.813 109.716 197.729 109.705 197.648C109.694 197.566 109.655 197.491 109.596 197.438C109.537 197.385 109.462 197.356 109.385 197.358H109.393Z" fill="#010012"/>
<path d="M87.3432 202.617C87.634 203.902 87.4722 205.279 87.8844 206.538C88.2965 207.796 89.2499 208.621 90.3111 209.219C92.6791 210.532 95.2025 211.486 97.8106 212.056C100.446 212.661 103.142 212.893 105.832 212.746C106.356 212.715 106.974 212.69 107.35 212.229C107.833 211.638 107.44 210.965 107.013 210.513C106.074 209.517 105.098 208.565 104.085 207.656C101.795 205.591 99.3395 203.75 96.7475 202.156C96.2583 201.854 95.8346 202.681 96.3238 202.99C98.4666 204.306 100.516 205.792 102.456 207.436C103.434 208.269 104.382 209.138 105.299 210.044C105.749 210.461 106.178 210.903 106.585 211.369C106.676 211.477 106.76 211.577 106.67 211.658C106.529 211.796 106.248 211.798 106.073 211.811C101.059 212.157 96.0443 211.147 91.482 208.871C90.4228 208.34 89.2364 207.715 88.7145 206.511C88.1617 205.238 88.3505 203.748 87.9441 202.425C87.9151 202.344 87.8591 202.278 87.7872 202.241C87.7152 202.203 87.6327 202.195 87.5561 202.22C87.4795 202.245 87.4144 202.301 87.3739 202.375C87.3333 202.45 87.3203 202.538 87.3374 202.623L87.3432 202.617Z" fill="#010012"/>
<path d="M97.4351 207.883C97.8262 207.351 98.3097 206.907 98.8583 206.575C99.1179 206.419 99.3907 206.291 99.673 206.192C99.8309 206.137 99.9888 206.092 100.151 206.054C100.314 206.034 100.475 205.998 100.632 205.948C100.707 205.92 100.773 205.867 100.819 205.798C100.866 205.728 100.891 205.644 100.892 205.558C100.89 205.472 100.862 205.389 100.811 205.321C100.761 205.254 100.692 205.206 100.615 205.185C100.234 205.164 99.8536 205.235 99.5016 205.394C99.1573 205.516 98.8251 205.674 98.5097 205.867C97.8916 206.244 97.3535 206.758 96.9305 207.375C96.87 207.448 96.8376 207.544 96.8397 207.642C96.8418 207.74 96.8784 207.834 96.942 207.904C97.0091 207.973 97.0986 208.01 97.1909 208.008C97.2832 208.005 97.371 207.964 97.4351 207.892V207.883Z" fill="#010012"/>
<path d="M100.403 208.913C100.728 208.534 101.109 208.217 101.531 207.975C101.616 207.925 101.705 207.882 101.795 207.846C101.911 207.796 102.028 207.752 102.146 207.715C102.263 207.677 102.387 207.648 102.508 207.621L102.689 207.583C102.714 207.583 102.743 207.583 102.77 207.567C102.708 207.585 102.926 207.485 102.88 207.508C102.949 207.483 103.009 207.435 103.052 207.371C103.095 207.306 103.118 207.229 103.118 207.15C103.115 207.071 103.089 206.995 103.043 206.933C102.998 206.871 102.935 206.827 102.864 206.806C102.554 206.744 102.234 206.773 101.938 206.89C101.66 206.977 101.392 207.096 101.139 207.246C100.622 207.534 100.183 207.96 99.8617 208.483C99.6518 208.844 100.139 209.198 100.403 208.913Z" fill="#010012"/>
<path d="M85.9779 199.933C86.1127 200.7 86.9601 201.202 87.5398 201.535C88.2212 201.923 88.9541 202.194 89.7122 202.34C91.174 202.625 92.8919 202.515 94.2285 201.756C94.6445 201.519 94.3325 200.785 93.8896 200.946C93.2767 201.197 92.6417 201.38 91.9945 201.492C91.3293 201.58 90.656 201.57 89.9934 201.46C89.3419 201.353 88.7065 201.152 88.1041 200.862C87.5263 200.583 86.8927 200.237 86.5017 199.679C86.4637 199.617 86.4065 199.571 86.3402 199.55C86.2738 199.529 86.2028 199.535 86.1398 199.565C86.0768 199.596 86.0259 199.65 85.9962 199.717C85.9666 199.784 85.96 199.861 85.9779 199.933Z" fill="#010012"/>
<path d="M103.926 123.479C102.577 133.615 101.397 143.779 100.237 153.944C99.0781 164.108 97.9803 174.269 96.9557 184.442C96.3779 190.148 95.7558 195.854 95.3167 201.575C95.2801 202.046 96.0351 202.14 96.0871 201.667C96.6649 196.596 97.1175 191.504 97.6278 186.425C98.1382 181.346 98.6659 176.217 99.2052 171.123C100.273 160.994 101.394 150.871 102.568 140.754C103.23 135.052 103.906 129.352 104.557 123.648C104.609 123.208 103.98 123.023 103.928 123.479H103.926Z" fill="#010012"/>
<path d="M92.911 111.21C92.3583 114.444 89.8912 117.073 86.9734 117.877C86.1424 118.085 85.2889 118.168 84.4369 118.125C84.0517 118.115 83.9824 118.775 84.3618 118.854C85.9815 119.196 87.711 118.71 89.1439 117.879C90.6029 117.038 91.8151 115.771 92.6433 114.223C93.1061 113.348 93.4168 112.39 93.56 111.394C93.6236 110.938 92.9823 110.754 92.9072 111.219L92.911 111.21Z" fill="#010012"/>
<path d="M143.948 72.1749C146.4 69.9145 148.811 67.6082 151.292 65.3853C151.894 64.8437 152.499 64.2999 153.112 63.7707C153.366 63.5166 153.688 63.3549 154.032 63.3082C154.417 63.2707 154.824 63.2707 155.219 63.2374C156.831 63.0999 158.418 62.752 160.001 62.4041C161.825 62.0103 163.66 61.6707 165.476 61.1999C165.875 61.0957 165.777 60.3457 165.361 60.4166C163.706 60.6957 162.067 61.0874 160.426 61.4374C158.785 61.7874 157.175 62.1603 155.525 62.327C155.124 62.3666 154.722 62.3916 154.319 62.4062C153.928 62.4018 153.541 62.4848 153.181 62.6499C152.843 62.8557 152.53 63.1047 152.247 63.3916L151.313 64.2249C150.061 65.3541 148.824 66.5027 147.602 67.6707C146.215 68.9916 144.83 70.3187 143.511 71.7166C143.226 72.0166 143.659 72.4332 143.948 72.1666V72.1749Z" fill="#010012"/>
<path d="M166.237 61.3522C162.312 63.7334 158.533 66.4001 154.833 69.1585C153.784 69.9397 152.732 70.7168 151.694 71.5168C151.267 71.846 151.694 72.6043 152.124 72.2668C155.741 69.3751 159.479 66.6668 163.281 64.046C164.357 63.3085 165.447 62.5876 166.53 61.8647C166.586 61.8199 166.626 61.7535 166.639 61.6787C166.653 61.604 166.64 61.5265 166.603 61.4617C166.566 61.3969 166.508 61.3496 166.44 61.3293C166.372 61.309 166.299 61.3172 166.237 61.3522Z" fill="#010012"/>
<path d="M160.829 59.8793C162.755 59.5314 164.704 59.3835 166.639 59.1085C167 59.0585 167.005 58.4668 166.626 58.4835C164.633 58.571 162.639 58.9731 160.679 59.3439C160.349 59.4064 160.503 59.9377 160.829 59.8793Z" fill="#010012"/>
<path d="M166.017 57.3313L167.572 57.6772C168.09 57.7917 168.606 57.923 169.13 57.998C169.461 58.0459 169.598 57.5376 169.259 57.4438C168.746 57.3022 168.223 57.2126 167.703 57.1105L166.141 56.8022C165.823 56.7376 165.698 57.2584 166.017 57.3313Z" fill="#010012"/>
<path d="M81.5713 96.0418C80.7476 98.5093 80.0626 101.029 79.5202 103.586C79.4008 104.127 79.1985 104.767 79.5009 105.281C79.8033 105.796 80.4427 105.886 80.9203 106.038C82.0682 106.404 83.2237 106.742 84.387 107.05C85.7139 107.402 87.0505 107.746 88.4025 107.956C88.884 108.031 89.0805 107.279 88.5951 107.15C87.4935 106.863 86.3803 106.623 85.2768 106.344C84.1732 106.065 83.0735 105.758 81.9815 105.431C81.4596 105.277 80.9203 105.142 80.4119 104.944C80.2328 104.873 80.1422 104.802 80.1499 104.581C80.1775 104.3 80.2271 104.021 80.2982 103.748C80.5345 102.548 80.7983 101.355 81.0898 100.169C81.4153 98.8376 81.7696 97.5147 82.1356 96.198C82.2415 95.8084 81.7022 95.6814 81.579 96.048L81.5713 96.0418Z" fill="#010012"/>
<path d="M93.591 108.915C95.4927 110.064 97.5885 110.789 99.754 111.046C100.831 111.181 102.005 111.321 103.069 111.015C104.132 110.708 104.994 109.84 105.842 109.14C106.907 108.248 107.982 107.367 109.014 106.431C109.332 106.144 108.893 105.561 108.554 105.821C107.625 106.533 106.732 107.279 105.83 108.042L104.507 109.148C104.122 109.501 103.697 109.801 103.244 110.042C102.312 110.486 101.175 110.35 100.189 110.25C99.1639 110.144 98.1486 109.946 97.154 109.656C96.0327 109.319 94.9363 108.892 93.8742 108.377C93.5448 108.221 93.2752 108.715 93.5988 108.915H93.591Z" fill="#010012"/>
<path d="M107.284 90.1729C108.509 94.3395 109.634 98.5375 110.587 102.787C110.859 103.996 111.123 105.206 111.392 106.415C111.504 106.915 112.182 106.679 112.093 106.187C111.708 104.042 111.211 101.919 110.687 99.8083C110.164 97.6979 109.605 95.5958 108.983 93.5166C108.629 92.3319 108.258 91.1513 107.872 89.975C107.739 89.577 107.163 89.7562 107.284 90.1666V90.1729Z" fill="#010012"/>
<path d="M106.077 55.0229C107.425 58.7729 108.894 62.4834 110.239 66.2396C110.576 67.1019 110.81 68.0071 110.936 68.9334C111.015 69.8871 110.963 70.8481 110.782 71.7854C110.454 73.7584 110.044 75.7229 109.64 77.6792C109.187 79.875 108.646 82.0542 108.245 84.2625C108.227 84.3756 108.249 84.4919 108.307 84.5881C108.365 84.6843 108.455 84.7531 108.558 84.7809C108.661 84.8086 108.769 84.7931 108.862 84.7375C108.955 84.6819 109.025 84.5904 109.058 84.4813C109.605 82.5459 109.996 80.5459 110.406 78.5709C110.816 76.5959 111.207 74.6125 111.562 72.6188C111.769 71.6267 111.876 70.613 111.88 69.5958C111.84 68.6335 111.664 67.6835 111.358 66.7792C111.061 65.8604 110.695 64.9688 110.345 64.0709L109.224 61.2063C108.388 59.0729 107.554 56.9396 106.695 54.8188C106.668 54.7312 106.611 54.6581 106.536 54.6143C106.461 54.5706 106.373 54.5595 106.291 54.5834C106.208 54.6108 106.14 54.6721 106.099 54.7539C106.058 54.8357 106.049 54.9316 106.073 55.0209L106.077 55.0229Z" fill="#010012"/>
<path d="M96.008 42.7272C95.6074 45.0001 95.0912 47.9168 92.7994 48.7856C92.1195 49.046 91.4069 49.2022 90.7752 49.5939C90.1809 49.9926 89.6491 50.4912 89.1998 51.071C88.1983 52.2856 87.245 53.5522 86.2878 54.8085C84.3195 57.3946 82.4019 60.0224 80.5351 62.6918C78.6682 65.3613 76.8482 68.0793 75.0751 70.846C73.3206 73.5814 71.6084 76.3522 69.9868 79.1793C69.7826 79.5376 69.592 79.9064 69.3975 80.2731C69.1432 80.7522 69.8038 81.1189 70.0792 80.6793C71.8126 77.9085 73.4592 75.0668 75.208 72.3001C76.9567 69.5335 78.7613 66.796 80.6198 64.1085C82.4783 61.421 84.3792 58.7876 86.336 56.1918C87.3233 54.8821 88.3235 53.5835 89.3366 52.296C89.7525 51.7228 90.2196 51.1953 90.7309 50.721C91.3087 50.2293 91.952 50.0147 92.6415 49.7876C93.2642 49.6025 93.8473 49.2868 94.3575 48.8585C94.7993 48.462 95.1701 47.9811 95.4514 47.4397C96.0292 46.3397 96.3296 45.0731 96.5164 43.8314C96.5646 43.5189 96.6031 43.2064 96.6378 42.8897C96.6531 42.8011 96.6376 42.7095 96.5942 42.6326C96.5508 42.5556 96.4826 42.4988 96.4028 42.4731C96.3191 42.4515 96.2309 42.4663 96.1571 42.5141C96.0833 42.562 96.0298 42.6393 96.008 42.7293V42.7272Z" fill="#010012"/>
<path d="M70.0485 82.8522C72.7537 85.5786 75.5284 88.2216 78.3723 90.7814C81.2163 93.3411 84.0949 95.8258 87.0082 98.2355C88.6702 99.6022 90.34 100.961 92.0772 102.217C92.4123 102.458 92.8206 101.869 92.499 101.592C89.6005 99.1376 86.6172 96.8001 83.7225 94.3397C80.8279 91.8793 77.9736 89.3397 75.1676 86.7668C73.5909 85.3112 72.0212 83.8508 70.4587 82.3855C70.1717 82.1147 69.7673 82.5668 70.0485 82.8522Z" fill="#010012"/>
<path d="M92.4199 102.861C92.8475 104.944 94.9544 106.402 96.8784 106.1L96.4778 105.788C96.8069 106.818 97.2193 107.815 97.7104 108.767C97.9261 109.156 98.5752 108.871 98.4057 108.427C98.0321 107.458 97.6026 106.517 97.2501 105.533C97.2235 105.442 97.1701 105.361 97.0979 105.305C97.0257 105.249 96.9386 105.219 96.8495 105.221C95.1952 105.481 93.5755 104.348 93.0266 102.661C93.001 102.572 92.9442 102.499 92.8685 102.456C92.7928 102.413 92.7046 102.405 92.6231 102.432C92.5416 102.46 92.4736 102.522 92.4341 102.603C92.3945 102.685 92.3867 102.781 92.4122 102.869L92.4199 102.861Z" fill="#010012"/>
<path d="M78.2742 81.6542C82.4265 86.0708 86.7348 90.3188 91.1143 94.4729C92.3508 95.6458 93.5776 96.8688 94.8988 97.9313C95.2666 98.2292 95.7558 97.7229 95.4053 97.3563C94.3576 96.2583 93.2117 95.2563 92.11 94.2208C91.0084 93.1854 89.9029 92.1375 88.8071 91.0958C86.641 89.0125 84.4936 86.909 82.3648 84.7854C81.1541 83.5729 79.9446 82.3576 78.7364 81.1396C78.6712 81.0804 78.5876 81.0502 78.5026 81.0552C78.4176 81.0603 78.3375 81.1001 78.2787 81.1667C78.2199 81.2332 78.1866 81.3215 78.1858 81.4136C78.185 81.5057 78.2166 81.5947 78.2742 81.6625V81.6542Z" fill="#010012"/>
<path d="M95.8 98.1251C96.3893 98.473 97.048 98.5418 97.7086 98.5105C98.3692 98.4793 99.0278 98.3855 99.6634 98.548C100.299 98.7105 100.796 99.173 101.233 99.6668C101.755 100.258 102.235 100.894 102.729 101.513C103.334 102.263 103.927 103.033 104.596 103.719C104.867 103.996 105.349 103.608 105.12 103.261C104.638 102.529 104.083 101.865 103.544 101.177C103.005 100.49 102.512 99.8751 101.978 99.2418C101.53 98.7063 101.015 98.1793 100.393 97.8938C99.7327 97.5897 99.0259 97.5834 98.3191 97.6459C97.6123 97.7084 96.7899 97.8543 96.0985 97.5355C95.7422 97.3668 95.4456 97.9084 95.8 98.1168V98.1251Z" fill="#010012"/>
<path d="M100.497 101.331C100.784 102.373 101.187 103.371 101.555 104.373C101.923 105.375 102.281 106.394 102.71 107.375C102.874 107.752 103.442 107.467 103.325 107.077C103.011 106.035 102.622 105.046 102.248 104.042C101.874 103.037 101.526 102.015 101.077 101.052C100.912 100.698 100.397 100.965 100.499 101.331H100.497Z" fill="#010012"/>
<path d="M98.9874 102.69C99.2743 103.673 99.6075 104.637 99.8772 105.627C100.147 106.617 100.361 107.619 100.615 108.612C100.709 108.985 101.308 108.902 101.254 108.5C100.922 106.403 100.347 104.36 99.5421 102.419C99.388 102.079 98.8834 102.337 98.9874 102.69Z" fill="#010012"/>
<path d="M75.9957 72.5001C77.3285 74.6209 79.212 76.2084 81.1823 77.5939C83.2578 79.0493 85.4639 80.2743 87.767 81.2501C89.0491 81.8094 90.369 82.2615 91.7151 82.6022C91.8145 82.6298 91.9199 82.6136 92.0082 82.5572C92.0965 82.5007 92.1605 82.4086 92.186 82.3012C92.2116 82.1937 92.1966 82.0796 92.1444 81.9841C92.0922 81.8886 92.0071 81.8194 91.9077 81.7918C89.6217 81.0293 87.378 80.2001 85.2228 79.0689C83.0976 77.9879 81.09 76.6548 79.2371 75.0939C78.2246 74.241 77.3183 73.2502 76.5408 72.1459C76.302 71.7959 75.7704 72.1355 76.0015 72.5043L75.9957 72.5001Z" fill="#010012"/>
<path d="M93.227 82.248C95.0393 78.5438 96.8342 74.8209 98.5387 71.0584C98.7158 70.6709 98.1843 70.35 97.9936 70.7334C96.1698 74.4313 94.423 78.1813 92.705 81.9375C92.5355 82.3063 93.0478 82.6146 93.227 82.248Z" fill="#010012"/>
<path d="M97.0152 43.5959C99.756 44.9503 102.157 46.9948 104.018 49.5585C104.539 50.289 105.025 51.0483 105.474 51.8335C105.74 52.2939 106.371 51.8647 106.134 51.3918C104.665 48.4501 102.319 45.9751 99.6923 44.2439C98.939 43.7492 98.153 43.3154 97.3407 42.9459C96.9401 42.7605 96.6012 43.3939 97.0075 43.5959H97.0152Z" fill="#010012"/>
<path d="M66.9862 85.3167C66.3159 82.4813 66.8186 79.5584 68.1841 77.0605C68.4114 76.6438 67.8278 76.3188 67.5832 76.7022C65.9751 79.2147 65.586 82.6105 66.366 85.5188C66.4816 85.9522 67.0882 85.7522 66.9862 85.3105V85.3167Z" fill="#010012"/>
<path d="M65.3358 85.5418C64.9782 84.4843 64.7749 83.3732 64.733 82.2481C64.7076 81.1227 64.8183 79.9986 65.0623 78.9043C65.0827 78.8151 65.0696 78.7207 65.0257 78.642C64.9818 78.5633 64.9108 78.5066 64.8283 78.4845C64.7458 78.4624 64.6586 78.4767 64.5858 78.5242C64.513 78.5716 64.4607 78.6484 64.4402 78.7377C63.743 80.9772 63.9299 83.5627 64.7041 85.7481C64.8543 86.1647 65.4745 85.9772 65.3358 85.5397V85.5418Z" fill="#010012"/>
</svg>
