<svg width="212" height="212" viewBox="0 0 212 212" fill="none" xmlns="http://www.w3.org/2000/svg">
<path d="M112.417 73.9637C112.439 73.9995 112.473 74.0375 112.523 74.0665C112.564 74.0907 112.605 74.1022 112.642 74.1062C112.644 74.1896 112.644 74.2839 112.642 74.3881C112.637 74.8443 112.607 75.4561 112.568 76.0782C112.492 77.3209 112.384 78.5865 112.375 78.6891L112.375 78.6892C112.306 79.4941 112.25 80.2837 112.194 81.071C112.129 81.9744 112.065 82.8747 111.983 83.7915L111.983 83.7917C111.741 86.5002 111.624 88.943 111.393 93.8148L111.393 93.8153C111.142 99.0829 110.995 104.68 110.91 108.96C110.868 111.1 110.841 112.911 110.825 114.187C110.817 114.825 110.812 115.33 110.808 115.675L110.805 116.069L110.804 116.171L110.804 116.196L110.804 116.203L110.804 116.205L110.804 116.205C110.804 116.205 110.804 116.205 110.899 116.206L110.804 116.205C110.708 128.975 110.911 150.216 111 151.943C111 151.96 111.001 151.986 111.003 152.02C111.009 152.194 111.024 152.583 111 153.097L111 153.098C110.981 153.523 110.968 153.83 110.942 154.069C110.916 154.307 110.881 154.45 110.832 154.554L110.832 154.555C110.785 154.656 110.687 154.814 110.241 154.972C109.778 155.135 108.973 155.284 107.554 155.363L107.554 155.363L107.546 155.364C105.867 155.498 104.178 155.433 102.514 155.17C101.248 154.969 100.02 154.581 98.869 154.019C98.2326 153.704 97.7113 153.368 97.4397 152.79C97.2719 152.411 97.2124 151.992 97.2677 151.581L97.2678 151.581L97.2686 151.573C97.8814 145.992 98.1172 140.384 98.3029 134.781C98.3314 133.924 98.3586 133.067 98.3858 132.21C98.5368 127.463 98.6875 122.722 99.0362 117.996L98.737 117.974L99.0362 117.996C99.254 115.037 99.454 111.15 99.6589 107.169C99.7681 105.047 99.8786 102.898 99.994 100.849C100.16 97.8989 100.336 95.1541 100.532 92.9848C100.631 91.8999 100.734 90.9622 100.843 90.2164C100.953 89.4626 101.065 88.9287 101.177 88.6362C101.416 88.0065 101.514 87.3428 101.603 86.7124C101.606 86.6867 101.61 86.6611 101.614 86.6356C101.7 86.0228 101.781 85.4429 101.966 84.8959L101.969 84.8855C102 84.7959 102.066 84.6015 102.093 84.3876C102.119 84.175 102.115 83.8641 101.909 83.6235L101.896 83.608L101.881 83.5945C101.771 83.4964 101.642 83.4217 101.502 83.375C101.367 83.3301 101.225 83.3121 101.084 83.3219C100.895 83.317 100.671 83.2439 100.397 83.076C100.117 82.9049 99.8032 82.6462 99.4455 82.2985C98.7287 81.6016 97.8754 80.5877 96.8082 79.3078C96.4064 78.8256 96.038 78.3653 95.8898 77.6715C95.8043 77.2588 95.8044 76.8328 95.89 76.4201L95.8901 76.4201L95.891 76.4153C95.9528 76.0905 96.0605 75.4225 96.2072 74.5124C96.2794 74.0646 96.361 73.5582 96.4512 73.0052C96.7258 71.3229 97.0821 69.1984 97.5004 66.9474C98.3386 62.4361 99.4208 57.4467 100.587 54.4838L100.587 54.4838L100.588 54.4796C100.846 53.7937 101.226 53.1603 101.71 52.6099C102.127 52.1415 102.53 51.8432 103.796 51.0994C105.259 50.2432 105.951 49.9189 106.537 49.655C106.585 49.6335 106.632 49.6124 106.679 49.5914C107.219 49.3493 107.723 49.1234 108.704 48.5475L108.704 48.5475C108.85 48.4614 108.985 48.3805 109.111 48.3055C109.435 48.1117 109.693 47.9573 109.911 47.8538C110.234 47.7009 110.322 47.7355 110.347 47.7526L110.348 47.7528C110.368 47.7663 110.422 47.811 110.432 48.132C110.436 48.2799 110.431 48.4591 110.425 48.6843L110.424 48.7032C110.418 48.9213 110.411 49.1757 110.411 49.4666C110.411 49.909 110.448 50.3461 110.49 50.7729C110.501 50.8778 110.511 50.9817 110.522 51.085C110.555 51.4061 110.588 51.7207 110.608 52.0378L110.608 52.0381L110.611 52.083C110.692 53.316 110.827 55.3721 111.019 57.4328C111.214 59.5117 111.47 61.6194 111.795 62.8891L111.795 62.8891C111.902 63.3078 111.939 63.7439 111.979 64.2098L111.98 64.2152C112.019 64.6744 112.061 65.163 112.188 65.6398L112.187 65.6399L112.192 65.6529C112.232 65.7806 112.233 65.9171 112.196 66.0455C112.108 66.2327 111.956 66.3823 111.767 66.4667L111.755 66.4721L111.743 66.4785C111.206 66.7772 111.059 66.9002 110.925 67.0122C110.921 67.0159 110.917 67.0195 110.912 67.0232C110.813 67.1057 110.712 67.1894 110.184 67.4539C109.764 67.6641 109.469 67.7928 109.234 67.8949C109.126 67.9418 109.031 67.9831 108.943 68.0241C108.662 68.155 108.47 68.2772 108.3 68.541L108.299 68.5426C108.023 68.9753 108.016 69.4492 108.057 69.9078L108.057 69.9086C108.159 71.0322 108.565 72.2893 109.072 73.2487C109.325 73.728 109.612 74.1488 109.912 74.4436C110.2 74.7267 110.564 74.9544 110.957 74.8884L110.958 74.8882C111.093 74.8651 111.229 74.806 111.345 74.7451C111.465 74.6821 111.583 74.6063 111.687 74.5346C111.895 74.391 112.06 74.2518 112.083 74.2322L112.084 74.2314C112.106 74.2128 112.133 74.1935 112.172 74.1662L112.183 74.1585C112.217 74.1347 112.26 74.1043 112.302 74.071C112.339 74.0416 112.379 74.0064 112.417 73.9637ZM112.417 73.9637C112.431 73.9479 112.445 73.931 112.459 73.9131C112.5 73.9187 112.538 73.9176 112.568 73.9143C112.585 73.9125 112.602 73.9098 112.616 73.907C112.623 73.9057 112.629 73.9043 112.635 73.903M112.499 73.8538C112.522 73.8154 112.543 73.7728 112.56 73.7254L112.674 73.611C112.698 73.6349 112.686 73.6922 112.677 73.739C112.67 73.7731 112.664 73.8015 112.674 73.8073C112.685 73.8135 112.715 73.7743 112.75 73.7294C112.793 73.6745 112.842 73.611 112.87 73.611L112.833 73.9088C112.75 73.8984 112.695 73.8564 112.665 73.8233C112.649 73.8059 112.639 73.791 112.635 73.7844C112.619 73.7588 112.616 73.7414 112.618 73.7485C112.621 73.7595 112.627 73.792 112.632 73.8552C112.632 73.8622 112.633 73.8694 112.634 73.8768C112.634 73.8834 112.634 73.8902 112.635 73.8972C112.631 73.8972 112.627 73.897 112.622 73.8967C112.605 73.8955 112.582 73.8919 112.557 73.8831C112.537 73.8758 112.517 73.866 112.499 73.8538Z" fill="white" stroke="black" stroke-width="0.6"/>
<path d="M120.919 45.3444C120.984 45.337 121.05 45.337 121.115 45.3444C121.576 45.3444 125.969 46.1061 128.378 46.3259C128.635 46.3495 129.192 46.3966 129.948 46.5222C131 46.6969 131.568 46.797 132.107 47.1111C132.828 47.5312 133.187 48.1515 133.481 48.6815C134.675 50.8211 135.464 52.5603 136.819 56.9259C136.956 57.3715 137.235 58.3 136.819 58.6926C136.595 58.9026 136.302 58.83 135.641 58.8889C135.039 58.9553 134.447 59.087 133.874 59.2815C133.03 59.544 132.235 59.9418 131.519 60.4592C130.007 61.4741 129.705 61.9845 127.985 63.4037C126.446 64.6737 125.098 66.1774 123.47 67.3296C123.351 67.414 122.807 67.7948 122.881 68.1148C122.936 68.3484 123.274 68.3857 123.274 68.5074C123.258 68.7037 122.293 69.0374 121.507 68.7037C120.785 68.3955 120.991 67.8792 120.133 66.937C119.615 66.3678 118.53 65.508 117.581 65.1704C117.35 65.103 117.144 64.9659 116.993 64.7778C116.806 64.4869 116.736 64.1365 116.796 63.7963C117.216 60.2786 118.17 55.3555 118.17 55.3555C118.17 55.3555 119.937 46.2415 120.33 45.737C120.388 45.6649 120.454 45.5991 120.526 45.5407L120.919 45.3444Z" fill="white"/>
<path d="M138.481 64.9732C138.481 64.9305 138.482 64.8844 138.482 64.8355C138.483 64.5288 138.484 64.1121 138.448 63.7402C138.426 63.5231 138.394 63.3416 138.349 63.2153C138.333 63.1716 138.32 63.143 138.309 63.1247C138.293 63.1344 138.274 63.1483 138.25 63.1678C138.173 63.2321 138.101 63.3172 138.037 63.3922L138.029 63.402L138.029 63.402L137.8 63.2078L137.8 63.2077C138.029 63.402 138.028 63.4022 138.028 63.4023L138.028 63.4026L138.028 63.4032L138.026 63.4048L138.022 63.4093L138.01 63.4234C137.999 63.4351 137.984 63.4514 137.964 63.4726C137.923 63.515 137.861 63.5768 137.772 63.6598C137.595 63.8256 137.311 64.0761 136.876 64.4238C136.005 65.1183 134.525 66.2028 132.078 67.7753C131.815 67.9602 131.525 68.1047 131.219 68.2042L131.211 68.2067L131.211 68.2066C131.056 68.2524 130.931 68.274 130.829 68.2914C130.811 68.2946 130.794 68.2976 130.777 68.3005C130.672 68.3194 130.582 68.3394 130.461 68.3902M138.481 64.9732C138.481 64.9729 138.481 64.9725 138.481 64.9722L138.781 64.9744H138.481C138.481 64.974 138.481 64.9736 138.481 64.9732ZM138.481 64.9732C138.468 66.8104 138.676 67.9631 138.882 69.1115C138.902 69.2208 138.922 69.33 138.941 69.4398C139.163 70.6908 139.364 72.0329 139.267 74.3843L139.267 74.3843C139.221 75.5021 139.133 76.2372 138.988 76.7448C138.846 77.2392 138.655 77.5009 138.404 77.6906L138.404 77.6907C137.928 78.0511 136.962 78.3627 136.017 78.4156L136.016 78.4156C135.776 78.4294 135.626 78.4212 135.518 78.4137C135.508 78.413 135.497 78.4121 135.486 78.4112C135.399 78.4044 135.281 78.3952 135.169 78.4257L135.168 78.426C134.938 78.4898 134.798 78.6769 134.712 78.8597C134.623 79.0472 134.565 79.285 134.526 79.5501C134.448 80.083 134.436 80.8005 134.47 81.6268C134.537 83.2841 134.789 85.4407 135.093 87.5727C135.397 89.7068 135.755 91.8252 136.036 93.4095C136.177 94.2017 136.299 94.8608 136.386 95.3219C136.429 95.5524 136.464 95.7335 136.487 95.857L136.515 95.9981L136.522 96.0344L136.522 96.0345C137.943 108.915 139.187 119.908 140.166 128.048C141.143 136.177 141.857 141.487 142.22 142.975L142.22 142.975L142.221 142.982C142.538 144.152 142.538 145.385 142.221 146.555L142.221 146.558C141.917 147.721 141.266 148.764 140.353 149.547L140.353 149.547L140.348 149.551C138.788 150.944 136.67 151.967 134.584 152.712C132.501 153.456 130.472 153.915 129.104 154.191C127.163 154.584 125.034 154.585 123.38 154.486C122.555 154.436 121.852 154.362 121.357 154.3C121.133 154.272 120.952 154.247 120.82 154.228L120.819 154.203L120.8 153.377L120.725 150.095L120.426 137.112C120.161 125.647 119.769 108.618 119.255 86.3638L119.256 86.3638L119.255 86.3585C119.1 82.5385 118.969 79.4256 118.868 77.2287C118.818 76.1304 118.775 75.2603 118.741 74.645C118.724 74.3375 118.709 74.0926 118.697 73.9141C118.685 73.7474 118.673 73.615 118.661 73.5524M118.661 73.5524C118.661 73.5525 118.661 73.5527 118.661 73.5529L118.367 73.6115L118.661 73.5519C118.661 73.5521 118.661 73.5522 118.661 73.5524ZM118.661 73.5524C118.643 73.4616 118.643 73.3682 118.661 73.2775L118.664 73.2642L118.665 73.2508C118.672 73.1817 118.701 73.117 118.748 73.0658M118.748 73.0658C118.752 73.0646 118.758 73.0632 118.766 73.0621C118.803 73.0568 118.893 73.0542 119.054 73.1098M118.748 73.0658C118.741 73.0677 118.738 73.0693 118.738 73.0693C118.738 73.0694 118.741 73.0677 118.747 73.0631L118.563 72.8263M118.748 73.0658C118.754 73.0588 118.761 73.0521 118.767 73.0457L118.563 72.8263M119.054 73.1098C119.548 73.2811 119.877 73.7113 120.047 73.9323C120.064 73.9551 120.08 73.9756 120.094 73.9935L120.094 73.9938C120.569 74.5946 121.594 75.0094 123.904 74.6939L123.904 74.6939C124.398 74.6262 124.774 74.5669 125.082 74.5184C125.429 74.4636 125.689 74.4227 125.932 74.3991C126.358 74.3576 126.699 74.3751 127.341 74.4952M119.054 73.1098C119.054 73.1098 119.054 73.1097 119.054 73.1097L119.152 72.8263M119.054 73.1098C119.054 73.1098 119.054 73.1098 119.054 73.1099L119.152 72.8263M127.341 74.4952C127.619 74.5474 127.815 74.6022 127.994 74.652C128.095 74.6802 128.19 74.7068 128.291 74.7305C128.556 74.7923 128.817 74.8161 129.106 74.6621M127.341 74.4952L127.396 74.2003M127.341 74.4952C127.341 74.4952 127.341 74.4952 127.341 74.4952L127.396 74.2003M129.106 74.6621C129.408 74.5036 129.607 74.231 129.74 73.9401C129.873 73.6486 129.951 73.3148 129.997 72.9945C130.088 72.3608 130.063 71.7232 130.052 71.4491L130.052 71.4402L130.052 71.4397C130.031 70.9486 129.962 70.4833 129.904 70.0919C129.877 69.9127 129.853 69.749 129.836 69.6053C129.779 69.1027 129.821 68.8632 129.96 68.7238M129.106 74.6621L128.967 74.3966M129.106 74.6621C129.107 74.6618 129.108 74.6615 129.108 74.6612L128.967 74.3966M129.96 68.7238C130.107 68.586 130.277 68.4733 130.461 68.3902M129.96 68.7238C129.961 68.7231 129.962 68.7223 129.962 68.7215L129.752 68.5077M129.96 68.7238C129.959 68.7247 129.958 68.7256 129.957 68.7265L129.752 68.5077M130.461 68.3902C130.459 68.3907 130.458 68.3911 130.457 68.3915L130.341 68.1152L130.464 68.3888C130.463 68.3893 130.462 68.3897 130.461 68.3902ZM129.752 68.5077C129.414 68.8408 129.498 69.4058 129.61 70.1599C129.667 70.5436 129.732 70.9762 129.752 71.4522L129.752 71.4575C129.774 72.0046 129.851 73.931 128.967 74.3966M129.752 68.5077L118.367 73.2189C118.383 73.0686 118.452 72.9293 118.563 72.8263M128.967 74.3966C128.704 74.5373 128.478 74.4746 128.097 74.369C127.909 74.3168 127.683 74.2542 127.396 74.2003M127.396 74.2003C126.381 74.0103 126.05 74.0624 125.022 74.224C124.712 74.2728 124.338 74.3316 123.863 74.3966C121.578 74.7087 120.701 74.2769 120.33 73.8077C120.318 73.7924 120.303 73.7736 120.287 73.7517C120.123 73.5356 119.738 73.0295 119.152 72.8263M119.152 72.8263C118.759 72.6908 118.598 72.7988 118.563 72.8263" fill="white" stroke="black" stroke-width="0.6"/>
<path d="M59.8703 99.5225C60.1471 99.2987 60.6065 99.5873 61.4407 99.9151C62.8246 100.459 63.9926 100.634 65.7592 100.897C67.1333 101.093 66.8703 100.932 67.5259 101.093C69.2298 101.513 69.5478 102.302 71.2555 102.663C72.0702 102.836 72.027 102.663 73.0222 102.86C74.253 103.105 74.8085 103.468 75.7703 103.841C76.7322 104.214 78.1514 104.762 79.8926 104.626C80.7111 104.563 82.1971 104.448 83.4259 103.448C83.6418 103.272 84.0442 103.026 84.8 102.467C86.1368 101.485 86.8061 100.985 87.3518 100.504C87.9787 100.008 88.6342 99.5492 89.3148 99.1299C89.4738 99.0278 89.8291 98.8021 90.1 98.9336C90.1842 98.9771 90.2528 99.0457 90.2963 99.1299V100.308C90.2472 100.665 90.1746 101.211 90.1 101.878C89.9724 103.026 89.9155 103.878 89.9037 104.037C89.3737 111.438 84.8 148.597 84.8 148.597C82.3757 167.6 81.4158 176.359 81.4629 178.041C81.4629 178.281 81.2666 179.706 80.874 182.556C80.847 182.763 80.7803 182.963 80.6778 183.145C80.5278 183.382 80.3266 183.584 80.0889 183.734C79.5392 184.077 78.334 184.301 76.5555 183.93C75.5328 183.716 75.0676 183.461 74.7889 183.734C74.728 183.793 74.622 183.93 74.5926 185.108C74.5828 185.53 74.5769 185.74 74.5926 186.089C74.6318 186.992 74.6966 188.417 74.2 189.23C73.7033 190.043 72.6414 190.211 71.4518 190.408C70.5155 190.557 66.778 191.15 64.974 189.034C64.0927 188.001 64.0181 186.729 63.9926 186.285C61.2444 140.011 59.8703 116.873 59.8703 104.234V101.093C59.7565 100.343 59.5818 99.7561 59.8703 99.5225Z" fill="#E06900"/>
<path d="M53.3926 67.3295C52.8861 67.3079 52.5524 68.1245 52.0185 69.0962C50.878 71.1691 48.5067 74.5336 47.7 75.574C47.4619 75.8474 47.3236 76.1933 47.3074 76.5554C47.3074 77.2209 47.857 77.7214 48.0926 77.9295C53.9127 83.0902 56.8219 85.6714 59.8703 88.1369C61.4525 89.4187 65.4707 92.7538 67.5259 94.0258C67.5259 94.0258 68.0363 94.3419 68.7037 94.811C69.9973 95.7199 70.6549 96.1851 71.2555 96.9703C71.9406 97.8693 71.6776 97.9949 72.237 98.5406C72.9316 99.1809 73.8443 99.5319 74.7889 99.5221C74.9187 99.4986 75.0516 99.4986 75.1814 99.5221C75.5956 99.6438 75.735 100.135 76.1629 101.289C76.5909 102.443 76.7184 102.663 76.9481 102.859C77.2746 103.138 77.6971 103.279 78.1259 103.252C78.6382 103.187 78.6441 102.847 79.5 102.467C79.9691 102.258 80.0712 102.313 80.4814 102.074C80.762 101.904 81.0251 101.707 81.2666 101.485C81.2666 101.485 81.4629 101.301 81.6592 101.092C82.4444 100.229 83.6222 98.9195 83.4259 97.5592C83.2473 96.35 82.0518 95.6178 81.6592 95.3999C81.249 94.9877 80.503 94.2417 79.5 93.2406C78.9503 92.693 78.6696 92.4162 78.3222 92.2592C77.3407 91.8155 76.6026 92.2592 75.574 92.2592C75.097 92.2592 74.3806 92.1571 72.237 90.6888C70.7052 89.6285 69.2611 88.4469 67.9185 87.1554C66.3638 85.6989 64.7562 84.2993 63.2074 82.8369C61.7175 81.4295 59.4483 79.2899 56.5333 76.5554C56.5333 76.5554 56.9122 75.9901 57.5148 75.1814C58.3942 74.0036 58.7848 73.6012 59.0596 72.7159C59.0753 72.6649 59.0832 72.6393 59.0852 72.6295C59.3168 71.5322 56.0347 71.1436 54.374 68.5073C53.9932 67.9007 53.8028 67.3472 53.3926 67.3295Z" fill="white"/>
<path d="M91.6704 29.6409C91.3092 29.7214 91.1423 30.2396 91.0815 30.4261C90.4416 32.3772 89.4581 34.2008 88.7259 36.1187C88.5768 37.1571 88.2823 39.2201 87.3519 41.0261C87.1957 41.2564 87.1262 41.5345 87.1556 41.8112C87.2537 42.2784 87.7719 42.5454 88.3333 42.7927C90.0254 43.5406 90.8715 43.9136 91.4741 43.7742C92.2004 43.6054 91.9491 43.2462 94.0259 41.0261C94.2321 40.8062 94.8111 39.9621 95.9889 38.2779C96.1222 38.1111 96.1918 37.9024 96.1852 37.689C96.144 37.2317 95.5845 37.1904 95.4 36.7075C95.0761 35.8576 95.6061 34.8898 95.7926 34.5483C96.3128 33.6002 96.8055 33.5668 96.7741 33.1742C96.7172 32.4283 95.0172 32.6265 93.4371 31.2112C92.538 30.4045 92.1808 29.527 91.6704 29.6409Z" fill="white"/>
<path d="M76.5556 38.2782C76.8382 38.2056 77.0973 38.714 78.5185 40.2412C78.9347 40.6867 79.1447 40.8929 79.5 41.0263C80.136 41.2639 80.4049 40.9557 80.8741 41.2226C81.3805 41.5132 81.2392 41.9744 81.8556 42.4004C82.2913 42.7027 82.4994 42.5633 82.6407 42.793C83.053 43.4565 81.6593 45.1486 81.6593 45.1486L80.8741 44.3634C79.5707 43.0678 78.385 41.8881 76.7519 41.4189C76.2552 41.2756 75.6565 41.1814 75.5741 40.83C75.5191 40.5984 75.7331 40.4374 75.9667 40.0449C76.534 39.0869 76.2533 38.3567 76.5556 38.2782Z" fill="white"/>
<path d="M107.57 36.3155C107.347 37.768 107.937 38.9792 108.552 40.2414C108.772 40.7217 109.035 41.1816 109.337 41.6155C110.122 42.7226 110.68 42.9306 110.907 43.7747C110.972 44.0162 110.951 44.393 110.907 45.1488C110.811 46.8095 110.597 47.0745 110.711 47.7006C110.876 48.6016 111.526 49.1729 112.085 49.6636C112.645 50.1543 114.186 51.5068 116.011 51.0377C117.073 50.7648 118.068 49.9168 118.367 48.8784C118.461 48.5526 118.429 48.1364 118.367 47.308C118.219 45.3686 117.868 44.8504 118.17 43.971C118.316 43.5509 118.431 43.5627 118.956 42.7932C119.619 41.8117 119.937 41.0521 120.526 39.6525C121.657 36.9495 121.507 36.2997 121.311 35.9229C121.311 35.9229 121.178 35.7266 120.919 35.334C120.161 34.1994 119.992 33.9599 119.937 33.5673C119.868 33.0667 120.067 32.9431 119.937 32.7821C119.631 32.4033 118.5 33.055 116.404 33.5673C114.244 34.0953 113.701 33.8303 113.459 33.5673C113.218 33.3043 113.22 32.945 112.87 32.7821C112.521 32.6192 112.262 32.8351 111.693 32.9784C110.413 33.2984 109.843 32.7016 109.141 33.1747C108.929 33.316 108.801 33.5339 108.552 33.9599C108.13 34.6823 107.712 35.4007 107.57 36.3155Z" fill="white"/>
<path d="M113.852 65.5628C114.812 65.2114 115.291 65.0367 115.815 64.9739C115.911 64.9621 117.493 64.7972 118.759 65.7591C119.297 66.2069 119.761 66.7369 120.133 67.3294C120.557 67.9517 120.869 68.5897 121.507 68.7035C121.638 68.7205 121.77 68.7205 121.9 68.7035C122.732 68.6446 123.274 68.3423 123.863 68.1146C124.371 67.9287 124.897 67.7971 125.433 67.722C126.527 67.5375 127.63 67.351 128.181 67.9183C128.362 68.1029 128.441 68.3247 128.77 68.5072C129.1 68.6898 129.359 68.6309 129.556 68.7035C130.537 69.049 130.203 72.4214 129.359 74.0035C129.226 74.2539 129.021 74.4589 128.77 74.5924C128.238 74.9084 127.681 74.8221 127.2 74.7887C126.187 74.718 126.262 74.9379 124.844 74.985C123.274 75.038 120.683 75.1244 120.133 74.0035C120.008 73.7483 119.872 73.1948 119.348 72.8257C119.231 72.7363 119.098 72.6697 118.956 72.6294C118.506 72.5097 118.096 72.7315 117.581 73.022C116.229 73.7817 116.372 73.7385 116.207 73.8072C115.501 74.0977 114.131 74.351 113.067 73.8072C112.831 73.6875 112.674 73.556 112.478 73.6109C111.977 73.7464 112.146 74.773 111.693 74.985C111.104 75.2618 109.82 73.9839 109.141 72.8257C108.686 72.047 108.417 71.1737 108.356 70.2739C108.295 69.5378 108.25 69.0117 108.552 68.5072C108.854 68.0027 109.154 68.095 110.515 67.3294C111.616 66.7092 111.808 66.4324 112.87 65.9554C113.263 65.7767 113.61 65.6511 113.852 65.5628Z" fill="white"/>
<path d="M109.533 175.293C109.59 175.293 109.626 175.375 109.73 175.489C110.185 175.994 111.019 175.937 111.693 175.882C111.987 175.858 113.528 175.732 114.244 175.489C114.306 175.462 114.373 175.448 114.441 175.448C114.508 175.448 114.575 175.462 114.637 175.489C114.696 175.537 114.744 175.596 114.778 175.664C114.812 175.732 114.831 175.806 114.833 175.882C114.949 176.734 115.163 177.576 115.226 178.434C115.244 178.683 115.302 179.189 115.422 180.2C115.554 181.319 115.595 181.557 115.815 181.771C116.149 182.098 116.457 181.945 117.189 182.359C117.467 182.533 117.73 182.73 117.974 182.948C119.081 183.822 119.635 184.258 119.937 184.126C120.018 184.091 120.133 184.006 120.33 182.556C120.487 181.449 120.508 180.926 120.919 180.396C121.115 180.157 121.148 180.2 121.311 180.004C122.006 179.156 121.576 177.845 121.507 175.096C121.507 174.826 121.49 174.427 121.704 174.311C122.006 174.148 122.377 174.759 123.274 175.096C124.028 175.379 124.788 175.332 125.433 175.293C126.352 175.236 126.717 175.042 127.004 175.293C127.29 175.544 127.237 175.923 127.2 176.471C126.98 179.768 127.029 179.429 127.004 179.611C126.807 181.072 126.648 181.594 127.004 182.163C127.098 182.314 127.2 182.409 127.593 182.752C128.77 183.763 129.014 183.836 129.556 184.322C130.667 185.318 130.29 185.563 131.519 186.678C131.856 186.984 132.107 187.175 132.107 187.463C132.094 188.113 130.765 188.564 130.537 188.641C128.827 189.23 128.258 188.282 125.63 188.445C124.77 188.508 123.917 188.639 123.078 188.837C122.554 188.963 122.204 189.075 121.704 189.23C119.835 189.819 118.901 190.099 118.367 190.211C115.681 190.777 113.377 189.738 112.674 189.426C111.877 189.071 111.214 188.765 110.711 188.052C110.122 187.212 110.185 186.423 110.122 184.911C110.024 182.573 109.82 183.392 109.533 179.415C109.418 177.823 109.245 175.34 109.533 175.293Z" fill="#4DC7B1"/>
<path d="M75.5328 33.22C75.2678 35.0593 75.6683 37.1655 76.8343 38.6495C77.1013 38.9891 77.6509 38.6809 77.4232 38.2903C76.9595 37.5461 76.6039 36.7397 76.3671 35.8955C76.1589 35.0432 76.0926 34.1625 76.1708 33.2887C76.1983 32.9373 75.5976 32.8686 75.5466 33.22H75.5328Z" fill="#010012"/>
<path d="M78.3497 35.597C78.6642 37.4019 79.4096 39.1042 80.5227 40.5594C80.7779 40.8794 81.3216 40.5751 81.0802 40.2159C80.0751 38.7633 79.3433 37.1395 78.9209 35.4243C78.8345 35.0474 78.281 35.228 78.3497 35.597Z" fill="#010012"/>
<path d="M91.5388 29.1114C89.3035 33.2791 87.6158 37.7181 86.5176 42.3182C86.1853 43.5998 85.9393 44.9022 85.7815 46.2167C85.7442 46.5916 86.3389 46.6348 86.4273 46.2893C86.7198 45.1547 86.9259 43.9985 87.2125 42.8619C87.4991 41.7254 87.7817 40.6497 88.1076 39.5544C88.7668 37.3377 89.5453 35.1583 90.4396 33.0255C90.9513 31.8072 91.4976 30.6013 92.0786 29.4078C92.2514 29.0545 91.7273 28.762 91.5408 29.1114H91.5388Z" fill="#010012"/>
<path d="M73.509 33.0821C73.3299 31.0269 73.6442 28.9586 74.4257 27.0493C75.2072 25.14 76.4334 23.445 78.0022 22.1052C81.1548 19.4218 85.5361 18.7682 89.4345 20.0206C90.5091 20.3654 91.533 20.8519 92.4791 21.4673C93.4317 22.1116 94.3105 22.8587 95.0997 23.6952C95.4059 24.0093 95.9712 23.5696 95.7062 23.2025C94.4244 21.4358 92.4712 20.1913 90.4494 19.414C88.4188 18.6323 86.2309 18.3469 84.0678 18.5817C81.8873 18.8155 79.8092 19.6289 78.0494 20.9373C76.2963 22.2595 74.8911 23.9881 73.9546 25.9742C72.9182 28.1806 72.4451 30.6716 72.8102 33.0959C72.8157 33.1872 72.8556 33.273 72.9219 33.3361C72.9882 33.3991 73.076 33.4346 73.1675 33.4354C73.2598 33.4324 73.3473 33.3933 73.4111 33.3265C73.475 33.2597 73.5101 33.1706 73.509 33.0782V33.0821Z" fill="#010012"/>
<path d="M97.3983 25.2994C98.1619 26.6283 99.0099 28.0259 99.0432 29.6042C99.0707 30.9233 98.3876 32.2385 97.0803 32.6526C96.6563 32.7861 96.8585 33.3711 97.2766 33.2965C98.8803 33.0119 99.7774 31.359 99.8284 29.8495C99.8814 28.0357 98.9176 26.4222 97.9028 24.9971C97.8608 24.9361 97.797 24.8936 97.7246 24.8783C97.6522 24.863 97.5767 24.8761 97.5137 24.9149C97.4507 24.9538 97.405 25.0153 97.3861 25.0869C97.3671 25.1584 97.3764 25.2345 97.412 25.2994H97.3983Z" fill="#010012"/>
<path d="M96.2244 33.7636C95.8761 34.2612 95.5544 34.7769 95.2606 35.3085C95.0113 35.76 94.6305 36.3292 94.9858 36.8278C95.097 36.9682 95.2352 37.085 95.3921 37.1713C95.4648 37.2145 95.5413 37.2518 95.6139 37.295C95.6866 37.3382 95.7455 37.3892 95.7592 37.3932C95.7729 37.3971 95.7729 37.4501 95.7592 37.4069C95.7396 37.293 95.7592 37.3833 95.7435 37.4069C95.6728 37.456 95.612 37.668 95.5708 37.7524C95.451 37.986 95.3332 38.2196 95.2115 38.4512C94.285 40.2179 93.174 42.0729 91.4544 43.176C90.9853 43.4783 90.5181 43.6197 89.9763 43.4136C89.4345 43.2075 88.9791 42.7599 88.5375 42.3693C88.4521 42.3131 88.3497 42.2885 88.2482 42.2998C88.1466 42.3112 88.0522 42.3577 87.9813 42.4314C87.9104 42.5051 87.8676 42.6012 87.8602 42.7032C87.8528 42.8051 87.8813 42.9064 87.9407 42.9896C88.7259 43.7924 89.782 44.5717 90.9637 44.3205C91.529 44.2007 92.0335 43.8317 92.4791 43.4764C92.91 43.1338 93.3088 42.7527 93.6706 42.3379C94.3828 41.4922 94.9997 40.5706 95.5099 39.5897C95.771 39.1049 96.0203 38.6082 96.2676 38.1175C96.4153 37.8918 96.5093 37.6353 96.5424 37.3676C96.5398 37.2593 96.5142 37.1528 96.4676 37.0551C96.4209 36.9573 96.3541 36.8705 96.2715 36.8003C96.099 36.6728 95.9165 36.5592 95.7258 36.4607C95.6748 36.4274 95.612 36.392 95.5982 36.341C95.6179 36.4176 95.6257 36.2919 95.6316 36.2703C95.6681 36.1754 95.7107 36.083 95.7592 35.9936C96.0733 35.3379 96.4168 34.6941 96.7819 34.0679C96.9939 33.7067 96.4521 33.4299 96.2244 33.7597V33.7636Z" fill="#010012"/>
<path d="M94.7169 35.0492C94.6746 35.0118 94.63 34.9771 94.5834 34.9452L94.6521 34.9943C94.6043 34.9539 94.5507 34.9208 94.4931 34.8961C94.4348 34.8685 94.3736 34.8474 94.3106 34.8333C94.1765 34.8077 94.0385 34.8117 93.9062 34.8451C93.8693 34.8561 93.8337 34.8712 93.8002 34.8902C93.7399 34.9285 93.69 34.9811 93.6549 35.0433L93.6216 35.0924C93.6008 35.1268 93.5831 35.1629 93.5686 35.2004C93.5082 35.3347 93.4736 35.4792 93.4665 35.6263C93.4642 35.6835 93.4786 35.7401 93.5077 35.7893C93.5254 35.841 93.5565 35.8871 93.598 35.9228C93.6381 35.962 93.6858 35.9926 93.7381 36.0129C93.7904 36.0331 93.8462 36.0425 93.9023 36.0405C93.9719 36.034 94.0409 36.0215 94.1084 36.0032C94.1762 35.9826 94.2419 35.9557 94.3047 35.9228C94.3925 35.875 94.4721 35.8134 94.5402 35.7402C94.6096 35.6678 94.6672 35.585 94.711 35.4948C94.7736 35.3732 94.8078 35.239 94.8111 35.1022C94.8131 35.0853 94.8131 35.0682 94.8111 35.0512V34.9923C94.8065 34.9346 94.7869 34.8791 94.7542 34.8313C94.7134 34.7664 94.6567 34.713 94.5893 34.6763C94.5356 34.6442 94.4774 34.6204 94.4166 34.6056C94.2962 34.5742 94.1698 34.5742 94.0495 34.6056C93.8424 34.6682 93.6678 34.809 93.5627 34.9982C93.496 35.1099 93.4601 35.2372 93.4587 35.3672C93.4572 35.4337 93.4664 35.5 93.4861 35.5635C93.5078 35.6447 93.5509 35.7186 93.6111 35.7773C93.6712 35.836 93.746 35.8775 93.8277 35.8972C93.9361 35.9218 94.0498 35.9043 94.1457 35.8482L94.2281 35.7814C94.2767 35.7292 94.3117 35.6658 94.3302 35.5969L94.291 35.699C94.3085 35.6614 94.3236 35.6227 94.3361 35.5832C94.3567 35.5047 94.3567 35.4222 94.3361 35.3437L94.3243 35.2946L94.3439 35.4104C94.341 35.387 94.341 35.3632 94.3439 35.3398L94.3322 35.4556C94.3357 35.43 94.3423 35.405 94.3518 35.381L94.3106 35.487C94.3225 35.4579 94.3376 35.4302 94.3557 35.4045L94.289 35.4948C94.31 35.4677 94.3337 35.4427 94.3597 35.4202L94.2733 35.4909C94.2997 35.4696 94.3287 35.4518 94.3597 35.4379L94.2556 35.483C94.2822 35.4719 94.3098 35.4633 94.3381 35.4575L94.2222 35.4772C94.2457 35.4742 94.2694 35.4742 94.2929 35.4772L94.1771 35.4654C94.1986 35.4678 94.2198 35.4731 94.2399 35.4811L94.1339 35.4379L94.183 35.4634L93.9572 35.0944C93.9572 35.114 93.9572 35.1336 93.9572 35.1533L93.971 35.0375C93.9647 35.0824 93.9535 35.1265 93.9376 35.169L93.9788 35.0649C93.9605 35.1124 93.9361 35.1572 93.9062 35.1984L93.971 35.1081C93.9369 35.154 93.8973 35.1955 93.8532 35.2318L93.9396 35.1611C93.9023 35.1925 93.8606 35.2183 93.8159 35.2377L93.918 35.1925C93.879 35.2097 93.8382 35.2222 93.7963 35.2298L94.3459 35.6224C94.342 35.5767 94.342 35.5307 94.3459 35.485L94.3341 35.5969C94.341 35.5337 94.3562 35.4716 94.3793 35.4124L94.342 35.5086C94.3521 35.4823 94.3639 35.4568 94.3773 35.432L94.1477 35.6283C94.2045 35.6021 94.2645 35.5836 94.3263 35.5733L94.2281 35.5891C94.2829 35.5822 94.3383 35.5822 94.393 35.5891H94.3008L94.4401 35.6048H94.3518C94.3871 35.6048 94.4225 35.6048 94.4598 35.6165H94.3714C94.4 35.6219 94.4282 35.6291 94.4558 35.6381H94.5383C94.5797 35.641 94.6209 35.6307 94.6561 35.6087C94.7178 35.5833 94.7691 35.5376 94.8013 35.4791C94.8334 35.4188 94.8451 35.3498 94.8349 35.2822C94.8246 35.2147 94.7929 35.1523 94.7444 35.1042L94.7169 35.0492Z" fill="#010012"/>
<path d="M107.296 26.5318C106.65 25.8035 105.562 25.6818 104.675 25.988C103.723 26.3158 103.01 27.0892 102.494 27.9294C101.399 29.7059 100.965 32.2479 102.58 33.8732C103.336 34.6309 104.653 35.0687 105.647 34.5289C105.959 34.3601 105.81 33.7947 105.45 33.8438C104.706 33.94 103.966 33.8831 103.368 33.3747C103.074 33.113 102.836 32.7954 102.668 32.4404C102.499 32.0854 102.404 31.7003 102.386 31.3077C102.353 30.4028 102.57 29.5064 103.012 28.7165C103.381 28.0059 103.872 27.3169 104.583 26.9106C105.293 26.5043 106.216 26.4945 106.85 27.0127C106.915 27.0652 106.998 27.0913 107.081 27.0858C107.164 27.0804 107.243 27.0438 107.301 26.9833C107.358 26.9228 107.391 26.8429 107.393 26.7592C107.395 26.6756 107.365 26.5944 107.309 26.5318H107.296Z" fill="#010012"/>
<path d="M110.831 29.9611C109.037 32.1151 107.71 34.6185 106.934 37.3124C106.717 38.0748 106.549 38.8505 106.432 39.6346C106.375 40.0135 106.946 40.1685 107.021 39.7818C107.655 36.3487 109.103 33.1176 111.243 30.3596C111.467 30.0769 111.066 29.6863 110.833 29.967L110.831 29.9611Z" fill="#010012"/>
<path d="M116.588 28.4026C115.912 29.3026 115.192 30.1681 114.429 30.9957C113.669 31.824 112.859 32.5915 112.056 33.3865C111.822 33.6201 112.158 34.0559 112.429 33.8439C114.233 32.4424 115.754 30.6188 117.059 28.7559C117.256 28.4791 116.783 28.1297 116.578 28.4026H116.588Z" fill="#010012"/>
<path d="M122.13 29.751C121.53 30.3785 120.896 30.9729 120.231 31.5314C119.915 31.7964 119.592 32.0556 119.262 32.3029C118.901 32.5738 118.524 32.827 118.186 33.1254C118.128 33.1835 118.095 33.2613 118.092 33.3431C118.089 33.425 118.117 33.5049 118.17 33.567C118.222 33.628 118.293 33.6689 118.372 33.6825C118.45 33.6961 118.531 33.6817 118.6 33.6416C118.983 33.4369 119.344 33.1957 119.68 32.9212C120.038 32.6464 120.389 32.3598 120.732 32.0614C121.391 31.4806 122.009 30.8556 122.583 30.1907C122.633 30.1294 122.658 30.0516 122.653 29.9727C122.648 29.8939 122.613 29.8198 122.556 29.7654C122.499 29.7109 122.423 29.6799 122.344 29.6787C122.265 29.6775 122.188 29.7062 122.13 29.7589V29.751Z" fill="#010012"/>
<path d="M107.831 26.3723C109.054 24.6008 110.84 23.2942 112.898 22.6643C115.032 22.0266 117.301 21.9906 119.454 22.5602C121.469 23.072 123.274 24.2002 124.617 25.7873C125.874 27.2757 126.563 29.161 126.562 31.1089C126.538 32.1779 126.287 33.2296 125.827 34.1946C125.366 35.1596 124.706 36.016 123.89 36.7073C123.541 37.0037 124.028 37.6024 124.401 37.3315C126.132 36.0733 127.131 34.0377 127.357 31.9334C127.551 29.809 126.969 27.6862 125.718 25.9581C124.42 24.1475 122.582 22.7945 120.467 22.0931C118.203 21.3502 115.777 21.249 113.459 21.8006C110.933 22.3895 108.695 23.8754 107.333 26.0995C107.137 26.4155 107.627 26.6668 107.83 26.3723H107.831Z" fill="#010012"/>
<path d="M108.552 40.5493C110.167 42.6418 111.606 45.4076 114.478 45.8944C115.108 46.0093 115.756 45.9642 116.364 45.7632C116.972 45.5623 117.519 45.2118 117.956 44.7441C118.877 43.7862 119.45 42.4966 119.945 41.2854C120.267 40.5002 120.534 39.6856 120.799 38.8769C121.091 38.0662 121.289 37.2244 121.388 36.3682C121.411 36.062 120.983 36.0737 120.893 36.3132C120.636 36.9944 120.459 37.7128 120.247 38.4077C120.044 39.0745 119.805 39.7297 119.531 40.3707C119.04 41.5111 118.549 42.7262 117.815 43.7293C117.124 44.6715 116.145 45.3213 114.939 45.2427C113.734 45.1642 112.654 44.489 111.82 43.6724C110.746 42.6261 109.949 41.3364 108.976 40.2019C108.78 39.9741 108.387 40.2961 108.562 40.5375L108.552 40.5493Z" fill="#010012"/>
<path d="M115.552 35.2434C115.317 35.8576 115.184 36.5061 115.159 37.1632C115.119 37.4244 115.176 37.6914 115.32 37.913C115.516 38.1486 115.785 38.1466 116.064 38.127C116.488 38.0956 116.351 38.7296 116.278 38.9848C116.196 39.2773 116.081 39.5597 115.937 39.8269C115.793 40.0959 115.593 40.3334 115.452 40.6121C115.409 40.6822 115.395 40.7656 115.41 40.8459C115.426 40.9263 115.471 40.998 115.537 41.047C115.602 41.0959 115.684 41.1188 115.765 41.1109C115.847 41.1031 115.923 41.0653 115.978 41.0047C116.433 40.6121 116.716 39.9251 116.894 39.3696C117.048 38.8965 117.138 38.3469 116.894 37.8875C116.841 37.7882 116.768 37.7009 116.68 37.6313C116.591 37.5617 116.489 37.5112 116.38 37.4832C116.25 37.4598 116.117 37.4598 115.988 37.4832C115.95 37.4832 115.803 37.4832 115.827 37.5106C115.85 37.5381 115.827 37.4419 115.827 37.4164C115.781 36.732 115.869 36.0453 116.086 35.3946C116.184 35.0589 115.693 34.9568 115.569 35.267L115.552 35.2434Z" fill="#010012"/>
<path d="M117.083 36.219C117.43 36.502 117.864 36.656 118.312 36.6548C118.525 36.6544 118.737 36.6179 118.938 36.5469C119.183 36.4864 119.397 36.3374 119.539 36.1287C119.566 36.0779 119.578 36.0197 119.573 35.962C119.567 35.9042 119.544 35.8494 119.507 35.8049C119.47 35.7603 119.421 35.7273 119.365 35.7099C119.31 35.6925 119.251 35.6914 119.195 35.7067C119.098 35.731 119.004 35.7693 118.918 35.8206C118.869 35.8441 118.989 35.7911 118.903 35.8206L118.85 35.8441L118.74 35.8853C118.696 35.8991 118.655 35.9109 118.612 35.9207L118.553 35.9344C118.553 35.9344 118.484 35.9482 118.528 35.9344C118.571 35.9207 118.496 35.9344 118.486 35.9344H118.427H118.294H118.17H118.111C118.078 35.9344 118.051 35.9344 118.1 35.9344C118.017 35.9226 117.935 35.9089 117.852 35.8893C117.815 35.8893 117.776 35.8716 117.738 35.8598L117.67 35.8363C117.589 35.8024 117.51 35.7617 117.436 35.7146C117.372 35.6797 117.298 35.6691 117.227 35.6848C117.156 35.7005 117.094 35.7413 117.05 35.7998C117.007 35.8582 116.987 35.9303 116.993 36.0027C116.999 36.0751 117.031 36.1429 117.083 36.1935V36.219Z" fill="#010012"/>
<path d="M110.497 36.1007C110.733 36.3 111.007 36.4486 111.303 36.5374C111.599 36.6262 111.91 36.6533 112.217 36.6169C112.536 36.5811 112.847 36.488 113.133 36.3421C113.387 36.2126 113.722 36.0006 113.832 35.7257C113.862 35.6669 113.872 35.5999 113.861 35.5348C113.85 35.4697 113.818 35.4099 113.77 35.3644C113.722 35.3189 113.661 35.2901 113.595 35.2824C113.53 35.2746 113.463 35.2883 113.406 35.3214C113.304 35.3867 113.207 35.461 113.118 35.5432C113.019 35.6176 112.914 35.6833 112.804 35.7395C112.606 35.832 112.396 35.8942 112.179 35.924C111.712 35.9863 111.238 35.8888 110.833 35.6472C110.558 35.4823 110.244 35.8926 110.497 36.1046V36.1007Z" fill="#010012"/>
<path d="M110.56 44.5262C110.415 45.2266 110.312 45.9352 110.254 46.6481C110.228 46.9897 110.209 47.3352 110.207 47.6787C110.181 48.0481 110.201 48.4193 110.266 48.7838C110.284 48.8413 110.321 48.8912 110.37 48.9261C110.42 48.961 110.479 48.979 110.54 48.9774C110.6 48.9759 110.658 48.9549 110.706 48.9175C110.753 48.8802 110.788 48.8284 110.803 48.7701C110.843 48.4294 110.856 48.0861 110.841 47.7435C110.85 47.398 110.862 47.0545 110.884 46.7109C110.927 46.0239 110.992 45.3369 111.094 44.6577C111.145 44.3161 110.633 44.1748 110.56 44.5262Z" fill="#010012"/>
<path d="M111.265 49.7181C112.168 50.8959 113.62 51.6517 115.122 51.4848C116.463 51.3435 117.829 50.5033 118.355 49.2215C118.492 48.8859 118.029 48.6071 117.846 48.9428C117.578 49.4607 117.182 49.902 116.696 50.2254C116.21 50.5487 115.65 50.7437 115.069 50.7919C114.438 50.8201 113.809 50.7029 113.23 50.4494C112.651 50.1958 112.139 49.8126 111.732 49.3295C111.508 49.0704 111.051 49.4355 111.261 49.7103L111.265 49.7181Z" fill="#010012"/>
<path d="M108.047 50.9784C107.458 51.4751 106.87 51.9835 106.308 52.5115C106.026 52.7746 105.739 53.0376 105.472 53.3163C105.256 53.5401 105.054 53.8444 105.168 54.1683C105.282 54.4921 105.664 54.6767 105.931 54.8494C106.238 55.0457 106.556 55.2263 106.879 55.3931C107.515 55.717 108.216 56.0625 108.923 56.1783C109.266 56.2372 109.512 55.7583 109.158 55.5894C108.611 55.3127 108.022 55.1183 107.468 54.8514C107.19 54.7179 106.919 54.5746 106.648 54.4234C106.503 54.341 106.355 54.2585 106.21 54.1722C106.069 54.1112 105.937 54.032 105.817 53.9366C105.77 53.8836 105.79 53.97 105.802 53.9131C105.814 53.8561 105.894 53.7874 105.925 53.7521C106.035 53.6324 106.153 53.5165 106.267 53.4007C106.495 53.1652 106.724 52.9355 106.958 52.7058C107.433 52.2374 107.919 51.7793 108.416 51.3318C108.664 51.108 108.293 50.7723 108.043 50.9804L108.047 50.9784Z" fill="#010012"/>
<path d="M105.778 57.5332C107.152 59.5354 108.526 61.5533 109.959 63.5143C110.205 63.848 110.744 63.532 110.515 63.1728C109.209 61.1254 107.753 59.1507 106.261 57.2348C106.043 56.9541 105.566 57.225 105.778 57.5332Z" fill="#010012"/>
<path d="M124.526 53.2589C123.693 54.4969 122.861 55.7401 122.03 56.9886C121.201 58.2292 120.347 59.4599 119.593 60.7476C119.38 61.1167 119.923 61.3817 120.159 61.0578C121.038 59.8525 121.825 58.5766 122.632 57.3281C123.439 56.0797 124.24 54.8136 125.041 53.5553C125.237 53.2334 124.734 52.9665 124.526 53.2727V53.2589Z" fill="#010012"/>
<path d="M123.172 47.2955C123.381 47.5801 123.631 47.8321 123.914 48.0434C124.228 48.3123 124.544 48.5754 124.86 48.8384C125.482 49.3618 126.106 49.8768 126.733 50.3832L126.874 49.7944C125.439 50.4245 123.969 50.9623 122.497 51.4982C122.427 51.5289 122.372 51.584 122.34 51.653C122.308 51.722 122.303 51.8003 122.326 51.8728C122.348 51.9454 122.396 52.0073 122.461 52.0468C122.526 52.0863 122.603 52.1006 122.677 52.0871C124.181 51.6515 125.652 51.111 127.08 50.4696C127.302 50.3715 127.451 50.0613 127.224 49.8807C126.609 49.3743 125.997 48.8718 125.38 48.3712C125.07 48.1199 124.764 47.8687 124.452 47.6233C124.163 47.4108 123.886 47.1828 123.622 46.9402C123.57 46.8924 123.503 46.8647 123.432 46.8625C123.362 46.8602 123.293 46.8834 123.238 46.9278C123.184 46.9722 123.147 47.0348 123.135 47.1041C123.123 47.1735 123.136 47.2449 123.172 47.3053V47.2955Z" fill="#010012"/>
<path d="M100.79 71.8273C102.386 71.154 103.97 70.4532 105.564 69.7779C106.364 69.4377 107.163 69.102 107.963 68.7709C108.76 68.4412 109.576 68.1428 110.352 67.76C110.695 67.5912 110.434 67.0357 110.077 67.1515C109.257 67.4224 108.463 67.7934 107.668 68.133C106.873 68.4726 106.073 68.8161 105.278 69.1635C103.693 69.8545 102.113 70.5592 100.557 71.3228C100.27 71.4622 100.492 71.9647 100.79 71.8371V71.8273Z" fill="#010012"/>
<path d="M107.994 69.5169C107.977 70.8754 108.32 72.2143 108.988 73.3977C109.618 74.5323 110.593 75.7081 111.797 76.2538C112.107 76.3951 112.478 75.9848 112.174 75.7395C111.674 75.3643 111.198 74.9599 110.746 74.5283C110.313 74.0827 109.936 73.5864 109.622 73.0502C108.99 71.9697 108.628 70.7531 108.566 69.5031C108.558 69.4314 108.524 69.3652 108.47 69.3176C108.416 69.2699 108.346 69.2444 108.274 69.2462C108.202 69.2479 108.133 69.2767 108.081 69.3269C108.029 69.3771 107.998 69.4449 107.994 69.5169Z" fill="#010012"/>
<path d="M111.53 66.9369C112.39 66.4812 113.274 66.0717 114.178 65.71C114.986 65.3959 115.846 65.1211 116.73 65.1368C117.644 65.1623 118.288 65.6472 118.889 66.2969C119.58 67.0507 120.231 67.8457 120.966 68.5583C121.238 68.8233 121.751 68.4405 121.5 68.1245C120.96 67.4394 120.355 66.8053 119.77 66.1615C119.26 65.5981 118.746 64.9837 118.029 64.6795C116.608 64.0749 115.03 64.6049 113.697 65.1898C112.857 65.5703 112.038 65.9969 111.245 66.4677C110.933 66.6483 111.223 67.1018 111.538 66.9388L111.53 66.9369Z" fill="#010012"/>
<path d="M118.532 68.0684C119.037 68.5213 119.509 69.0094 119.945 69.5289C120.153 69.7743 120.347 70.0314 120.534 70.2925C120.73 70.583 120.926 70.8814 121.15 71.1581C121.374 71.4349 121.804 71.1228 121.688 70.8264C121.544 70.4929 121.357 70.1794 121.133 69.894C120.922 69.6074 120.701 69.3287 120.469 69.0578C120.014 68.5317 119.509 68.0505 118.961 67.6209C118.901 67.5668 118.822 67.538 118.74 67.5402C118.659 67.5423 118.582 67.5754 118.524 67.6327C118.468 67.692 118.437 67.771 118.439 67.8526C118.441 67.9341 118.475 68.0117 118.534 68.0684H118.532Z" fill="#010012"/>
<path d="M118.522 70.2746C118.763 70.6377 118.999 71.0048 119.24 71.3679C119.469 71.7571 119.74 72.1204 120.047 72.4515C120.097 72.4974 120.16 72.5261 120.228 72.5331C120.295 72.5402 120.363 72.5253 120.422 72.4907C120.48 72.4553 120.525 72.4016 120.549 72.3379C120.573 72.2743 120.575 72.2044 120.555 72.1394C120.35 71.7386 120.103 71.3609 119.817 71.0126C119.554 70.6613 119.287 70.3158 119.032 69.9644C119.012 69.9314 118.985 69.9027 118.954 69.8801C118.922 69.8574 118.887 69.8411 118.849 69.8322C118.811 69.8232 118.772 69.8218 118.734 69.828C118.695 69.8342 118.659 69.8479 118.626 69.8682C118.593 69.8886 118.564 69.9152 118.541 69.9467C118.519 69.9781 118.502 70.0137 118.494 70.0515C118.485 70.0892 118.483 70.1283 118.489 70.1666C118.496 70.2049 118.509 70.2416 118.53 70.2746H118.522Z" fill="#010012"/>
<path d="M111.163 72.5362C111.979 73.4548 112.908 74.3558 114.211 74.4128C115.514 74.4697 116.7 73.6825 117.892 73.2487C117.934 73.2358 117.974 73.2147 118.009 73.1864C118.043 73.1581 118.072 73.1233 118.093 73.0839C118.114 73.0445 118.128 73.0014 118.132 72.9569C118.137 72.9124 118.132 72.8675 118.119 72.8247C118.106 72.7819 118.085 72.7421 118.057 72.7075C118.029 72.6729 117.994 72.6442 117.954 72.6231C117.915 72.6019 117.872 72.5887 117.827 72.5843C117.783 72.5798 117.738 72.5841 117.695 72.597C116.574 72.8856 115.536 73.6256 114.358 73.6551C113.218 73.6826 112.366 72.8169 111.62 72.0651C111.322 71.7628 110.894 72.226 111.17 72.5362H111.163Z" fill="#010012"/>
<path d="M118.486 72.6302C119.35 73.4566 119.815 74.707 120.968 75.2173C121.661 75.5255 122.43 75.5334 123.174 75.5177C123.967 75.5024 124.758 75.4368 125.543 75.3214C126.44 75.2012 127.322 74.9908 128.176 74.6932C128.258 74.6672 128.326 74.6097 128.365 74.5333C128.405 74.4569 128.413 74.3679 128.387 74.2859C128.361 74.2039 128.303 74.1356 128.227 74.0961C128.15 74.0565 128.061 74.0489 127.979 74.0749C126.124 74.493 124.25 74.8758 122.342 74.7933C121.912 74.7926 121.488 74.6911 121.105 74.4969C120.815 74.3241 120.554 74.1053 120.334 73.8492C119.843 73.3054 119.44 72.6989 118.867 72.2297C118.588 72.0001 118.208 72.3828 118.475 72.64L118.486 72.6302Z" fill="#010012"/>
<path d="M122.141 69.8819C123.262 70.6533 124.746 71.0597 126.093 70.7613C126.456 70.6808 126.354 70.1057 125.991 70.1233C125.377 70.167 124.76 70.1327 124.155 70.0213C123.55 69.8917 122.972 69.6586 122.446 69.3323C122.41 69.3123 122.37 69.2996 122.329 69.295C122.288 69.2903 122.246 69.2938 122.207 69.3052C122.167 69.3166 122.13 69.3357 122.098 69.3614C122.066 69.3871 122.039 69.4189 122.019 69.455C121.999 69.491 121.986 69.5307 121.981 69.5717C121.977 69.6127 121.98 69.6542 121.992 69.6938C122.003 69.7335 122.022 69.7705 122.048 69.8028C122.074 69.835 122.105 69.8619 122.141 69.8819Z" fill="#010012"/>
<path d="M123.58 68.7999C124.372 68.2852 125.278 67.9712 126.219 67.8852C126.878 67.8283 127.985 67.7615 128.335 68.4741C128.494 68.7999 129.02 68.5546 128.91 68.2169C128.58 67.2139 127.294 67.1295 126.409 67.1942C125.285 67.2756 124.205 67.6669 123.29 68.3249C123.003 68.533 123.278 68.9962 123.584 68.7999H123.58Z" fill="#010012"/>
<path d="M129.283 69.3042C129.686 70.4291 129.755 71.6471 129.479 72.8101C129.194 74.0016 128.564 74.9792 127.761 75.8821C127.54 76.1295 127.854 76.5711 128.144 76.3532C129.198 75.568 129.866 74.2843 130.16 73.0162C130.473 71.7214 130.373 70.3611 129.875 69.1256C129.728 68.7703 129.151 68.9293 129.287 69.3023L129.283 69.3042Z" fill="#010012"/>
<path d="M130.082 68.4053C131.652 68.0912 133.222 67.9381 134.805 67.7457C135.219 67.6966 135.223 67.0724 134.787 67.0862C133.141 67.1735 131.508 67.4314 129.915 67.8556C129.552 67.944 129.718 68.4759 130.082 68.4053Z" fill="#010012"/>
<path d="M138.807 64.7171C138.921 68.0228 139.003 71.3362 138.899 74.6419C138.876 75.4545 138.843 76.2672 138.801 77.0799C138.809 77.436 138.735 77.7893 138.585 78.1124C138.436 78.3626 138.221 78.5664 137.963 78.7013C137.341 79.0487 136.569 79.0389 135.884 78.9329C135.117 78.8132 134.367 78.5933 133.615 78.4049L130.908 77.7218C129.989 77.4882 129.075 77.2428 128.142 77.0759C128.06 77.0685 127.979 77.0908 127.912 77.1387C127.845 77.1866 127.798 77.2569 127.779 77.3368C127.76 77.4166 127.77 77.5007 127.808 77.5736C127.846 77.6464 127.909 77.7032 127.985 77.7335C129.642 78.2733 131.365 78.6365 133.054 79.0625C133.86 79.2588 134.665 79.4963 135.484 79.6513C136.269 79.7946 137.103 79.8476 137.871 79.5807C138.199 79.4792 138.502 79.3087 138.759 79.0805C139.016 78.8523 139.221 78.5717 139.361 78.2576C139.489 77.8871 139.556 77.4977 139.557 77.1054C139.574 76.6696 139.586 76.2338 139.598 75.7981C139.645 74.0706 139.656 72.3432 139.631 70.6158C139.598 68.6411 139.504 66.6722 139.325 64.7053C139.318 64.6423 139.288 64.5841 139.24 64.5423C139.193 64.5005 139.131 64.4781 139.068 64.4796C139.004 64.481 138.944 64.5063 138.898 64.5503C138.852 64.5943 138.825 64.6538 138.821 64.7171H138.807Z" fill="#010012"/>
<path d="M98.0559 81.66C98.8269 82.4204 99.655 83.1206 100.533 83.7544C100.95 84.0914 101.407 84.3755 101.893 84.6005C102.138 84.6903 102.398 84.7298 102.658 84.7166C102.918 84.7035 103.173 84.6379 103.407 84.5239C104.388 84.098 105.303 83.4482 106.173 82.8338C107.042 82.2194 107.92 81.5324 108.76 80.8394C109.721 80.083 110.639 79.2723 111.508 78.4113C111.765 78.1443 111.4 77.6614 111.086 77.895C110.264 78.5074 109.516 79.2161 108.73 79.8776C107.945 80.5391 107.16 81.1849 106.33 81.7934C105.519 82.3956 104.677 82.9551 103.807 83.4698C103.415 83.7014 102.961 84.0116 102.486 83.99C102.011 83.9684 101.593 83.5974 101.224 83.3579C100.256 82.7184 99.3374 82.0071 98.4759 81.2301C98.4189 81.1757 98.3426 81.1461 98.2639 81.148C98.1851 81.1498 98.1103 81.1829 98.0559 81.2399C98.0015 81.2969 97.9719 81.3732 97.9738 81.452C97.9756 81.5307 98.0087 81.6055 98.0657 81.66H98.0559Z" fill="#010012"/>
<path d="M112.297 94.0914C113.714 94.1346 115.132 94.1424 116.549 94.1523C117.966 94.1621 119.385 94.1954 120.801 94.1523C121.233 94.1385 121.211 93.5025 120.783 93.4868C119.368 93.4417 117.949 93.475 116.533 93.4868C115.118 93.4986 113.699 93.5045 112.283 93.5477C112.211 93.5495 112.141 93.5802 112.091 93.633C112.041 93.6858 112.014 93.7565 112.016 93.8294C112.017 93.9022 112.048 93.9714 112.101 94.0217C112.154 94.0719 112.224 94.0991 112.297 94.0973V94.0914Z" fill="#010012"/>
<path d="M115.155 111.46C116.967 112.202 118.746 113.012 120.536 113.815C120.895 113.974 121.193 113.464 120.836 113.271C119.08 112.342 117.251 111.554 115.369 110.916C115.057 110.808 114.843 111.336 115.155 111.463V111.46Z" fill="#010012"/>
<path d="M119.366 126.219C118.712 132.369 118.072 138.52 117.448 144.67C116.824 150.821 116.181 156.966 115.52 163.105C115.341 164.825 115.164 166.548 114.988 168.271C114.812 169.991 114.623 171.712 114.521 173.438C114.5 173.815 115.13 173.887 115.187 173.512C115.654 170.444 115.919 167.339 116.235 164.253C116.551 161.167 116.865 158.077 117.173 154.99C117.788 148.846 118.388 142.701 118.973 136.556C119.299 133.109 119.62 129.662 119.935 126.215C119.966 125.85 119.405 125.873 119.366 126.228V126.219Z" fill="#010012"/>
<path d="M104 155.271C105.25 160.257 106.475 165.248 107.586 170.268C107.898 171.675 108.155 173.104 108.546 174.492C108.652 174.869 109.3 174.786 109.245 174.38C109.072 173.108 108.772 171.848 108.497 170.596C108.222 169.343 107.928 168.057 107.629 166.791C107.036 164.277 106.406 161.771 105.739 159.273C105.362 157.877 104.969 156.487 104.561 155.104C104.536 155.034 104.485 154.977 104.418 154.944C104.352 154.911 104.276 154.904 104.205 154.925C104.134 154.947 104.074 154.994 104.037 155.059C104 155.123 103.988 155.199 104.006 155.271H104Z" fill="#010012"/>
<path d="M108.707 175.523C109.161 175.94 109.701 176.253 110.289 176.438C110.878 176.623 111.499 176.677 112.111 176.594C112.702 176.515 113.271 176.314 113.781 176.005C114.248 175.715 114.818 175.261 115.039 174.739C115.083 174.661 115.097 174.569 115.078 174.482C115.058 174.394 115.007 174.317 114.934 174.264C114.862 174.212 114.772 174.188 114.683 174.197C114.593 174.207 114.511 174.249 114.451 174.315C114.254 174.48 114.107 174.686 113.917 174.855C113.743 175.008 113.556 175.145 113.357 175.263C112.946 175.521 112.489 175.695 112.011 175.776C111.511 175.847 111.002 175.818 110.513 175.692C110.024 175.565 109.565 175.344 109.162 175.04C108.827 174.783 108.377 175.236 108.699 175.524L108.707 175.523Z" fill="#010012"/>
<path d="M114.598 177.06C114.637 177.845 114.704 178.63 114.808 179.415C114.859 179.798 114.914 180.179 114.979 180.558C115.026 180.955 115.119 181.346 115.255 181.722C115.276 181.779 115.316 181.828 115.369 181.859C115.422 181.89 115.483 181.902 115.544 181.892C115.604 181.883 115.659 181.852 115.7 181.807C115.74 181.761 115.764 181.702 115.766 181.641C115.752 181.258 115.706 180.876 115.628 180.501C115.567 180.108 115.509 179.737 115.456 179.354C115.35 178.589 115.257 177.821 115.177 177.052C115.14 176.687 114.588 176.691 114.588 177.067L114.598 177.06Z" fill="#010012"/>
<path d="M112.959 177.536C112.998 178.092 113.043 178.645 113.09 179.201C113.114 179.48 113.139 179.756 113.167 180.033C113.177 180.317 113.217 180.6 113.287 180.875C113.367 181.111 113.785 181.15 113.822 180.862C113.843 180.58 113.831 180.298 113.789 180.019C113.764 179.741 113.734 179.464 113.705 179.187C113.644 178.632 113.581 178.076 113.508 177.523C113.467 177.175 112.929 177.175 112.955 177.536H112.959Z" fill="#010012"/>
<path d="M111.587 177.661C111.58 178.826 111.693 179.989 111.924 181.131C112.003 181.49 112.609 181.398 112.572 181.027C112.458 179.898 112.299 178.777 112.221 177.645C112.213 177.565 112.175 177.491 112.115 177.438C112.055 177.385 111.977 177.357 111.896 177.358C111.816 177.36 111.74 177.393 111.682 177.449C111.625 177.505 111.591 177.58 111.587 177.661Z" fill="#010012"/>
<path d="M120.773 155.196C120.799 161.701 120.987 168.207 121.166 174.708C121.215 176.537 121.238 178.371 121.339 180.204C121.347 180.284 121.385 180.359 121.445 180.412C121.506 180.466 121.584 180.494 121.665 180.492C121.746 180.49 121.823 180.458 121.88 180.402C121.938 180.345 121.973 180.269 121.977 180.188C121.998 176.922 121.863 173.648 121.78 170.383C121.698 167.119 121.625 163.906 121.527 160.677C121.472 158.847 121.409 157.018 121.331 155.18C121.323 155.111 121.29 155.047 121.238 155.001C121.186 154.955 121.118 154.931 121.049 154.933C120.979 154.934 120.913 154.962 120.863 155.011C120.813 155.059 120.783 155.125 120.779 155.194L120.773 155.196Z" fill="#010012"/>
<path d="M130.78 154.366C129.799 159.382 128.874 164.413 127.993 169.448C127.748 170.853 127.463 172.266 127.32 173.686C127.282 174.051 127.865 174.096 127.95 173.756C128.252 172.526 128.437 171.261 128.658 170.015C128.88 168.768 129.098 167.512 129.32 166.262C129.762 163.76 130.201 161.256 130.635 158.751C130.881 157.338 131.118 155.925 131.358 154.511C131.422 154.137 130.855 153.989 130.78 154.366Z" fill="#010012"/>
<path d="M121.859 175.045C123.296 176.011 125.369 175.956 126.699 174.824C126.984 174.58 126.595 174.115 126.287 174.317C125.053 175.134 123.459 175.263 122.165 174.472C121.802 174.248 121.503 174.814 121.849 175.045H121.859Z" fill="#010012"/>
<path d="M126.966 175.771C126.86 176.668 126.76 177.564 126.664 178.461C126.57 179.352 126.417 180.267 126.419 181.162C126.421 181.235 126.45 181.306 126.5 181.36C126.55 181.414 126.618 181.448 126.691 181.457C126.764 181.465 126.838 181.446 126.899 181.404C126.959 181.362 127.003 181.3 127.021 181.228C127.202 180.353 127.237 179.43 127.324 178.541C127.41 177.652 127.492 176.739 127.569 175.838C127.596 175.499 127.006 175.43 126.966 175.771Z" fill="#010012"/>
<path d="M126.056 182.224C127.758 183.224 129.35 184.4 130.806 185.734C131.163 186.066 131.513 186.407 131.844 186.762C132.017 186.945 132.412 187.351 132.133 187.591C131.854 187.83 131.348 187.787 131.034 187.811C130.488 187.848 129.94 187.875 129.395 187.893C128.141 187.932 126.887 187.932 125.632 187.893C125.574 187.882 125.515 187.884 125.458 187.899C125.402 187.914 125.349 187.941 125.304 187.979C125.26 188.017 125.224 188.064 125.2 188.118C125.176 188.171 125.164 188.229 125.166 188.288C125.167 188.346 125.181 188.404 125.208 188.456C125.234 188.508 125.272 188.554 125.318 188.59C125.365 188.625 125.419 188.65 125.476 188.663C125.533 188.675 125.592 188.674 125.649 188.661C126.886 188.761 128.127 188.796 129.367 188.767C129.995 188.753 130.621 188.723 131.248 188.682C131.699 188.653 132.188 188.616 132.579 188.362C132.794 188.227 132.958 188.025 133.047 187.787C133.136 187.549 133.144 187.288 133.069 187.045C132.918 186.521 132.48 186.119 132.088 185.748C131.299 184.968 130.455 184.246 129.561 183.588C128.555 182.845 127.479 182.202 126.348 181.669C126.276 181.629 126.191 181.619 126.112 181.642C126.033 181.665 125.966 181.718 125.926 181.79C125.886 181.862 125.877 181.947 125.899 182.027C125.922 182.106 125.976 182.173 126.048 182.212L126.056 182.224Z" fill="#010012"/>
<path d="M108.727 176.806C109.072 180.12 109.469 183.427 109.867 186.735C109.918 187.145 109.955 187.559 110.02 187.966C110.037 188.147 110.093 188.323 110.184 188.482C110.274 188.64 110.398 188.778 110.546 188.884C110.85 189.08 111.225 189.118 111.577 189.167C111.991 189.226 112.405 189.279 112.819 189.33C114.456 189.526 116.098 189.664 117.744 189.744C119.607 189.83 121.474 189.83 123.333 189.762C123.411 189.76 123.487 189.738 123.553 189.698C123.62 189.658 123.675 189.6 123.712 189.532C123.85 189.188 123.895 188.814 123.843 188.447C123.791 188.08 123.643 187.734 123.415 187.441C122.938 186.798 122.238 186.366 121.6 185.906C120.186 184.893 118.772 183.883 117.356 182.876C117.305 182.847 117.249 182.83 117.191 182.823C117.134 182.817 117.075 182.821 117.02 182.838C116.964 182.854 116.912 182.88 116.866 182.917C116.821 182.953 116.783 182.998 116.755 183.048C116.727 183.099 116.709 183.155 116.703 183.213C116.696 183.27 116.701 183.329 116.717 183.384C116.733 183.44 116.76 183.492 116.796 183.538C116.832 183.583 116.877 183.621 116.928 183.649C118.181 184.549 119.439 185.447 120.701 186.342C121.274 186.75 121.896 187.127 122.404 187.62C122.775 187.977 123.158 188.568 122.933 189.104L123.311 188.874C120.163 188.978 117.011 188.867 113.877 188.541C113.092 188.46 112.307 188.368 111.51 188.25C111.304 188.221 111.029 188.215 110.941 187.995C110.894 187.846 110.867 187.692 110.858 187.536L110.77 186.858C110.562 185.276 110.351 183.695 110.136 182.114C109.896 180.338 109.648 178.564 109.39 176.79C109.329 176.378 108.683 176.376 108.727 176.806Z" fill="#010012"/>
<path d="M111.899 183.253C112.086 183.104 112.302 182.995 112.532 182.931C112.763 182.866 113.004 182.849 113.241 182.88C113.527 182.908 113.808 182.97 114.08 183.064C114.374 183.158 114.706 183.363 115.022 183.351C115.092 183.346 115.16 183.322 115.217 183.28C115.274 183.238 115.318 183.181 115.344 183.115C115.369 183.049 115.375 182.977 115.361 182.908C115.346 182.839 115.313 182.775 115.263 182.725C115.11 182.596 114.93 182.504 114.737 182.454C114.564 182.389 114.39 182.328 114.211 182.277C113.865 182.172 113.507 182.115 113.145 182.11C112.828 182.101 112.512 182.161 112.219 182.284C111.926 182.407 111.663 182.592 111.447 182.825C111.398 182.886 111.374 182.963 111.379 183.041C111.385 183.119 111.419 183.193 111.476 183.246C111.533 183.3 111.608 183.331 111.686 183.332C111.764 183.333 111.84 183.305 111.899 183.253Z" fill="#010012"/>
<path d="M116.708 186.34C116.865 186.177 117.02 186.016 117.185 185.865L117.311 185.757C117.352 185.722 117.311 185.757 117.338 185.734L117.395 185.691C117.487 185.62 117.591 185.555 117.68 185.494C117.768 185.433 117.876 185.38 117.962 185.329L118.108 185.253L118.19 185.214H118.204C118.416 185.121 118.636 185.053 118.85 184.962C118.926 184.938 118.991 184.887 119.033 184.819C119.074 184.751 119.091 184.671 119.078 184.592C119.065 184.513 119.025 184.441 118.964 184.389C118.903 184.338 118.825 184.31 118.746 184.311C118.225 184.385 117.73 184.583 117.301 184.888C116.859 185.166 116.48 185.534 116.19 185.967C115.993 186.285 116.457 186.605 116.708 186.348V186.34Z" fill="#010012"/>
<path d="M118.622 187.412C118.696 187.338 118.773 187.267 118.853 187.198C118.877 187.177 118.84 187.208 118.883 187.175L118.94 187.129C118.983 187.096 119.026 187.061 119.071 187.029C119.245 186.902 119.43 186.79 119.623 186.694L119.688 186.66H119.701C119.751 186.639 119.802 186.617 119.855 186.597C119.951 186.56 120.051 186.527 120.151 186.495C120.361 186.433 120.583 186.409 120.789 186.332C120.858 186.31 120.918 186.267 120.961 186.208C121.004 186.15 121.027 186.079 121.026 186.007C121.024 185.934 120.998 185.863 120.952 185.806C120.907 185.749 120.844 185.709 120.773 185.691C120.267 185.606 119.709 185.822 119.262 186.046C118.825 186.264 118.442 186.576 118.139 186.959C118.106 186.99 118.08 187.027 118.062 187.069C118.044 187.11 118.034 187.155 118.034 187.201C118.034 187.246 118.044 187.291 118.061 187.332C118.079 187.374 118.105 187.412 118.138 187.443C118.171 187.474 118.21 187.498 118.252 187.514C118.295 187.53 118.34 187.537 118.385 187.534C118.431 187.532 118.475 187.521 118.516 187.501C118.556 187.481 118.592 187.452 118.622 187.418V187.412Z" fill="#010012"/>
<path d="M125.765 184.89C126.138 184.519 126.586 184.232 127.08 184.05C127.597 183.898 128.139 183.853 128.674 183.917C128.759 183.914 128.841 183.88 128.903 183.822C128.966 183.764 129.005 183.685 129.014 183.601C129.022 183.516 129 183.432 128.952 183.362C128.904 183.292 128.833 183.242 128.751 183.22C128.138 183.023 127.41 183.124 126.813 183.336C126.177 183.549 125.621 183.953 125.221 184.492C125.181 184.564 125.169 184.648 125.187 184.728C125.206 184.809 125.253 184.88 125.319 184.928C125.386 184.976 125.467 184.998 125.549 184.991C125.631 184.984 125.707 184.949 125.765 184.89Z" fill="#010012"/>
<path d="M127.5 186.164C127.653 185.979 127.823 185.809 128.009 185.657C128.112 185.575 128.221 185.499 128.335 185.43L128.499 185.337L128.594 185.292C128.607 185.284 128.622 185.278 128.637 185.273C128.753 185.224 128.872 185.181 128.992 185.145C129.054 185.128 129.115 185.112 129.175 185.098C129.253 185.08 129.281 185.076 129.322 185.07C129.583 185.037 129.85 185.033 130.107 185.025C130.49 185.025 130.513 184.503 130.178 184.389C129.589 184.193 128.9 184.323 128.346 184.572C127.767 184.814 127.284 185.24 126.972 185.785C126.8 186.099 127.251 186.456 127.49 186.164H127.5Z" fill="#010012"/>
<path d="M123.824 181.666C123.728 181.961 123.176 181.845 122.954 181.743C122.365 181.472 121.788 181.062 121.105 181.246C120.546 181.398 120.2 181.906 120.031 182.424C119.945 182.73 119.897 183.045 119.89 183.362C119.868 183.692 119.819 184.01 119.78 184.344C119.763 184.424 119.775 184.507 119.814 184.579C119.853 184.651 119.916 184.707 119.992 184.736C120.068 184.766 120.152 184.768 120.229 184.742C120.306 184.716 120.372 184.663 120.414 184.593C120.763 184.028 120.61 183.296 120.807 182.679C120.944 182.214 121.252 181.908 121.755 182.065C122.041 182.155 122.3 182.324 122.577 182.438C122.822 182.541 123.085 182.595 123.351 182.597C123.855 182.597 124.364 182.353 124.493 181.831C124.601 181.401 123.967 181.254 123.834 181.666H123.824Z" fill="#010012"/>
<path d="M123.998 177.101C123.92 177.696 123.884 178.297 123.89 178.897C123.89 179.194 123.879 179.486 123.873 179.788C123.854 180.086 123.854 180.384 123.873 180.681C123.877 180.768 123.912 180.851 123.971 180.915C124.03 180.978 124.11 181.019 124.197 181.029C124.284 181.039 124.371 181.018 124.443 180.968C124.516 180.919 124.567 180.845 124.589 180.76C124.619 180.454 124.63 180.147 124.621 179.839C124.621 179.541 124.621 179.25 124.621 178.946C124.644 178.351 124.625 177.756 124.566 177.164C124.562 177.094 124.535 177.028 124.487 176.978C124.44 176.927 124.376 176.895 124.307 176.887C124.237 176.878 124.167 176.895 124.11 176.935C124.052 176.974 124.011 177.033 123.994 177.101H123.998Z" fill="#010012"/>
<path d="M125.433 176.936C125.378 177.633 125.349 178.331 125.321 179.03L125.278 180.077C125.264 180.402 125.186 180.817 125.292 181.129C125.374 181.366 125.775 181.464 125.881 181.19C126.012 180.872 125.975 180.481 125.985 180.139L126.01 179.054C126.026 178.343 126.044 177.631 126.034 176.92C126.034 176.528 125.457 176.555 125.427 176.936H125.433Z" fill="#010012"/>
<path d="M75.7154 184.02C76.0766 184.389 76.6871 184.556 77.1837 184.628C77.7273 184.705 78.2805 184.675 78.813 184.542C79.3207 184.414 79.7991 184.191 80.2224 183.882C80.615 183.588 81.2039 183.097 81.2431 182.573C81.2409 182.515 81.2236 182.459 81.1929 182.409C81.1622 182.36 81.1191 182.319 81.0679 182.292C81.0168 182.264 80.9593 182.251 80.9012 182.252C80.8431 182.254 80.7864 182.27 80.7367 182.3C80.5404 182.418 80.4089 182.654 80.2499 182.82C80.1076 182.973 79.9504 183.111 79.7807 183.233C79.417 183.485 79.0097 183.668 78.5794 183.773C78.1755 183.874 77.7568 183.903 77.3427 183.859C76.8657 183.81 76.4731 183.596 76.0256 183.466C75.6938 183.366 75.4956 183.802 75.7154 184.026V184.02Z" fill="#010012"/>
<path d="M81.8988 184.079C85.1336 185.286 88.265 186.754 91.2621 188.468C91.4466 188.576 91.6292 188.682 91.8117 188.792C91.906 188.849 92.1101 188.937 92.1454 189.051C92.2122 189.273 91.692 189.444 91.5565 189.485C90.7596 189.756 89.9057 189.793 89.0734 189.842C87.2593 189.946 85.4408 189.952 83.6262 189.858C81.5927 189.75 79.5661 189.536 77.5547 189.218C77.1091 189.147 76.9285 189.807 77.382 189.905C81.2342 190.685 85.1726 190.953 89.095 190.702C90.0156 190.649 90.9696 190.6 91.8431 190.284C92.2357 190.144 92.6283 189.95 92.858 189.585C92.9685 189.406 93.0156 189.194 92.9918 188.985C92.968 188.776 92.8745 188.581 92.7265 188.431C92.4458 188.128 92.0218 187.94 91.6704 187.738C91.2595 187.505 90.8473 187.276 90.4337 187.051C89.6027 186.602 88.7619 186.174 87.9113 185.767C86.0183 184.852 84.0691 184.058 82.0754 183.39C81.9841 183.368 81.8878 183.383 81.8073 183.431C81.7269 183.48 81.6687 183.558 81.6455 183.649C81.6245 183.74 81.6395 183.836 81.6875 183.916C81.7354 183.996 81.8126 184.054 81.9027 184.079H81.8988Z" fill="#010012"/>
<path d="M85.9169 185.461C85.4419 184.637 84.3465 185.563 83.9127 185.962C83.6275 186.225 83.3715 186.519 83.1491 186.837C83.0414 186.987 82.943 187.144 82.8547 187.306C82.7389 187.492 82.6714 187.704 82.6584 187.923C82.6608 187.988 82.6822 188.05 82.7198 188.103C82.7575 188.156 82.8098 188.197 82.8704 188.221C82.9319 188.243 82.9984 188.248 83.0623 188.234C83.1262 188.22 83.1849 188.188 83.2316 188.142C83.3519 188.02 83.4507 187.878 83.5241 187.722C83.6006 187.587 83.685 187.453 83.7714 187.33C83.8463 187.216 83.9276 187.107 84.0148 187.002C84.1149 186.88 84.2111 186.764 84.3269 186.651C84.5288 186.433 84.7509 186.236 84.9904 186.062C85.0454 186.022 85.1023 185.981 85.1592 185.946C85.1901 185.925 85.2222 185.906 85.2554 185.889L85.2888 185.871C85.2652 185.883 85.2672 185.883 85.2888 185.871C85.3103 185.859 85.3496 185.854 85.3771 185.842C85.4576 185.812 85.3496 185.842 85.4222 185.842C85.4949 185.842 85.3908 185.826 85.4595 185.842C85.5282 185.857 85.5381 185.889 85.4595 185.826C85.5117 185.872 85.5785 185.898 85.648 185.9C85.7176 185.901 85.7854 185.878 85.8395 185.834C85.8936 185.791 85.9305 185.729 85.9436 185.661C85.9567 185.592 85.9451 185.522 85.911 185.461H85.9169Z" fill="#010012"/>
<path d="M88.0546 185.956C87.4286 186.038 86.8505 186.335 86.4194 186.796C86.2097 187.009 86.0301 187.249 85.8855 187.511C85.806 187.657 85.7403 187.81 85.6892 187.968C85.6165 188.14 85.6013 188.331 85.646 188.512C85.6639 188.567 85.6956 188.616 85.7379 188.655C85.7803 188.693 85.8319 188.721 85.8879 188.734C85.9438 188.747 86.0023 188.746 86.0575 188.73C86.1128 188.714 86.163 188.684 86.2035 188.643C86.3074 188.506 86.3834 188.35 86.4273 188.184C86.4273 188.164 86.4724 188.078 86.4273 188.163C86.441 188.135 86.4508 188.108 86.4646 188.078C86.4783 188.049 86.5176 187.968 86.5451 187.913C86.6062 187.796 86.6751 187.682 86.7512 187.574C86.8081 187.489 86.7021 187.634 86.7649 187.554L86.8218 187.481C86.865 187.43 86.9082 187.379 86.9534 187.332C86.9985 187.285 87.0476 187.236 87.0967 187.191L87.1654 187.13C87.1791 187.118 87.2517 187.059 87.185 187.112C87.2849 187.033 87.3891 186.96 87.4971 186.892C87.554 186.857 87.6109 186.824 87.6698 186.794L87.7523 186.753C87.8426 186.708 87.6855 186.779 87.7778 186.739C87.9015 186.688 88.0251 186.637 88.1488 186.59C88.2227 186.566 88.2857 186.517 88.3266 186.45C88.3676 186.384 88.3838 186.306 88.3726 186.229C88.3607 186.152 88.321 186.081 88.2611 186.031C88.2011 185.981 88.1249 185.954 88.0467 185.956H88.0546Z" fill="#010012"/>
<path d="M65.5806 190.91C65.8771 192.122 65.7122 193.419 66.1322 194.605C66.5523 195.79 67.524 196.568 68.6056 197.131C71.0191 198.368 73.5911 199.267 76.2494 199.805C78.9349 200.375 81.6832 200.593 84.4251 200.454C84.959 200.425 85.5891 200.401 85.9719 199.967C86.4646 199.41 86.0642 198.776 85.6284 198.35C84.6718 197.412 83.6772 196.515 82.6447 195.659C80.3105 193.713 77.8076 191.979 75.1658 190.477C74.6672 190.192 74.2354 190.971 74.7339 191.262C76.918 192.502 79.007 193.902 80.984 195.451C81.9812 196.236 82.947 197.055 83.8814 197.908C84.3401 198.301 84.7778 198.718 85.1926 199.157C85.2849 199.259 85.3712 199.353 85.279 199.43C85.1357 199.559 84.8491 199.561 84.6705 199.573C79.5602 199.9 74.4491 198.948 69.7991 196.803C68.7194 196.303 67.5102 195.714 66.9783 194.579C66.4149 193.38 66.6073 191.976 66.1931 190.73C66.1636 190.654 66.1065 190.592 66.0331 190.556C65.9598 190.52 65.8757 190.513 65.7976 190.537C65.7195 190.56 65.6532 190.613 65.6119 190.683C65.5706 190.753 65.5573 190.837 65.5748 190.916L65.5806 190.91Z" fill="#010012"/>
<path d="M75.8665 195.873C76.2652 195.371 76.758 194.953 77.3172 194.64C77.5817 194.493 77.8598 194.372 78.1475 194.279C78.3085 194.228 78.4694 194.185 78.6343 194.149C78.8005 194.13 78.9646 194.096 79.1251 194.049C79.2017 194.023 79.2684 193.973 79.3158 193.908C79.3633 193.842 79.3892 193.763 79.3901 193.682C79.3878 193.601 79.3589 193.522 79.3079 193.459C79.2568 193.395 79.1864 193.35 79.1074 193.331C78.7193 193.31 78.3316 193.378 77.9728 193.527C77.6219 193.642 77.2833 193.791 76.9619 193.973C76.3318 194.328 75.7835 194.813 75.3523 195.394C75.2906 195.463 75.2576 195.553 75.2597 195.645C75.2619 195.738 75.2992 195.826 75.364 195.892C75.4325 195.957 75.5236 195.992 75.6177 195.99C75.7118 195.988 75.8012 195.948 75.8665 195.881V195.873Z" fill="#010012"/>
<path d="M78.8915 196.843C79.2228 196.486 79.6117 196.187 80.0418 195.959C80.1284 195.912 80.2182 195.872 80.3107 195.838C80.4285 195.791 80.5482 195.749 80.668 195.714C80.7877 195.679 80.9133 195.651 81.037 195.626L81.2215 195.59C81.2471 195.59 81.2765 195.59 81.304 195.575C81.2412 195.592 81.463 195.498 81.4159 195.52C81.4866 195.496 81.5482 195.451 81.5918 195.39C81.6355 195.329 81.6591 195.257 81.6593 195.182C81.656 195.108 81.6292 195.036 81.5826 194.978C81.536 194.92 81.4721 194.878 81.4002 194.858C81.0841 194.8 80.7581 194.827 80.456 194.937C80.173 195.019 79.8999 195.131 79.6413 195.272C79.115 195.543 78.667 195.945 78.3399 196.438C78.1259 196.778 78.6226 197.112 78.8915 196.843Z" fill="#010012"/>
<path d="M64.1889 188.382C64.3263 189.104 65.19 189.577 65.7808 189.891C66.4754 190.256 67.2223 190.512 67.9951 190.649C69.4849 190.918 71.2359 190.814 72.5982 190.099C73.0222 189.875 72.7042 189.184 72.2527 189.336C71.628 189.572 70.9808 189.745 70.3212 189.85C69.6432 189.933 68.9569 189.924 68.2816 189.821C67.6176 189.719 66.97 189.53 66.356 189.257C65.7671 188.994 65.1213 188.668 64.7228 188.142C64.6841 188.083 64.6257 188.04 64.5581 188.021C64.4905 188.001 64.4182 188.006 64.3539 188.035C64.2897 188.064 64.2378 188.114 64.2076 188.178C64.1773 188.241 64.1707 188.314 64.1889 188.382Z" fill="#010012"/>
<path d="M82.4818 116.345C81.1077 125.895 79.9044 135.472 78.7227 145.049C77.541 154.626 76.4221 164.2 75.3778 173.785C74.7889 179.162 74.1549 184.538 73.7073 189.928C73.67 190.372 74.4395 190.46 74.4925 190.015C75.0814 185.237 75.5427 180.439 76.0629 175.654C76.583 170.868 77.1209 166.035 77.6705 161.236C78.7593 151.692 79.9018 142.154 81.0979 132.622C81.7731 127.249 82.4621 121.878 83.1256 116.504C83.1786 116.09 82.5367 115.915 82.4837 116.345H82.4818Z" fill="#010012"/>
<path d="M71.2555 104.785C70.6922 107.832 68.1776 110.309 65.2037 111.067C64.3567 111.262 63.4869 111.341 62.6185 111.3C62.2259 111.29 62.1552 111.913 62.542 111.987C64.1928 112.309 65.9555 111.852 67.416 111.069C68.9031 110.276 70.1386 109.082 70.9827 107.624C71.4544 106.8 71.7711 105.896 71.9171 104.958C71.9818 104.528 71.3282 104.355 71.2516 104.793L71.2555 104.785Z" fill="#010012"/>
<path d="M123.274 68.0053C125.773 65.8755 128.231 63.7025 130.759 61.608C131.373 61.0976 131.99 60.5853 132.614 60.0867C132.874 59.8472 133.202 59.6949 133.552 59.6509C133.945 59.6156 134.359 59.6156 134.761 59.5842C136.404 59.4546 138.022 59.1268 139.635 58.799C141.494 58.428 143.365 58.108 145.216 57.6644C145.622 57.5662 145.522 56.8596 145.098 56.9263C143.412 57.1893 141.742 57.5584 140.069 57.8882C138.397 58.2179 136.756 58.5693 135.073 58.7264C134.665 58.7636 134.255 58.7872 133.845 58.8009C133.446 58.7968 133.051 58.875 132.685 59.0306C132.34 59.2246 132.021 59.4592 131.732 59.7294L130.78 60.5146C129.505 61.5785 128.244 62.6608 126.998 63.7614C125.584 65.0059 124.173 66.2563 122.828 67.5734C122.538 67.8561 122.98 68.2487 123.274 67.9974V68.0053Z" fill="#010012"/>
<path d="M145.991 57.8073C141.991 60.0509 138.14 62.5635 134.369 65.1625C133.299 65.8986 132.227 66.6308 131.169 67.3846C130.733 67.6947 131.169 68.4092 131.607 68.0912C135.293 65.3666 139.103 62.8148 142.978 60.3454C144.076 59.6505 145.187 58.9713 146.29 58.2902C146.348 58.2479 146.388 58.1853 146.402 58.1149C146.415 58.0445 146.402 57.9715 146.364 57.9104C146.327 57.8494 146.267 57.8048 146.198 57.7857C146.129 57.7666 146.055 57.7743 145.991 57.8073Z" fill="#010012"/>
<path d="M140.479 56.42C142.442 56.0922 144.429 55.9528 146.402 55.6937C146.769 55.6466 146.775 55.0891 146.388 55.1048C144.356 55.1873 142.325 55.5661 140.326 55.9155C139.991 55.9744 140.148 56.475 140.479 56.42Z" fill="#010012"/>
<path d="M145.768 54.0194L147.352 54.3453C147.88 54.4532 148.406 54.5769 148.94 54.6476C149.277 54.6927 149.417 54.2138 149.071 54.1254C148.549 53.992 148.015 53.9075 147.485 53.8114L145.893 53.5208C145.569 53.46 145.442 53.9507 145.768 54.0194Z" fill="#010012"/>
<path d="M59.6976 90.4924C58.8581 92.8174 58.16 95.191 57.6071 97.6003C57.4854 98.1107 57.2793 98.7133 57.5875 99.1982C57.8956 99.683 58.5473 99.7674 59.0342 99.9107C60.2041 100.256 61.3819 100.574 62.5675 100.865C63.92 101.196 65.2823 101.52 66.6603 101.719C67.151 101.789 67.3512 101.081 66.8566 100.959C65.7337 100.688 64.5992 100.462 63.4744 100.199C62.3496 99.9362 61.2287 99.6477 60.1157 99.3395C59.5838 99.1942 59.0342 99.0667 58.5159 98.8802C58.3334 98.8134 58.2411 98.7467 58.249 98.5386C58.2771 98.2731 58.3277 98.0104 58.4001 97.7534C58.6409 96.6228 58.9098 95.4986 59.2069 94.3811C59.5386 93.1267 59.8998 91.8802 60.2728 90.6397C60.3807 90.2726 59.8311 90.1528 59.7055 90.4983L59.6976 90.4924Z" fill="#010012"/>
<path d="M71.9485 102.622C73.8867 103.705 76.0228 104.388 78.23 104.63C79.3273 104.758 80.5247 104.889 81.6082 104.601C82.6918 104.312 83.5712 103.494 84.4349 102.834C85.5204 101.994 86.6158 101.164 87.6679 100.282C87.9918 100.011 87.5442 99.4617 87.1988 99.707C86.2526 100.378 85.3418 101.081 84.4231 101.8L83.0746 102.842C82.6815 103.174 82.249 103.457 81.7869 103.684C80.8368 104.102 79.6787 103.975 78.6736 103.88C77.6286 103.781 76.5937 103.594 75.58 103.321C74.4371 103.003 73.3197 102.6 72.2371 102.116C71.9014 101.968 71.6266 102.434 71.9564 102.622H71.9485Z" fill="#010012"/>
<path d="M85.9051 84.9628C87.1536 88.8887 88.2999 92.8441 89.2716 96.8485C89.5484 97.987 89.8173 99.1275 90.0921 100.266C90.206 100.737 90.8969 100.515 90.8066 100.052C90.4141 98.0302 89.9076 96.03 89.3737 94.0415C88.8398 92.053 88.2705 90.0724 87.6365 88.1133C87.2753 86.9971 86.8977 85.8847 86.5038 84.7763C86.3684 84.4014 85.7815 84.5702 85.9051 84.9569V84.9628Z" fill="#010012"/>
<path d="M84.6744 51.8437C86.0484 55.3771 87.5462 58.8731 88.9163 62.4123C89.26 63.2248 89.4988 64.0777 89.6269 64.9505C89.7072 65.8491 89.6543 66.7546 89.4699 67.6378C89.1362 69.4967 88.7181 71.3477 88.3058 73.191C87.8446 75.2599 87.293 77.3132 86.8847 79.3939C86.8662 79.5005 86.8887 79.6101 86.9478 79.7007C87.0068 79.7913 87.098 79.8562 87.203 79.8823C87.3079 79.9084 87.4189 79.8938 87.5135 79.8415C87.6081 79.7891 87.6794 79.7028 87.713 79.6C88.2705 77.7765 88.669 75.892 89.0871 74.0311C89.5052 72.1702 89.9037 70.3015 90.2649 68.4229C90.4764 67.4882 90.5851 66.5331 90.5888 65.5747C90.5488 64.668 90.3694 63.7728 90.0568 62.9208C89.7545 62.0551 89.3816 61.2149 89.0243 60.3689L87.8819 57.6698C87.0299 55.6598 86.18 53.6497 85.3045 51.6514C85.2769 51.5689 85.2189 51.5 85.1423 51.4587C85.0657 51.4175 84.9763 51.4071 84.8923 51.4296C84.8086 51.4554 84.7384 51.5131 84.6969 51.5903C84.6554 51.6674 84.6459 51.7577 84.6704 51.8418L84.6744 51.8437Z" fill="#010012"/>
<path d="M74.412 40.2584C74.0037 42.4 73.4776 45.1481 71.1417 45.9667C70.4488 46.212 69.7225 46.3593 69.0786 46.7283C68.4729 47.104 67.9308 47.5738 67.4729 48.12C66.4522 49.2644 65.4805 50.4579 64.5049 51.6416C62.4988 54.0783 60.5443 56.5542 58.6415 59.0694C56.7388 61.5847 54.8838 64.1457 53.0765 66.7525C51.2883 69.3299 49.5432 71.9406 47.8904 74.6043C47.6823 74.942 47.488 75.2894 47.2897 75.6349C47.0306 76.0864 47.7039 76.4319 47.9846 76.0177C49.7513 73.4069 51.4296 70.7294 53.212 68.1226C54.9944 65.5158 56.8337 62.9365 58.7279 60.4043C60.6222 57.872 62.5596 55.3908 64.554 52.945C65.5603 51.7109 66.5798 50.4874 67.6123 49.2743C68.0363 48.7342 68.5123 48.2372 69.0335 47.7903C69.6224 47.327 70.278 47.1248 70.9807 46.9108C71.6155 46.7364 72.2097 46.439 72.7297 46.0354C73.1801 45.6618 73.558 45.2087 73.8447 44.6986C74.4336 43.6621 74.7398 42.4687 74.9302 41.2987C74.9793 41.0043 75.0185 40.7098 75.0539 40.4115C75.0695 40.328 75.0537 40.2417 75.0095 40.1692C74.9653 40.0967 74.8958 40.0431 74.8144 40.0189C74.7291 39.9986 74.6392 40.0125 74.564 40.0576C74.4888 40.1027 74.4342 40.1755 74.412 40.2603V40.2584Z" fill="#010012"/>
<path d="M47.9532 78.065C50.7105 80.6339 53.5385 83.1243 56.4372 85.5361C59.3358 87.9479 62.2698 90.2891 65.2391 92.5596C66.9331 93.8473 68.635 95.1271 70.4056 96.3108C70.7472 96.5385 71.1633 95.983 70.8355 95.7219C67.8812 93.4095 64.8406 91.2071 61.8903 88.8888C58.9399 86.5706 56.0308 84.1777 53.1708 81.7535C51.5638 80.382 49.964 79.006 48.3713 77.6253C48.0789 77.3702 47.6666 77.7961 47.9532 78.065Z" fill="#010012"/>
<path d="M70.755 96.9174C71.1908 98.8804 73.3383 100.254 75.2993 99.9698L74.891 99.6754C75.2263 100.646 75.6467 101.586 76.1473 102.482C76.3671 102.85 77.0286 102.581 76.8559 102.162C76.4751 101.25 76.0373 100.362 75.6781 99.4359C75.651 99.3493 75.5965 99.2738 75.5229 99.2208C75.4493 99.1677 75.3605 99.1399 75.2698 99.1415C73.5836 99.3868 71.9328 98.319 71.3733 96.729C71.3473 96.646 71.2893 96.5767 71.2122 96.5363C71.1351 96.496 71.0451 96.488 70.9621 96.514C70.879 96.5401 70.8098 96.598 70.7694 96.6752C70.7291 96.7523 70.7211 96.8423 70.7471 96.9253L70.755 96.9174Z" fill="#010012"/>
<path d="M56.337 76.9369C60.5692 81.0984 64.9603 85.1009 69.4241 89.015C70.6843 90.1202 71.9347 91.2724 73.2813 92.2735C73.6563 92.5542 74.1549 92.0772 73.7976 91.7318C72.7297 90.6973 71.5618 89.7531 70.439 88.7775C69.3161 87.8019 68.1894 86.8145 67.0725 85.8331C64.8648 83.8701 62.6761 81.8882 60.5064 79.8872C59.2723 78.7448 58.0396 77.5997 56.8081 76.4521C56.7417 76.3963 56.6565 76.3678 56.5698 76.3726C56.4832 76.3773 56.4016 76.4149 56.3416 76.4776C56.2817 76.5403 56.2478 76.6235 56.247 76.7103C56.2461 76.797 56.2783 76.8809 56.337 76.9448V76.9369Z" fill="#010012"/>
<path d="M74.2 92.4559C74.8007 92.7837 75.472 92.8485 76.1453 92.819C76.8186 92.7896 77.4899 92.7012 78.1377 92.8544C78.7855 93.0075 79.2919 93.4432 79.7375 93.9085C80.2695 94.4659 80.7583 95.0647 81.2628 95.6477C81.8791 96.3543 82.4837 97.0806 83.1649 97.7264C83.4417 97.9875 83.9324 97.6224 83.6988 97.2946C83.2081 96.6056 82.6427 95.9794 82.0931 95.3316C81.5435 94.6838 81.0409 94.1048 80.4972 93.508C80.0398 93.0035 79.5157 92.5069 78.8817 92.238C78.2084 91.9514 77.488 91.9455 76.7676 92.0044C76.0472 92.0633 75.209 92.2007 74.5043 91.9004C74.1411 91.7414 73.8388 92.2517 74.2 92.448V92.4559Z" fill="#010012"/>
<path d="M78.9877 95.4766C79.2801 96.4581 79.6904 97.3983 80.0653 98.3425C80.4403 99.2867 80.8054 100.247 81.2431 101.171C81.41 101.526 81.989 101.257 81.8693 100.89C81.5493 99.9089 81.1528 98.9765 80.772 98.0304C80.3912 97.0842 80.0359 96.1204 79.5785 95.2135C79.4097 94.8798 78.8856 95.1311 78.9896 95.4766H78.9877Z" fill="#010012"/>
<path d="M77.4487 96.7565C77.7412 97.6831 78.0808 98.5919 78.3556 99.5243C78.6304 100.457 78.8483 101.401 79.1074 102.337C79.2036 102.689 79.8141 102.61 79.7591 102.231C79.4204 100.256 78.8341 98.3304 78.014 96.5013C77.857 96.1814 77.3427 96.4248 77.4487 96.7565Z" fill="#010012"/>
<path d="M54.0148 68.3117C55.3732 70.31 57.293 71.8058 59.3011 73.1112C61.4165 74.4826 63.6651 75.6368 66.0125 76.5562C67.3193 77.0832 68.6646 77.5091 70.0366 77.8302C70.1378 77.8562 70.2453 77.8409 70.3353 77.7877C70.4253 77.7345 70.4905 77.6478 70.5165 77.5465C70.5425 77.4453 70.5273 77.3378 70.4741 77.2478C70.4209 77.1578 70.3341 77.0926 70.2328 77.0666C67.9028 76.3481 65.616 75.5669 63.4194 74.501C61.2532 73.4825 59.207 72.2263 57.3185 70.7556C56.2866 69.9521 55.3629 69.0185 54.5704 67.978C54.327 67.6483 53.7852 67.9682 54.0207 68.3157L54.0148 68.3117Z" fill="#010012"/>
<path d="M71.5775 77.4963C73.4246 74.0061 75.2541 70.4983 76.9913 66.9532C77.1719 66.5881 76.6302 66.2858 76.4358 66.647C74.5769 70.1312 72.7965 73.6646 71.0455 77.2038C70.8728 77.5512 71.3949 77.8418 71.5775 77.4963Z" fill="#010012"/>
<path d="M75.4386 41.0777C78.2321 42.3538 80.6794 44.2801 82.576 46.6957C83.1075 47.384 83.6028 48.0995 84.06 48.8392C84.3309 49.2731 84.9747 48.8687 84.7333 48.4231C83.2355 45.6514 80.8446 43.3194 78.1672 41.6882C77.3994 41.2221 76.5983 40.8134 75.7704 40.4652C75.3621 40.2905 75.0166 40.8873 75.4308 41.0777H75.4386Z" fill="#010012"/>
<path d="M44.8321 80.388C44.149 77.7164 44.6613 74.9624 46.0531 72.6088C46.2847 72.2162 45.6899 71.91 45.4406 72.2712C43.8015 74.6385 43.405 77.8381 44.2 80.5784C44.3178 80.9867 44.9361 80.7983 44.8321 80.3821V80.388Z" fill="#010012"/>
<path d="M43.1498 80.5995C42.7854 79.6032 42.5781 78.5562 42.5354 77.4961C42.5096 76.4358 42.6224 75.3766 42.8711 74.3455C42.8919 74.2615 42.8785 74.1726 42.8338 74.0984C42.789 74.0242 42.7167 73.9708 42.6326 73.95C42.5485 73.9292 42.4596 73.9426 42.3854 73.9873C42.3113 74.0321 42.2579 74.1044 42.2371 74.1885C41.5265 76.2987 41.7169 78.7347 42.506 80.7939C42.6591 81.1865 43.2912 81.0098 43.1498 80.5976V80.5995Z" fill="#010012"/>
</svg>
