<svg width="48" height="48" viewBox="0 0 48 48" fill="none" xmlns="http://www.w3.org/2000/svg">
    <rect width="48" height="48" rx="8" fill="none"/>
    <path d="M 33.192 27.06 L 34.693 25.539 L 33.192 24.019 L 29.444 27.815 L 20.446 18.701 L 24.194 14.906 L 22.694 13.385 L 21.193 14.906 L 19.691 13.385 L 17.445 15.661 L 15.943 14.14 L 14.443 15.661 L 15.943 17.182 L 13.697 19.458 L 15.198 20.978 L 13.697 22.498 L 15.198 24.019 L 18.946 20.222 L 27.943 29.336 L 24.194 33.133 L 25.697 34.653 L 27.197 33.133 L 28.698 34.653 L 30.946 32.378 L 32.446 33.899 L 33.947 32.378 L 32.446 30.857 L 34.693 28.581 L 33.192 27.06 Z" fill="#E06900"/>
</svg>