<svg width="48" height="48" viewBox="0 0 48 48" fill="none" xmlns="http://www.w3.org/2000/svg">
<rect width="48" height="48" rx="8" fill="none"/>
<path d="M 19.395 35.281 C 20.283 35.284 21.163 35.115 21.983 34.788 C 22.804 34.462 23.549 33.982 24.176 33.375 L 33.821 24.102 C 35.087 22.883 35.797 21.229 35.797 19.506 C 35.797 17.781 35.087 16.128 33.82 14.908 C 32.541 13.682 30.844 13.006 29.038 13.006 C 27.233 13.006 25.536 13.682 24.261 14.91 L 14.615 24.184 C 13.351 25.405 12.64 27.059 12.64 28.781 C 12.64 30.505 13.351 32.158 14.615 33.378 C 15.242 33.984 15.989 34.465 16.806 34.791 C 17.627 35.117 18.508 35.284 19.395 35.281 Z M 26.173 16.748 C 26.548 16.384 26.995 16.098 27.487 15.902 C 27.979 15.705 28.505 15.604 29.038 15.606 C 30.123 15.606 31.141 16.013 31.908 16.748 C 32.668 17.48 33.095 18.472 33.095 19.508 C 33.095 20.539 32.669 21.532 31.909 22.263 L 27.997 26.024 L 22.262 20.507 L 26.173 16.748 Z M 16.527 26.023 L 20.351 22.346 L 26.085 27.862 L 22.263 31.538 C 20.732 33.011 18.06 33.01 16.527 31.539 C 15.769 30.806 15.342 29.815 15.342 28.781 C 15.342 27.747 15.769 26.757 16.527 26.023 Z" fill="#E06900"/>
</svg>
