<svg width="46" height="47" viewBox="0 0 46 47" fill="none" xmlns="http://www.w3.org/2000/svg">
<circle cx="22.9009" cy="23.691" r="22.7405" fill="#FCF7F3"/>
<g clip-path="url(#clip0_156_516)">
<g clip-path="url(#clip1_156_516)">
<path opacity="0.964" fill-rule="evenodd" clip-rule="evenodd" d="M22.2162 14.1975C22.6604 14.1975 23.1045 14.1975 23.5487 14.1975C25.0457 14.4 26.2486 15.1033 27.1574 16.3072C27.3539 16.6016 27.4896 16.9224 27.5645 17.2696C27.6241 18.3418 27.6364 19.4151 27.6015 20.4896C27.4393 22.1107 26.6682 23.3444 25.2883 24.1909C25.2513 24.6591 25.239 25.1279 25.2513 25.5974C26.4378 25.8507 27.6222 26.116 28.8045 26.3932C29.8325 26.7425 30.5666 27.4149 31.0067 28.4103C31.4546 29.7355 31.9049 31.0556 32.3577 32.3707C32.3577 32.5187 32.3577 32.6668 32.3577 32.8148C32.3094 32.8699 32.2662 32.9316 32.2281 32.9999C32.1535 33.0442 32.0857 33.0935 32.0246 33.1479C31.8765 33.1479 31.7285 33.1479 31.5804 33.1479C31.4331 33.0808 31.3283 32.9697 31.2658 32.8148C30.834 31.5194 30.4022 30.224 29.9704 28.9285C29.6687 28.1827 29.132 27.6953 28.3603 27.4665C28.1146 27.4038 27.8679 27.3483 27.6201 27.3C27.6078 27.7078 27.6201 28.115 27.6571 28.5214C28.5269 28.8051 29.0882 29.385 29.3411 30.261C29.4004 31.0986 29.4128 31.9375 29.3782 32.7778C29.3033 32.9451 29.1861 33.0685 29.0265 33.1479C28.6934 33.1479 28.3603 33.1479 28.0272 33.1479C27.6644 32.9415 27.5718 32.6454 27.7496 32.2596C27.8783 32.0997 28.0448 32.0257 28.2493 32.0376C28.2554 31.5563 28.2493 31.0751 28.2308 30.5941C27.9739 29.7654 27.4249 29.4632 26.5837 29.6873C26.2082 29.8654 25.9676 30.1553 25.862 30.5571C25.8435 31.0504 25.8373 31.5439 25.8435 32.0376C26.1591 32.0264 26.3503 32.1744 26.4171 32.4817C26.4516 32.7859 26.3344 33.008 26.0655 33.1479C25.7324 33.1479 25.3993 33.1479 25.0662 33.1479C24.9066 33.0685 24.7894 32.9451 24.7146 32.7778C24.6899 31.9882 24.6899 31.1986 24.7146 30.409C24.9322 29.4558 25.5059 28.8266 26.4357 28.5214C26.485 28.0279 26.485 27.5344 26.4357 27.0409C25.9615 26.9275 25.4865 26.8165 25.0107 26.7078C24.964 26.7173 24.927 26.742 24.8996 26.7818C24.3938 27.6331 23.888 28.4844 23.3821 29.3357C23.0478 29.6786 22.7147 29.6786 22.3828 29.3357C21.8631 28.4628 21.3387 27.593 20.8097 26.7263C20.3147 26.8093 19.8211 26.9141 19.3292 27.0409C19.2799 27.9415 19.2799 28.8422 19.3292 29.7428C20.2977 30.1996 20.6493 30.9521 20.3841 32.0006C20.1335 32.6031 19.6955 32.9856 19.0702 33.1479C18.8357 33.1479 18.6013 33.1479 18.3669 33.1479C17.2851 32.7986 16.8347 32.0584 17.016 30.9272C17.1856 30.3536 17.5496 29.9588 18.1078 29.7428C18.1448 28.9289 18.1572 28.1146 18.1448 27.3C17.2991 27.3618 16.6144 27.7196 16.0906 28.3733C15.9758 28.5498 15.8771 28.7349 15.7945 28.9285C15.3545 30.2979 14.8857 31.6551 14.3881 32.9999C14.3135 33.0442 14.2456 33.0935 14.1845 33.1479C14.0364 33.1479 13.8884 33.1479 13.7403 33.1479C13.6853 33.0997 13.6236 33.0565 13.5553 33.0184C13.511 32.9438 13.4616 32.8759 13.4072 32.8148C13.4072 32.6668 13.4072 32.5187 13.4072 32.3707C13.86 31.0556 14.3103 29.7355 14.7582 28.4103C15.1974 27.4159 15.9315 26.7435 16.9604 26.3932C18.1427 26.1161 19.3271 25.8508 20.5136 25.5974C20.5259 25.1279 20.5136 24.6591 20.4766 24.1909C19.0967 23.3444 18.3256 22.1107 18.1633 20.4896C18.1285 19.4151 18.1408 18.3418 18.2004 17.2696C18.3155 16.7801 18.5376 16.3483 18.8666 15.9741C19.7693 14.9768 20.8858 14.3846 22.2162 14.1975ZM22.8454 15.3079C24.1953 15.3383 25.2996 15.8688 26.1581 16.8994C26.3077 17.1123 26.4064 17.3467 26.4542 17.6027C26.4788 17.9605 26.4788 18.3182 26.4542 18.676C26.1755 18.3849 25.8855 18.1073 25.5844 17.8432C25.4905 17.7752 25.3856 17.7444 25.2698 17.7507C24.8474 17.8968 24.4218 18.0387 23.9928 18.1764C22.8349 18.4295 21.7245 18.2938 20.6617 17.7692C20.4383 17.7172 20.2409 17.7666 20.0695 17.9173C19.8166 18.1702 19.5636 18.4231 19.3107 18.676C19.286 18.3182 19.286 17.9605 19.3107 17.6027C19.3585 17.3467 19.4572 17.1123 19.6068 16.8994C20.4506 15.8884 21.5302 15.3579 22.8454 15.3079ZM20.6247 19.0091C22.1237 19.6008 23.6227 19.6008 25.1217 19.0091C25.3634 19.2632 25.6163 19.5038 25.8805 19.7309C26.0598 19.8483 26.251 19.9409 26.4542 20.0085C26.4166 21.7112 25.6085 22.8771 24.0298 23.5062C22.4232 23.9482 21.0846 23.535 20.014 22.2663C19.5264 21.5931 19.292 20.8405 19.3107 20.0085C19.8384 19.7967 20.2764 19.4635 20.6247 19.0091ZM21.661 24.6721C22.4698 24.9133 23.2779 24.9133 24.0854 24.6721C24.11 25.0792 24.11 25.4863 24.0854 25.8935C23.7024 26.5611 23.3015 27.2149 22.8824 27.8551C22.4634 27.2149 22.0625 26.5611 21.6795 25.8935C21.661 25.4865 21.6548 25.0794 21.661 24.6721ZM18.626 30.7791C19.2306 30.8469 19.4342 31.1676 19.2367 31.7415C18.9086 32.0991 18.5755 32.1114 18.2374 31.7785C17.9997 31.3008 18.1292 30.9677 18.626 30.7791Z" fill="#E06900"/>
</g>
</g>
<defs>
<clipPath id="clip0_156_516">
<rect width="23.688" height="23.688" fill="white" transform="translate(11.5305 12.3203)"/>
</clipPath>
<clipPath id="clip1_156_516">
<rect width="18.9504" height="18.9504" fill="white" transform="translate(13.4255 14.2158)"/>
</clipPath>
</defs>
</svg>
