<svg width="48" height="48" viewBox="0 0 48 48" fill="none" xmlns="http://www.w3.org/2000/svg">
<g clip-path="url(#clip0_1288_28342)">
<path opacity="0.964" fill-rule="evenodd" clip-rule="evenodd" d="M23.2773 13.9805C23.7461 13.9805 24.2148 13.9805 24.6836 13.9805C26.2636 14.1942 27.5331 14.9364 28.4922 16.207C28.6996 16.5177 28.8428 16.8563 28.9219 17.2227C28.9847 18.3543 28.9977 19.4871 28.9609 20.6211C28.7897 22.3319 27.9759 23.6339 26.5195 24.5273C26.4805 25.0214 26.4675 25.5162 26.4805 26.0117C27.7327 26.2791 28.9827 26.5591 30.2305 26.8516C31.3154 27.2203 32.0902 27.9299 32.5547 28.9805C33.0273 30.379 33.5026 31.7722 33.9805 33.1602C33.9805 33.3164 33.9805 33.4727 33.9805 33.6289C33.9295 33.687 33.884 33.7521 33.8438 33.8242C33.765 33.871 33.6934 33.923 33.6289 33.9805C33.4727 33.9805 33.3164 33.9805 33.1602 33.9805C33.0047 33.9096 32.8941 33.7924 32.8281 33.6289C32.3724 32.2617 31.9167 30.8945 31.4609 29.5273C31.1425 28.7402 30.5761 28.2259 29.7617 27.9844C29.5024 27.9182 29.242 27.8596 28.9805 27.8086C28.9675 28.2391 28.9805 28.6687 29.0195 29.0977C29.9375 29.3971 30.53 30.0091 30.7969 30.9336C30.8595 31.8176 30.8725 32.703 30.8359 33.5898C30.757 33.7664 30.6332 33.8966 30.4648 33.9805C30.1133 33.9805 29.7617 33.9805 29.4102 33.9805C29.0272 33.7625 28.9296 33.45 29.1172 33.043C29.253 32.8741 29.4288 32.796 29.6445 32.8086C29.6511 32.3006 29.6445 31.7928 29.625 31.2852C29.3539 30.4106 28.7745 30.0916 27.8867 30.3281C27.4904 30.5161 27.2365 30.8221 27.125 31.2461C27.1055 31.7668 27.0989 32.2876 27.1055 32.8086C27.4386 32.7968 27.6404 32.953 27.7109 33.2773C27.7473 33.5984 27.6236 33.8327 27.3398 33.9805C26.9883 33.9805 26.6367 33.9805 26.2852 33.9805C26.1168 33.8966 25.993 33.7664 25.9141 33.5898C25.888 32.7565 25.888 31.9232 25.9141 31.0898C26.1438 30.0838 26.7492 29.4198 27.7305 29.0977C27.7825 28.5768 27.7825 28.056 27.7305 27.5352C27.23 27.4155 26.7288 27.2984 26.2266 27.1836C26.1773 27.1937 26.1382 27.2198 26.1094 27.2617C25.5755 28.1602 25.0417 29.0586 24.5078 29.957C24.155 30.3189 23.8034 30.3189 23.4531 29.957C22.9046 29.0358 22.3512 28.1179 21.793 27.2031C21.2705 27.2907 20.7496 27.4014 20.2305 27.5352C20.1784 28.4857 20.1784 29.4362 20.2305 30.3867C21.2526 30.8688 21.6237 31.663 21.3438 32.7695C21.0793 33.4054 20.617 33.8091 19.957 33.9805C19.7096 33.9805 19.4622 33.9805 19.2148 33.9805C18.0731 33.6118 17.5978 32.8305 17.7891 31.6367C17.9681 31.0313 18.3522 30.6147 18.9414 30.3867C18.9805 29.5277 18.9935 28.6684 18.9805 27.8086C18.0879 27.8739 17.3652 28.2515 16.8125 28.9414C16.6913 29.1277 16.5871 29.323 16.5 29.5273C16.0356 30.9726 15.5408 32.4049 15.0156 33.8242C14.9369 33.871 14.8653 33.923 14.8008 33.9805C14.6445 33.9805 14.4883 33.9805 14.332 33.9805C14.2739 33.9295 14.2088 33.884 14.1367 33.8438C14.09 33.765 14.0379 33.6934 13.9805 33.6289C13.9805 33.4727 13.9805 33.3164 13.9805 33.1602C14.4583 31.7722 14.9336 30.379 15.4062 28.9805C15.8698 27.931 16.6446 27.2213 17.7305 26.8516C18.9782 26.5591 20.2282 26.2792 21.4805 26.0117C21.4934 25.5162 21.4804 25.0214 21.4414 24.5273C19.985 23.6339 19.1712 22.3319 19 20.6211C18.9632 19.4871 18.9763 18.3543 19.0391 17.2227C19.1606 16.7061 19.395 16.2504 19.7422 15.8555C20.6949 14.803 21.8733 14.178 23.2773 13.9805ZM23.9414 15.1523C25.3661 15.1844 26.5314 15.7443 27.4375 16.832C27.5954 17.0567 27.6996 17.3041 27.75 17.5742C27.7761 17.9518 27.7761 18.3294 27.75 18.707C27.4559 18.3998 27.1498 18.1068 26.832 17.8281C26.7329 17.7563 26.6222 17.7238 26.5 17.7305C26.0543 17.8847 25.6051 18.0344 25.1523 18.1797C23.9303 18.4468 22.7584 18.3036 21.6367 17.75C21.401 17.6951 21.1927 17.7472 21.0117 17.9062C20.7448 18.1732 20.4779 18.4401 20.2109 18.707C20.1849 18.3294 20.1849 17.9518 20.2109 17.5742C20.2614 17.3041 20.3655 17.0567 20.5234 16.832C21.4139 15.765 22.5533 15.2051 23.9414 15.1523ZM21.5977 19.0586C23.1797 19.683 24.7617 19.683 26.3438 19.0586C26.5989 19.3268 26.8658 19.5807 27.1445 19.8203C27.3338 19.9443 27.5356 20.0419 27.75 20.1133C27.7103 21.9103 26.8575 23.1407 25.1914 23.8047C23.4958 24.2712 22.083 23.8351 20.9531 22.4961C20.4385 21.7856 20.1911 20.9913 20.2109 20.1133C20.7679 19.8897 21.2301 19.5382 21.5977 19.0586ZM22.6914 25.0352C23.545 25.2898 24.3979 25.2898 25.25 25.0352C25.2761 25.4648 25.2761 25.8945 25.25 26.3242C24.8459 27.0288 24.4227 27.7189 23.9805 28.3945C23.5382 27.7189 23.1151 27.0288 22.7109 26.3242C22.6914 25.8947 22.6849 25.465 22.6914 25.0352ZM19.4883 31.4805C20.1264 31.552 20.3412 31.8905 20.1328 32.4961C19.7866 32.8735 19.435 32.8865 19.0781 32.5352C18.8273 32.0311 18.964 31.6795 19.4883 31.4805Z" fill="#E06900"/>
</g>
<defs>
<clipPath id="clip0_1288_28342">
<rect width="20" height="20" fill="white" transform="translate(14 14)"/>
</clipPath>
</defs>
</svg>
