<svg width="48" height="48" viewBox="0 0 48 48" fill="none" xmlns="http://www.w3.org/2000/svg">
<path opacity="0.862" fill-rule="evenodd" clip-rule="evenodd" d="M18.8744 13C19.0955 13 19.3166 13 19.5378 13C22.1417 15.0775 24.9056 16.9385 27.8294 18.583C29.1078 20.6715 28.592 22.1455 26.2816 23.0052C25.7217 23.2228 25.1689 23.2597 24.6233 23.1158C24.4651 23.0643 24.3361 22.9722 24.2363 22.8394C23.9108 21.4322 23.2291 20.2346 22.1911 19.2463C20.403 17.7196 18.413 16.5035 16.2211 15.598C15.9263 15.3401 15.9263 15.0821 16.2211 14.8242C16.4791 14.7504 16.737 14.7504 16.995 14.8242C19.4784 15.8531 21.671 17.3088 23.573 19.1911C24.3323 20.0464 24.7929 21.0414 24.9549 22.176C25.8802 22.1565 26.6725 21.8248 27.3319 21.1811C27.7384 20.3715 27.5725 19.6897 26.8344 19.1358C24.0851 17.5959 21.4686 15.8639 18.985 13.9397C18.6105 13.6562 18.5736 13.3429 18.8744 13Z" fill="#E06900" stroke="#E06900" stroke-width="0.3"/>
<path opacity="0.875" fill-rule="evenodd" clip-rule="evenodd" d="M29.2667 17.7538C31.2625 17.704 32.1654 18.6621 31.9753 20.6282C31.4414 21.6227 30.6122 22.0097 29.4878 21.7891C29.4001 21.6691 29.3264 21.5401 29.2667 21.4021C29.5038 20.3172 29.3563 19.2853 28.8245 18.3066C28.8974 18.0507 29.0448 17.8664 29.2667 17.7538ZM30.1511 18.8593C30.548 18.8642 30.8244 19.0485 30.9803 19.4121C31.054 19.7069 31.054 20.0017 30.9803 20.2966C30.8964 20.5326 30.7305 20.68 30.4828 20.7388C30.3939 20.1069 30.2833 19.4804 30.1511 18.8593Z" fill="#E06900" stroke="#E06900" stroke-width="0.3"/>
<path opacity="0.879" fill-rule="evenodd" clip-rule="evenodd" d="M30.1511 35.1112C29.93 35.1112 29.7089 35.1112 29.4878 35.1112C29.4226 34.9712 29.3673 34.8238 29.322 34.669C29.2574 32.2348 29.1653 29.8026 29.0456 27.3723C29.2603 26.8459 29.4445 26.3116 29.5984 25.7693C29.5208 25.0795 29.2259 24.5084 28.7139 24.0557C27.8672 24.6902 26.9091 25.0218 25.8395 25.0507C26.5368 25.3978 27.0711 25.9138 27.4426 26.5985C27.7875 29.4352 27.9533 32.2727 27.9401 35.1112C27.7189 35.1112 27.4978 35.1112 27.2767 35.1112C27.2115 34.9712 27.1562 34.8238 27.1109 34.669C26.9369 32.0478 26.7158 29.4313 26.4476 26.8196C25.9433 26.3369 25.3721 25.9499 24.734 25.6587C24.2609 25.1023 24.2977 24.5864 24.8445 24.111C25.5926 24.0723 26.3296 23.9617 27.0556 23.7793C27.4372 23.6807 27.7689 23.4965 28.0506 23.2265C28.7883 22.9197 29.3964 23.0855 29.8748 23.724C30.7651 24.9384 30.8203 26.1913 30.0406 27.4829C30.2314 30.0297 30.2682 32.5725 30.1511 35.1112Z" fill="#E06900" stroke="#E06900" stroke-width="0.3"/>
<path opacity="0.877" fill-rule="evenodd" clip-rule="evenodd" d="M26.1711 35.1113C25.95 35.1113 25.7289 35.1113 25.5078 35.1113C25.4426 34.9713 25.3873 34.8239 25.342 34.6691C25.2485 32.2347 25.1748 29.8025 25.1208 27.3724C25.3882 27.0146 25.6831 26.9778 26.0053 27.2619C26.2377 29.8815 26.293 32.498 26.1711 35.1113Z" fill="#E06900" stroke="#E06900" stroke-width="0.3"/>
</svg>
