<svg width="48" height="48" viewBox="0 0 48 48" fill="none" xmlns="http://www.w3.org/2000/svg">
<rect width="48" height="48" rx="8" fill="#E4FFEF"/>
<path d="M20.999 32.133C21.656 32.1347 22.3068 32.0061 22.9137 31.7546C23.5207 31.5032 24.0717 31.1338 24.535 30.668L31.669 23.535C32.6051 22.5962 33.1307 21.3245 33.1306 19.9988C33.1304 18.673 32.6044 17.4015 31.668 16.463C30.723 15.52 29.467 15 28.132 15C26.797 15 25.541 15.52 24.598 16.464L17.464 23.598C16.5283 24.5369 16.0028 25.8084 16.0028 27.134C16.0028 28.4596 16.5283 29.7311 17.464 30.67C17.9274 31.1353 18.4784 31.5042 19.0851 31.7553C19.6919 32.0064 20.3424 32.1348 20.999 32.133ZM26.012 17.878C26.2898 17.5988 26.6202 17.3774 26.9841 17.2267C27.348 17.076 27.7382 16.9989 28.132 17C28.934 17 29.688 17.313 30.254 17.878C30.8159 18.441 31.1315 19.2039 31.1317 19.9993C31.1319 20.7947 30.8166 21.5577 30.255 22.121L27.362 25.013L23.12 20.77L26.012 17.878ZM18.878 25.012L21.706 22.184L25.948 26.427L23.121 29.254C21.988 30.387 20.011 30.386 18.878 29.255C18.3165 28.6917 18.0012 27.9288 18.0012 27.1335C18.0012 26.3382 18.3165 25.5753 18.878 25.012Z" fill="#2FD371"/>
</svg>
