<svg width="48" height="48" viewBox="0 0 48 48" fill="none" xmlns="http://www.w3.org/2000/svg">
<rect width="48" height="48" rx="8" fill="#FCF7F3"/>
<path d="M19 31.66V33C19 33.2652 19.1054 33.5196 19.2929 33.7071C19.4804 33.8946 19.7348 34 20 34H28C28.2652 34 28.5196 33.8946 28.7071 33.7071C28.8946 33.5196 29 33.2652 29 33V31.66C30.5202 30.7823 31.7825 29.52 32.6602 27.9999C33.5379 26.4797 34 24.7553 34 23C34 22.7348 33.8946 22.4804 33.7071 22.2929C33.5196 22.1054 33.2652 22 33 22C32.9817 21.3877 32.8066 20.7904 32.4914 20.2651C32.1763 19.7399 31.7316 19.3043 31.2 19C31.0725 18.1289 30.6354 17.333 29.9686 16.7581C29.3019 16.1832 28.4503 15.8679 27.57 15.87C27.2324 15.8694 26.8962 15.9131 26.57 16C25.8817 15.3429 24.9666 14.9762 24.015 14.9762C23.0634 14.9762 22.1483 15.3429 21.46 16C21.1338 15.9131 20.7976 15.8694 20.46 15.87C19.5762 15.8631 18.7198 16.1762 18.0489 16.7515C17.378 17.3269 16.938 18.1255 16.81 19C16.2765 19.303 15.8299 19.7381 15.5129 20.2634C15.196 20.7888 15.0193 21.3868 15 22C14.7348 22 14.4804 22.1054 14.2929 22.2929C14.1054 22.4804 14 22.7348 14 23C14 24.7553 14.4621 26.4797 15.3398 27.9999C16.2175 29.52 17.4798 30.7823 19 31.66ZM18.11 20.66L18.94 20.4L18.78 19.5C18.7826 19.2846 18.8276 19.0719 18.9125 18.8739C18.9973 18.6759 19.1203 18.4966 19.2745 18.3462C19.4286 18.1957 19.6109 18.0771 19.8109 17.9972C20.0108 17.9172 20.2246 17.8774 20.44 17.88C20.7288 17.8783 21.0137 17.947 21.27 18.08L22.08 18.53L22.58 17.76C22.7364 17.5269 22.9477 17.3359 23.1953 17.2039C23.443 17.0718 23.7193 17.0027 24 17.0027C24.2807 17.0027 24.557 17.0718 24.8047 17.2039C25.0523 17.3359 25.2636 17.5269 25.42 17.76L25.92 18.53L26.73 18.08C26.9863 17.947 27.2712 17.8783 27.56 17.88C27.9925 17.8746 28.4099 18.0392 28.7222 18.3384C29.0346 18.6377 29.2169 19.0476 29.23 19.48L29.07 20.33L29.89 20.61C30.1925 20.7047 30.4598 20.8876 30.6576 21.1353C30.8554 21.3829 30.9746 21.6841 31 22H17C17.0254 21.6841 17.1446 21.3829 17.3424 21.1353C17.5402 20.8876 17.8075 20.7047 18.11 20.61V20.66ZM31.94 24C31.7732 25.3092 31.285 26.5568 30.519 27.6316C29.7531 28.7064 28.7331 29.575 27.55 30.16C27.3836 30.2439 27.2439 30.3726 27.1467 30.5316C27.0495 30.6906 26.9987 30.8736 27 31.06V32H21V31.06C21.0013 30.8736 20.9505 30.6906 20.8533 30.5316C20.7561 30.3726 20.6164 30.2439 20.45 30.16C19.2669 29.575 18.2469 28.7064 17.481 27.6316C16.715 26.5568 16.2268 25.3092 16.06 24H31.94Z" fill="#E06900"/>
</svg>
