<svg width="84" height="146" viewBox="0 0 84 146" fill="none" xmlns="http://www.w3.org/2000/svg">
  <g clip-path="url(#clip0_84_11085)">
    <rect x="1" y="-10" width="87" height="167" fill="#FFF3E9" />
    <circle cx="41.5" cy="57.5" r="29.5" fill="#FFD4AE" />
    <path
      d="M36.7448 41.8881C36.7448 41.8881 28.7308 48.0493 27.917 51.13C27.1031 54.2107 28.2301 59.6176 27.917 60.6861C27.6041 61.7549 22.5954 64.7726 22.5327 69.1107C22.47 73.4488 24.4109 77.7239 40.0004 79.6099C55.5895 81.496 61.5374 72.6315 61.5374 67.8533C61.5374 63.0752 57.5303 60.0574 56.8419 57.7942C56.1529 55.531 59.0332 51.4445 54.901 46.4148C50.7688 41.3853 40.0004 36.5442 36.7448 41.8881Z"
      fill="#2F2417" />
    <path
      d="M36.7447 41.8882L36.6682 41.7878C36.6664 41.7894 34.6609 43.3311 32.5514 45.2606C31.4963 46.2255 30.4152 47.2869 29.5442 48.3039C28.6737 49.3224 28.0106 50.2901 27.7954 51.0977C27.5663 51.9653 27.4898 53.0019 27.4898 54.0727C27.49 56.3825 27.8485 58.8625 27.8477 60.0772C27.8482 60.336 27.8301 60.5373 27.7961 60.6505C27.7689 60.7493 27.666 60.9076 27.5034 61.0944C27.2189 61.4235 26.76 61.8515 26.2336 62.3629C25.4439 63.1308 24.5004 64.0889 23.7468 65.2189C22.9933 66.3483 22.4279 67.6529 22.407 69.109C22.406 69.1745 22.4055 69.2402 22.4055 69.3059C22.4055 70.3835 22.5387 71.4642 22.9858 72.5062C23.6564 74.0709 25.0323 75.5348 27.6715 76.7737C30.3117 78.0139 34.2191 79.0377 39.9853 79.7356C41.4521 79.9131 42.8344 79.9955 44.1351 79.9955C50.4194 79.996 54.8033 78.0647 57.6136 75.5798C60.4232 73.0944 61.6617 70.0643 61.6632 67.8534C61.6632 65.4274 60.6455 63.4531 59.5525 61.8105C59.0055 60.989 58.439 60.2488 57.9688 59.5762C57.4983 58.9043 57.126 58.2981 56.9621 57.7574C56.8864 57.5091 56.8554 57.2328 56.8554 56.929C56.8531 55.7785 57.3088 54.2525 57.3098 52.4567C57.311 50.6561 56.8433 48.5784 54.9979 46.3345C53.5559 44.5799 51.3266 42.8586 48.8865 41.5712C46.446 40.2848 43.7958 39.4314 41.5027 39.4306C40.4762 39.4306 39.5201 39.6022 38.6889 39.9883C37.8579 40.3735 37.1533 40.9749 36.6372 41.8222L36.7447 41.8882L36.6682 41.7878L36.7447 41.8882L36.852 41.9542C37.3431 41.149 38.0046 40.5846 38.7946 40.2175C39.5843 39.8507 40.5038 39.6834 41.5027 39.6834C43.7338 39.6826 46.3554 40.5211 48.7695 41.7952C51.1836 43.0682 53.3916 44.7758 54.8038 46.4952C56.612 48.6985 57.0568 50.6996 57.058 52.4567C57.0593 54.2113 56.6059 55.7171 56.6037 56.929C56.6037 57.2498 56.6361 57.5513 56.7212 57.8312C56.9017 58.4219 57.2884 59.042 57.7629 59.7215C59.189 61.7582 61.4133 64.3263 61.4115 67.8534C61.413 69.9723 60.209 72.9503 57.4472 75.3902C54.6857 77.8309 50.3685 79.7424 44.1351 79.7427C42.845 79.7427 41.4728 79.6608 40.0152 79.4846C32.3475 78.5576 27.998 77.049 25.5821 75.2608C24.3736 74.3669 23.6463 73.4061 23.2171 72.4063C22.7882 71.4063 22.6573 70.3633 22.6573 69.3057C22.6573 69.2414 22.6578 69.177 22.6585 69.1125C22.6877 66.9944 23.932 65.1792 25.2239 63.7578C25.8691 63.0472 26.5239 62.4364 27.0402 61.9342C27.2982 61.6829 27.5217 61.4587 27.6934 61.26C27.8646 61.0603 27.9869 60.8901 28.0378 60.7218C28.0839 60.5618 28.099 60.3477 28.0995 60.0772C28.0987 58.8249 27.741 56.3612 27.7415 54.0727C27.7412 53.0143 27.8183 51.9956 28.0385 51.1624C28.2304 50.4298 28.8743 49.472 29.735 48.4687C31.0259 46.9616 32.7988 45.3392 34.2478 44.0963C34.9723 43.4747 35.616 42.9476 36.0784 42.5758C36.3095 42.3902 36.4953 42.2431 36.6234 42.1427C36.7513 42.0424 36.821 41.9888 36.821 41.9888L36.852 41.9542L36.7447 41.8882Z"
      fill="#2F2417" />
    <path
      d="M71.5191 97.7219C71.5191 97.7219 72.9676 110.207 73.2694 113.54C73.5713 116.874 72.7864 118.813 70.4329 120.025C68.079 121.237 66.8115 122.025 64.3974 119.541C61.983 117.055 63.6731 112.267 63.5525 110.389C63.4317 108.51 61.7416 101.298 61.7416 101.298L71.5191 97.7219Z"
      fill="white" />
    <path
      d="M71.5191 97.7219L71.3943 97.7365C71.3943 97.737 71.4167 97.9314 71.4569 98.2795C71.7381 100.714 72.8805 110.639 73.1441 113.552C73.1846 113.998 73.2052 114.418 73.2052 114.814C73.2052 116.085 72.992 117.103 72.5356 117.928C72.0787 118.754 71.3771 119.396 70.3755 119.913C69.7623 120.229 69.2258 120.514 68.7297 120.718C68.2332 120.922 67.7794 121.045 67.3273 121.045C66.9096 121.045 66.4902 120.942 66.0276 120.692C65.5649 120.442 65.0607 120.042 64.4875 119.452C63.4999 118.437 63.215 117.011 63.215 115.544C63.215 114.607 63.3313 113.657 63.4486 112.8C63.5656 111.942 63.6842 111.178 63.6847 110.599C63.6847 110.523 63.6824 110.45 63.6781 110.381C63.6157 109.421 63.1628 107.154 62.7248 105.112C62.2868 103.073 61.8642 101.269 61.8642 101.269L61.7416 101.298L61.7846 101.416L71.5622 97.8407L71.5191 97.7219L71.3943 97.7365L71.5191 97.7219L71.4761 97.6031L61.6985 101.179C61.6386 101.201 61.6046 101.264 61.6192 101.327C61.6192 101.327 61.6454 101.439 61.692 101.64C61.8543 102.342 62.2624 104.125 62.6428 105.937C63.0229 107.747 63.3758 109.593 63.4269 110.397C63.4309 110.46 63.433 110.528 63.433 110.599C63.4332 111.145 63.3169 111.906 63.1991 112.765C63.0818 113.625 62.9632 114.586 62.9632 115.544C62.9632 117.04 63.2517 118.541 64.3072 119.629C64.8922 120.231 65.4143 120.647 65.908 120.914C66.4011 121.182 66.8676 121.298 67.3273 121.298C67.8257 121.298 68.3125 121.163 68.8251 120.952C69.3381 120.741 69.8788 120.452 70.4903 120.138C71.5247 119.605 72.2726 118.926 72.7556 118.051C73.2392 117.176 73.457 116.112 73.457 114.814C73.457 114.409 73.4358 113.981 73.3948 113.529C73.0924 110.191 71.6442 97.708 71.6442 97.7072C71.6397 97.6688 71.618 97.6347 71.5853 97.6142C71.5523 97.594 71.5123 97.5899 71.4761 97.6031L71.5191 97.7219Z"
      fill="#2F2417" />
    <path d="M71.8056 101.223L62.6458 104.294L61.7416 101.298L71.5191 97.7219L71.8056 101.223Z" fill="#2F2417" />
    <path
      d="M71.8055 101.223L71.7657 101.103L62.7288 104.133L61.8966 101.375L71.407 97.8973L71.6802 101.234L71.8055 101.223L71.7657 101.103L71.8055 101.223L71.9309 101.213L71.6444 97.7115C71.6414 97.6723 71.62 97.6367 71.587 97.6154C71.554 97.5942 71.5127 97.5896 71.476 97.603L61.6984 101.179C61.6358 101.202 61.6018 101.27 61.6212 101.334L62.5254 104.331C62.5352 104.364 62.5576 104.391 62.5881 104.407C62.6183 104.422 62.6533 104.425 62.6857 104.414L71.8453 101.343C71.9004 101.325 71.9357 101.271 71.9309 101.213L71.8055 101.223Z"
      fill="#2F2417" />
    <path d="M65.9666 109.661C65.9666 109.661 70.1914 108.57 72.1828 112.51L65.9666 109.661Z" fill="white" />
    <path
      d="M65.9979 109.784L66.0198 109.779C66.1262 109.754 66.6141 109.649 67.2847 109.649C67.9765 109.649 68.8618 109.761 69.7273 110.18C70.593 110.599 71.4413 111.323 72.0707 112.567L72.2952 112.453C71.643 111.161 70.7473 110.392 69.8368 109.952C68.926 109.511 68.0029 109.397 67.2847 109.397C66.4885 109.397 65.9422 109.537 65.9352 109.539L65.9979 109.784Z"
      fill="#2F2417" />
    <path
      d="M57.347 113.841L59.7732 99.6173L71.5399 96.3683C71.5399 96.3683 71.1155 86.6203 68.5679 82.8192C66.0204 79.0183 59.4092 76.8726 55.2241 75.5238C51.039 74.1751 47.0966 73.3781 47.0966 73.3781C47.0966 73.3781 39.5754 72.3359 36.2394 74.1751C36.2394 74.1751 24.8367 79.2023 22.8351 80.1831C20.8334 81.1642 18.5892 82.2676 17.7401 86.9881C16.891 91.7089 16.4663 95.9388 16.4663 95.9388L24.2907 99.8625L26.6562 113.841L26.1502 117.796L17.4 135.349H66.8046L57.9199 117.524L57.347 113.841Z"
      fill="#A1A09F" />
    <path
      d="M57.347 113.841L57.4711 113.862L59.8837 99.7179L71.5734 96.49C71.6298 96.4744 71.6683 96.4213 71.6658 96.3626C71.6655 96.3599 71.5593 93.9197 71.1339 91.0008C70.7062 88.0804 69.9681 84.6867 68.6722 82.7486C67.3753 80.8158 65.0676 79.3231 62.5636 78.1375C60.0597 76.9529 57.3555 76.0781 55.2626 75.4034C51.0695 74.0522 47.1241 73.2547 47.1213 73.2542L47.1138 73.2527C47.1103 73.2524 44.9836 72.9574 42.4837 72.9574C40.277 72.9592 37.7833 73.1826 36.179 74.0641L36.2394 74.1751L36.1888 74.0593C36.1888 74.0593 33.338 75.3162 30.2369 76.6956C27.135 78.0756 23.786 79.5766 22.7798 80.0696C21.7797 80.56 20.6992 81.0885 19.7633 82.0972C18.8271 83.1053 18.0434 84.5886 17.6163 86.9656C16.7661 91.6919 16.3415 95.9241 16.3412 95.9261C16.3359 95.9784 16.3634 96.0285 16.4102 96.052L24.1774 99.9469L26.5291 113.843L26.0279 117.759L17.2875 135.292C17.2679 135.331 17.2701 135.378 17.293 135.415C17.3159 135.453 17.3565 135.475 17.4 135.475H66.8046C66.8481 135.475 66.8887 135.453 66.9116 135.415C66.9345 135.378 66.9367 135.331 66.9171 135.292L58.0413 117.485L57.4713 113.821L57.347 113.841L57.4711 113.862L57.347 113.841L57.2226 113.86L57.7956 117.543L57.8074 117.581L66.6007 135.222H17.6039L26.2628 117.853L26.2751 117.812L26.7811 113.856L26.7803 113.819L24.4148 99.8412C24.4083 99.8016 24.3828 99.7672 24.3471 99.7492L16.5227 95.8257L16.4663 95.9387L16.5917 95.9514C16.5917 95.9509 16.6181 95.688 16.671 95.2183C16.8301 93.8092 17.2278 90.5468 17.864 87.0106C18.2861 84.667 19.0491 83.2382 19.9475 82.2693C20.8465 81.3006 21.8889 80.7872 22.8903 80.2968C23.8857 79.8087 27.239 78.3056 30.3388 76.9267C31.8892 76.2371 33.377 75.578 34.4773 75.0914C35.0273 74.8482 35.4805 74.648 35.7964 74.5085C36.1121 74.3692 36.2895 74.2909 36.29 74.2906L36.3001 74.2858C37.8231 73.443 40.2961 73.2084 42.4837 73.2102C43.724 73.2102 44.8739 73.2835 45.7132 73.3568C46.1328 73.3935 46.4746 73.4301 46.7115 73.4577C46.9484 73.485 47.0791 73.5032 47.0793 73.5032L47.0967 73.378L47.0718 73.5019C47.0725 73.5019 47.3167 73.5515 47.7509 73.647C49.0536 73.9339 52.0528 74.6344 55.1856 75.644C57.2778 76.3182 59.9718 77.1906 62.4564 78.3663C64.9415 79.541 67.2131 81.0218 68.4635 82.8899C69.7151 84.7529 70.463 88.1334 70.8847 91.0374C71.0964 92.49 71.229 93.8247 71.3083 94.7959C71.3481 95.2815 71.3745 95.6763 71.3912 95.9496C71.4078 96.2226 71.4143 96.3733 71.4143 96.3735L71.5399 96.3682L71.5067 96.2461L59.7397 99.4954C59.6926 99.5083 59.6574 99.5475 59.6491 99.596L57.2229 113.819L57.2226 113.86L57.347 113.841Z"
      fill="#2F2417" />
    <path
      d="M45.145 95.2191H45.0191C45.0186 95.417 44.859 95.5773 44.6619 95.5778C44.4648 95.5773 44.305 95.417 44.3047 95.2191C44.305 95.0211 44.4648 94.8606 44.6619 94.8604C44.859 94.8606 45.0186 95.0211 45.0191 95.2191H45.145H45.2709C45.2706 94.8814 44.9982 94.6076 44.6619 94.6076C44.3256 94.6076 44.053 94.8814 44.053 95.2191C44.053 95.5568 44.3256 95.8303 44.6619 95.8306C44.9982 95.8303 45.2706 95.5568 45.2709 95.2191H45.145Z"
      fill="#2F2417" />
    <path
      d="M45.145 102.644H45.0191C45.0186 102.842 44.859 103.002 44.6619 103.003C44.4648 103.002 44.305 102.842 44.3047 102.644C44.305 102.446 44.4648 102.285 44.6619 102.285C44.859 102.285 45.0186 102.446 45.0191 102.644H45.145H45.2709C45.2706 102.306 44.9982 102.032 44.6619 102.032C44.3256 102.032 44.053 102.306 44.053 102.644C44.053 102.982 44.3256 103.255 44.6619 103.255C44.9982 103.255 45.2706 102.982 45.2709 102.644H45.145Z"
      fill="#2F2417" />
    <path
      d="M45.145 110.069H45.0191C45.0186 110.267 44.859 110.427 44.6619 110.427C44.4646 110.427 44.305 110.267 44.3047 110.069C44.305 109.871 44.4646 109.71 44.6619 109.71C44.859 109.71 45.0186 109.871 45.0191 110.069H45.145H45.2709C45.2706 109.731 44.998 109.457 44.6619 109.457C44.3256 109.457 44.053 109.731 44.053 110.069C44.053 110.407 44.3256 110.68 44.6619 110.68C44.998 110.68 45.2706 110.407 45.2709 110.069H45.145Z"
      fill="#2F2417" />
    <path
      d="M45.145 117.494H45.0191C45.0186 117.692 44.859 117.852 44.6619 117.852C44.4646 117.852 44.305 117.692 44.3047 117.494C44.305 117.296 44.4646 117.135 44.6619 117.135C44.859 117.135 45.0186 117.296 45.0191 117.494H45.145H45.2709C45.2706 117.156 44.998 116.882 44.6619 116.882C44.3256 116.882 44.053 117.156 44.053 117.494C44.053 117.832 44.3256 118.105 44.6619 118.105C44.998 118.105 45.2706 117.832 45.2709 117.494H45.145Z"
      fill="#2F2417" />
    <path
      d="M45.145 124.919H45.0191C45.0186 125.117 44.859 125.277 44.6619 125.277C44.4648 125.277 44.305 125.117 44.3047 124.919C44.305 124.721 44.4648 124.56 44.6619 124.56C44.859 124.56 45.0186 124.721 45.0191 124.919H45.145H45.2709C45.2706 124.581 44.9982 124.307 44.6619 124.307C44.3256 124.307 44.053 124.581 44.053 124.919C44.053 125.256 44.3256 125.53 44.6619 125.53C44.9982 125.53 45.2706 125.256 45.2709 124.919H45.145Z"
      fill="#2F2417" />
    <path
      d="M45.145 132.344H45.0191C45.0186 132.541 44.859 132.702 44.6619 132.702C44.4648 132.702 44.305 132.541 44.3047 132.344C44.305 132.146 44.4648 131.985 44.6619 131.985C44.859 131.985 45.0186 132.146 45.0191 132.344H45.145H45.2709C45.2706 132.006 44.9982 131.732 44.6619 131.732C44.3256 131.732 44.053 132.006 44.053 132.344C44.053 132.681 44.3256 132.955 44.6619 132.955C44.9982 132.955 45.2706 132.681 45.2709 132.344H45.145Z"
      fill="#2F2417" />
    <path d="M42.7787 129.806H43.0304V92.4442H42.7787V129.806Z" fill="#2F2417" />
    <path
      d="M59.7889 94.8628L59.1513 98.6152C59.1409 98.6753 59.1749 98.7342 59.2321 98.7552C59.2892 98.7762 59.3529 98.7532 59.3839 98.7004L61.7224 94.7041L61.5052 94.5759L59.515 97.9774L60.0371 94.9055L59.7889 94.8628Z"
      fill="#2F2417" />
    <path
      d="M24.9457 94.9055L25.4678 97.9774L23.4774 94.5759L23.2604 94.7041L25.599 98.7004C25.6297 98.7532 25.6934 98.7762 25.7505 98.7552C25.8077 98.7342 25.8416 98.6753 25.8316 98.6152L25.1937 94.8628L24.9457 94.9055Z"
      fill="#2F2417" />
    <path
      d="M32.572 85.0866C32.572 85.0866 31.0241 87.6403 31.7982 87.4181C32.572 87.1959 36.8842 84.3093 36.8842 84.3093C36.8842 84.3093 35.2255 86.8629 36.5524 87.7512C37.8793 88.6393 43.2943 91.2129 43.2943 91.2129C43.2943 91.2129 49.7095 88.6393 49.8202 87.6403C49.9308 86.641 49.599 86.1969 49.599 85.6417C49.599 85.0866 48.9357 84.4203 50.2625 84.8644C51.5892 85.3086 56.4539 87.9734 56.1224 87.3071C55.7908 86.641 50.4083 75.9325 49.672 75.5687C48.9357 75.2049 38.9849 74.872 37.2157 75.8713C35.4468 76.8706 32.572 85.0866 32.572 85.0866Z"
      fill="#2F2417" />
    <path
      d="M32.572 85.0866L32.4645 85.0209C32.4638 85.0222 32.215 85.4324 31.9651 85.9127C31.8402 86.1531 31.7149 86.4107 31.6197 86.6458C31.525 86.8824 31.4573 87.0897 31.4556 87.2611C31.4561 87.3288 31.4659 87.3979 31.5107 87.4611C31.5553 87.5255 31.6393 87.5607 31.7131 87.5581C31.7529 87.5581 31.7919 87.5513 31.8327 87.5397C31.9475 87.5063 32.101 87.4348 32.2969 87.3329C32.9778 86.9775 34.1383 86.2497 35.1334 85.6084C36.1277 84.9676 36.9537 84.4147 36.9539 84.4145L36.8842 84.3093L36.7787 84.2403C36.7764 84.2438 36.5622 84.5737 36.3467 85.0414C36.132 85.5095 35.913 86.1132 35.912 86.6805C35.912 86.9072 35.948 87.1296 36.0381 87.3324C36.128 87.5351 36.2737 87.7169 36.4827 87.8564C36.823 88.0839 37.4108 88.4113 38.1071 88.7786C40.1937 89.8792 43.2397 91.3267 43.2404 91.3272C43.2722 91.3423 43.3084 91.3433 43.3409 91.3302C43.3421 91.3297 44.9474 90.6859 46.5696 89.9156C47.3807 89.5301 48.1958 89.1138 48.8198 88.7275C49.132 88.5344 49.3966 88.3491 49.5917 88.1752C49.6893 88.088 49.7699 88.0035 49.8308 87.9191C49.8912 87.8347 49.9343 87.749 49.9453 87.6542C49.9617 87.5071 49.9688 87.3708 49.9688 87.2442C49.9688 86.8637 49.9048 86.5685 49.8431 86.3167C49.781 86.0642 49.7246 85.8571 49.7248 85.6417C49.7243 85.4777 49.678 85.322 49.6362 85.186C49.5934 85.052 49.5572 84.9317 49.5589 84.8783L49.5617 84.8548V84.8543L49.5531 84.8493L49.5597 84.8571L49.5617 84.8543L49.5531 84.8493L49.5597 84.8571L49.5614 84.8561C49.5665 84.8531 49.5891 84.8455 49.6324 84.8457C49.7319 84.845 49.9252 84.8841 50.2227 84.9845C50.5067 85.0793 50.9767 85.2873 51.524 85.5439C52.3459 85.9294 53.3473 86.4254 54.2037 86.8258C54.6318 87.026 55.0238 87.2022 55.341 87.3294C55.4996 87.3931 55.6395 87.4444 55.7576 87.4808C55.8764 87.5167 55.9701 87.5389 56.0546 87.5397C56.0939 87.5392 56.1347 87.5361 56.1813 87.5096C56.2042 87.4962 56.2276 87.4744 56.2429 87.4466C56.2583 87.4191 56.2646 87.3883 56.2643 87.362C56.2638 87.317 56.2507 87.2831 56.2349 87.2505C56.0687 86.9165 54.6402 84.0727 53.1602 81.2655C52.4201 79.8618 51.6674 78.4674 51.0527 77.3994C50.7453 76.8653 50.4725 76.413 50.2517 76.0801C50.1412 75.9138 50.0438 75.777 49.9597 75.6734C49.8733 75.5695 49.8104 75.4992 49.7276 75.4555C49.6586 75.4224 49.5713 75.4004 49.4502 75.3763C49.0313 75.2957 48.2293 75.2234 47.215 75.1696C46.2016 75.1162 44.9802 75.0824 43.7376 75.0824C42.3488 75.0824 40.9343 75.1246 39.7542 75.229C39.1639 75.281 38.6322 75.3488 38.1899 75.4352C37.7471 75.5225 37.3952 75.6256 37.154 75.7611C36.9078 75.9011 36.6629 76.1494 36.4089 76.4765C35.5251 77.6203 34.5431 79.7549 33.7733 81.6126C33.0047 83.469 32.4539 85.0431 32.4534 85.0447L32.572 85.0866L32.4645 85.0209L32.572 85.0866L32.6908 85.1283C32.6911 85.1281 32.7354 85.0009 32.8174 84.7747C33.1039 83.9835 33.8455 81.989 34.7069 80.0868C35.1377 79.1358 35.5983 78.2078 36.0454 77.4669C36.49 76.7262 36.9315 76.1731 37.2774 75.9815C37.4735 75.8698 37.809 75.7669 38.238 75.6835C39.5279 75.4307 41.6631 75.3349 43.7376 75.3351C45.1523 75.3351 46.5409 75.3791 47.6206 75.4461C48.1601 75.4795 48.6227 75.5184 48.9714 75.5604C49.1456 75.5814 49.2913 75.6031 49.4026 75.6246C49.5129 75.6453 49.5922 75.6693 49.6163 75.6822C49.6256 75.684 49.6911 75.7399 49.7646 75.8331C50.0518 76.1863 50.5762 77.0559 51.1927 78.1565C53.0467 81.4629 55.7775 86.8968 56.0098 87.3635L56.0139 87.3728L56.0501 87.362H56.0126L56.0139 87.3728L56.0501 87.362H56.0126H56.0927L56.0234 87.323L56.0126 87.362H56.0927L56.0234 87.323L56.0886 87.3599L56.0629 87.2874C56.0569 87.2889 56.0358 87.3 56.0234 87.323L56.0886 87.3599L56.0629 87.2874L56.0728 87.3149L56.0662 87.2864L56.0629 87.2874L56.0728 87.3149L56.0662 87.2864L56.0546 87.2871C56.0086 87.2884 55.8797 87.2591 55.7148 87.2007C55.129 86.9972 54.0325 86.4696 52.9601 85.9514C51.8847 85.4324 50.8357 84.9238 50.3023 84.7446C49.9924 84.6415 49.787 84.594 49.6324 84.5929C49.5418 84.5932 49.4592 84.6101 49.393 84.6675C49.3608 84.6958 49.3374 84.7327 49.3246 84.7699C49.3115 84.807 49.3074 84.8435 49.3072 84.8783C49.3092 85.0055 49.356 85.1283 49.3958 85.2613C49.4371 85.3925 49.4736 85.528 49.4731 85.6417C49.4733 85.9021 49.5388 86.1301 49.5987 86.3769C49.6589 86.6241 49.7168 86.892 49.717 87.2442C49.717 87.3615 49.7105 87.4881 49.6951 87.6264C49.6923 87.6565 49.6725 87.708 49.6266 87.771C49.5421 87.8898 49.3747 88.042 49.1499 88.205C48.3612 88.7798 46.8797 89.5076 45.6024 90.085C44.9635 90.3742 44.3745 90.6269 43.9453 90.8074C43.7308 90.8977 43.5561 90.9697 43.4353 91.0193C43.3144 91.0686 43.2477 91.0954 43.2475 91.0956L43.2943 91.2129L43.3482 91.0986C43.3472 91.0981 43.0101 90.9381 42.482 90.6831C41.6898 90.3006 40.4704 89.7058 39.3255 89.1241C38.1814 88.543 37.1077 87.9714 36.6221 87.6461C36.452 87.5316 36.3404 87.3915 36.2679 87.2292C36.1957 87.067 36.1637 86.8809 36.1637 86.6805C36.1627 86.1794 36.3671 85.5978 36.5753 85.1476C36.679 84.9221 36.7832 84.7289 36.861 84.5927C36.9 84.5244 36.9325 84.4706 36.9549 84.4337C36.9773 84.397 36.9894 84.3786 36.9897 84.3786C37.0221 84.3283 37.0151 84.2618 36.9728 84.2196C36.9302 84.1774 36.864 84.171 36.8142 84.2042C36.8137 84.2047 36.5454 84.3844 36.1292 84.6582C35.5052 85.0689 34.5511 85.6905 33.6814 86.2292C33.2466 86.4987 32.833 86.7474 32.4935 86.9385C32.1559 87.1291 31.8838 87.2631 31.7634 87.2967C31.7398 87.3036 31.7224 87.3056 31.7131 87.3053L31.705 87.3048L31.7048 87.3063L31.7053 87.3051L31.705 87.3048L31.7048 87.3063L31.7053 87.3051L31.6965 87.3256L31.7123 87.3101L31.7053 87.3051L31.6965 87.3256L31.7123 87.3101L31.7043 87.318L31.7143 87.3124L31.7123 87.3101L31.7043 87.318L31.7143 87.3124C31.7136 87.3122 31.707 87.2942 31.7073 87.2611C31.7055 87.1623 31.7617 86.9626 31.8528 86.7411C31.9885 86.4059 32.1959 86.0068 32.3689 85.6933C32.4552 85.5366 32.533 85.4011 32.5891 85.3048C32.6455 85.2087 32.6795 85.1524 32.6795 85.1524L32.6908 85.1283L32.572 85.0866Z"
      fill="#2F2417" />
    <path d="M14.9636 92.7374L14.0347 97.2625L25.0372 102.693L26.109 98.8462L14.9636 92.7374Z" fill="#A1A09F" />
    <path
      d="M14.9635 92.7375L14.8402 92.7119L13.9113 97.2371C13.8997 97.2934 13.9277 97.3506 13.9793 97.3759L24.9817 102.806C25.0152 102.823 25.0545 102.823 25.0885 102.808C25.1227 102.793 25.1484 102.763 25.1585 102.727L26.2301 98.8804C26.2459 98.8238 26.2205 98.7636 26.1692 98.7353L15.0237 92.6265C14.9887 92.6073 14.9467 92.606 14.9104 92.623C14.8742 92.6396 14.8482 92.6728 14.8402 92.7119L14.9635 92.7375L14.9031 92.8484L25.9607 98.9093L24.9568 102.512L14.1776 97.1923L15.0866 92.763L14.9635 92.7375L14.9031 92.8484L14.9635 92.7375Z"
      fill="#2F2417" />
    <path d="M59.275 98.6364L60.3061 102.621L73.3469 98.6976L71.5878 93.9771L59.275 98.6364Z" fill="#A1A09F" />
    <path
      d="M59.275 98.6365L59.1534 98.6683L60.1843 102.653C60.1928 102.686 60.2147 102.715 60.2444 102.732C60.2741 102.748 60.3096 102.752 60.3423 102.743L73.3829 98.8188C73.4166 98.8086 73.444 98.7854 73.4596 98.754C73.4752 98.7224 73.477 98.6863 73.4647 98.6534L71.7056 93.9326C71.6937 93.901 71.6703 93.8758 71.6396 93.8619C71.6092 93.848 71.5747 93.847 71.5432 93.8588L59.2307 98.5182C59.1708 98.5409 59.137 98.6059 59.1534 98.6683L59.275 98.6365L59.3196 98.7548L71.514 94.1399L73.1817 98.6155L60.3952 102.463L59.3968 98.6046L59.275 98.6365L59.3196 98.7548L59.275 98.6365Z"
      fill="#2F2417" />
    <path
      d="M37.079 71.06C37.079 71.06 34.2591 74.4924 33.9558 75.0407C33.6527 75.5887 31.4153 84.5222 30.5055 86.2886C29.5958 88.0549 30.9906 87.5068 31.9613 86.4102C32.9317 85.3141 36.9955 82.8778 36.8741 83.6086C36.7528 84.3394 35.661 86.1059 36.3281 86.4712C36.9955 86.8367 42.4543 91.4048 42.9394 91.4048C43.4247 91.4048 50.3391 86.9585 50.5817 86.3493C50.8244 85.7403 49.2475 83.304 50.0357 83.4258C50.8244 83.5477 56.5866 88.8468 57.2537 88.4201C57.921 87.9939 54.221 79.3451 52.4622 75.4469C50.7031 71.5489 47.1791 70.8795 46.2086 70.8186C45.2382 70.7579 37.079 71.06 37.079 71.06Z"
      fill="#A1A09F" />
    <path
      d="M37.079 71.06L36.9818 70.9796C36.9818 70.9798 36.2765 71.8381 35.5331 72.7655C35.1613 73.2291 34.7802 73.7099 34.4723 74.1101C34.3182 74.3101 34.1826 74.4898 34.0753 74.6377C33.9678 74.7863 33.8898 74.9001 33.8457 74.9792C33.8188 75.0292 33.7929 75.097 33.7581 75.1963C33.631 75.5636 33.4118 76.3296 33.1386 77.3048C32.7291 78.7664 32.2007 80.6927 31.6947 82.4081C31.4419 83.2655 31.1947 84.0704 30.9712 84.7367C30.7482 85.4028 30.5473 85.9329 30.3937 86.2305C30.1825 86.643 30.0861 86.935 30.0844 87.1572C30.0841 87.2709 30.113 87.3753 30.1845 87.4509C30.2563 87.5267 30.3575 87.5558 30.4541 87.5551C30.5662 87.5548 30.6837 87.5222 30.8103 87.4689C31.1877 87.3073 31.6531 86.9471 32.0552 86.4944C32.2555 86.2674 32.611 85.9663 33.0379 85.6493C33.6791 85.173 34.4836 84.6566 35.192 84.2612C35.5459 84.0636 35.8762 83.896 36.1478 83.7792C36.4174 83.6616 36.6377 83.5982 36.7331 83.6005L36.7658 83.6035L36.7699 83.6045L36.7744 83.5924L36.7668 83.6027L36.7699 83.6045L36.7744 83.5924L36.7668 83.6027L36.7918 83.5681L36.7535 83.5861L36.7668 83.6027L36.7918 83.5681L36.7535 83.5861L36.783 83.5721L36.751 83.5787L36.7535 83.5861L36.783 83.5721L36.751 83.5787L36.7523 83.5785H36.7507L36.751 83.5787L36.7523 83.5785H36.7507L36.7497 83.5878C36.7097 83.8388 36.5214 84.2762 36.3419 84.7254C36.1632 85.1784 35.99 85.6447 35.9877 86.0234C35.988 86.1377 36.0044 86.2464 36.0484 86.3445C36.0922 86.4423 36.1672 86.5277 36.2679 86.5821C36.3374 86.6197 36.4972 86.7312 36.7087 86.8895C37.4541 87.4461 38.8879 88.6011 40.1871 89.6158C40.8369 90.1234 41.4534 90.5963 41.9359 90.9434C42.1773 91.1171 42.385 91.2594 42.5489 91.36C42.631 91.4103 42.702 91.4505 42.7631 91.4796C42.8261 91.5076 42.8724 91.5289 42.9393 91.5311C42.9779 91.5306 43.0066 91.5228 43.0403 91.5127C43.1664 91.473 43.3592 91.3779 43.6223 91.2356C44.5366 90.7389 46.2398 89.6742 47.7452 88.666C48.4976 88.1622 49.1997 87.6731 49.7288 87.276C49.9934 87.0773 50.2144 86.9018 50.3785 86.7573C50.4606 86.685 50.5283 86.6205 50.5814 86.5629C50.6343 86.5042 50.6731 86.4572 50.6988 86.3963C50.7244 86.3311 50.7332 86.2618 50.7332 86.189C50.7325 86.0085 50.6789 85.7979 50.6028 85.5646C50.4886 85.2165 50.3201 84.8222 50.1817 84.4665C50.1122 84.2888 50.0505 84.1209 50.0067 83.9761C49.9629 83.8318 49.9385 83.7084 49.939 83.6316C49.9385 83.5802 49.9501 83.5552 49.9526 83.5534C49.9551 83.5529 49.9473 83.5499 49.9823 83.5479L50.0166 83.5507C50.0379 83.5532 50.0971 83.5742 50.1716 83.6136C50.4573 83.762 50.9852 84.15 51.6151 84.6417C52.5618 85.3798 53.751 86.3558 54.7934 87.1488C55.315 87.5452 55.7996 87.8961 56.2021 88.1499C56.4035 88.2768 56.5843 88.3796 56.7413 88.4524C56.8994 88.5245 57.0306 88.5695 57.1539 88.571C57.2103 88.571 57.2687 88.5601 57.3213 88.5268C57.383 88.4868 57.416 88.4254 57.4341 88.3652C57.4525 88.3036 57.4588 88.2368 57.459 88.1607C57.4585 87.9471 57.4052 87.6554 57.312 87.2881C56.9855 86.007 56.1566 83.8229 55.2309 81.5602C54.3056 79.2988 53.2845 76.963 52.5767 75.3948C51.6855 73.4187 50.3413 72.2549 49.0992 71.5825C47.8564 70.9098 46.7189 70.7243 46.2164 70.6924C46.122 70.6866 45.9722 70.6841 45.7736 70.6841C43.8073 70.6841 37.0755 70.9336 37.0745 70.9336C37.0385 70.9349 37.0047 70.9515 36.9818 70.9796L37.079 71.06L37.0838 71.1864C37.0848 71.1861 37.5044 71.1707 38.1662 71.1472C40.1514 71.0772 44.3088 70.9369 45.7736 70.9369C45.9694 70.9369 46.118 70.9397 46.2008 70.9447C46.6688 70.9738 47.7784 71.1535 48.9799 71.8049C50.1822 72.4571 51.4796 73.5772 52.3476 75.4992C53.1549 77.2884 54.3723 80.0812 55.387 82.6169C55.8943 83.8846 56.3509 85.0884 56.6802 86.0689C56.8446 86.5591 56.9772 86.9936 57.0683 87.3508C57.1595 87.7072 57.2078 87.9896 57.2073 88.1607C57.2076 88.2209 57.2013 88.2664 57.1932 88.2919L57.1836 88.3149L57.1829 88.3159L57.1957 88.3288L57.1862 88.3134L57.1829 88.3159L57.1957 88.3288L57.1862 88.3134L57.1796 88.3157L57.1539 88.3182C57.1164 88.3187 57.0475 88.3043 56.9611 88.2712C56.6326 88.1478 56.0682 87.7795 55.4167 87.3C54.4367 86.5801 53.2438 85.6071 52.2288 84.8032C51.7213 84.4013 51.2581 84.0416 50.886 83.7756C50.6998 83.6424 50.5366 83.5327 50.3999 83.4521C50.2612 83.3717 50.1568 83.3183 50.0548 83.3009C50.0304 83.2971 50.0062 83.2951 49.9823 83.2951C49.8965 83.2928 49.8041 83.329 49.752 83.4008C49.7001 83.4713 49.6878 83.5512 49.6873 83.6316C49.6883 83.7951 49.7424 83.9882 49.8182 84.2107C49.9325 84.5426 50.1001 84.9321 50.2386 85.2946C50.3775 85.6551 50.4835 85.9959 50.4815 86.189C50.4818 86.2403 50.4745 86.279 50.4649 86.3025C50.4646 86.3075 50.4307 86.3586 50.3712 86.4183C50.1459 86.6513 49.5836 87.0834 48.8719 87.5864C47.8028 88.3427 46.3881 89.2707 45.1996 90.0086C44.6056 90.3774 44.0676 90.699 43.659 90.927C43.4546 91.0412 43.2827 91.132 43.1538 91.1929C43.0894 91.2235 43.0358 91.2465 42.9965 91.2609L42.9499 91.2758L42.9386 91.2781L42.9371 91.2783L42.9393 91.3054V91.2783H42.9371L42.9393 91.3054V91.2783V91.3056L42.9429 91.2783H42.9393V91.3056L42.9429 91.2783C42.9403 91.2796 42.8903 91.2634 42.8268 91.2288C42.5801 91.0999 42.0824 90.7472 41.4805 90.2932C40.5758 89.611 39.4231 88.6941 38.4389 87.916C37.9465 87.527 37.4961 87.1726 37.1392 86.8988C36.9604 86.7621 36.8051 86.6453 36.679 86.5543C36.5524 86.4628 36.457 86.398 36.3885 86.3601C36.3349 86.3303 36.3027 86.2936 36.2777 86.2398C36.2533 86.1862 36.2395 86.1132 36.2395 86.0234C36.2375 85.7234 36.3976 85.2635 36.5758 84.8191C36.753 84.371 36.9451 83.9402 36.9982 83.6293L37.0025 83.5785C37.0052 83.5135 36.971 83.4346 36.9116 83.3957C36.8537 83.3563 36.7933 83.3482 36.7331 83.3477C36.6156 83.3487 36.4799 83.3838 36.3145 83.4417C35.7415 83.6455 34.8278 84.15 33.954 84.7122C33.0802 85.2754 32.2566 85.8879 31.8671 86.3263C31.6139 86.6127 31.3297 86.8611 31.0711 87.0351C30.942 87.1223 30.8194 87.1905 30.7124 87.2358C30.6057 87.2815 30.5141 87.3028 30.4541 87.3023C30.4003 87.3018 30.3794 87.2894 30.3668 87.2765C30.3542 87.2633 30.3363 87.232 30.3361 87.1572C30.3343 87.0133 30.4131 86.7401 30.6173 86.3465C30.8529 85.8877 31.162 84.9986 31.5059 83.9008C32.0204 82.2561 32.6062 80.1527 33.0921 78.4087C33.3347 77.5369 33.5525 76.755 33.7237 76.1663C33.809 75.8718 33.883 75.6258 33.9422 75.4418C33.9716 75.35 33.9975 75.2734 34.0189 75.215C34.0401 75.1571 34.0582 75.1154 34.0658 75.102C34.0977 75.0439 34.174 74.9306 34.279 74.7866C34.647 74.2792 35.3725 73.3656 36.0046 72.5815C36.3205 72.1892 36.6135 71.829 36.8275 71.5666C37.0412 71.3044 37.1757 71.1409 37.1762 71.1404L37.079 71.06L37.0838 71.1864L37.079 71.06Z"
      fill="#2F2417" />
    <path
      d="M37.2381 69.7215C37.2381 69.7215 36.1464 74.6551 36.1464 75.9951C36.1464 77.3351 42.1419 92.9791 43.2943 91.2128C44.4465 89.4466 49.672 76.5431 49.672 75.5687C49.672 74.5942 49.1866 69.3562 49.1866 69.3562C49.1866 69.3562 44.9409 72.2187 43.1214 72.4015C41.3019 72.5843 37.2381 69.7215 37.2381 69.7215Z"
      fill="white" />
    <path
      d="M37.2381 69.7215L37.115 69.6942C37.115 69.6947 36.8419 70.9288 36.5685 72.3315C36.4321 73.033 36.2951 73.7764 36.1924 74.4299C36.09 75.0841 36.0208 75.6445 36.0205 75.9951C36.021 76.0952 36.0439 76.2272 36.0844 76.4049C36.2365 77.0657 36.6496 78.3253 37.2082 79.8539C38.0462 82.1454 39.2102 85.0327 40.3032 87.3513C40.8498 88.5106 41.3781 89.5275 41.8418 90.2598C42.0742 90.6261 42.2897 90.9211 42.488 91.1307C42.5875 91.2354 42.6824 91.319 42.7773 91.3792C42.8717 91.4388 42.9681 91.4775 43.0703 91.478C43.1352 91.4783 43.2012 91.4603 43.2576 91.4254C43.3142 91.3906 43.361 91.3413 43.3996 91.2821C43.5501 91.0511 43.7578 90.655 44.0123 90.1287C44.9011 88.2894 46.3443 84.8765 47.567 81.813C48.1782 80.2814 48.734 78.8377 49.1375 77.7224C49.3392 77.1645 49.5028 76.689 49.6168 76.3242C49.6737 76.1417 49.718 75.987 49.7488 75.8621C49.7792 75.7363 49.7971 75.6448 49.7978 75.5687C49.7976 75.0681 49.676 73.5201 49.5547 72.0863C49.4333 70.6545 49.312 69.3448 49.312 69.3446C49.308 69.3001 49.281 69.2611 49.2408 69.2419C49.2005 69.223 49.1537 69.2262 49.1167 69.2513C49.1164 69.2513 49.0509 69.2955 48.9319 69.3739C48.5148 69.6479 47.4449 70.337 46.2837 70.976C45.7029 71.2956 45.0995 71.6027 44.5449 71.8385C43.9909 72.0746 43.4836 72.2387 43.1088 72.2756C43.0572 72.2809 43.0028 72.2835 42.9462 72.2835C42.5024 72.2842 41.9189 72.1219 41.3031 71.8727C40.3785 71.4993 39.3779 70.9348 38.6108 70.4644C38.2272 70.2291 37.9017 70.0172 37.6724 69.8643C37.5576 69.7879 37.467 69.7263 37.405 69.6838C37.3431 69.6411 37.3104 69.6181 37.3104 69.6181C37.2759 69.5938 37.2316 69.5885 37.1926 69.6037C37.1533 69.6191 37.1244 69.653 37.115 69.6942L37.2381 69.7215L37.1656 69.8251C37.1679 69.8264 38.1242 70.5003 39.321 71.176C39.9193 71.5137 40.5776 71.8519 41.2092 72.107C41.8411 72.3618 42.4442 72.5355 42.9462 72.5362C43.0104 72.5362 43.0731 72.5335 43.134 72.5274C43.6153 72.4781 44.2278 72.2604 44.888 71.9639C46.8654 71.0744 49.2538 69.4629 49.2569 69.4611L49.1866 69.3562L49.0613 69.3678C49.0615 69.3688 49.0917 69.6952 49.1373 70.2013C49.2055 70.9604 49.3077 72.1222 49.3931 73.1849C49.4781 74.2463 49.5464 75.2148 49.5461 75.5687C49.5471 75.6041 49.529 75.7105 49.4912 75.8538C49.35 76.3986 48.9503 77.5326 48.4161 78.9421C47.6141 81.0579 46.5072 83.8032 45.5 86.1731C44.9965 87.3581 44.5177 88.4494 44.1147 89.321C43.7127 90.1919 43.3832 90.8468 43.1889 91.1436C43.1659 91.1787 43.1445 91.1987 43.1264 91.2098L43.0703 91.2252C43.0222 91.227 42.9303 91.1911 42.8173 91.0958C42.6038 90.9196 42.3277 90.5619 42.0241 90.0758C40.9557 88.3718 39.5118 85.0952 38.3407 82.1227C37.7547 80.636 37.2359 79.224 36.8641 78.1203C36.6783 77.5687 36.5293 77.094 36.4271 76.7267C36.376 76.5432 36.3367 76.3864 36.3105 76.2615C36.2843 76.1374 36.2717 76.0426 36.2722 75.9951C36.2717 75.6756 36.3392 75.1169 36.4412 74.4693C36.5942 73.4963 36.8243 72.3156 37.0159 71.3787C37.1118 70.9103 37.1981 70.5026 37.2603 70.2124C37.3227 69.9219 37.3607 69.7495 37.361 69.749L37.2381 69.7215L37.1656 69.8251L37.2381 69.7215Z"
      fill="#2F2417" />
    <path
      d="M36.9209 70.4503C36.9209 70.4503 35.2391 77.0733 37.0282 77.5867C38.817 78.0998 49.061 71.0918 49.061 71.0918L36.9209 70.4503Z"
      fill="#2F2417" />
    <path
      d="M36.9209 70.4503L36.7991 70.4189C36.7983 70.424 36.0794 73.2471 36.0784 75.3756C36.0786 75.9423 36.1287 76.461 36.2636 76.8731C36.3314 77.0791 36.4207 77.2593 36.5406 77.4042C36.6599 77.5485 36.8122 77.6564 36.9934 77.708C37.0712 77.7305 37.1563 77.7399 37.2484 77.7399C37.5623 77.7389 37.9681 77.6322 38.4542 77.4517C40.1504 76.8195 42.812 75.2578 45.0594 73.8518C47.3054 72.4458 49.131 71.1967 49.132 71.1962C49.1765 71.1657 49.1969 71.11 49.1823 71.0577C49.1677 71.0056 49.1217 70.9685 49.0678 70.9657L36.9277 70.3239C36.8676 70.3208 36.8139 70.3605 36.7991 70.4189L36.9209 70.4503L36.9144 70.5764L49.0544 71.218L49.061 71.0918L48.9902 70.9874C48.9897 70.9877 48.8417 71.0888 48.5769 71.267C47.6503 71.8904 45.3006 73.4498 42.9358 74.852C41.7537 75.553 40.5675 76.2148 39.5558 76.6997C39.0501 76.9421 38.5879 77.1405 38.1937 77.277C37.8002 77.414 37.4722 77.4878 37.2484 77.4871C37.1737 77.4871 37.1112 77.479 37.0626 77.4651C36.9335 77.4277 36.8275 77.3544 36.7339 77.2424C36.5944 77.0748 36.49 76.8162 36.4242 76.4941C36.3583 76.1723 36.3299 75.7889 36.3301 75.3756C36.3299 74.3381 36.5078 73.1116 36.6863 72.1475C36.7754 71.6652 36.8648 71.2483 36.9317 70.952C36.9652 70.8039 36.9929 70.6861 37.0125 70.6052C37.0319 70.5246 37.043 70.4816 37.043 70.4814L36.9209 70.4503L36.9144 70.5764L36.9209 70.4503Z"
      fill="#2F2417" />
    <path
      d="M38.4976 49.2441C38.4976 49.2441 37.9969 52.3875 36.6194 55.2166C35.2422 58.0458 32.4872 60.309 32.4872 60.309C32.4872 60.309 32.0492 61.6923 32.6126 62.5725C33.1759 63.4527 33.99 63.8298 33.99 63.8298C33.99 63.8298 35.4299 68.1676 35.9933 69.2364C36.5567 70.3055 40.6262 74.4547 41.6905 74.8948C42.7551 75.3349 44.8211 75.2719 45.6976 74.7692C46.5739 74.2661 49.8923 70.4311 50.3305 69.2994C50.7688 68.1676 51.8331 63.5783 51.8331 63.5783C51.8331 63.5783 52.647 63.3268 53.1479 62.0694C53.6486 60.8121 53.7113 59.3661 53.7113 59.3661C53.7113 59.3661 52.0209 59.0517 49.454 58.3603C46.8873 57.6687 46.3861 57.2286 46.3861 57.2286C46.3861 57.2286 44.3201 57.2915 41.7532 55.4052C39.1863 53.5192 38.4976 49.2441 38.4976 49.2441Z"
      fill="white" />
    <path
      d="M38.4976 49.2441L38.3735 49.2241C38.3735 49.2243 38.3659 49.2716 38.3496 49.3624C38.2363 49.9963 37.7026 52.7047 36.5064 55.161C35.8267 56.5579 34.8009 57.8236 33.9452 58.7372C33.5173 59.194 33.1321 59.5633 32.8545 59.8179C32.7155 59.945 32.6035 60.0438 32.5262 60.1103C32.4492 60.1771 32.4077 60.2112 32.4077 60.2112C32.3885 60.2269 32.3749 60.2473 32.3674 60.2706C32.3654 60.2779 32.1995 60.7989 32.1992 61.421C32.1995 61.8207 32.2674 62.2656 32.5066 62.6407C33.0924 63.5535 33.9261 63.9385 33.9372 63.9446L33.99 63.8298L33.8705 63.8698C33.8707 63.8703 34.231 64.9552 34.6617 66.1747C34.8772 66.7844 35.1103 67.4277 35.3252 67.9864C35.5405 68.5456 35.7361 69.018 35.8821 69.2956C36.0354 69.5845 36.3966 70.0426 36.8769 70.5931C37.5966 71.4162 38.5786 72.4316 39.4826 73.285C39.9347 73.7118 40.3672 74.0975 40.7387 74.3991C41.1121 74.7009 41.4177 74.9173 41.6427 75.0118C42.1469 75.2194 42.8397 75.3149 43.537 75.3154C44.3894 75.3139 45.2407 75.1741 45.7601 74.8789C45.8839 74.8073 46.0345 74.689 46.2134 74.531C46.8372 73.9787 47.7918 72.941 48.6439 71.9124C49.0698 71.3982 49.4693 70.8871 49.7875 70.4404C50.1062 69.9928 50.3426 69.6146 50.4478 69.3451C50.5611 69.0526 50.7094 68.5531 50.8715 67.9616C51.3568 66.1893 51.9555 63.6079 51.9557 63.6071L51.8331 63.5783L51.8701 63.6991C51.8938 63.6936 52.7489 63.4148 53.2647 62.1164C53.7752 60.832 53.8362 59.3788 53.8369 59.3714C53.8397 59.3087 53.7959 59.2531 53.7342 59.2418C53.734 59.2418 53.6297 59.2223 53.4319 59.1821C52.8383 59.0618 51.4087 58.7559 49.4865 58.2382C48.2077 57.8936 47.4464 57.6123 47.0082 57.4192C46.7889 57.3229 46.6507 57.2483 46.5689 57.1995C46.5281 57.175 46.5014 57.157 46.4858 57.1457L46.4702 57.1343L46.4679 57.1325L46.4347 57.1727L46.4692 57.1333L46.4679 57.1325L46.4347 57.1727L46.4692 57.1333C46.4453 57.1123 46.4141 57.1012 46.3824 57.1022L46.3622 57.1024C46.1445 57.1019 44.2079 57.0521 41.8275 55.3033C40.5761 54.3852 39.7683 52.8655 39.2805 51.5727C39.0363 50.9263 38.8714 50.3379 38.7677 49.9114C38.7158 49.6983 38.6793 49.5259 38.6557 49.4069C38.6441 49.3474 38.6355 49.3012 38.63 49.2703C38.6244 49.2393 38.6219 49.2238 38.6219 49.2238C38.6121 49.1627 38.5595 49.1177 38.4976 49.1177C38.4356 49.1177 38.3833 49.1627 38.3735 49.2241L38.4976 49.2441L38.3735 49.2643C38.3745 49.2696 38.5477 50.3454 39.0451 51.6622C39.5435 52.9782 40.3637 54.5392 41.679 55.5073C44.1112 57.2945 46.1067 57.3555 46.3622 57.3552L46.3899 57.3547L46.3861 57.2286L46.3033 57.3236C46.3315 57.3464 46.8455 57.7872 49.4213 58.4824C51.9925 59.1748 53.6859 59.4897 53.6884 59.4902L53.7113 59.3661L53.5854 59.3606C53.5854 59.3606 53.5847 59.3815 53.5819 59.4225C53.564 59.7094 53.4603 60.9458 53.0309 62.0224C52.7882 62.6319 52.4735 62.9901 52.2228 63.1979C52.0972 63.3015 51.9877 63.3675 51.9109 63.4069C51.8724 63.4266 51.8422 63.4398 51.8223 63.4476L51.8006 63.456L51.7961 63.4575C51.7531 63.4709 51.7208 63.5058 51.7105 63.5497C51.7103 63.5505 51.6441 63.8361 51.5376 64.2838C51.3777 64.9552 51.1275 65.9889 50.8768 66.9601C50.6263 67.9303 50.3728 68.8426 50.2132 69.2536C50.1143 69.5122 49.8273 69.9642 49.4437 70.4857C48.868 71.2703 48.072 72.2264 47.3402 73.0305C46.9742 73.4327 46.624 73.7972 46.3262 74.0831C46.0294 74.3687 45.7794 74.5775 45.6352 74.6595C45.1904 74.917 44.3587 75.0644 43.537 75.0626C42.8641 75.0634 42.1925 74.9666 41.7386 74.778C41.6236 74.731 41.4474 74.622 41.2377 74.4673C40.5001 73.9249 39.3308 72.8265 38.2912 71.7516C37.7711 71.214 37.2822 70.6816 36.8938 70.2268C36.5061 69.7733 36.2166 69.3916 36.1046 69.1775C35.9692 68.9207 35.7733 68.45 35.5601 67.8954C35.2396 67.0625 34.8766 66.0354 34.5942 65.2174C34.453 64.8081 34.3316 64.4512 34.2458 64.1966C34.16 63.9421 34.1096 63.7901 34.1094 63.7899C34.0985 63.7568 34.0741 63.7295 34.0427 63.7151L34.0356 63.7118C33.9553 63.6731 33.226 63.2987 32.7185 62.504C32.5167 62.1903 32.4504 61.7924 32.451 61.421C32.4507 61.1326 32.49 60.8621 32.5295 60.6652C32.5491 60.5666 32.569 60.4862 32.5836 60.4311C32.5909 60.4033 32.597 60.3821 32.601 60.3679L32.6073 60.3474L32.4872 60.309L32.567 60.4068C32.5728 60.4005 35.3368 58.1348 36.7327 55.2722C38.1197 52.4213 38.6204 49.2703 38.6219 49.264L38.4976 49.2441L38.3735 49.2643L38.4976 49.2441Z"
      fill="#2F2417" />
    <path
      d="M40.9393 50.2498C40.9393 50.2498 41.1898 53.6447 42.8175 54.9651C44.4452 56.2854 45.4471 56.0338 45.4471 56.0338C45.4471 56.0338 42.2541 53.2049 40.9393 50.2498Z"
      fill="white" />
    <path
      d="M40.9393 50.2498L40.8137 50.2592C40.8142 50.264 40.8771 51.1189 41.1462 52.1445C41.4168 53.1695 41.8873 54.3697 42.7384 55.0634C43.9352 56.0348 44.8172 56.1802 45.2263 56.1794C45.3819 56.1794 45.4685 56.159 45.4775 56.1567C45.5228 56.1453 45.5583 56.1094 45.5694 56.0639C45.5802 56.0184 45.5651 55.9701 45.5304 55.9393C45.5301 55.939 45.4818 55.8961 45.3924 55.8137C44.7684 55.2381 42.1874 52.7501 41.0543 50.1983C41.0292 50.1421 40.9677 50.1123 40.9086 50.1272C40.8492 50.1424 40.8094 50.198 40.8137 50.2592L40.9393 50.2498L40.8245 50.3014C42.1587 53.2941 45.3587 56.1221 45.3637 56.1286L45.4471 56.0338L45.4166 55.9112H45.4164C45.408 55.9133 45.3431 55.9267 45.2263 55.9267C44.8761 55.9261 44.0575 55.8076 42.8965 54.8667C42.1199 54.2401 41.6512 53.0826 41.3896 52.0803C41.2582 51.5792 41.1769 51.1182 41.1283 50.783C41.1042 50.6151 41.0883 50.4791 41.0785 50.3851C41.0684 50.291 41.0649 50.2407 41.0649 50.2405L40.9393 50.2498L40.8245 50.3014L40.9393 50.2498Z"
      fill="#2F2417" />
    <path
      d="M37.1135 62.2848C37.1364 62.2977 37.9276 62.7868 39.0944 62.7886C39.6404 62.7888 40.2682 62.6786 40.9238 62.3598L40.7045 61.9048C40.1212 62.188 39.574 62.2827 39.0944 62.283C38.5831 62.283 38.1487 62.1735 37.8441 62.0643C37.692 62.01 37.5724 61.9556 37.4924 61.9157C37.4524 61.8957 37.4221 61.8796 37.4028 61.8687L37.3816 61.8566L37.3773 61.854L37.3766 61.8555L37.3773 61.854L37.3766 61.8555L37.3773 61.854L37.1135 62.2848Z"
      fill="#2F2417" />
    <path
      d="M45.3779 62.2848C45.4008 62.2977 46.192 62.7868 47.3586 62.7886C47.9046 62.7888 48.5324 62.6786 49.1879 62.3598L48.9686 61.9048C48.3854 62.188 47.8384 62.2827 47.3586 62.283C46.8473 62.283 46.4131 62.1735 46.1085 62.0643C45.9562 62.01 45.8366 61.9556 45.7565 61.9157C45.7165 61.8957 45.6863 61.8796 45.6669 61.8687L45.646 61.8566L45.6417 61.854L45.641 61.8553L45.6417 61.854L45.641 61.8553L45.6417 61.854L45.3779 62.2848Z"
      fill="#2F2417" />
    <path
      d="M40.8704 59.1273C40.859 59.1217 40.3216 58.853 39.4999 58.8527C38.7606 58.852 37.7909 59.0739 36.79 59.897L36.9496 60.0927C37.9065 59.3075 38.8097 59.1063 39.4999 59.1055C39.8831 59.1055 40.2003 59.1685 40.4205 59.2312C40.5305 59.2625 40.6164 59.2938 40.6738 59.3168C40.7027 59.3285 40.7244 59.3378 40.7385 59.3441L40.7541 59.3515L40.7578 59.3533L40.8704 59.1273Z"
      fill="#2F2417" />
    <path
      d="M45.6284 59.3533L45.6324 59.3515C45.6813 59.328 46.1681 59.1053 46.8866 59.1055C47.5768 59.1063 48.4803 59.3075 49.4369 60.0927L49.5965 59.897C48.5958 59.0739 47.6259 58.852 46.8866 58.8527C46.0646 58.853 45.5272 59.1217 45.5159 59.1273L45.6286 59.3533"
      fill="#2F2417" />
    <path
      d="M41.5898 67.2376C41.5939 67.2427 41.7396 67.4381 41.9858 67.6441C42.2318 67.8491 42.5794 68.0693 42.995 68.1052C43.0907 68.113 43.1866 68.1171 43.282 68.1171C43.9592 68.1163 44.6167 67.9141 44.9845 67.4265L44.7831 67.2748C44.4918 67.6689 43.9128 67.8653 43.282 67.8643C43.1939 67.8643 43.1048 67.8607 43.0159 67.8532C42.6801 67.8261 42.3705 67.6375 42.1469 67.45C42.0352 67.3564 41.9453 67.2642 41.8839 67.1959C41.8532 67.1618 41.8295 67.1337 41.8139 67.1145L41.7963 67.0925L41.7912 67.0859L41.5898 67.2376Z"
      fill="#2F2417" />
    <path
      d="M40.3687 69.5303C40.3729 69.5328 40.7108 69.7591 41.2228 69.9861C41.7348 70.2128 42.4205 70.4421 43.1264 70.4426C43.2147 70.4426 43.3034 70.4388 43.392 70.4313C44.8805 70.298 46.2632 69.2801 46.2723 69.2758L46.1243 69.0715L46.1099 69.0816C45.9624 69.1883 44.674 70.068 43.3701 70.1792C43.2893 70.1863 43.2079 70.1898 43.1264 70.1898C42.4754 70.1903 41.8171 69.974 41.3245 69.755C41.078 69.6456 40.8729 69.5364 40.7299 69.4545C40.6584 69.4135 40.6025 69.3797 40.5648 69.3559L40.522 69.3288L40.5084 69.32L40.3687 69.5303Z"
      fill="#2F2417" />
    <path
      d="M67.6563 111.358C67.6563 111.358 66.3286 109.237 65.7252 108.449C65.1216 107.661 63.7939 107.298 62.1038 105.48C60.4139 103.661 59.7498 105.419 60.2931 106.631C60.8366 107.843 62.285 108.813 62.9486 109.237C63.6127 109.661 64.1559 110.813 64.1559 111.358C64.1559 111.904 63.7939 113.177 63.7939 113.177C63.7939 113.177 63.4815 112.725 62.0081 111.133C60.5345 109.54 59.4483 108.268 59.1464 109.601C58.8449 110.934 59.3878 111.601 60.4139 112.51C61.44 113.419 62.5264 114.571 62.647 114.813C62.7679 115.055 63.1298 116.934 63.6731 117.298C64.2161 117.662 64.8801 117.904 64.8801 118.207C64.8801 118.51 64.3973 119.601 65.544 120.934C66.6909 122.268 68.0789 122.086 68.8032 120.147C69.5274 118.207 69.467 114.692 68.7427 112.995C68.0185 111.298 67.6563 111.358 67.6563 111.358Z"
      fill="white" />
    <path
      d="M67.6563 111.358L67.763 111.291C67.7627 111.291 67.4305 110.76 67.0227 110.13C66.6143 109.5 66.1318 108.773 65.8249 108.372C65.4994 107.95 65.0065 107.661 64.392 107.246C63.7766 106.831 63.0327 106.293 62.1957 105.393C61.661 104.82 61.2157 104.573 60.8353 104.57C60.5506 104.568 60.3218 104.724 60.1853 104.947C60.0464 105.169 59.9822 105.457 59.9819 105.762C59.9819 106.066 60.0464 106.388 60.1783 106.683C60.4627 107.316 60.9728 107.871 61.4933 108.325C62.0139 108.779 62.5473 109.13 62.8811 109.344C63.1837 109.536 63.4793 109.916 63.6905 110.312C63.9032 110.707 64.0321 111.125 64.0301 111.358C64.0311 111.607 63.9425 112.061 63.8523 112.443C63.8075 112.635 63.7625 112.81 63.7287 112.937C63.695 113.064 63.6728 113.142 63.6728 113.142L63.7939 113.177L63.8971 113.104C63.8906 113.095 63.5759 112.642 62.1003 111.047C61.5804 110.485 61.1077 109.961 60.6953 109.574C60.4887 109.38 60.2976 109.22 60.1191 109.105C59.9404 108.991 59.7738 108.917 59.6051 108.916C59.4651 108.914 59.3282 108.978 59.233 109.093C59.1364 109.208 59.0709 109.365 59.0236 109.573C58.9659 109.828 58.9375 110.063 58.9375 110.281C58.9367 110.76 59.076 111.163 59.3206 111.529C59.5653 111.897 59.9107 112.232 60.3306 112.605C60.8403 113.056 61.3667 113.57 61.7793 113.999C61.9857 114.214 62.1637 114.408 62.2964 114.561C62.3626 114.638 62.4177 114.705 62.4587 114.759C62.4995 114.812 62.5272 114.854 62.5345 114.87C62.5421 114.884 62.5617 114.939 62.5828 115.011C62.6601 115.269 62.7847 115.774 62.9501 116.256C63.0332 116.497 63.1263 116.733 63.2321 116.934C63.3385 117.134 63.4538 117.301 63.6034 117.403C63.8835 117.591 64.1879 117.743 64.4144 117.883C64.5277 117.952 64.6209 118.019 64.679 118.078C64.7384 118.137 64.755 118.181 64.7543 118.207C64.7555 118.248 64.7319 118.363 64.7057 118.51C64.68 118.659 64.6533 118.846 64.6533 119.065C64.6521 119.583 64.8072 120.273 65.4486 121.017C65.951 121.601 66.5131 121.92 67.0692 121.921C67.4438 121.922 67.8068 121.772 68.1212 121.482C68.4366 121.191 68.7078 120.761 68.921 120.191C69.2759 119.239 69.4426 117.937 69.4428 116.646C69.4421 115.243 69.2465 113.857 68.8583 112.945C68.5172 112.146 68.2544 111.728 68.0611 111.501C67.8692 111.275 67.7363 111.233 67.6613 111.232L67.6346 111.234L67.6563 111.358L67.763 111.291L67.6563 111.358L67.6782 111.483L67.6613 111.386V111.485L67.6782 111.483L67.6613 111.386V111.485V111.443L67.6553 111.484L67.6613 111.485V111.443L67.6553 111.484L67.6673 111.488C67.7006 111.502 67.8055 111.565 67.9684 111.791C68.1315 112.016 68.3523 112.401 68.6269 113.045C68.9935 113.9 69.1921 115.269 69.1911 116.646C69.1916 117.915 69.0244 119.196 68.6854 120.102C68.4825 120.646 68.2282 121.04 67.951 121.295C67.6734 121.55 67.3773 121.668 67.0692 121.668C66.6143 121.669 66.1126 121.402 65.6391 120.852C65.036 120.148 64.9063 119.534 64.9051 119.065C64.9051 118.867 64.929 118.695 64.9537 118.553C64.9778 118.41 65.0048 118.304 65.006 118.207C65.0053 118.082 64.9388 117.981 64.857 117.899C64.7319 117.774 64.5542 117.669 64.3558 117.556C64.1579 117.443 63.9399 117.325 63.7431 117.193C63.6419 117.128 63.5203 116.957 63.4138 116.735C63.2514 116.402 63.1115 115.957 63.0025 115.575C62.9479 115.384 62.9008 115.208 62.8613 115.067C62.8414 114.997 62.8235 114.935 62.8071 114.884C62.7905 114.832 62.7769 114.792 62.7596 114.757C62.7367 114.711 62.7039 114.665 62.6584 114.605C62.4998 114.398 62.1874 114.054 61.7989 113.657C61.411 113.261 60.9488 112.815 60.4972 112.415C60.0819 112.048 59.7521 111.723 59.5301 111.389C59.3083 111.054 59.19 110.712 59.1892 110.281C59.1892 110.085 59.2147 109.869 59.269 109.629C59.3103 109.445 59.3675 109.323 59.4246 109.257C59.483 109.191 59.5311 109.171 59.6051 109.169C59.694 109.168 59.8259 109.215 59.9834 109.317C60.46 109.622 61.1364 110.375 61.916 111.219C62.6516 112.014 63.0969 112.524 63.3574 112.833C63.4876 112.988 63.5716 113.093 63.6228 113.159C63.6484 113.192 63.6658 113.215 63.6764 113.23L63.6877 113.245L63.6905 113.249C63.7182 113.289 63.7665 113.309 63.8146 113.301C63.8624 113.293 63.9014 113.258 63.9148 113.211C63.9153 113.21 64.0061 112.891 64.0975 112.501C64.1884 112.11 64.281 111.656 64.2818 111.358C64.2798 111.047 64.137 110.616 63.9122 110.193C63.6857 109.771 63.3776 109.363 63.0163 109.131C62.6863 108.92 62.1635 108.575 61.6582 108.134C61.1527 107.694 60.6669 107.159 60.4079 106.579C60.2913 106.319 60.2334 106.029 60.2337 105.762C60.2332 105.493 60.2931 105.248 60.3983 105.081C60.5058 104.915 60.6407 104.825 60.8353 104.823C61.0969 104.82 61.5009 105.014 62.0117 105.566C62.865 106.484 63.6301 107.037 64.2518 107.456C64.8744 107.874 65.3474 108.161 65.6253 108.526C65.9221 108.913 66.4052 109.641 66.8114 110.268C67.0148 110.582 67.1996 110.872 67.3333 111.083C67.467 111.293 67.5495 111.425 67.5498 111.426C67.5772 111.469 67.6278 111.492 67.6782 111.483L67.6563 111.358Z"
      fill="#2F2417" />
    <path
      d="M67.1132 110.813C67.1132 110.813 65.5439 112.389 63.7939 113.177C62.0436 113.965 60.8967 114.328 60.7759 114.995C60.6553 115.662 60.8365 116.268 62.2243 116.146C63.6126 116.025 67.8375 114.389 68.5617 113.48C69.2859 112.571 68.8633 109.843 67.1132 110.813Z"
      fill="white" />
    <path
      d="M67.1132 110.813L67.0244 110.724C67.0241 110.724 67.001 110.747 66.9554 110.791C66.6367 111.099 65.2476 112.385 63.7423 113.062C62.8698 113.454 62.146 113.742 61.6156 114.019C61.3503 114.158 61.1323 114.295 60.9672 114.447C60.8023 114.599 60.6883 114.772 60.652 114.972C60.6316 115.085 60.619 115.198 60.619 115.31C60.6178 115.567 60.6908 115.825 60.9 116.008C61.1087 116.191 61.4276 116.288 61.8898 116.288C61.9968 116.288 62.1116 116.283 62.2354 116.272C62.5999 116.24 63.1276 116.113 63.7352 115.927C64.6455 115.648 65.729 115.236 66.6571 114.806C67.121 114.591 67.546 114.371 67.8921 114.161C68.2385 113.95 68.5051 113.752 68.6601 113.559C68.9099 113.242 69.0239 112.767 69.0252 112.282C69.0246 111.854 68.9338 111.417 68.7374 111.074C68.639 110.903 68.5129 110.755 68.3558 110.649C68.199 110.543 68.0107 110.481 67.801 110.481C67.5737 110.481 67.3239 110.552 67.0526 110.702L67.0244 110.724L67.1132 110.813L67.1742 110.924C67.4181 110.788 67.6265 110.734 67.801 110.734C67.9623 110.734 68.0965 110.779 68.2153 110.859C68.3928 110.978 68.5343 111.183 68.6297 111.437C68.7251 111.69 68.7734 111.989 68.7734 112.282C68.7747 112.726 68.6601 113.157 68.4635 113.401C68.3077 113.6 67.9143 113.874 67.4012 114.152C66.6304 114.572 65.5852 115.019 64.6062 115.37C63.6288 115.722 62.7094 115.978 62.2135 116.021C62.0962 116.031 61.9885 116.036 61.8898 116.036C61.4603 116.036 61.2068 115.943 61.0659 115.818C60.9256 115.694 60.872 115.526 60.8708 115.31C60.8708 115.218 60.8813 115.119 60.8997 115.018C60.9241 114.885 60.9984 114.762 61.1374 114.633C61.345 114.441 61.6937 114.25 62.1541 114.037C62.6148 113.824 63.187 113.588 63.8452 113.292C65.6245 112.489 67.1963 110.907 67.2024 110.902L67.1132 110.813L67.1742 110.924L67.1132 110.813Z"
      fill="#2F2417" />
    <path
      d="M69.2426 116.671C69.2426 116.671 69.5273 117.359 68.2599 118.51C66.9926 119.662 64.5181 120.934 63.4918 121.177C62.4657 121.419 61.6209 120.934 62.285 120.268C62.9486 119.601 64.8801 118.207 64.8801 118.207C64.8801 118.207 66.7079 117.823 69.2426 116.671Z"
      fill="white" />
    <path
      d="M69.2426 116.671L69.1266 116.72L69.1724 116.701L69.1256 116.718L69.1266 116.72L69.1724 116.701L69.1256 116.718C69.1263 116.72 69.1442 116.769 69.1442 116.863C69.1434 117.099 69.0329 117.636 68.1753 118.416C67.5545 118.981 66.6246 119.585 65.7254 120.073C64.8277 120.562 63.9534 120.938 63.4631 121.054C63.2889 121.095 63.121 121.114 62.9669 121.114C62.7195 121.114 62.5085 121.064 62.3711 120.986C62.3021 120.948 62.252 120.904 62.2208 120.86C62.1896 120.815 62.1752 120.771 62.175 120.72C62.1742 120.633 62.2235 120.508 62.3738 120.357C62.695 120.034 63.3438 119.518 63.9076 119.088C64.1898 118.872 64.4514 118.678 64.6424 118.537C64.8335 118.396 64.9533 118.31 64.9536 118.31L64.8801 118.207L64.906 118.331C64.9125 118.329 66.7487 117.943 69.2945 116.786L69.2426 116.671L69.1266 116.72L69.2426 116.671L69.1907 116.556C67.9291 117.13 66.8431 117.511 66.0738 117.75C65.6889 117.869 65.3833 117.953 65.1741 118.006C65.0696 118.033 64.9893 118.052 64.9352 118.065C64.8811 118.077 64.8544 118.083 64.8544 118.083L64.8066 118.104C64.8061 118.105 64.3225 118.454 63.7553 118.887C63.1872 119.32 62.5385 119.835 62.1959 120.178C62.0184 120.357 61.9237 120.538 61.9232 120.72C61.9227 120.824 61.9572 120.924 62.0156 121.006C62.1035 121.13 62.2391 121.217 62.4015 121.277C62.5644 121.336 62.7565 121.366 62.9669 121.366C63.1414 121.366 63.3281 121.345 63.5207 121.3C64.0564 121.172 64.9327 120.791 65.8455 120.295C66.757 119.799 67.6977 119.191 68.3442 118.604C69.2358 117.795 69.3964 117.185 69.3959 116.863C69.3959 116.719 69.3642 116.636 69.3589 116.623C69.3458 116.591 69.3206 116.567 69.2889 116.554C69.2572 116.541 69.222 116.542 69.1907 116.556L69.2426 116.671Z"
      fill="#2F2417" />
    <path
      d="M68.5617 113.48C68.5617 113.48 69.5875 113.055 69.8896 115.177C70.1914 117.298 65.9059 118.389 64.216 118.51C62.5264 118.631 61.3795 117.964 61.6209 117.419C61.8623 116.874 62.1038 116.813 64.1559 115.965C66.208 115.116 68.5617 113.48 68.5617 113.48Z"
      fill="white" />
    <path
      d="M68.5618 113.48L68.6098 113.597L68.6068 113.589L68.6096 113.597L68.6098 113.597L68.6068 113.589L68.6096 113.597C68.6174 113.594 68.6816 113.571 68.7722 113.572C68.9026 113.573 69.0839 113.611 69.2742 113.826C69.464 114.042 69.6596 114.451 69.765 115.195C69.7744 115.26 69.7789 115.325 69.7789 115.388C69.7786 115.838 69.5503 116.24 69.1601 116.603C68.5764 117.146 67.6379 117.575 66.6957 117.873C65.7539 118.171 64.8064 118.341 64.2073 118.384C64.0739 118.393 63.944 118.398 63.8184 118.398C63.1714 118.398 62.6297 118.277 62.2594 118.105C62.0741 118.02 61.9324 117.922 61.842 117.826C61.7509 117.73 61.7144 117.641 61.7146 117.568C61.7149 117.535 61.7212 117.504 61.736 117.47C61.7939 117.34 61.8465 117.249 61.9223 117.167C62.0353 117.045 62.2163 116.93 62.568 116.769C62.9189 116.607 63.434 116.4 64.204 116.081C66.275 115.224 68.6295 113.586 68.6335 113.584L68.5618 113.48L68.6098 113.597L68.5618 113.48L68.4903 113.376C68.49 113.376 68.454 113.401 68.386 113.447C67.9113 113.77 65.8863 115.113 64.1081 115.848C63.082 116.272 62.5098 116.498 62.1494 116.694C61.9691 116.793 61.8395 116.886 61.738 116.995C61.6368 117.104 61.5686 117.226 61.5059 117.368C61.4775 117.432 61.4629 117.5 61.4629 117.568C61.4634 117.727 61.5397 117.874 61.6595 118C61.8407 118.19 62.126 118.349 62.493 118.465C62.86 118.58 63.3096 118.651 63.8184 118.651C63.95 118.651 64.0859 118.646 64.2252 118.636C65.0584 118.576 66.4862 118.29 67.7217 117.765C68.3392 117.502 68.9086 117.18 69.3308 116.789C69.7522 116.399 70.0306 115.93 70.0306 115.388C70.0306 115.313 70.0251 115.236 70.0143 115.159C69.904 114.387 69.6993 113.93 69.4635 113.659C69.2281 113.388 68.9585 113.317 68.7722 113.319C68.6227 113.319 68.524 113.359 68.5139 113.363L68.4903 113.376L68.5618 113.48Z"
      fill="#2F2417" />
    <path
      d="M15.7492 94.0236C15.7492 94.0236 12.9593 95.0592 13.869 97.739C14.7788 100.419 15.1428 101.15 15.4461 102.794C15.7492 104.439 14.6574 105.657 13.6264 111.687C12.5953 117.717 16.1739 118.996 17.9934 120.092C19.8132 121.188 22.5425 115.037 22.8458 113.21C23.1492 111.382 20.9654 105.962 20.5409 103.038C20.1163 100.114 19.5099 98.4698 20.905 96.4599C22.2998 94.45 19.9949 93.7799 19.2672 93.3537C18.5394 92.9272 15.7492 94.0236 15.7492 94.0236Z"
      fill="white" />
    <path
      d="M15.7491 94.0236L15.7056 93.905C15.6975 93.9083 15.1706 94.1035 14.6372 94.5491C14.1051 94.9928 13.5603 95.6996 13.5606 96.7074C13.5606 97.035 13.6182 97.3925 13.7499 97.78C14.2052 99.1213 14.5242 99.9754 14.7656 100.695C15.0073 101.416 15.1714 102.001 15.3222 102.817C15.3559 103 15.3715 103.176 15.3715 103.356C15.3728 104.04 15.1382 104.783 14.7827 106.023C14.4285 107.262 13.9591 108.994 13.5022 111.666C13.3753 112.408 13.3174 113.081 13.3174 113.692C13.3156 115.888 14.0713 117.29 15.0304 118.246C15.988 119.203 17.1405 119.725 17.9286 120.201C18.0938 120.3 18.2715 120.349 18.4507 120.349C18.706 120.348 18.96 120.254 19.2087 120.096C19.6437 119.82 20.0719 119.347 20.4832 118.77C21.099 117.904 21.6721 116.802 22.1162 115.776C22.5603 114.748 22.8744 113.802 22.9698 113.23C22.9907 113.103 23.0003 112.964 23.0003 112.812C22.9985 111.719 22.5109 109.961 21.9775 108.121C21.4433 106.283 20.8611 104.37 20.6655 103.02C20.4382 101.459 20.1625 100.267 20.1633 99.2098C20.1645 98.2798 20.3694 97.4544 21.0081 96.5322C21.3308 96.0671 21.4703 95.6586 21.4705 95.2966C21.471 94.9842 21.3645 94.7127 21.2014 94.4867C20.9562 94.1467 20.5887 93.9002 20.233 93.7036C19.8778 93.5082 19.5289 93.3613 19.3305 93.2445C19.1782 93.1568 18.9869 93.1297 18.7687 93.1287C18.2088 93.1297 17.4508 93.3254 16.823 93.5185C16.1965 93.7122 15.7051 93.9053 15.7033 93.906L15.7491 94.0236L15.7056 93.905L15.7491 94.0236L15.7949 94.1414C15.7952 94.1414 15.8246 94.1298 15.8798 94.1088C16.0721 94.036 16.5703 93.8532 17.1337 93.6892C17.6963 93.5248 18.3281 93.3808 18.7687 93.3815C18.964 93.3808 19.1188 93.4116 19.2037 93.4629C19.5025 93.6366 20.013 93.835 20.4475 94.1285C20.664 94.2744 20.8593 94.4422 20.9972 94.6346C21.1355 94.8274 21.2183 95.0416 21.2188 95.2966C21.2188 95.5916 21.105 95.9503 20.8014 96.3876C20.1346 97.3462 19.9103 98.2418 19.9115 99.2098C19.9123 100.311 20.1917 101.506 20.4163 103.056C20.6176 104.44 21.2024 106.355 21.7358 108.192C22.2698 110.025 22.7503 111.787 22.7486 112.812C22.7486 112.953 22.7397 113.08 22.7214 113.189C22.5882 114 21.938 115.755 21.1037 117.285C20.6866 118.051 20.2229 118.763 19.7592 119.278C19.5276 119.535 19.296 119.742 19.0743 119.883C18.8522 120.024 18.6425 120.096 18.4507 120.096C18.3155 120.095 18.1872 120.061 18.0583 119.984C17.2489 119.497 16.1262 118.986 15.2082 118.067C14.2913 117.148 13.5709 115.83 13.5691 113.692C13.5691 113.097 13.6255 112.439 13.7504 111.708C14.2055 109.047 14.6715 107.328 15.0249 106.093C15.3771 104.857 15.6223 104.101 15.6233 103.356C15.6233 103.162 15.6061 102.969 15.5696 102.771C15.4171 101.943 15.2479 101.341 15.0042 100.615C14.7606 99.8882 14.4424 99.0368 13.988 97.6983C13.8647 97.3343 13.8125 97.0052 13.8123 96.7074C13.8128 95.7969 14.2994 95.1619 14.7983 94.7433C15.0473 94.535 15.298 94.3838 15.4853 94.2852C15.579 94.2359 15.657 94.1998 15.7109 94.176C15.7378 94.1644 15.7587 94.1555 15.7728 94.15L15.7929 94.1421L15.7949 94.1414L15.7491 94.0236Z"
      fill="#2F2417" />
    <path
      d="M17.5083 102.551C19.5098 102.551 20.844 100.602 20.844 100.602C20.844 100.602 21.8754 100.297 22.5107 99.5052C23.1461 98.713 23.1491 97.2519 23.1491 97.2519C23.1491 97.2519 24.6736 95.0557 25.8177 94.3891C26.9619 93.7227 27.7586 93.293 28.1226 92.1355C28.4899 90.9681 27.9406 90.3693 26.4851 91.5872C25.0293 92.8056 24.3622 93.0493 24.3622 93.0493L19.3278 94.0845"
      fill="white" />
    <path
      d="M17.5083 102.677C18.5512 102.676 19.4106 102.171 20.0073 101.673C20.6044 101.175 20.9434 100.679 20.9477 100.673L20.844 100.602L20.8798 100.723C20.8901 100.718 21.9396 100.414 22.6087 99.5844C22.949 99.1582 23.1091 98.5781 23.1922 98.1031C23.274 97.6281 23.2747 97.2567 23.275 97.2522L23.1491 97.2519L23.2523 97.3242C23.2523 97.324 23.2755 97.2909 23.3191 97.23C23.4713 97.0171 23.8696 96.4736 24.3524 95.9129C24.834 95.3525 25.4054 94.7744 25.8809 94.4986C26.4519 94.1657 26.943 93.8894 27.345 93.5423C27.7465 93.1957 28.0549 92.7736 28.2427 92.1737C28.3192 91.9303 28.3587 91.7076 28.359 91.5119C28.3585 91.3112 28.3175 91.1348 28.2163 91.0003C28.1158 90.8648 27.9514 90.789 27.7659 90.7907C27.418 90.7945 26.979 91.0124 26.4045 91.4902C25.6806 92.0959 25.1549 92.4579 24.8123 92.6672C24.6409 92.7718 24.5153 92.8386 24.4337 92.8787C24.3929 92.8987 24.3632 92.9121 24.3441 92.9202L24.3237 92.9288L24.3192 92.9306L24.3622 93.0494L24.3368 92.9255L19.3027 93.9609L19.353 94.2084L24.3874 93.173L24.405 93.1682C24.4231 93.1614 25.1018 92.9096 26.5656 91.6846C27.1162 91.2207 27.5315 91.04 27.7659 91.0435C27.8918 91.0455 27.9608 91.0832 28.0161 91.1535C28.0708 91.2245 28.1075 91.3456 28.1073 91.5119C28.1073 91.673 28.0735 91.8729 28.0025 92.0976C27.8263 92.655 27.5542 93.0264 27.1806 93.3507C26.8071 93.6745 26.3278 93.9463 25.7546 94.2799C25.1547 94.6311 24.4871 95.3525 23.9577 95.9895C23.4298 96.6263 23.0472 97.1776 23.0459 97.1796C23.0311 97.2009 23.0233 97.2257 23.0233 97.2517C23.0233 97.2517 23.0233 97.2719 23.022 97.3121C23.0175 97.4524 22.9973 97.8202 22.911 98.2338C22.8251 98.6473 22.6706 99.1056 22.4126 99.4259C22.1112 99.8021 21.7087 100.068 21.3812 100.238C21.2176 100.323 21.0731 100.384 20.9701 100.424C20.9188 100.443 20.8777 100.458 20.8498 100.467L20.8183 100.478L20.8085 100.481C20.7806 100.489 20.7569 100.506 20.7403 100.53L20.7267 100.55C20.6542 100.651 20.2993 101.124 19.7366 101.568C19.1735 102.013 18.407 102.425 17.5083 102.424V102.677Z"
      fill="#2F2417" />
    <path d="M31.1064 105.74L24.0936 108.951L18.4108 96.4377L25.4235 93.2266L31.1064 105.74Z" fill="white" />
    <path
      d="M31.1064 105.74L31.054 105.625L24.1558 108.784L18.5777 96.5002L25.3613 93.3939L30.9919 105.793L31.1064 105.74L31.054 105.625L31.1064 105.74L31.2209 105.688L25.5381 93.174C25.5094 93.1106 25.4346 93.0825 25.3714 93.1116L18.3586 96.3227C18.2955 96.3518 18.2675 96.4266 18.2965 96.4901L23.9791 109.004C23.9927 109.034 24.0184 109.058 24.0496 109.07C24.0805 109.081 24.1155 109.08 24.1457 109.066L31.1585 105.855C31.1887 105.841 31.2126 105.816 31.2242 105.785C31.2358 105.753 31.2345 105.718 31.2209 105.688L31.1064 105.74Z"
      fill="#2F2417" />
    <path d="M22.4785 95.7067L27.235 106.181L22.4785 95.7067Z" fill="white" />
    <path d="M22.364 95.7592L27.1205 106.233L27.3496 106.128L22.5931 95.6543" fill="#2F2417" />
    <path
      d="M20.9424 99.3266C21.2311 99.4613 21.5737 99.3354 21.7079 99.0455L22.4233 97.4989C22.5572 97.2092 22.4321 96.8649 22.1434 96.7302C21.8549 96.5957 21.5121 96.7216 21.3781 97.0113L20.6627 98.5581C20.5285 98.8478 20.6539 99.1918 20.9424 99.3266Z"
      fill="#2F2417" />
    <path
      d="M20.9424 99.3266L20.8893 99.4411C20.9847 99.4856 21.0859 99.5071 21.1849 99.5071C21.4497 99.5071 21.7029 99.3557 21.822 99.0988L22.5374 97.5523C22.5817 97.4565 22.6029 97.3551 22.6029 97.2558C22.6031 96.9898 22.4523 96.7353 22.1966 96.6157C22.1012 96.5712 22.0002 96.55 21.9013 96.55C21.6365 96.5497 21.383 96.7011 21.2642 96.9582L20.5485 98.5048C20.5042 98.6006 20.483 98.702 20.483 98.8016C20.4828 99.0672 20.6336 99.3218 20.8896 99.4411H20.8893L20.9424 99.3266L20.9956 99.2118C20.8312 99.1355 20.735 98.9722 20.7348 98.8016C20.7348 98.7379 20.7481 98.6734 20.7768 98.6112L21.4925 97.0647C21.5685 96.8996 21.7311 96.8028 21.9013 96.8028C21.9647 96.8028 22.0287 96.8162 22.0906 96.845H22.0903C22.2547 96.9216 22.3511 97.0849 22.3511 97.2558C22.3511 97.3195 22.3378 97.3837 22.3091 97.4459L21.5937 98.9924C21.5174 99.1572 21.3548 99.254 21.1849 99.2543C21.1214 99.254 21.0572 99.2406 20.9956 99.2118L20.9424 99.3266Z"
      fill="#2F2417" />
    <path
      d="M22.0749 101.82C22.3637 101.955 22.706 101.829 22.8402 101.539L23.5556 99.9927C23.6898 99.703 23.5644 99.359 23.2759 99.224C22.9872 99.0895 22.6446 99.2154 22.5107 99.5053L21.795 101.052C21.6611 101.342 21.7864 101.686 22.0749 101.82Z"
      fill="#2F2417" />
    <path
      d="M22.075 101.82L22.0219 101.935C22.1173 101.979 22.2185 102.001 22.3174 102.001C22.582 102.001 22.8355 101.849 22.9546 101.592L23.67 100.046C23.7143 99.9501 23.7354 99.8488 23.7354 99.7494C23.7357 99.4835 23.5849 99.2289 23.3289 99.1094C23.2337 99.0649 23.1328 99.0436 23.0336 99.0436C22.769 99.0434 22.5155 99.1951 22.3965 99.4519L21.6811 100.998C21.6367 101.094 21.6156 101.196 21.6156 101.295C21.6153 101.561 21.7661 101.815 22.0222 101.935H22.0219L22.075 101.82L22.1281 101.705C21.9637 101.629 21.8673 101.466 21.8673 101.295C21.8673 101.232 21.8807 101.167 21.9094 101.105L22.6248 99.5583C22.7011 99.3932 22.8637 99.2967 23.0336 99.2964C23.097 99.2964 23.1612 99.3098 23.2229 99.3386C23.3873 99.4152 23.4835 99.5785 23.4837 99.7494C23.4837 99.8131 23.4704 99.8776 23.4417 99.9395L22.7262 101.486C22.65 101.651 22.4874 101.748 22.3174 101.748C22.254 101.748 22.1898 101.734 22.1281 101.706V101.705L22.075 101.82Z"
      fill="#2F2417" />
    <path
      d="M23.2075 104.314C23.496 104.449 23.8386 104.323 23.9728 104.033L24.6882 102.487C24.8224 102.197 24.697 101.853 24.4086 101.718C24.1198 101.583 23.7772 101.709 23.643 101.999L22.9276 103.546C22.7937 103.835 22.9188 104.18 23.2075 104.314Z"
      fill="#2F2417" />
    <path
      d="M23.2075 104.314L23.1544 104.429C23.2498 104.473 23.3507 104.495 23.4499 104.495C23.7145 104.495 23.968 104.343 24.0868 104.087L24.8022 102.54C24.8468 102.444 24.8679 102.343 24.8679 102.243C24.8679 101.977 24.7171 101.723 24.4616 101.603H24.4613C24.3662 101.559 24.2652 101.537 24.1661 101.537C23.9015 101.537 23.6477 101.689 23.5289 101.946L22.8133 103.492C22.7689 103.588 22.7478 103.689 22.7478 103.789C22.7478 104.055 22.8986 104.309 23.1544 104.429L23.2075 104.314L23.2603 104.2C23.0962 104.123 22.9998 103.96 22.9995 103.789C22.9998 103.725 23.0131 103.661 23.0416 103.599L23.7573 102.052C23.8333 101.887 23.9961 101.79 24.1661 101.79C24.2295 101.79 24.2937 101.804 24.3554 101.832C24.5197 101.909 24.6159 102.072 24.6162 102.243C24.6162 102.307 24.6026 102.371 24.5741 102.433L23.8584 103.98C23.7822 104.145 23.6198 104.241 23.4499 104.242C23.3864 104.242 23.3223 104.228 23.2606 104.2H23.2603L23.2075 104.314Z"
      fill="#2F2417" />
    <path
      d="M24.3398 106.808C24.6286 106.943 24.9712 106.817 25.1051 106.527L25.8208 104.98C25.9547 104.69 25.8296 104.346 25.5408 104.212C25.2523 104.077 24.9095 104.203 24.7756 104.493L24.0599 106.039C23.926 106.329 24.0513 106.673 24.3398 106.808Z"
      fill="#2F2417" />
    <path
      d="M24.3398 106.808L24.2867 106.923C24.3821 106.967 24.4833 106.988 24.5822 106.988C24.847 106.989 25.1003 106.837 25.2193 106.58L25.9348 105.034C25.9791 104.938 26.0002 104.836 26.0002 104.737C26.0005 104.471 25.8497 104.216 25.5939 104.097V104.097C25.4985 104.052 25.3976 104.031 25.2986 104.031C25.0338 104.031 24.7803 104.183 24.6612 104.44L23.9458 105.986C23.9015 106.082 23.8804 106.183 23.8804 106.283C23.8801 106.548 24.0309 106.803 24.2869 106.923H24.2867L24.3398 106.808L24.3929 106.693C24.2285 106.617 24.1324 106.453 24.1321 106.283C24.1321 106.219 24.1454 106.155 24.1741 106.093L24.8896 104.546C24.9658 104.381 25.1287 104.284 25.2986 104.284C25.3621 104.284 25.4263 104.298 25.4879 104.326H25.4877C25.6521 104.403 25.7485 104.566 25.7485 104.737C25.7485 104.801 25.7351 104.865 25.7064 104.927L24.991 106.474C24.9147 106.639 24.7521 106.735 24.5822 106.735C24.5188 106.735 24.4546 106.722 24.3929 106.693L24.3398 106.808Z"
      fill="#2F2417" />
    <path
      d="M24.2006 97.8347C24.4891 97.9694 24.8319 97.8433 24.9658 97.5536L25.6813 96.007C25.8154 95.7171 25.6901 95.373 25.4016 95.2386C25.1129 95.1038 24.7703 95.2297 24.6361 95.5194L23.9207 97.0659C23.7867 97.3559 23.9118 97.6999 24.2006 97.8347Z"
      fill="#2F2417" />
    <path
      d="M24.2006 97.8346L24.1475 97.9494C24.2429 97.9939 24.3439 98.0151 24.4428 98.0151C24.7076 98.0151 24.9611 97.8637 25.0802 97.6069L25.7956 96.0601C25.8399 95.9645 25.8611 95.8629 25.8611 95.7636C25.8613 95.4979 25.7105 95.2433 25.4545 95.1238H25.4548C25.3594 95.0793 25.2584 95.058 25.1592 95.058C24.8944 95.0578 24.6412 95.2092 24.5221 95.466L23.8067 97.0128C23.7624 97.1084 23.7412 97.2098 23.7412 97.3094C23.741 97.575 23.8917 97.8298 24.1475 97.9494L24.2006 97.8346L24.2537 97.7201C24.0894 97.6435 23.9929 97.48 23.9929 97.3094C23.9929 97.2457 24.0063 97.1812 24.035 97.1193L24.7504 95.5727C24.8267 95.4076 24.9893 95.3108 25.1592 95.3108C25.2227 95.3108 25.2869 95.3242 25.3485 95.353C25.5129 95.4296 25.6091 95.5929 25.6093 95.7636C25.6093 95.8273 25.596 95.8917 25.5673 95.9537L24.8519 97.5002C24.7756 97.6653 24.613 97.7621 24.4428 97.7624C24.3794 97.7621 24.3154 97.7487 24.2537 97.7201L24.2006 97.8346Z"
      fill="#2F2417" />
    <path
      d="M25.3331 100.329C25.6216 100.463 25.9642 100.337 26.0984 100.047L26.8138 98.5007C26.948 98.211 26.8226 97.8667 26.5342 97.7322C26.2454 97.5975 25.9028 97.7233 25.7686 98.013L25.0532 99.5598C24.919 99.8495 25.0444 100.194 25.3331 100.329Z"
      fill="#2F2417" />
    <path
      d="M25.3332 100.329L25.2801 100.443C25.3755 100.488 25.4762 100.509 25.5754 100.509C25.8399 100.509 26.0937 100.357 26.2125 100.101L26.9279 98.554C26.9722 98.4582 26.9936 98.3568 26.9936 98.2572C26.9936 97.9915 26.8428 97.737 26.5871 97.6177C26.4917 97.5729 26.3907 97.5517 26.2915 97.5517C26.027 97.5514 25.7735 97.7031 25.6547 97.9599L24.9392 99.5065C24.8949 99.6023 24.8735 99.7037 24.8735 99.8033C24.8735 100.069 25.0243 100.323 25.2801 100.443L25.3332 100.329L25.3861 100.214C25.2219 100.137 25.1255 99.9739 25.1253 99.8033C25.1255 99.7393 25.1389 99.6751 25.1676 99.6129L25.8827 98.0664C25.959 97.9013 26.1216 97.8047 26.2915 97.8045C26.355 97.8045 26.4192 97.8179 26.4811 97.8467V97.8469C26.6452 97.9233 26.7416 98.0866 26.7419 98.2572C26.7416 98.3209 26.7283 98.3854 26.6996 98.4473L25.9844 99.9941C25.9082 100.159 25.7453 100.256 25.5754 100.256C25.5119 100.256 25.4477 100.243 25.3861 100.214L25.3332 100.329Z"
      fill="#2F2417" />
    <path
      d="M26.4655 102.822C26.7542 102.957 27.0968 102.831 27.231 102.541L27.9464 100.994C28.0803 100.705 27.9552 100.36 27.6665 100.226C27.378 100.091 27.0351 100.217 26.9012 100.507L26.1858 102.054C26.0516 102.343 26.177 102.688 26.4655 102.822Z"
      fill="#2F2417" />
    <path
      d="M26.4654 102.822L26.4125 102.937C26.5077 102.981 26.6086 103.003 26.7076 103.003C26.9724 103.003 27.2259 102.851 27.3449 102.594L28.0604 101.048C28.1047 100.952 28.1258 100.851 28.1258 100.751C28.1261 100.485 27.9753 100.231 27.7195 100.111C27.6241 100.067 27.5232 100.045 27.424 100.045C27.1594 100.045 26.9059 100.197 26.7869 100.454L26.0714 102C26.0271 102.096 26.006 102.197 26.006 102.297C26.0057 102.563 26.1565 102.817 26.4123 102.937H26.4125L26.4654 102.822L26.5185 102.708C26.3541 102.631 26.258 102.468 26.2577 102.297C26.2577 102.233 26.2711 102.169 26.2998 102.107L27.0152 100.56C27.0915 100.395 27.2541 100.299 27.424 100.298C27.4874 100.298 27.5516 100.312 27.6133 100.341H27.6135C27.7777 100.417 27.8741 100.58 27.8741 100.751C27.8741 100.815 27.8607 100.879 27.832 100.941L27.1166 102.488C27.0404 102.653 26.8777 102.75 26.7076 102.75C26.6441 102.75 26.5802 102.736 26.5185 102.708L26.4654 102.822Z"
      fill="#2F2417" />
    <path
      d="M27.598 105.316C27.8867 105.451 28.2291 105.325 28.3633 105.035L29.0787 103.488C29.2129 103.199 29.0875 102.854 28.799 102.72C28.5103 102.585 28.1677 102.711 28.0337 103.001L27.3181 104.547C27.1841 104.837 27.3095 105.181 27.598 105.316Z"
      fill="#2F2417" />
    <path
      d="M27.598 105.316L27.5451 105.431C27.6403 105.475 27.7412 105.496 27.8401 105.496C28.105 105.497 28.3584 105.345 28.4775 105.088L29.1929 103.542C29.2372 103.446 29.2584 103.344 29.2584 103.245C29.2586 102.979 29.1076 102.725 28.8518 102.605C28.7564 102.561 28.6555 102.539 28.5563 102.539C28.2917 102.539 28.0385 102.691 27.9194 102.947L27.204 104.494C27.1597 104.59 27.1386 104.691 27.1386 104.791C27.1383 105.056 27.2891 105.311 27.5448 105.431L27.5451 105.431L27.598 105.316L27.6511 105.202C27.4867 105.125 27.3903 104.961 27.3903 104.791C27.3903 104.727 27.4036 104.663 27.4323 104.601L28.1477 103.054C28.224 102.889 28.3866 102.792 28.5563 102.792C28.6197 102.792 28.6839 102.806 28.7459 102.834C28.9102 102.911 29.0064 103.074 29.0067 103.245C29.0067 103.309 28.9933 103.373 28.9646 103.435L28.2492 104.982C28.1729 105.147 28.01 105.244 27.8401 105.244C27.7767 105.244 27.7128 105.23 27.6511 105.201V105.202L27.598 105.316Z"
      fill="#2F2417" />
    <path
      d="M19.8131 91.8921C19.8131 91.8921 21.4506 90.1865 22.2997 90.4912C23.1491 90.7958 25.3326 93.0493 25.393 93.5974C25.4537 94.1457 26.2424 95.9119 25.939 96.0335C25.6357 96.1556 23.6342 94.8765 22.7851 94.0236C21.9357 93.1709 19.8131 91.8921 19.8131 91.8921Z"
      fill="white" />
    <path
      d="M19.8132 91.8921L19.9038 91.9798C19.9038 91.9796 19.924 91.9586 19.9627 91.9199C20.0982 91.7852 20.4524 91.4444 20.8637 91.1411C21.0691 90.9894 21.2891 90.8471 21.5001 90.7447C21.711 90.6416 21.9132 90.5804 22.0765 90.5811C22.1435 90.5811 22.2034 90.5907 22.2575 90.61C22.4421 90.6749 22.7353 90.8675 23.054 91.1264C23.5343 91.5144 24.0851 92.0508 24.5178 92.538C24.7341 92.7816 24.9211 93.0132 25.0548 93.2056C25.1215 93.3016 25.1746 93.3878 25.2111 93.4591C25.2479 93.5296 25.266 93.5868 25.268 93.6113C25.2831 93.744 25.3297 93.9151 25.3906 94.1143C25.4817 94.4119 25.6061 94.7668 25.707 95.0908C25.8082 95.4126 25.884 95.7119 25.8825 95.8601C25.8827 95.8967 25.8774 95.922 25.8744 95.9288L25.8734 95.9309L25.9056 95.9498L25.8923 95.9162L25.8734 95.9309L25.9056 95.9498L25.8923 95.9162L25.8996 95.9346L25.8966 95.9149L25.8923 95.9162L25.8996 95.9346L25.8966 95.9149L25.8883 95.9152C25.8628 95.9162 25.7944 95.902 25.7083 95.8697C25.4012 95.7574 24.8589 95.4465 24.3157 95.078C23.7715 94.7096 23.2186 94.2807 22.8743 93.9344C22.4358 93.4948 21.6906 92.9619 21.0505 92.5329C20.4111 92.1047 19.8789 91.7841 19.8779 91.7836L19.8132 91.8921L19.9038 91.9798L19.8132 91.8921L19.7485 92.0003C19.7488 92.0005 19.8799 92.0797 20.0914 92.2124C20.4086 92.4113 20.9047 92.7301 21.3994 93.0779C21.894 93.4252 22.3884 93.8037 22.6961 94.1131C23.1132 94.5314 23.7848 95.0375 24.4114 95.4442C24.7248 95.6475 25.0261 95.8252 25.2796 95.9539C25.4065 96.0181 25.5212 96.0701 25.6214 96.107C25.7226 96.1437 25.8062 96.1672 25.8883 96.168C25.9192 96.168 25.9515 96.1644 25.9859 96.1508L25.9857 96.151C26.0491 96.1263 26.0912 96.0701 26.1095 96.0193C26.1289 95.9673 26.134 95.9154 26.1342 95.8601C26.1335 95.7157 26.0955 95.5383 26.0408 95.3343C25.9585 95.0297 25.8359 94.6725 25.7297 94.3487C25.6234 94.0266 25.5338 93.7314 25.5182 93.5832C25.5054 93.4798 25.4571 93.3777 25.3863 93.2549C25.1376 92.8325 24.577 92.1929 23.9784 91.613C23.6793 91.3236 23.3717 91.0511 23.0895 90.8324C22.8061 90.6138 22.5528 90.4484 22.3421 90.3721C22.257 90.3415 22.1674 90.3284 22.0765 90.3284C21.8218 90.3291 21.5552 90.4279 21.2914 90.5675C20.504 90.9876 19.7276 91.8003 19.7226 91.8041C19.6959 91.8319 19.6833 91.8706 19.6883 91.9085C19.6934 91.9467 19.7155 91.9806 19.7485 92.0003L19.8132 91.8921Z"
      fill="#2F2417" />
    <path
      d="M16.5378 94.2673C16.5378 94.2673 17.872 91.3439 18.782 91.3439C19.6918 91.3439 22.9671 92.8057 23.3915 93.4147C23.8162 94.0236 25.7571 95.912 25.2717 96.1556C24.7866 96.3993 23.7555 95.912 23.0278 95.3637C22.2998 94.8156 21.8753 94.5719 21.8753 94.5719L19.8131 93.963"
      fill="white" />
    <path
      d="M16.6522 94.3198C16.6522 94.3198 16.6726 94.2756 16.7103 94.1965C16.8427 93.9194 17.1886 93.2235 17.5964 92.6024C17.8001 92.292 18.0196 92.0005 18.2305 91.7922C18.336 91.6881 18.439 91.6052 18.5334 91.5503C18.6283 91.4952 18.7123 91.4699 18.7821 91.4702C18.9789 91.4687 19.3523 91.5564 19.7867 91.7017C20.4415 91.9189 21.2498 92.2614 21.93 92.6047C22.2698 92.7763 22.5782 92.9482 22.8184 93.1037C23.058 93.2571 23.2312 93.4017 23.2886 93.4872C23.3898 93.6323 23.5602 93.8312 23.7624 94.0625C24.0649 94.4083 24.437 94.8224 24.7308 95.194C24.8778 95.3798 25.0049 95.555 25.093 95.7023C25.1821 95.8482 25.2262 95.9726 25.2232 96.0196L25.2206 96.0393L25.2211 96.0398L25.2206 96.0393L25.2211 96.0398L25.2206 96.0393L25.2156 96.0426C25.1502 96.0754 25.0636 96.0936 24.9581 96.0936C24.7212 96.0944 24.3987 95.9994 24.0677 95.8452C23.7362 95.6917 23.3941 95.4817 23.1033 95.2625C22.3708 94.7112 21.9418 94.4644 21.9378 94.4622L21.9109 94.4505L19.8487 93.8416L19.7777 94.0843L21.8399 94.6932L21.8754 94.5719L21.8129 94.6816L21.8308 94.6922C21.9184 94.7443 22.3192 94.9882 22.9523 95.4647C23.2569 95.6942 23.6116 95.9121 23.9625 96.0747C24.3137 96.2367 24.6588 96.3454 24.9581 96.3464C25.0913 96.3462 25.2171 96.3242 25.3281 96.2686C25.3742 96.2458 25.4155 96.2084 25.4404 96.1627C25.4658 96.1169 25.4751 96.0669 25.4749 96.0196C25.4741 95.9235 25.4417 95.8313 25.3941 95.7296C25.2259 95.3803 24.8342 94.9088 24.4398 94.4526C24.0466 93.9998 23.6491 93.5645 23.4948 93.3421C23.4265 93.2455 23.3213 93.1522 23.1839 93.0493C22.7046 92.6932 21.82 92.2419 20.9465 91.8729C20.51 91.6886 20.0775 91.5261 19.7014 91.4085C19.3241 91.2917 19.0081 91.2182 18.7821 91.2174C18.6341 91.2177 18.4923 91.2753 18.3561 91.363C18.118 91.518 17.8869 91.7718 17.6644 92.0663C16.9998 92.9492 16.4256 94.2106 16.4233 94.2147L16.6522 94.3198Z"
      fill="#2F2417" />
    <path
      d="M14.4148 95.3636C14.4148 95.3636 15.7492 92.4402 16.659 92.4402C17.569 92.4402 20.8441 93.902 21.2687 94.511C21.6934 95.12 23.6343 97.0083 23.1492 97.252C22.6638 97.4956 21.6327 97.0083 20.905 96.46C20.177 95.9119 19.7525 95.6683 19.7525 95.6683L17.6903 95.0593"
      fill="white" />
    <path
      d="M14.5292 95.4162C14.5292 95.4162 14.5494 95.3719 14.5874 95.2928C14.7198 95.0158 15.0657 94.3196 15.4735 93.6987C15.6771 93.3883 15.8967 93.0969 16.1076 92.8886C16.2131 92.7844 16.316 92.7015 16.4104 92.6466C16.5051 92.5915 16.5894 92.5663 16.6589 92.5663C16.856 92.565 17.2293 92.6527 17.6638 92.7981C18.3186 93.0152 19.1269 93.3575 19.8068 93.701C20.1469 93.8727 20.4553 94.0446 20.6954 94.2C20.9351 94.3535 21.1083 94.498 21.1654 94.5835C21.2669 94.7286 21.4373 94.9275 21.6394 95.1588C21.942 95.5046 22.3141 95.9187 22.6081 96.2906C22.7549 96.4761 22.8822 96.6513 22.9701 96.7987C23.0592 96.9445 23.1033 97.0689 23.1005 97.1159L23.0977 97.1356L23.0982 97.1361L23.0977 97.1356L23.0982 97.1361L23.0977 97.1356L23.0927 97.1387C23.0272 97.1718 22.9406 97.19 22.8352 97.1897C22.5983 97.1907 22.2758 97.0957 21.9448 96.9415C21.6133 96.788 21.2711 96.578 20.9804 96.3588C20.2479 95.8075 19.8189 95.5608 19.8149 95.5585L19.7879 95.5469L17.7257 94.9379L17.6548 95.1803L19.7167 95.7895L19.7524 95.6682L19.6898 95.7779L19.7079 95.7885C19.7955 95.8406 20.1962 96.0845 20.8294 96.561C21.134 96.7906 21.4886 97.0085 21.8396 97.171C22.1907 97.333 22.5359 97.4417 22.8352 97.4425C22.9683 97.4425 23.0942 97.4205 23.2052 97.3649C23.2513 97.3422 23.2926 97.3047 23.3175 97.259C23.3429 97.2132 23.3522 97.1632 23.3522 97.1159C23.3512 97.0198 23.3187 96.9276 23.2712 96.8262C23.103 96.4766 22.7113 96.0052 22.3168 95.5489C21.9236 95.0961 21.5262 94.6608 21.3718 94.4384C21.3036 94.3418 21.1984 94.2485 21.0609 94.1454C20.5816 93.7895 19.6971 93.3383 18.8233 92.9692C18.387 92.7849 17.9546 92.6224 17.5785 92.5048C17.2011 92.3878 16.8852 92.3145 16.6589 92.3137C16.5109 92.314 16.3694 92.3716 16.2332 92.4593C15.9951 92.6143 15.764 92.8678 15.5415 93.1626C14.8769 94.0456 14.3027 95.307 14.3004 95.311L14.5292 95.4162Z"
      fill="#2F2417" />
    <path
      d="M13.869 96.7036C13.869 96.7036 13.2019 95.2417 13.869 94.9371C14.5361 94.6328 18.8425 93.5974 19.2672 93.3537C19.6918 93.11 20.4803 93.4755 19.5098 94.5719C18.5394 95.6682 15.6888 96.3381 15.3852 96.3993"
      fill="white" />
    <path
      d="M13.9835 96.6508L13.9716 96.6243C13.9168 96.5007 13.6963 95.9496 13.6983 95.5305C13.698 95.4117 13.7159 95.3057 13.7519 95.2259C13.7889 95.146 13.8385 95.0909 13.921 95.0524C14.0701 94.9837 14.4673 94.8598 14.9685 94.7173C15.723 94.5024 16.7264 94.2375 17.5815 94.0034C18.0092 93.8863 18.3996 93.7771 18.7045 93.6851C18.857 93.6394 18.9882 93.5977 19.0929 93.5613C19.1981 93.5241 19.2739 93.4948 19.3295 93.4634C19.392 93.4273 19.469 93.4078 19.543 93.4078C19.6288 93.4078 19.7081 93.4341 19.7605 93.4781C19.8124 93.5231 19.8461 93.581 19.8473 93.6849C19.8496 93.8434 19.7454 94.1171 19.4156 94.488C18.963 95.0034 18.0185 95.4476 17.1551 95.7547C16.2919 96.0641 15.5047 96.2464 15.3605 96.2752L15.41 96.5232C15.5691 96.4911 16.3591 96.308 17.2396 95.9928C18.1197 95.6758 19.0859 95.2367 19.6037 94.6558C19.9528 94.26 20.0971 93.9457 20.0991 93.6849C20.1006 93.5158 20.0296 93.3722 19.9214 93.2837C19.8134 93.1942 19.6774 93.1553 19.543 93.155C19.4264 93.1553 19.3086 93.1844 19.2047 93.244C19.1717 93.2637 19.0574 93.3085 18.9016 93.359C18.35 93.5395 17.2268 93.8381 16.1718 94.1235C15.6439 94.2663 15.1326 94.4061 14.7155 94.5272C14.2971 94.6487 13.9789 94.7488 13.8168 94.8222C13.6769 94.8851 13.5782 94.9961 13.5226 95.1217C13.4662 95.2479 13.4468 95.3879 13.4465 95.5305C13.447 95.8159 13.5251 96.1177 13.6011 96.3525C13.6774 96.5871 13.7531 96.7532 13.7544 96.7562L13.9835 96.6508Z"
      fill="#2F2417" />
    <path d="M88.3905 123.154H82.2356V135.349H88.3905V123.154Z" fill="white" />
    <path
      d="M88.3905 123.153V123.027H82.2356C82.2026 123.027 82.1702 123.041 82.1467 123.064C82.1233 123.088 82.1097 123.12 82.1097 123.153V135.349C82.1097 135.382 82.1233 135.415 82.1467 135.438C82.1702 135.462 82.2026 135.475 82.2356 135.475H88.3905C88.4235 135.475 88.4559 135.462 88.4793 135.438C88.5027 135.415 88.5163 135.382 88.5163 135.349V123.153C88.5163 123.12 88.5027 123.088 88.4793 123.064C88.4559 123.041 88.4235 123.027 88.3905 123.027V123.153H88.2646V135.222H82.3615V123.28H88.3905V123.153H88.2646H88.3905Z"
      fill="#2F2417" />
    <path d="M87.2512 126.903H83.375V131.599H87.2512V126.903Z" fill="white" />
    <path
      d="M87.2511 126.903V126.777H83.3749C83.3417 126.777 83.3092 126.79 83.2858 126.814C83.2624 126.837 83.249 126.87 83.249 126.903V131.599C83.249 131.632 83.2624 131.665 83.2858 131.689C83.3092 131.712 83.3417 131.726 83.3749 131.726H87.2511C87.2843 131.726 87.3168 131.712 87.3402 131.689C87.3636 131.665 87.3769 131.632 87.3769 131.599V126.903C87.3769 126.87 87.3636 126.837 87.3402 126.814C87.3168 126.79 87.2843 126.777 87.2511 126.777V126.903H87.1252V131.473H83.5008V127.029H87.2511V126.903H87.1252H87.2511Z"
      fill="#2F2417" />
    <path d="M87.0218 119.975H83.6042V123.108H87.0218V119.975Z" fill="white" />
    <path
      d="M87.0218 119.975V119.849H83.6043C83.571 119.849 83.5388 119.862 83.5151 119.886C83.4917 119.909 83.4784 119.942 83.4784 119.975V123.108C83.4784 123.142 83.4917 123.174 83.5151 123.198C83.5388 123.221 83.571 123.235 83.6043 123.235H87.0218C87.055 123.235 87.0875 123.221 87.1109 123.198C87.1343 123.174 87.1477 123.142 87.1477 123.108V119.975C87.1477 119.942 87.1343 119.909 87.1109 119.886C87.0875 119.862 87.055 119.849 87.0218 119.849V119.975H86.8959V122.982H83.7301V120.102H87.0218V119.975H86.8959H87.0218Z"
      fill="#2F2417" />
    <path d="M87.0218 121.486H83.6042V123.108H87.0218V121.486Z" fill="white" />
    <path
      d="M87.0218 121.486V121.359H83.6043C83.571 121.359 83.5388 121.373 83.5151 121.396C83.4917 121.42 83.4784 121.452 83.4784 121.486V123.108C83.4784 123.142 83.4917 123.174 83.5151 123.198C83.5388 123.221 83.571 123.235 83.6043 123.235H87.0218C87.055 123.235 87.0875 123.221 87.1109 123.198C87.1343 123.174 87.1477 123.142 87.1477 123.108V121.486C87.1477 121.452 87.1343 121.42 87.1109 121.396C87.0875 121.373 87.055 121.359 87.0218 121.359V121.486H86.8959V122.982H83.7301V121.612H87.0218V121.486H86.8959H87.0218Z"
      fill="#2F2417" />
    <path d="M78.0593 127.006H68.8834V135.349H78.0593V127.006Z" fill="white" />
    <path
      d="M78.0593 127.006V126.88H68.8834C68.8505 126.88 68.818 126.893 68.7946 126.917C68.7712 126.94 68.7576 126.973 68.7576 127.006V135.349C68.7576 135.382 68.7712 135.415 68.7946 135.438C68.818 135.462 68.8505 135.475 68.8834 135.475H78.0593C78.0923 135.475 78.1248 135.462 78.1482 135.438C78.1716 135.415 78.1852 135.382 78.1852 135.349V127.006C78.1852 126.973 78.1716 126.94 78.1482 126.917C78.1248 126.893 78.0923 126.88 78.0593 126.88V127.006H77.9335V135.222H69.0093V127.133H78.0593V127.006H77.9335H78.0593Z"
      fill="#2F2417" />
    <path d="M78.0593 130.455H68.8834V135.349H78.0593V130.455Z" fill="white" />
    <path
      d="M78.0593 130.454V130.328H68.8834C68.8505 130.328 68.818 130.342 68.7946 130.365C68.7712 130.389 68.7576 130.421 68.7576 130.454V135.349C68.7576 135.382 68.7712 135.415 68.7946 135.438C68.818 135.462 68.8505 135.475 68.8834 135.475H78.0593C78.0923 135.475 78.1248 135.462 78.1482 135.438C78.1716 135.415 78.1852 135.382 78.1852 135.349V130.454C78.1852 130.421 78.1716 130.389 78.1482 130.365C78.1248 130.342 78.0923 130.328 78.0593 130.328V130.454H77.9335V135.222H69.0093V130.581H78.0593V130.454H77.9335H78.0593Z"
      fill="#2F2417" />
    <path d="M76.301 131.331H68.8834V134.473H76.301V131.331Z" fill="white" />
    <path
      d="M76.301 131.331V131.204H68.8834C68.8505 131.204 68.818 131.218 68.7946 131.241C68.7712 131.265 68.7576 131.297 68.7576 131.331V134.473C68.7576 134.506 68.7712 134.538 68.7946 134.562C68.818 134.586 68.8505 134.599 68.8834 134.599H76.301C76.3342 134.599 76.3667 134.586 76.3901 134.562C76.4135 134.538 76.4269 134.506 76.4269 134.473V131.331C76.4269 131.297 76.4135 131.265 76.3901 131.241C76.3667 131.218 76.3342 131.204 76.301 131.204V131.331H76.1751V134.346H69.0093V131.457H76.301V131.331H76.1751H76.301Z"
      fill="#2F2417" />
    <path d="M60.5698 135.349H24.5576V103.589H60.5698V135.349Z" fill="#2F2417" />
    <path
      d="M60.5696 135.349V135.222H24.6834V103.716H60.4438V135.349H60.5696V135.222V135.349H60.6955V103.589C60.6955 103.556 60.6822 103.524 60.6588 103.5C60.6353 103.476 60.6029 103.463 60.5696 103.463H24.5575C24.5245 103.463 24.4921 103.476 24.4686 103.5C24.4452 103.524 24.4316 103.556 24.4316 103.589V135.349C24.4316 135.382 24.4452 135.415 24.4686 135.438C24.4921 135.462 24.5245 135.475 24.5575 135.475H60.5696C60.6029 135.475 60.6353 135.462 60.6588 135.438C60.6822 135.415 60.6955 135.382 60.6955 135.349H60.5696Z"
      fill="#2F2417" />
    <path d="M60.5698 135.349H24.5576V113.244H60.5698V135.349Z" fill="#EF7A14" />
    <path
      d="M60.5696 135.349V135.222H24.6834V113.37H60.4438V135.349H60.5696V135.222V135.349H60.6955V113.244C60.6955 113.211 60.6822 113.178 60.6588 113.155C60.6353 113.131 60.6029 113.118 60.5696 113.118H24.5575C24.5245 113.118 24.4921 113.131 24.4686 113.155C24.4452 113.178 24.4316 113.211 24.4316 113.244V135.349C24.4316 135.382 24.4452 135.415 24.4686 135.438C24.4921 135.462 24.5245 135.475 24.5575 135.475H60.5696C60.6029 135.475 60.6353 135.462 60.6588 135.438C60.6822 135.415 60.6955 135.382 60.6955 135.349H60.5696Z"
      fill="#2F2417" />
    <path
      d="M48.4319 121.941H44.9451V118.491H40.1823V121.941H36.6953V126.652H40.1823V130.102H44.9451V126.652H48.4319V121.941Z"
      fill="white" />
    <path
      d="M48.4319 121.941V121.814H45.071V118.491C45.071 118.458 45.0574 118.425 45.034 118.402C45.0106 118.378 44.9781 118.365 44.9451 118.365H40.1823C40.1494 118.365 40.1169 118.378 40.0935 118.402C40.0701 118.425 40.0565 118.458 40.0565 118.491V121.814H36.6953C36.6623 121.814 36.6299 121.828 36.6065 121.851C36.5831 121.875 36.5695 121.908 36.5695 121.941V126.652C36.5695 126.686 36.5831 126.718 36.6065 126.742C36.6299 126.765 36.6623 126.779 36.6953 126.779H40.0565V130.102C40.0565 130.135 40.0701 130.168 40.0935 130.191C40.1169 130.215 40.1494 130.228 40.1823 130.228H44.9451C44.9781 130.228 45.0106 130.215 45.034 130.191C45.0574 130.168 45.071 130.135 45.071 130.102V126.779H48.4319C48.4651 126.779 48.4976 126.765 48.521 126.742C48.5444 126.718 48.5577 126.686 48.5577 126.652V121.941C48.5577 121.908 48.5444 121.875 48.521 121.851C48.4976 121.828 48.4651 121.814 48.4319 121.814V121.941H48.306V126.526H44.9451C44.9119 126.526 44.8794 126.54 44.856 126.563C44.8326 126.587 44.8192 126.619 44.8192 126.652V129.975H40.3082V126.652C40.3082 126.619 40.2949 126.587 40.2714 126.563C40.248 126.54 40.2156 126.526 40.1823 126.526H36.8212V122.067H40.1823C40.2156 122.067 40.248 122.054 40.2714 122.03C40.2949 122.007 40.3082 121.974 40.3082 121.941V118.617H44.8192V121.941C44.8192 121.974 44.8326 122.007 44.856 122.03C44.8794 122.054 44.9119 122.067 44.9451 122.067H48.4319V121.941H48.306H48.4319Z"
      fill="#2F2417" />
    <path d="M24.6281 105.095H60.5181V101.898H24.6281V105.095Z" fill="#EF7A14" />
    <path
      d="M24.6281 105.095V105.221H60.5181C60.5513 105.221 60.5836 105.208 60.6072 105.184C60.6306 105.161 60.644 105.128 60.644 105.095V101.898C60.644 101.864 60.6306 101.832 60.6072 101.808C60.5836 101.785 60.5513 101.771 60.5181 101.771H24.6281C24.5948 101.771 24.5624 101.785 24.5389 101.808C24.5155 101.832 24.5022 101.864 24.5022 101.898V105.095C24.5022 105.128 24.5155 105.161 24.5389 105.184C24.5624 105.208 24.5948 105.221 24.6281 105.221V105.095H24.7539V102.024H60.3922V104.969H24.6281V105.095H24.7539H24.6281Z"
      fill="#2F2417" />
    <path d="M-8.72144 135.475H96.527V135.222H-8.72144V135.475Z" fill="#2F2417" />
  </g>
  <defs>
    <clipPath id="clip0_84_11085">
      <rect width="84" height="146" rx="24" fill="white" />
    </clipPath>
  </defs>
</svg>
