<svg width="48" height="48" viewBox="0 0 48 48" fill="none" xmlns="http://www.w3.org/2000/svg">
<rect width="48" height="48" rx="8" fill="#FCF7F3"/>
<path d="M18.76 17.34L16.96 15.55L15.55 16.96L17.34 18.75L18.76 17.34ZM13 23H16V25H13V23ZM23 13.05H25V16H23V13.05ZM31.04 15.545L32.448 16.952L30.658 18.742L29.251 17.334L31.04 15.545ZM29.24 30.66L31.03 32.46L32.44 31.05L30.64 29.26L29.24 30.66ZM32 23H35V25H32V23ZM24 18C20.69 18 18 20.69 18 24C18 27.31 20.69 30 24 30C27.31 30 30 27.31 30 24C30 20.69 27.31 18 24 18ZM24 28C21.79 28 20 26.21 20 24C20 21.79 21.79 20 24 20C26.21 20 28 21.79 28 24C28 26.21 26.21 28 24 28ZM23 32H25V34.95H23V32ZM15.55 31.04L16.96 32.45L18.75 30.65L17.34 29.24L15.55 31.04Z" fill="#E06900"/>
</svg>
