<svg width="48" height="48" viewBox="0 0 48 48" fill="none" xmlns="http://www.w3.org/2000/svg">
  <circle cx="24" cy="24" r="24" fill="#FCF7F3" />
  <path
    d="M28.2675 17.2989L28.2675 17.2987C28.3637 15.9973 27.9576 14.8217 27.1585 13.959C26.3691 13.1067 25.2596 12.625 24.0003 12.625C22.7287 12.625 21.6157 13.1061 20.8335 13.9494L28.2675 17.2989ZM28.2675 17.2989C28.0672 20.0123 26.0311 22 24.0003 22C21.9688 22 19.9298 20.0112 19.7327 17.2993L28.2675 17.2989ZM32.9505 33.375V33.3751C33.0359 33.3762 33.1204 33.3582 33.198 33.3225C33.2755 33.2868 33.3441 33.2343 33.3988 33.1688L33.3997 33.1677C33.5237 33.0194 33.5975 32.7871 33.5473 32.509L33.5472 32.5085C33.1692 30.412 31.996 28.6455 30.1084 27.387L32.9505 33.375ZM32.9505 33.375H32.9378M32.9505 33.375H32.9378M32.9378 33.375H15.0628V33.3749M32.9378 33.375L15.0628 33.3749M15.0628 33.3749L15.0498 33.3751M15.0628 33.3749L15.0498 33.3751M15.0498 33.3751C14.9644 33.3762 14.8799 33.3583 14.8024 33.3226C14.7248 33.287 14.6562 33.2345 14.6015 33.169L14.6009 33.1682M15.0498 33.3751L14.6009 33.1682M14.6009 33.1682C14.4769 33.0199 14.403 32.7876 14.4533 32.5095L14.4534 32.509M14.6009 33.1682L14.4534 32.509M14.4534 32.509C14.8313 30.4125 16.0046 28.6459 17.8923 27.3869L14.4534 32.509ZM19.7327 17.299C19.6372 15.9779 20.0439 14.8007 20.8334 13.9494L19.7327 17.299ZM17.8926 27.3867C19.5824 26.2607 21.7519 25.625 24.0003 25.625C26.2486 25.625 28.4181 26.2611 30.1081 27.3868L17.8926 27.3867Z"
    stroke="#E06900" stroke-width="2" />
</svg>
