<svg width="35" height="35" viewBox="0 0 35 35" fill="none" xmlns="http://www.w3.org/2000/svg">
<circle cx="17.5" cy="17.5" r="17.5" fill="#FCF7F3"/>
<circle cx="17.5" cy="17.5" r="17" stroke="#E06900" stroke-opacity="0.2"/>
<path d="M20.3415 12.5938L20.3415 12.5937C20.4066 11.7144 20.1324 10.9327 19.6043 10.3625L20.3415 12.5938ZM20.3415 12.5938C20.2033 14.4668 18.8057 15.7708 17.5001 15.7708C16.1938 15.7708 14.7946 14.4658 14.6585 12.5945L20.3415 12.5938ZM24.0298 24.0651L24.0298 24.0652C24.0518 24.0655 24.0735 24.0608 24.0935 24.0517C24.1135 24.0425 24.1312 24.0289 24.1452 24.012L24.1461 24.011C24.1808 23.9696 24.2185 23.8832 24.195 23.7526L24.1949 23.7521C23.933 22.2996 23.122 21.074 21.8038 20.1951L24.0298 24.0651ZM24.0298 24.0651H24.0171M24.0298 24.0651H24.0171M24.0171 24.0651H10.9832V24.065M24.0171 24.0651L10.9832 24.065M10.9832 24.065L10.9702 24.0652M10.9832 24.065L10.9702 24.0652M10.9702 24.0652C10.9482 24.0655 10.9265 24.0609 10.9065 24.0517C10.8865 24.0425 10.8688 24.029 10.8548 24.0121L10.8541 24.0113M10.9702 24.0652L10.8541 24.0113M10.8541 24.0113C10.8195 23.9699 10.7817 23.8835 10.8053 23.753L10.8054 23.7525M10.8541 24.0113L10.8054 23.7525M10.8054 23.7525C11.0672 22.2999 11.8782 21.0743 13.1966 20.1949L10.8054 23.7525ZM17.5001 9.47656C18.3468 9.47656 19.0825 9.79912 19.6043 10.3624L15.3896 10.3556C15.9054 9.79951 16.6433 9.47656 17.5001 9.47656ZM9.82126 23.5751L9.82128 23.5751L9.82126 23.5751ZM14.6584 12.5942C14.5938 11.6992 14.8693 10.9166 15.3895 10.3556L14.6584 12.5942ZM13.1969 20.1948C14.3809 19.4059 15.9095 18.9557 17.5001 18.9557C19.0906 18.9557 20.6193 19.4061 21.8035 20.1948L13.1969 20.1948Z" stroke="#E06900" stroke-width="2"/>
</svg>
