<svg width="48" height="48" viewBox="0 0 48 48" fill="none" xmlns="http://www.w3.org/2000/svg">
<rect width="48" height="48" rx="8" fill="#FDF5FF"/>
<path d="M26.7286 34.6087L24.0675 29.2303L21.9633 26.5402C21.6525 26.0142 21.4885 25.4144 21.4885 24.8034V18.75H22.223C22.4706 18.7499 22.7158 18.7987 22.9446 18.8934C23.1734 18.9881 23.3813 19.127 23.5564 19.302C23.7316 19.4771 23.8705 19.685 23.9652 19.9137C24.06 20.1425 24.1088 20.3877 24.1088 20.6353V29.2303M17.9954 25.7367V22.2436C17.9954 22.2436 19.7419 18.75 21.4885 18.75M29.3485 24.8634L26.25 22.8281M19.9936 34.4231L22.5 30.75" stroke="#C76CDE" stroke-width="2" stroke-linecap="round" stroke-linejoin="round"/>
<path d="M24.1087 17.0034C25.0733 17.0034 25.8553 16.2215 25.8553 15.2569C25.8553 14.2923 25.0733 13.5103 24.1087 13.5103C23.1441 13.5103 22.3622 14.2923 22.3622 15.2569C22.3622 16.2215 23.1441 17.0034 24.1087 17.0034Z" stroke="#C76CDE" stroke-width="2" stroke-linecap="round" stroke-linejoin="round"/>
</svg>
