<svg width="64" height="64" viewBox="0 0 64 64" fill="none" xmlns="http://www.w3.org/2000/svg">
  <rect width="64" height="64" rx="8" fill="#FDF5FF" />
  <path fill-rule="evenodd" clip-rule="evenodd"
    d="M35.3334 22C35.3334 23.8409 33.841 25.3333 32.0001 25.3333C30.1591 25.3333 28.6667 23.8409 28.6667 22C28.6667 20.1591 30.1591 18.6667 32.0001 18.6667C33.841 18.6667 35.3334 20.1591 35.3334 22ZM34.0001 22C34.0001 23.1046 33.1047 24 32.0001 24C30.8955 24 30.0001 23.1046 30.0001 22C30.0001 20.8954 30.8955 20 32.0001 20C33.1047 20 34.0001 20.8954 34.0001 22Z"
    fill="#C76CDE" />
  <path
    d="M27.3333 43.3333V38.6667H28.6666V43.3333C28.6666 43.7015 28.9651 44 29.3333 44H29.3911C29.7359 44 30.0238 43.7371 30.055 43.3937L30.4847 38.6667H31.8236L31.3829 43.5144C31.3794 43.5525 31.3749 43.5904 31.3693 43.6278C31.3572 43.7098 31.3401 43.7901 31.3185 43.8683C31.0829 44.7199 30.3033 45.3333 29.3911 45.3333H29.3333C28.2287 45.3333 27.3333 44.4379 27.3333 43.3333Z"
    fill="#C76CDE" />
  <path
    d="M33.9446 43.3937L33.5149 38.6667H32.176L32.6168 43.5144C32.6202 43.5525 32.6248 43.5904 32.6303 43.6278C32.6424 43.7098 32.6595 43.7901 32.6812 43.8683C32.9168 44.7199 33.6963 45.3333 34.6086 45.3333H34.6664C35.771 45.3333 36.6664 44.4379 36.6664 43.3333V38.6667H35.3331V43.3333C35.3331 43.7015 35.0346 44 34.6664 44H34.6086C34.2638 44 33.9758 43.7371 33.9446 43.3937Z"
    fill="#C76CDE" />
  <path fill-rule="evenodd" clip-rule="evenodd"
    d="M23.3334 26C22.9652 26 22.6667 26.2985 22.6667 26.6667V36.6667C22.6667 37.0349 22.9652 37.3333 23.3334 37.3333H40.6667C41.0349 37.3333 41.3334 37.0349 41.3334 36.6667V26.6667C41.3334 26.2985 41.0349 26 40.6667 26H23.3334ZM24.0001 27.3333V36H29.0001C29.0001 35.6283 29.1728 35.3048 29.3518 35.0671C29.5391 34.8184 29.7865 34.5922 30.053 34.4011C30.4169 34.1402 30.8658 33.91 31.3334 33.7785V32.3333H30.8001C30.3983 32.3333 29.8357 32.5761 29.2956 32.9035C29.0426 33.0568 28.8225 33.2111 28.6657 33.3274C28.5875 33.3852 28.5259 33.433 28.4847 33.4656C28.4641 33.4819 28.4487 33.4943 28.4389 33.5023L28.4285 33.5109L28.4267 33.5123C28.4267 33.5123 28.4269 33.5121 28.0001 33C27.5733 32.4879 27.5735 32.4877 27.5735 32.4877L27.5743 32.487L27.5759 32.4857L27.5809 32.4815L27.5978 32.4677C27.612 32.4562 27.6321 32.44 27.6576 32.4198C27.7085 32.3795 27.7813 32.3231 27.872 32.2559C28.0526 32.1222 28.3075 31.9432 28.6045 31.7632C29.1644 31.4239 30.0019 31 30.8001 31H31.3334V29.6667H31.0001C30.6207 29.6667 30.1273 29.7995 29.6862 29.9599C29.4747 30.0368 29.2914 30.1139 29.1615 30.1717C29.0967 30.2005 29.0457 30.2242 29.0118 30.2403C28.9949 30.2483 28.9822 30.2545 28.9743 30.2583L28.9659 30.2625L28.9647 30.263C28.9647 30.263 28.9649 30.2629 28.6667 29.6667C28.3686 29.0704 28.3688 29.0703 28.3688 29.0703L28.371 29.0692L28.3753 29.0671L28.3897 29.06C28.4017 29.0541 28.4187 29.0459 28.4401 29.0357C28.4831 29.0154 28.5441 28.987 28.6199 28.9533C28.7712 28.8861 28.9837 28.7965 29.2306 28.7068C29.7061 28.5339 30.3795 28.3333 31.0001 28.3333H31.3334V27.3333H24.0001ZM32.6667 32.3333H33.4001C33.8993 32.3333 34.4125 32.5775 34.8421 32.8791C35.0491 33.0243 35.2191 33.1704 35.3366 33.2798C35.3951 33.3341 35.4397 33.3786 35.4685 33.4081C35.4828 33.4229 35.4932 33.4338 35.4993 33.4403L35.505 33.4465C35.505 33.4465 35.5045 33.446 36.0001 33C36.4956 32.554 36.4953 32.5537 36.4953 32.5537L36.4943 32.5527L36.4927 32.5508L36.4879 32.5456L36.4732 32.5297C36.4611 32.5167 36.4443 32.499 36.4231 32.4773C36.3808 32.4339 36.3207 32.3742 36.2447 32.3035C36.0936 32.1629 35.8761 31.9757 35.608 31.7876C35.0877 31.4225 34.3008 31 33.4001 31H32.6667V29.6667H33.1667C33.6296 29.6667 34.0796 29.8007 34.4289 29.9477C34.6003 30.0199 34.7395 30.0919 34.834 30.1446C34.8811 30.1709 34.9165 30.1921 34.9387 30.2058C34.9499 30.2126 34.9576 30.2175 34.9619 30.2203L34.9639 30.2215C34.9639 30.2215 34.9636 30.2214 35.3334 29.6667C35.7032 29.1119 35.7029 29.1117 35.7029 29.1117L35.7019 29.1111L35.7001 29.1099L35.6955 29.1069L35.6819 29.0981C35.6709 29.0911 35.6561 29.0817 35.6375 29.0703C35.6005 29.0475 35.5487 29.0166 35.4838 28.9804C35.3544 28.9081 35.1707 28.8134 34.9463 28.7189C34.5039 28.5326 33.8705 28.3333 33.1667 28.3333H32.6667V27.3333H40.0001V36H35.0001C35.0001 35.6253 34.8217 35.2968 34.6428 35.0583C34.4536 34.8061 34.2037 34.5737 33.9339 34.3775C33.5784 34.119 33.1327 33.8838 32.6667 33.7594V32.3333ZM33.662 36C33.6532 35.978 33.6305 35.9309 33.5761 35.8583C33.484 35.7355 33.3381 35.5929 33.1496 35.4558C32.7653 35.1763 32.3292 35.0078 32.0214 35.0003C31.6585 35.0309 31.2035 35.2168 30.83 35.4847C30.6439 35.6181 30.5038 35.7538 30.4169 35.8692C30.3665 35.9362 30.3457 35.9796 30.3376 36H33.662Z"
    fill="#C76CDE" />
</svg>
