<svg width="66" height="31" viewBox="0 0 66 31" fill="none" xmlns="http://www.w3.org/2000/svg">
<path d="M14.2522 6.27452C12.9286 6.27452 11.6216 6.56527 10.4251 7.12584C9.22862 7.6864 8.17253 8.50281 7.33289 9.51629C6.49324 10.5298 5.89093 11.7151 5.56934 12.9869C5.24775 14.2587 5.21487 15.5853 5.47308 16.8712C5.81843 18.5912 6.67101 20.1711 7.92281 21.4111C9.1746 22.6511 10.7695 23.4956 12.5059 23.8377C14.2423 24.1799 16.042 24.0043 17.6777 23.3332C19.3132 22.6621 20.7113 21.5255 21.6947 20.0674C22.6783 18.6093 23.2033 16.895 23.2033 15.1413C23.2007 12.7905 22.2567 10.5367 20.5787 8.87445C18.9006 7.21217 16.6254 6.27715 14.2522 6.27452ZM14.2522 21.7984C12.923 21.7984 11.6237 21.4079 10.5186 20.6764C9.41342 19.945 8.55206 18.9053 8.04341 17.6889C7.53476 16.4724 7.40168 15.1339 7.66098 13.8426C7.92029 12.5513 8.56033 11.3651 9.50019 10.4341C10.44 9.50309 11.6375 8.86908 12.9411 8.61214C13.9157 8.4201 14.9212 8.44455 15.8851 8.68373C16.849 8.92291 17.7474 9.37086 18.5156 9.99532C19.2837 10.6198 19.9025 11.4052 20.3273 12.295C20.7522 13.1849 20.9726 14.157 20.9726 15.1413C20.9707 16.9063 20.2621 18.5985 19.0022 19.8466C17.7423 21.0945 16.034 21.7965 14.2522 21.7984ZM34.1334 6.27452C32.3631 6.27453 30.6325 6.79457 29.1605 7.76888C27.6885 8.74319 26.5411 10.128 25.8637 11.7481C25.1862 13.3683 25.0089 15.1512 25.3543 16.8712C25.6996 18.5912 26.5521 20.1712 27.8039 21.4112C29.0558 22.6513 30.6508 23.4957 32.3871 23.8377C34.1235 24.1799 35.9233 24.0043 37.5589 23.3332C39.1945 22.6621 40.5925 21.5255 41.576 20.0674C42.5596 18.6093 43.0845 16.895 43.0846 15.1413C43.0819 12.7905 42.138 10.5367 40.4599 8.87445C38.7818 7.21217 36.5066 6.27715 34.1334 6.27452ZM34.1334 21.7984C32.8043 21.7984 31.505 21.4079 30.3998 20.6765C29.2946 19.945 28.4333 18.9053 27.9246 17.6889C27.416 16.4724 27.2829 15.134 27.5422 13.8426C27.8015 12.5512 28.4416 11.3651 29.3814 10.4341C30.3213 9.50309 31.5187 8.86908 32.8224 8.61214C34.126 8.35528 35.4772 8.48712 36.7052 8.99099C37.9332 9.49484 38.9827 10.3481 39.7213 11.4429C40.4597 12.5376 40.8538 13.8247 40.8538 15.1413C40.8517 16.9062 40.1429 18.5982 38.8831 19.8463C37.6233 21.0942 35.9151 21.7963 34.1334 21.7984ZM65.3119 17.4484L64.5175 17.0758C63.9939 16.8453 63.4683 16.6168 62.9267 16.4161C62.8565 16.3893 62.7853 16.3654 62.714 16.3386C62.7301 16.1905 62.7431 16.0405 62.7542 15.8935C62.7782 15.5954 62.7802 15.2973 62.7843 14.9913C62.7805 14.6729 62.7574 14.355 62.715 14.0394C62.5461 12.807 62.1283 11.6208 61.4863 10.5519C60.8477 9.47497 59.9855 8.54467 58.9567 7.82253C57.9198 7.10566 56.7345 6.62704 55.4871 6.42157C54.267 6.22077 53.0197 6.24875 51.81 6.50404C50.5777 6.76208 49.4273 7.31313 48.4578 8.10968C48.3054 8.23388 48.1569 8.36503 48.0205 8.50016V6.77231H45.7968V30.9454H48.0175V11.0288C48.1609 10.8391 48.3114 10.6562 48.4699 10.4834C48.7999 10.1243 49.1658 9.79928 49.5622 9.51362C50.3459 8.95615 51.2473 8.58242 52.1982 8.42067C53.1665 8.25587 54.1564 8.26058 55.123 8.43458C56.0671 8.59768 56.9623 8.96807 57.743 9.51859C59.2836 10.6115 60.3328 12.4417 60.5665 14.3087C60.5947 14.5368 60.6091 14.7664 60.6097 14.9962C60.6036 15.2158 60.5986 15.4394 60.5816 15.659C60.2486 15.5715 59.9136 15.4901 59.5725 15.4205C58.411 15.188 57.1953 15.0579 55.9305 15.1801C55.2785 15.2406 54.6376 15.3869 54.0247 15.6153C53.3654 15.8607 52.7612 16.2321 52.2463 16.7082C51.7026 17.2163 51.297 17.8519 51.0667 18.5563C50.8352 19.2726 50.8006 20.037 50.9664 20.771C51.1359 21.5083 51.5049 22.186 52.0337 22.7313C52.558 23.2669 53.2152 23.6565 53.9395 23.8611C55.3437 24.2476 56.758 24.03 57.9566 23.4865C59.1411 22.9439 60.1657 22.11 60.9326 21.0641C61.4982 20.2965 61.9382 19.4454 62.2366 18.5424C62.693 18.7143 63.1464 18.903 63.5977 19.0968L64.3079 19.4197L64.7261 19.6264L66 17.8061L65.3119 17.4484ZM59.1422 19.7456C58.5938 20.479 57.87 21.0658 57.0358 21.4536C56.2334 21.8242 55.3186 21.9196 54.5794 21.7099C54.2372 21.6194 53.9264 21.4381 53.6808 21.1854C53.4351 20.9327 53.2637 20.6183 53.1852 20.2762C53.1107 19.9279 53.1299 19.5664 53.2408 19.2277C53.3517 18.8891 53.5504 18.5853 53.8171 18.3466C54.3688 17.825 55.2304 17.522 56.1662 17.4256C57.102 17.3292 58.1201 17.4256 59.1242 17.6243C59.4652 17.6919 59.8052 17.7763 60.1443 17.8667C59.9108 18.5408 59.5728 19.1747 59.1422 19.7456ZM2.20669 19.9523V0H0V20.6667C0 22.3558 1.16954 23.5789 2.3441 24.1651L3.82459 22.4551C2.88374 21.9365 2.20669 21.3443 2.20669 19.9523Z" fill="#01604B"/>
</svg>
