<svg width="92" height="92" viewBox="0 0 92 92" fill="none" xmlns="http://www.w3.org/2000/svg">
    <path fill-rule="evenodd" clip-rule="evenodd"
        d="M46.1336 80.3073C58.7848 80.3073 68.9172 70.2626 68.9172 58.0223C68.9172 47.8517 62.8839 36.2155 56.3004 26.6917C53.0735 22.0236 49.8394 18.0385 47.4104 15.2198C46.9538 14.6901 46.5264 14.2023 46.1336 13.7598C45.7408 14.2023 45.3134 14.6901 44.8568 15.2198C42.4279 18.0385 39.1937 22.0236 35.9668 26.6917C29.3833 36.2155 23.35 47.8517 23.35 58.0223C23.35 70.2626 33.4824 80.3073 46.1336 80.3073ZM43.5509 10.9502C36.8728 18.4286 19.5527 39.6 19.5527 58.0223C19.5527 72.4272 31.4534 84.1046 46.1336 84.1046C60.8139 84.1046 72.7145 72.4272 72.7145 58.0223C72.7145 39.6 55.3944 18.4286 48.7163 10.9502C47.1215 9.16418 46.1336 8.15918 46.1336 8.15918C46.1336 8.15918 45.1458 9.16418 43.5509 10.9502Z"
        fill="currentColor" fill-opacity="0.88" />
</svg>
