<svg fill="none" height="83" viewBox="0 0 90 83" width="90" xmlns="http://www.w3.org/2000/svg">
    <path
        d="m22.4444.084465c-10.9996 1.213255-19.20946 8.565035-21.525938 19.293235-.507984 2.3918-.543552 7.4743-.087552 10.464 1.00046 6.3497 3.50938 12.523 7.7365 19.03 4.77159 7.3161 12.80629 15.7403 22.56109 23.6726 4.6493 3.7642 13.5432 10.2711 14.0521 10.2711.2982 0 6.9822-4.7835 10.5253-7.5099 5.8943-4.5724 10.1406-8.2834 14.8064-12.9618 11.9654-12.0119 18.053-22.987 19.2286-34.6652 1.3507-13.6128-6.7187-24.78077-19.7539-27.27769-2.2107-.4397657-6.6139-.4223936-8.8592 0-5.6316 1.09074-10.7543 4.0448-14.5966 8.42423-.7013.79177-1.316 1.44186-1.3853 1.44186-.0702 0-.6667-.63364-1.3507-1.40712-3.6489-4.23863-8.8591-7.29874-14.2281-8.371201-1.6489-.316338-5.7191-.5449144-7.1227-.404114zm4.7898 5.170285c4.4214.5632 8.4561 2.62034 11.877 6.06725 1.772 1.7764 3.0525 3.5172 4.912 6.6303.5436.95 1.0698 1.7235 1.14 1.7235.0703 0 .5965-.7735 1.14-1.7235 3.3863-5.6987 6.7014-9.02212 10.9997-11.02714 7.4382-3.42949 16.3503-1.93464 21.9646 3.71104 2.9649 2.9724 4.7715 6.7182 5.368 11.115.2636 1.952.1404 5.7335-.2627 8.0375-.5617 3.2356-1.9298 7.3161-3.4911 10.4119l-.6311 1.2836h-10.9303c-8.3156 0-11.017.0531-11.3334.2286-.7369.3694-1.0871 1.0725-1.6663 3.3947-.3328 1.249-.6311 2.1459-.684 2.0051-.0702-.1408-1.0178-3.9397-2.1404-8.4416-1.1227-4.502-2.1232-8.4069-2.228-8.6885-.5965-1.4948-2.9996-1.5305-3.7019-.0704-.1577.3337-1.1928 4.2734-2.3155 8.7589-1.1054 4.5019-2.0703 8.3017-2.1405 8.4416-.0529.1408-1.772-6.4549-3.824-14.6679-2.0702-8.213-3.8423-15.125-3.9645-15.3536-.3155-.5806-1.0351-.9317-1.8769-.9317-.8071 0-1.4738.4572-1.7893 1.2316-.1231.2989-1.544 5.8212-3.14 12.2761l-2.9312 11.7294-7.7538.053-7.7538.0356-.63205-1.2662c-.98222-1.952-2.08757-4.8366-2.68402-6.9468-.94756-3.3764-1.14-4.9069-1.14-8.6702.01733-3.1131.0529-3.5876.456-5.1181 1.40357-5.206 4.36847-9.216 8.71877-11.76597 3.6142-2.11109 8.1231-3.00799 12.4387-2.46308zm10.1223 36.93345c2 8.0723 3.7547 14.8965 3.8942 15.1607.684 1.3714 2.9476 1.3367 3.6143-.0704.1578-.3346 1.1929-4.2734 2.3156-8.7588 1.1053-4.5029 2.0702-8.3018 2.1404-8.4416.0529-.1408 1.0698 3.6059 2.2454 8.3364 1.1929 4.7314 2.2636 8.7762 2.3684 8.9874.684 1.2663 2.9121 1.249 3.5614-.053.1405-.2633.8774-2.9897 1.6316-6.0672l1.3862-5.5753h8.5436c4.7187 0 8.561.0347 8.561.0878 0 .1938-1.7547 2.6907-3.0871 4.4141-4.3339 5.5927-9.8077 11.0976-16.8602 16.9893-4.0693 3.3938-12.0867 9.4619-12.5081 9.4619-.2106 0-2.456-1.6-6.3156-4.5376-9.5085-7.2283-16.8765-14.1577-22.4206-21.1227-1.544-1.9173-3.7191-4.9774-3.7191-5.1886 0-.053 3.368-.1051 7.5085-.1051 8.1223 0 8.052 0 8.7187-.9847.2107-.3337 1.14-3.7111 2.456-9.0048 1.1583-4.661 2.1405-8.4069 2.2107-8.3365.0529.0704 1.7547 6.7365 3.7547 14.8087z"
        fill="currentColor" />
</svg>
