<svg width="92" height="92" viewBox="0 0 92 92" fill="none" xmlns="http://www.w3.org/2000/svg">
    <path
        d="M27.1964 37.7003L28.4544 39.1223L27.1964 37.7003ZM68.5228 36.0386L67.265 37.4607L68.5228 36.0386ZM35.5168 26.2392L36.5901 27.8053C37.0251 27.5071 37.3165 27.0415 37.3946 26.52C37.4726 25.9984 37.33 25.4677 37.0012 25.0555L35.5168 26.2392ZM30.943 20.5032L29.9196 18.9039C29.4666 19.1938 29.1579 19.6623 29.07 20.1928C28.9819 20.7234 29.1231 21.2664 29.4584 21.687L30.943 20.5032ZM37.3463 16.4061L38.8307 15.2224C38.2244 14.4622 37.142 14.2828 36.323 14.8068L37.3463 16.4061ZM41.9199 22.1421L40.4356 23.3257C40.9832 24.0126 41.9304 24.234 42.7257 23.8613L41.9199 22.1421ZM47.1649 19.6837L47.9707 21.403C48.6375 21.0904 49.0636 20.4202 49.0636 19.6837H47.1649ZM47.1649 13.8567L47.1647 11.9581C46.1163 11.9581 45.2663 12.8081 45.2663 13.8567H47.1649ZM55.3366 13.8566H57.2353C57.2353 13.3531 57.0352 12.8702 56.6792 12.5141C56.323 12.158 55.8402 11.958 55.3366 11.958V13.8566ZM55.3366 19.6837H53.438C53.438 20.3777 53.8166 21.0162 54.4253 21.3494L55.3366 19.6837ZM25.2471 38.5947L23.6099 39.556C23.8742 40.0063 24.3124 40.3278 24.8212 40.4449C25.3301 40.5621 25.8645 40.4645 26.2993 40.1751L25.2471 38.5947ZM17.6526 33.5314L15.7871 33.1781C15.6916 33.6822 15.8041 34.2034 16.099 34.623C16.3939 35.0427 16.8461 35.3253 17.3526 35.4063L17.6526 33.5314ZM19.3528 24.5556L19.8888 22.7343C19.3744 22.583 18.82 22.6561 18.3625 22.9357C17.9051 23.2154 17.5872 23.6754 17.4874 24.2023L19.3528 24.5556ZM32.8416 34.8029L33.5458 36.566C34.3514 36.2444 34.8363 35.4177 34.7243 34.5576L32.8416 34.8029ZM60.5319 33.2935L61.3295 35.0165L60.5319 33.2935ZM44.5291 37.4084L42.8267 36.5675L41.825 38.5955L43.9959 39.2306L44.5291 37.4084ZM56.1048 25.5993L55.3072 23.8763L56.1048 25.5993ZM73.9852 22.9619L75.8825 23.0318L75.9526 21.1301L74.0507 21.0644L73.9852 22.9619ZM73.6532 31.9837L73.5877 33.8812L75.4808 33.9465L75.5505 32.0535L73.6532 31.9837ZM54.1113 39.1728L52.5043 38.1618L54.1113 39.1728ZM51.5673 40.0156L50.8238 41.7626L51.5673 40.0156ZM49.4224 58.0774L51.1648 57.3234L49.4224 58.0774ZM48.9035 50.4967L50.7325 51.0061L48.9035 50.4967ZM25.9384 36.2782C22.132 39.6452 20.7057 44.2447 20.8669 49.0321C21.0266 53.7817 22.7394 58.8057 25.3088 63.3514C27.8835 67.9064 31.3844 72.0991 35.2628 75.173C39.1143 78.2257 43.5135 80.3088 47.8596 80.3088V76.5116C44.6918 76.5116 41.1075 74.96 37.6214 72.1971C34.1619 69.4551 30.9707 65.6512 28.6145 61.4827C26.253 57.3048 24.7958 52.8781 24.6619 48.9043C24.5296 44.968 25.6862 41.571 28.4544 39.1223L25.9384 36.2782ZM47.8596 80.3088C52.1948 80.3088 56.7067 78.2365 60.702 75.1685C64.7277 72.0773 68.4141 67.8373 71.1162 63.1704C76.4259 54.0004 78.364 42.2086 69.7809 34.6165L67.265 37.4607C73.7392 43.1873 72.8595 52.5816 67.83 61.2676C65.3628 65.5289 61.9995 69.3845 58.3893 72.1569C54.7486 74.9524 51.0385 76.5116 47.8596 76.5116V80.3088ZM69.7809 34.6165C68.6911 33.6526 67.8418 33.1515 66.914 32.6826C66.0189 32.2301 65.1902 31.869 63.8518 31.0799L61.923 34.3507C63.4026 35.2233 64.4524 35.693 65.2008 36.0714C65.9166 36.4331 66.4761 36.7629 67.265 37.4607L69.7809 34.6165ZM45.7736 35.7849C42.945 34.859 39.2765 33.9546 35.7433 33.7522C32.299 33.5548 28.5181 33.9962 25.9384 36.2782L28.4544 39.1223C29.8691 37.8709 32.3442 37.3608 35.5259 37.5432C38.6186 37.7206 41.9463 38.5275 44.5919 39.3937L45.7736 35.7849ZM37.0012 25.0555L32.4275 19.3195L29.4584 21.687L34.0323 27.423L37.0012 25.0555ZM31.9664 22.1024L38.3695 18.0054L36.323 14.8068L29.9196 18.9039L31.9664 22.1024ZM35.8618 17.5898L40.4356 23.3257L43.4045 20.9583L38.8307 15.2224L35.8618 17.5898ZM42.7257 23.8613L47.9707 21.403L46.3591 17.9646L41.1142 20.4229L42.7257 23.8613ZM49.0636 19.6837V13.8567H45.2663V19.6837H49.0636ZM47.1649 15.7554L55.3366 15.7553V11.958L47.1647 11.9581L47.1649 15.7554ZM53.438 13.8566V19.6837H57.2353V13.8566H53.438ZM55.3366 19.6837C54.4253 21.3494 54.4249 21.3492 54.4245 21.3488C54.4244 21.3488 54.424 21.3487 54.4238 21.3485C54.4234 21.3483 54.4228 21.3481 54.4225 21.3479C54.4217 21.3473 54.4209 21.3469 54.4206 21.3468C54.4194 21.346 54.4188 21.3458 54.4188 21.3458C54.4187 21.3456 54.4207 21.3468 54.4245 21.349C54.4325 21.3536 54.4485 21.3627 54.4714 21.3764C54.5178 21.4037 54.5929 21.4491 54.6921 21.5127C54.8907 21.6403 55.1829 21.8389 55.5286 22.1075C56.2254 22.6488 57.113 23.4533 57.8994 24.5101L60.9456 22.2429C59.9025 20.8413 58.7472 19.7994 57.8582 19.1089C57.4115 18.7617 57.0251 18.498 56.7433 18.3172C56.6025 18.2267 56.487 18.1566 56.4027 18.1068C56.3606 18.0819 56.3262 18.0621 56.3002 18.0473C56.2871 18.0399 56.2763 18.0338 56.2675 18.0289C56.2632 18.0265 56.2594 18.0243 56.256 18.0225C56.2544 18.0216 56.2529 18.0208 56.2516 18.0201C56.2508 18.0197 56.2503 18.0193 56.2497 18.019C56.2493 18.0188 56.2489 18.0186 56.2487 18.0185C56.2484 18.0183 56.2478 18.0181 55.3366 19.6837ZM33.7203 32.1952C34.1428 30.6897 34.888 29.5697 35.5286 28.8259C35.8483 28.4549 36.1369 28.1834 36.3359 28.0115C36.4352 27.9257 36.5111 27.8657 36.5563 27.8312C36.5789 27.8139 36.5937 27.8031 36.5996 27.7987C36.6026 27.7966 36.6034 27.796 36.6019 27.7972C36.6011 27.7977 36.5998 27.7987 36.5977 27.8C36.5967 27.8006 36.5956 27.8015 36.5945 27.8023C36.5937 27.8027 36.5931 27.8032 36.5924 27.8038C36.592 27.804 36.5914 27.8044 36.5912 27.8044C36.5907 27.805 36.5901 27.8053 35.5168 26.2392C34.4433 24.673 34.4427 24.6735 34.4422 24.6739C34.442 24.6741 34.4414 24.6745 34.4408 24.6747C34.4401 24.6754 34.4391 24.676 34.4382 24.6766C34.4363 24.6779 34.4342 24.6794 34.4319 24.6809C34.4276 24.684 34.4224 24.6876 34.4167 24.6916C34.4053 24.6997 34.3913 24.7096 34.375 24.7214C34.3425 24.7449 34.3005 24.7759 34.25 24.8144C34.1492 24.8915 34.0142 24.9992 33.8542 25.1374C33.5342 25.4136 33.1095 25.8159 32.6516 26.3478C31.737 27.4095 30.67 29.0112 30.0643 31.1693L33.7203 32.1952ZM25.2471 38.5947C26.8843 37.6334 26.8839 37.6329 26.8835 37.6321C26.8835 37.6319 26.883 37.6311 26.8828 37.6308C26.8822 37.6296 26.8814 37.6287 26.8809 37.6275C26.8795 37.6253 26.878 37.6228 26.8763 37.6199C26.8731 37.6144 26.8691 37.6078 26.8645 37.6002C26.8554 37.585 26.8436 37.5658 26.8292 37.5427C26.8005 37.4967 26.7614 37.4352 26.7119 37.3606C26.6128 37.2114 26.4715 37.0082 26.2873 36.7669C25.9202 36.2854 25.3762 35.6437 24.6503 34.9738C23.203 33.6381 20.9755 32.1403 17.9525 31.6567L17.3526 35.4063C19.4303 35.7386 21 36.7724 22.0748 37.7644C22.6103 38.2583 23.0084 38.7293 23.2681 39.0699C23.3976 39.2395 23.4909 39.3745 23.5482 39.4607C23.5767 39.5038 23.5962 39.5345 23.6065 39.551C23.6116 39.5592 23.6145 39.564 23.615 39.5649C23.6154 39.5653 23.615 39.5649 23.6141 39.5634C23.6137 39.5626 23.6131 39.5617 23.6124 39.5605C23.612 39.56 23.6116 39.5592 23.6112 39.5585C23.611 39.5581 23.6107 39.5575 23.6105 39.5573C23.6101 39.5567 23.6099 39.556 25.2471 38.5947ZM19.518 33.8848L21.2184 24.909L17.4874 24.2023L15.7871 33.1781L19.518 33.8848ZM19.3528 24.5556C18.8168 26.377 18.8165 26.377 18.8161 26.3768C18.8161 26.3768 18.8158 26.3768 18.8158 26.3768C18.8156 26.3768 18.8156 26.3768 18.8158 26.3768C18.8163 26.377 18.8175 26.3772 18.8194 26.3779C18.8232 26.3791 18.83 26.381 18.8397 26.384C18.8591 26.3899 18.8899 26.3992 18.9315 26.4121C19.0146 26.4379 19.1405 26.4778 19.3032 26.5315C19.629 26.6388 20.101 26.801 20.6725 27.0159C21.8201 27.4474 23.3452 28.0835 24.8833 28.9058C26.433 29.7342 27.9238 30.7137 29.0527 31.8099C30.1898 32.9142 30.8224 34.0008 30.9589 35.0481L34.7243 34.5576C34.4357 32.341 33.1697 30.5147 31.6981 29.0858C30.2181 27.6485 28.3897 26.4744 26.6735 25.557C24.9456 24.6333 23.2581 23.9316 22.0093 23.4618C21.3826 23.226 20.8607 23.0466 20.492 22.9251C20.3074 22.8641 20.1608 22.8178 20.0585 22.7859C20.0072 22.77 19.967 22.7578 19.9385 22.7491C19.9243 22.7449 19.9129 22.7415 19.9045 22.739C19.9003 22.7377 19.8971 22.7367 19.8945 22.736C19.8931 22.7356 19.892 22.7352 19.891 22.7348C19.8907 22.7348 19.8901 22.7347 19.8897 22.7347C19.8893 22.7345 19.8888 22.7343 19.3528 24.5556ZM32.1374 33.0397C29.684 34.0196 27.7172 35.0012 26.3563 35.7424C25.6754 36.1134 25.1449 36.4246 24.78 36.6465C24.5976 36.7574 24.4563 36.8461 24.3581 36.9085C24.3092 36.9399 24.2708 36.9645 24.2437 36.9824C24.23 36.9913 24.219 36.9983 24.211 37.0037C24.2068 37.0065 24.2036 37.0086 24.2009 37.0105C24.1994 37.0112 24.1983 37.012 24.1973 37.0128C24.197 37.013 24.1964 37.0133 24.196 37.0135C24.1958 37.0137 24.1956 37.0139 24.1954 37.0139C24.1952 37.0141 24.1949 37.0143 25.2471 38.5947C26.2993 40.1751 26.2989 40.1753 26.2987 40.1755C26.2987 40.1755 26.2986 40.1757 26.2984 40.1757C26.2982 40.1759 26.298 40.1761 26.2978 40.1761C26.2976 40.1763 26.2974 40.1765 26.2974 40.1765C26.2976 40.1763 26.2984 40.1757 26.2999 40.1748C26.3027 40.1729 26.3084 40.1691 26.3168 40.1637C26.3337 40.1527 26.3612 40.1349 26.3992 40.1106C26.4755 40.0622 26.5938 39.9877 26.7523 39.8913C27.0698 39.6984 27.548 39.4172 28.1725 39.0772C29.4222 38.3965 31.2527 37.4821 33.5458 36.566L32.1374 33.0397ZM55.7185 40.1839C57.4536 37.4257 59.2894 35.9609 61.3295 35.0165L59.7345 31.5705C56.9987 32.8369 54.6125 34.8107 52.5043 38.1618L55.7185 40.1839ZM43.9959 39.2306C46.3515 39.9198 49.0987 41.0284 50.8238 41.7626L52.3108 38.2687C50.5566 37.522 47.6411 36.3406 45.0622 35.5861L43.9959 39.2306ZM55.3072 23.8763C49.7512 26.448 45.9806 30.1824 42.8267 36.5675L46.2314 38.2492C49.0449 32.5533 52.2183 29.4904 56.9025 27.3223L55.3072 23.8763ZM74.0507 21.0644C66.9257 20.8186 60.6623 21.3976 55.3072 23.8763L56.9025 27.3223C61.4531 25.216 67.0068 24.6209 73.9197 24.8594L74.0507 21.0644ZM75.5505 32.0535L75.8825 23.0318L72.0879 22.8921L71.7558 31.9138L75.5505 32.0535ZM61.3295 35.0165C63.793 33.8764 67.0512 33.6556 73.5877 33.8812L73.7187 30.0862C67.3018 29.8648 63.1404 29.9941 59.7345 31.5705L61.3295 35.0165ZM52.5043 38.1618C52.472 38.2133 52.4238 38.2484 52.3771 38.2642C52.3343 38.2786 52.3157 38.2708 52.3108 38.2687L50.8238 41.7626C52.6744 42.5503 54.723 41.7658 55.7185 40.1839L52.5043 38.1618ZM47.6798 58.8313L48.463 60.6415L51.9482 59.1336L51.1648 57.3234L47.6798 58.8313ZM48.3113 60.0168L48.8429 67.8073L52.6313 67.5489L52.0999 59.7582L48.3113 60.0168ZM50.4245 61.7736L58.5051 60.8355L58.0673 57.0635L49.9867 58.0016L50.4245 61.7736ZM52.0032 38.6915L47.5822 48.2563L51.029 49.8494L55.45 40.2849L52.0032 38.6915ZM47.4767 48.5434L47.0746 49.9871L50.7325 51.0061L51.1346 49.5624L47.4767 48.5434ZM48.5234 47.3229L40.2598 51.06L41.8244 54.5199L50.0881 50.7828L48.5234 47.3229ZM41.4774 50.9419L33.2436 49.0021L32.3729 52.6981L40.6067 54.638L41.4774 50.9419ZM39.2765 52.0915L36.4686 59.1892L39.9997 60.586L42.8076 53.4884L39.2765 52.0915ZM51.1648 57.3234C50.302 55.3291 50.1494 53.0993 50.7325 51.0061L47.0746 49.9871C46.2581 52.9176 46.4717 56.0394 47.6798 58.8313L51.1648 57.3234Z"
        fill="currentColor" fill-opacity="0.88" />
</svg>
