<svg width="92" height="92" viewBox="0 0 92 92" fill="none" xmlns="http://www.w3.org/2000/svg">
    <path
        d="M15.7563 36.7041C15.7563 31.6725 17.4358 26.853 20.2078 23.3256C22.9705 19.8097 26.7433 17.6522 31.0046 17.6522C36.8955 17.6522 41.4647 21.4886 44.4302 27.5286L46.1344 30.9998L47.8386 27.5286C50.8039 21.489 55.3732 17.6522 61.2642 17.6522C65.5259 17.6522 69.2987 19.81 72.0614 23.3261C74.8332 26.8538 76.5126 31.6733 76.5126 36.7041C76.5126 37.4539 76.4761 38.1974 76.4057 38.9342C77.6451 39.8989 78.7677 41.0068 79.7484 42.2331C80.1122 40.4402 80.3098 38.5957 80.3098 36.7041C80.3098 30.8662 78.3711 25.2105 75.0472 20.98C71.7141 16.7381 66.9134 13.855 61.2642 13.855C54.612 13.855 49.5535 17.5829 46.1344 22.8427C42.7151 17.5827 37.6566 13.855 31.0046 13.855C25.3559 13.855 20.5552 16.7375 17.222 20.9794C13.8979 25.2096 11.959 30.8652 11.959 36.7041C11.959 49.6921 20.5699 60.1268 28.7602 67.1487C32.8943 70.6929 37.0191 73.4529 40.1062 75.3261C41.6519 76.2639 42.9428 76.9825 43.8517 77.4689C44.3062 77.7121 44.6656 77.8974 44.9141 78.0233C45.0383 78.0862 45.1348 78.1342 45.2016 78.1672L45.2793 78.2052L45.3009 78.2158L45.3094 78.22L46.1608 78.6297L47.0036 78.198L47.0099 78.1946L47.0313 78.1836L47.1082 78.1435C47.1747 78.1088 47.2707 78.0581 47.3943 77.9916C47.6419 77.8589 48.0004 77.6633 48.454 77.4076C49.3608 76.8963 50.6494 76.1429 52.1926 75.1666C53.2803 74.4788 54.4969 73.6785 55.7973 72.7725C54.5228 72.1816 53.3209 71.4601 52.2093 70.6251C51.4882 71.1081 50.8026 71.5528 50.1627 71.9576C48.6799 72.8955 47.4469 73.616 46.5887 74.1C46.4127 74.1993 46.2527 74.2885 46.1093 74.3675C45.9696 74.2944 45.8139 74.2122 45.6432 74.1209C44.7871 73.6625 43.5562 72.9777 42.0761 72.0796C39.1114 70.2809 35.1669 67.6397 31.2318 64.2658C23.2838 57.4516 15.7563 47.9835 15.7563 36.7041Z"
        fill="white" fill-opacity="0.88" />
    <path
        d="M65.1186 59.4225C67.2159 59.4225 68.9159 57.7225 68.9159 55.6253C68.9159 53.528 67.2159 51.828 65.1186 51.828C64.6681 51.828 64.236 51.9064 63.8352 52.0503L59.4704 47.6855L56.7852 50.3706L61.3787 54.9642C61.3411 55.1789 61.3214 55.3997 61.3214 55.6253C61.3214 57.7225 63.0214 59.4225 65.1186 59.4225Z"
        fill="white" fill-opacity="0.88" />
    <path fill-rule="evenodd" clip-rule="evenodd"
        d="M64.1716 70.8178C73.0845 70.8178 80.31 63.5924 80.31 54.6794C80.31 45.7665 73.0845 38.541 64.1716 38.541C55.2586 38.541 48.0332 45.7665 48.0332 54.6794C48.0332 63.5924 55.2586 70.8178 64.1716 70.8178ZM64.1716 67.0205C70.9875 67.0205 76.5127 61.4953 76.5127 54.6794C76.5127 47.8635 70.9875 42.3383 64.1716 42.3383C57.3557 42.3383 51.8305 47.8635 51.8305 54.6794C51.8305 61.4953 57.3557 67.0205 64.1716 67.0205Z"
        fill="white" fill-opacity="0.88" />
</svg>
