<svg width="92" height="92" viewBox="0 0 92 92" fill="none" xmlns="http://www.w3.org/2000/svg">
    <path fill-rule="evenodd" clip-rule="evenodd"
        d="M46.1325 40.4375C52.9484 40.4375 58.4737 34.9123 58.4737 28.0964C58.4737 21.2805 52.9484 15.7553 46.1325 15.7553C39.3166 15.7553 33.7914 21.2805 33.7914 28.0964C33.7914 34.9123 39.3166 40.4375 46.1325 40.4375ZM46.1325 44.2348C55.0455 44.2348 62.2709 37.0093 62.2709 28.0964C62.2709 19.1834 55.0455 11.958 46.1325 11.958C37.2196 11.958 29.9941 19.1834 29.9941 28.0964C29.9941 37.0093 37.2196 44.2348 46.1325 44.2348Z"
        fill="currentColor" fill-opacity="0.88" />
    <path fill-rule="evenodd" clip-rule="evenodd"
        d="M46.8643 19.3798C47.9093 19.4673 48.6855 20.3854 48.5979 21.4302L47.4548 35.0764C47.3672 36.1213 46.4493 36.8974 45.4042 36.8099C44.3594 36.7224 43.5833 35.8044 43.6708 34.7594L44.814 21.1133C44.9015 20.0683 45.8195 19.2922 46.8643 19.3798Z"
        fill="currentColor" fill-opacity="0.88" />
    <path fill-rule="evenodd" clip-rule="evenodd"
        d="M28.0974 76.5098C34.9133 76.5098 40.4385 70.9846 40.4385 64.1687C40.4385 57.3528 34.9133 51.8275 28.0974 51.8275C21.2815 51.8275 15.7563 57.3528 15.7563 64.1687C15.7563 70.9846 21.2815 76.5098 28.0974 76.5098ZM28.0974 80.3071C37.0103 80.3071 44.2358 73.0816 44.2358 64.1687C44.2358 55.2557 37.0103 48.0303 28.0974 48.0303C19.1844 48.0303 11.959 55.2557 11.959 64.1687C11.959 73.0816 19.1844 80.3071 28.0974 80.3071Z"
        fill="currentColor" fill-opacity="0.88" />
    <path fill-rule="evenodd" clip-rule="evenodd"
        d="M34.2796 70.3548C33.5382 71.0964 32.3362 71.0964 31.5946 70.3548L21.9115 60.6718C21.1701 59.9304 21.1701 58.7281 21.9115 57.9867C22.6531 57.2453 23.8552 57.2453 24.5966 57.9867L34.2796 67.6698C35.0212 68.4112 35.0212 69.6134 34.2796 70.3548Z"
        fill="currentColor" fill-opacity="0.88" />
    <path fill-rule="evenodd" clip-rule="evenodd"
        d="M64.1716 72.7163C70.9875 72.7163 76.5127 67.1911 76.5127 60.3752C76.5127 53.5593 70.9875 48.0341 64.1716 48.0341C57.3557 48.0341 51.8305 53.5593 51.8305 60.3752C51.8305 67.1911 57.3557 72.7163 64.1716 72.7163ZM64.1716 76.5136C73.0845 76.5136 80.31 69.2882 80.31 60.3752C80.31 51.4623 73.0845 44.2368 64.1716 44.2368C55.2586 44.2368 48.0332 51.4623 48.0332 60.3752C48.0332 69.2882 55.2586 76.5136 64.1716 76.5136Z"
        fill="currentColor" fill-opacity="0.88" />
    <path fill-rule="evenodd" clip-rule="evenodd"
        d="M72.2548 57.0434C72.6545 58.0129 72.1924 59.1226 71.2229 59.5223L58.5621 64.7399C57.5925 65.1394 56.4827 64.6775 56.0832 63.7078C55.6836 62.7384 56.1457 61.6286 57.1151 61.2292L69.776 56.0113C70.7456 55.6119 71.8554 56.074 72.2548 57.0434Z"
        fill="currentColor" fill-opacity="0.88" />
</svg>
