<svg width="92" height="93" viewBox="0 0 92 93" fill="none" xmlns="http://www.w3.org/2000/svg">
    <path fill-rule="evenodd" clip-rule="evenodd"
        d="M24.3892 59.2887C3.76199 50.5886 11.9026 21.2228 26.2214 16.3708C32.1614 14.3581 38.7159 21.0356 38.6739 25.1817C38.6557 26.9744 37.7307 28.7222 36.767 30.5434C35.5017 32.9342 34.1696 35.4512 34.7352 38.3612C35.7318 43.4877 36.848 52.1375 33.972 56.2435C31.0957 60.3495 28.2034 60.8974 24.3892 59.2887ZM25.8648 55.7899C27.3509 56.4167 28.0809 56.3755 28.4813 56.2602C28.8924 56.1417 29.6947 55.7311 30.8618 54.065C31.5694 53.0546 32.0513 50.9226 32.0088 47.7355C31.9691 44.7431 31.4867 41.5496 31.0078 39.0857C30.24 35.136 31.8168 31.8366 32.942 29.6602C33.1356 29.2852 33.3126 28.9512 33.4755 28.6433C33.8512 27.9335 34.1533 27.3628 34.4202 26.7509C34.7761 25.9354 34.8736 25.4522 34.8769 25.1433C34.8778 25.0448 34.8112 24.5426 34.3189 23.7159C33.8564 22.9398 33.1542 22.1129 32.2921 21.4104C30.4633 19.9202 28.6936 19.5425 27.4401 19.9673C22.1049 21.7751 17.0892 28.7367 15.9622 36.9057C14.8809 44.7431 17.5592 52.2868 25.8648 55.7899Z"
        fill="currentColor" fill-opacity="0.88" />
    <path fill-rule="evenodd" clip-rule="evenodd"
        d="M65.7788 16.3708C80.0977 21.2228 88.2383 50.5886 67.6111 59.2887C63.7968 60.8974 60.9044 60.3495 58.0283 56.2435C55.1523 52.1375 56.2685 43.4877 57.2649 38.3612C57.8305 35.4512 56.4986 32.9342 55.2332 30.5434C54.2694 28.7222 53.3444 26.9744 53.3264 25.1817C53.2844 21.0356 59.8389 14.3581 65.7788 16.3708ZM63.5188 56.2602C63.9194 56.3755 64.6494 56.4167 66.1353 55.7899C74.4411 52.2868 77.1193 44.7431 76.038 36.9057C74.911 28.7367 69.8954 21.7751 64.5602 19.9673C63.3065 19.5425 61.5368 19.9202 59.7081 21.4104C58.8459 22.1129 58.1438 22.9398 57.6815 23.7159C57.1891 24.5426 57.1223 25.0448 57.1235 25.1433C57.1265 25.4522 57.2243 25.9354 57.5801 26.7509C57.847 27.3628 58.1491 27.9335 58.5246 28.6433C58.6877 28.9512 58.8645 29.2852 59.0583 29.6602C60.1833 31.8366 61.7601 35.136 60.9925 39.0857C60.5135 41.5496 60.0312 44.7431 59.9913 47.7355C59.949 50.9226 60.4309 53.0546 61.1385 54.065C62.3056 55.7311 63.1079 56.1417 63.5188 56.2602Z"
        fill="currentColor" />
    <path
        d="M54.9003 44.1499C55.0305 46.044 55.0328 46.0438 55.0328 46.0438L55.0351 46.0436L55.0392 46.0434L55.0466 46.0429L55.0571 46.0419L55.0626 46.0414C55.0626 46.0414 55.0432 46.0436 55.0161 46.048C54.9616 46.0567 54.8661 46.075 54.7438 46.1097C54.4949 46.1801 54.1668 46.3094 53.8456 46.5382C53.2955 46.9299 52.4867 47.7999 52.4867 49.9951V77.4609C52.4867 77.4609 52.4867 77.4613 50.5881 77.4613C48.6895 77.4613 48.6895 77.4601 48.6895 77.4601V49.9951C48.6895 46.6415 50.0367 44.5889 51.6428 43.4452C52.3996 42.9063 53.1495 42.6145 53.7091 42.4562C53.9912 42.3762 54.2327 42.328 54.4138 42.2988C54.5046 42.2841 54.5813 42.2743 54.6411 42.2676C54.6711 42.2642 54.6971 42.2617 54.7186 42.2598L54.7476 42.2574L54.7598 42.2564L54.7651 42.256L54.7675 42.2559C54.7675 42.2559 54.77 42.2557 54.9003 44.1499Z"
        fill="currentColor" />
    <path
        d="M37.1024 44.1499C36.9721 46.044 36.9696 46.0438 36.9696 46.0438L36.9676 46.0436L36.9632 46.0434L36.956 46.0429L36.9453 46.0419L36.9395 46.0414C36.9395 46.0414 36.9594 46.0436 36.9863 46.048C37.041 46.0567 37.1365 46.075 37.2586 46.1097C37.5075 46.1801 37.8356 46.3094 38.157 46.5382C38.7071 46.9299 39.5159 47.7999 39.5159 49.9951V77.4609C39.5159 77.4609 39.5159 77.4613 41.4145 77.4613C43.3132 77.4613 43.3132 77.4601 43.3132 77.4601V49.9951C43.3132 46.6415 41.9657 44.5889 40.3597 43.4452C39.603 42.9063 38.8531 42.6145 38.2934 42.4562C38.0114 42.3762 37.7699 42.328 37.5888 42.2988C37.4978 42.2841 37.4213 42.2743 37.3613 42.2676C37.3313 42.2642 37.3055 42.2617 37.2839 42.2598L37.2548 42.2574L37.2429 42.2564L37.2375 42.256L37.2349 42.2559C37.2349 42.2559 37.2324 42.2557 37.1024 44.1499Z"
        fill="currentColor" />
</svg>
