<svg width="92" height="92" viewBox="0 0 92 92" fill="none" xmlns="http://www.w3.org/2000/svg">
    <path fill-rule="evenodd" clip-rule="evenodd"
        d="M34.743 58.8696C32.9926 59.5939 31.0126 60.1119 28.4557 60.1119C24.97 60.1119 23.8179 62.8998 22.5934 65.8628C21.2052 69.2226 19.7238 72.8073 14.6424 72.8073C5.07937 72.8073 7.43899 43.3784 13.1349 31.9866C18.8309 20.5948 26.6254 19.6455 42.5638 19.6455C52.3272 19.6455 54.803 21.134 56.7212 22.2876C57.9346 23.0173 58.9248 23.6127 61.3949 23.6127C63.9449 23.6127 67.5151 22.851 71.0853 22.0892C76.4406 20.9466 81.7959 19.8042 83.7084 21.2324C86.896 23.6127 77.3331 41.0687 67.7701 41.0687C62.8479 41.0687 59.8963 44.5974 57.0314 48.0221C54.3304 51.2511 51.7067 54.3877 47.5816 54.3877C43.6094 54.3877 41.0294 55.6375 38.5403 56.9692V75.6552H34.743V58.8696ZM17.0722 68.1706C16.6545 68.5986 16.0539 69.01 14.6424 69.01H14.638C14.5381 69.01 14.4609 69.01 14.263 68.815C13.9803 68.5367 13.5603 67.9255 13.153 66.7692C12.3335 64.443 11.9125 60.9214 11.9635 56.7148C12.0659 48.2796 14.0255 38.6962 16.5313 33.6848C19.0291 28.6891 21.7242 26.3917 25.2853 25.1202C29.2199 23.7154 34.4905 23.4428 42.5638 23.4428C43.1649 23.4428 43.734 23.4487 44.2726 23.4597C42.5959 25.6034 41.6823 27.9587 41.1921 30.0008C40.7993 31.6382 40.669 33.1064 40.6363 34.168C40.6198 34.7005 40.628 35.1357 40.6407 35.4452C40.6472 35.5999 40.6548 35.7235 40.6612 35.8126L40.6667 35.8866L40.6696 35.9198L40.6726 35.9533L40.6737 35.9646L40.6743 35.9711C40.6743 35.9719 40.6745 35.9728 42.5637 35.7839C44.453 35.595 44.453 35.5956 44.453 35.5963L44.4486 35.5394C44.4448 35.4871 44.4395 35.4023 44.4348 35.2882C44.4253 35.0598 44.4184 34.7163 44.4317 34.2847C44.4585 33.4178 44.5656 32.2162 44.8845 30.8869C45.4594 28.4912 46.692 25.7851 49.2953 23.7912C51.9163 24.1265 53.1111 24.6349 53.8216 25.0023C54.14 25.1669 54.4092 25.3287 54.774 25.5476L54.8835 25.6135C55.2744 25.848 55.808 26.166 56.4341 26.4504C57.8234 27.0811 59.351 27.41 61.3949 27.41C63.3727 27.41 65.6655 27.0504 67.8352 26.6359C69.1405 26.3864 70.574 26.0809 71.9574 25.7861C72.8423 25.5975 73.7075 25.4132 74.5048 25.2508C76.6842 24.8069 78.5547 24.4832 80.0163 24.3896C80.0896 24.3849 80.1606 24.3809 80.2291 24.3775C79.7522 25.8764 78.7746 27.8696 77.3863 29.8998C75.9604 31.9849 74.2334 33.9155 72.4383 35.2863C70.6089 36.6835 69.0162 37.2715 67.7701 37.2715C61.0797 37.2715 57.1081 42.0152 54.4791 45.1554L54.2304 45.4523C52.8178 47.1391 51.7462 48.4185 50.5896 49.354C49.506 50.2302 48.596 50.5904 47.5816 50.5904C43.7102 50.5904 40.8589 51.591 38.5403 52.7026V44.3278C38.5403 43.5772 38.9105 42.8776 39.5532 42.3152C40.2318 41.7215 40.9899 41.4798 41.3882 41.4798V37.6825C39.8879 37.6825 38.2727 38.39 37.0527 39.4576C35.8303 40.5271 34.7996 42.1411 34.7453 44.1603H25.0736C20.5372 44.1603 15.0937 46.1567 20.5372 50.1482C24.486 53.0436 31.2989 50.7394 34.743 49.2555V54.6844C32.8085 55.6639 31.0505 56.3146 28.4557 56.3146C25.2274 56.3146 22.972 57.8183 21.4712 59.8107C20.3675 61.2759 19.6071 63.1318 19.0628 64.4605C19.0531 64.4842 19.0434 64.5079 19.0338 64.5313C18.967 64.6944 18.9034 64.8491 18.8429 64.9936C18.1707 66.6001 17.672 67.5564 17.0722 68.1706Z"
        fill="currentColor" fill-opacity="0.88" />
</svg>
