<svg width="23" height="22" viewBox="0 0 23 22" fill="none" xmlns="http://www.w3.org/2000/svg">
    <path
        d="M4.13337 1.30002C4.13694 1.36285 4.16017 1.42298 4.19979 1.47188C4.23941 1.52078 4.2934 1.55598 4.35413 1.57251C4.41485 1.58903 4.47924 1.58604 4.53817 1.56395C4.5971 1.54187 4.6476 1.50181 4.68251 1.44944C4.71742 1.39708 4.73498 1.33506 4.7327 1.27217C4.73042 1.20927 4.70841 1.14869 4.66981 1.09899C4.6312 1.04929 4.57793 1.01299 4.51756 0.995227C4.45718 0.977466 4.39275 0.979142 4.33337 1.00002H3.33337C2.80294 1.00002 2.29423 1.21073 1.91916 1.58581C1.54409 1.96088 1.33337 2.46959 1.33337 3.00002V8.00002C1.33337 9.59132 1.96552 11.1174 3.09073 12.2427C4.21595 13.3679 5.74208 14 7.33337 14C8.92467 14 10.4508 13.3679 11.576 12.2427C12.7012 11.1174 13.3334 9.59132 13.3334 8.00002V3.00002C13.3334 2.46959 13.1227 1.96088 12.7476 1.58581C12.3725 1.21073 11.8638 1.00002 11.3334 1.00002H10.3334C10.3137 1.01972 10.2981 1.0431 10.2874 1.06884C10.2767 1.09458 10.2712 1.12216 10.2712 1.15002C10.2712 1.17788 10.2767 1.20546 10.2874 1.2312C10.2981 1.25694 10.3137 1.28032 10.3334 1.30002C10.3531 1.31972 10.3765 1.33534 10.4022 1.346C10.4279 1.35666 10.4555 1.36215 10.4834 1.36215C10.5112 1.36215 10.5388 1.35666 10.5646 1.346C10.5903 1.33534 10.6137 1.31972 10.6334 1.30002"
        stroke="#FF7700" stroke-width="1.5" stroke-linecap="round" stroke-linejoin="round" />
    <path
        d="M7.33337 14V15C7.33337 16.5913 7.96552 18.1174 9.09073 19.2426C10.216 20.3679 11.7421 21 13.3334 21V21C14.9247 21 16.4508 20.3679 17.576 19.2426C18.7012 18.1174 19.3334 16.5913 19.3334 15V11"
        stroke="#FF7700" stroke-width="1.5" stroke-linecap="round" stroke-linejoin="round" />
    <path
        d="M19.3334 11C20.4379 11 21.3334 10.1046 21.3334 9C21.3334 7.89543 20.4379 7 19.3334 7C18.2288 7 17.3334 7.89543 17.3334 9C17.3334 10.1046 18.2288 11 19.3334 11Z"
        stroke="#FF7700" stroke-width="1.5" stroke-linecap="round" stroke-linejoin="round" />
</svg>
