<svg width="92" height="92" viewBox="0 0 92 92" fill="none" xmlns="http://www.w3.org/2000/svg">
    <g clip-path="url(#clip0_80_4443)">
        <path
            d="M80.1147 39.6471C82.8507 26.0241 67.0997 17.9681 60.1647 22.9081C60.7157 21.0081 60.5637 21.5021 66.3777 8.67708C66.7759 7.80828 66.9493 6.8533 66.8819 5.89997C66.8144 4.94665 66.5084 4.02557 65.9919 3.22147C65.4753 2.41736 64.7649 1.75604 63.926 1.29832C63.087 0.840597 62.1464 0.601177 61.1907 0.602076H55.1107C53.7472 0.583785 52.4224 1.05488 51.3766 1.92988C50.3308 2.80487 49.6333 4.02579 49.4107 5.37108L48.6697 9.85508C48.5657 10.4549 48.2532 10.9987 47.7874 11.3907C47.3217 11.7826 46.7325 11.9976 46.1237 11.9976C45.5149 11.9976 44.9257 11.7826 44.4599 11.3907C43.9942 10.9987 43.6817 10.4549 43.5777 9.85508L42.8367 5.37108C42.6141 4.02579 41.9166 2.80487 40.8708 1.92988C39.825 1.05488 38.5001 0.583785 37.1367 0.602076H31.0567C30.1035 0.602628 29.1656 0.842221 28.329 1.29893C27.4923 1.75564 26.7835 2.41488 26.2675 3.21633C25.7515 4.01778 25.4447 4.93584 25.3752 5.88651C25.3057 6.83718 25.4757 7.7901 25.8697 8.65808C31.7217 21.5781 31.5697 21.1031 32.1017 22.9081C25.2997 17.9681 9.5297 25.9291 12.2847 39.6471C9.67253 42.4588 8.2207 46.1547 8.2207 49.9926C8.2207 53.8305 9.67253 57.5263 12.2847 60.3381C9.8147 72.5361 22.1837 81.8841 33.5837 77.4381C33.7985 77.8573 34.0668 78.2468 34.3817 78.5971C32.4817 80.6681 32.8997 82.6441 32.8997 86.1971C32.8997 87.7088 33.5002 89.1586 34.5692 90.2276C35.6381 91.2965 37.088 91.8971 38.5997 91.8971H53.7997C55.3114 91.8971 56.7612 91.2965 57.8302 90.2276C58.8992 89.1586 59.4997 87.7088 59.4997 86.1971C59.4997 82.5681 59.8607 80.6301 58.0177 78.5971C58.3387 78.2516 58.6075 77.8612 58.8157 77.4381C70.2157 81.9791 82.5657 72.5931 80.1147 60.4521C82.7597 57.6341 84.2319 53.9144 84.2319 50.0496C84.2319 46.1847 82.7597 42.465 80.1147 39.6471ZM29.4797 7.08108C29.3498 6.79203 29.2942 6.47508 29.318 6.15907C29.3419 5.84306 29.4444 5.53804 29.6163 5.27177C29.7881 5.00551 30.0238 4.78645 30.302 4.63455C30.5801 4.48265 30.8918 4.40274 31.2087 4.40208H37.2887C37.7413 4.39549 38.1815 4.55074 38.5298 4.83986C38.8781 5.12898 39.1118 5.53297 39.1887 5.97908L39.9297 10.4631C40.1884 11.9483 40.963 13.2947 42.1169 14.2649C43.2708 15.2352 44.7301 15.7672 46.2377 15.7672C47.7453 15.7672 49.2046 15.2352 50.3585 14.2649C51.5124 13.2947 52.287 11.9483 52.5457 10.4631L53.2867 5.97908C53.3636 5.53297 53.5973 5.12898 53.9456 4.83986C54.2939 4.55074 54.7341 4.39549 55.1867 4.40208H61.2667C61.5861 4.40128 61.9006 4.48103 62.181 4.63394C62.4614 4.78685 62.6988 5.00798 62.8711 5.27691C63.0434 5.54583 63.1452 5.85387 63.167 6.17253C63.1888 6.49119 63.1298 6.81021 62.9957 7.10008C57.5997 18.9561 55.6997 21.7301 55.6997 27.5251C55.6997 29.2161 55.7947 28.7981 55.4337 29.4251C54.2177 29.0451 55.0157 29.1591 38.5997 29.1591C36.6047 29.1591 37.2317 29.8431 36.6997 28.9881C36.6997 21.8441 36.1677 21.8441 29.4797 7.08108ZM53.2297 32.9021C51.8047 35.1821 51.1397 36.7021 48.7457 36.7021C41.2597 36.7021 41.8487 37.1961 39.2457 32.9021H53.2297ZM53.7997 76.6021C37.0037 76.6021 37.8017 76.9061 37.0227 75.7091C46.2187 71.1111 48.2137 72.1371 55.3767 75.7091C55.209 75.9775 54.9769 76.1998 54.7015 76.3557C54.4261 76.5117 54.1161 76.5963 53.7997 76.6021ZM55.6997 86.1021C55.6997 86.606 55.4995 87.0893 55.1432 87.4456C54.7869 87.8019 54.3036 88.0021 53.7997 88.0021H38.5997C38.0958 88.0021 37.6125 87.8019 37.2562 87.4456C36.8999 87.0893 36.6997 86.606 36.6997 86.1021V82.3021C36.6997 81.7982 36.8999 81.3149 37.2562 80.9586C37.6125 80.6022 38.0958 80.4021 38.5997 80.4021H53.7997C54.3036 80.4021 54.7869 80.6022 55.1432 80.9586C55.4995 81.3149 55.6997 81.7982 55.6997 82.3021V86.1021ZM76.7327 58.3431C75.0987 59.8251 77.5877 61.4781 76.1247 66.5891C74.2247 73.3531 65.9217 76.7351 59.2527 73.4101C53.7997 70.6741 51.1587 69.0021 46.1997 69.0021C41.2407 69.0021 38.3527 70.9021 33.1087 73.5241C31.5739 74.3114 29.8873 74.7583 28.164 74.8342C26.4408 74.9101 24.7214 74.6133 23.1233 73.964C21.5253 73.3146 20.0861 72.3281 18.9042 71.0717C17.7223 69.8154 16.8253 68.3188 16.2747 66.6841C14.7927 61.5541 17.3577 59.9771 15.6667 58.4381C14.5217 57.3713 13.6086 56.0802 12.9842 54.6452C12.3599 53.2102 12.0377 51.662 12.0377 50.0971C12.0377 48.5321 12.3599 46.9839 12.9842 45.5489C13.6086 44.1139 14.5217 42.8228 15.6667 41.7561C17.2627 40.3121 15.1157 39.1341 16.0277 34.5361C16.5943 31.8515 18.0906 29.4531 20.2526 27.7638C22.4147 26.0744 25.1037 25.2026 27.8457 25.3021C28.4883 25.304 29.1199 25.4688 29.6814 25.7812C30.243 26.0935 30.7161 26.5432 31.0567 27.0881C39.7967 41.0531 37.9347 40.5021 48.7457 40.5021C50.0341 40.5014 51.3011 40.1733 52.4278 39.5484C53.5545 38.9236 54.5039 38.0226 55.1867 36.9301L61.3997 27.0881C63.8127 23.2881 74.6997 25.8341 76.4287 34.4411C77.3217 38.9441 75.2127 40.2361 76.7897 41.6611C77.9311 42.7318 78.8398 44.026 79.4592 45.4631C80.0787 46.9002 80.3956 48.4495 80.3903 50.0145C80.3849 51.5794 80.0574 53.1265 79.4282 54.5594C78.7989 55.9923 77.8814 57.2802 76.7327 58.3431Z"
            fill="currentColor" fill-opacity="0.88" />
        <path
            d="M49.6955 50.6678C48.707 51.4701 47.4726 51.9079 46.1995 51.9079C44.9264 51.9079 43.6921 51.4701 42.7035 50.6678C42.3709 50.2874 41.9008 50.0546 41.3966 50.0208C40.8925 49.9869 40.3955 50.1548 40.015 50.4873C39.6346 50.8199 39.4018 51.29 39.368 51.7942C39.3341 52.2984 39.5019 52.7954 39.8345 53.1758C41.5534 54.8049 43.8314 55.7128 46.1995 55.7128C48.5677 55.7128 50.8457 54.8049 52.5645 53.1758C52.8971 52.7954 53.0649 52.2984 53.0311 51.7942C52.9972 51.29 52.7645 50.8199 52.384 50.4873C52.0036 50.1548 51.5066 49.9869 51.0024 50.0208C50.4982 50.0546 50.0281 50.2874 49.6955 50.6678ZM66.7955 43.0678C65.807 43.8701 64.5726 44.3079 63.2995 44.3079C62.0264 44.3079 60.792 43.8701 59.8035 43.0678C59.4686 42.705 59.0056 42.4868 58.5126 42.4595C58.0196 42.4322 57.5353 42.5978 57.1623 42.9214C56.7893 43.245 56.557 43.701 56.5144 44.193C56.4719 44.6849 56.6226 45.1741 56.9345 45.5568C58.6512 47.1901 60.93 48.101 63.2995 48.101C65.669 48.101 67.9479 47.1901 69.6645 45.5568C69.9764 45.1741 70.1271 44.6849 70.0846 44.193C70.0421 43.701 69.8097 43.245 69.4367 42.9214C69.0638 42.5978 68.5795 42.4322 68.0864 42.4595C67.5934 42.4868 67.1304 42.705 66.7955 43.0678ZM66.7955 60.1678C65.807 60.9701 64.5726 61.4079 63.2995 61.4079C62.0264 61.4079 60.792 60.9701 59.8035 60.1678C59.4686 59.805 59.0056 59.5868 58.5126 59.5595C58.0196 59.5322 57.5353 59.6978 57.1623 60.0214C56.7893 60.345 56.557 60.801 56.5144 61.293C56.4719 61.7849 56.6226 62.2741 56.9345 62.6568C58.6512 64.2901 60.93 65.201 63.2995 65.201C65.669 65.201 67.9479 64.2901 69.6645 62.6568C69.9764 62.2741 70.1271 61.7849 70.0846 61.293C70.0421 60.801 69.8097 60.345 69.4367 60.0214C69.0638 59.6978 68.5795 59.5322 68.0864 59.5595C67.5934 59.5868 67.1304 59.805 66.7955 60.1678ZM32.5955 43.0678C31.607 43.8701 30.3726 44.3079 29.0995 44.3079C27.8264 44.3079 26.5921 43.8701 25.6035 43.0678C25.4388 42.8795 25.2387 42.7254 25.0144 42.6143C24.7902 42.5033 24.5463 42.4375 24.2966 42.4208C24.047 42.404 23.7965 42.4366 23.5594 42.5167C23.3224 42.5967 23.1034 42.7227 22.915 42.8873C22.7266 43.052 22.5725 43.2522 22.4615 43.4764C22.3505 43.7007 22.2847 43.9446 22.268 44.1942C22.2512 44.4439 22.2838 44.6944 22.3638 44.9314C22.4439 45.1685 22.5698 45.3875 22.7345 45.5758C24.4524 47.1993 26.7264 48.1038 29.09 48.1038C31.4536 48.1038 33.7277 47.1993 35.4455 45.5758C35.7526 45.1946 35.9007 44.7095 35.8589 44.2217C35.817 43.7339 35.5885 43.2811 35.221 42.9577C34.8535 42.6342 34.3753 42.4652 33.8861 42.4857C33.397 42.5062 32.9347 42.7148 32.5955 43.0678ZM32.5955 60.1678C31.607 60.9701 30.3726 61.4079 29.0995 61.4079C27.8264 61.4079 26.5921 60.9701 25.6035 60.1678C25.4388 59.9795 25.2387 59.8254 25.0144 59.7143C24.7902 59.6033 24.5463 59.5375 24.2966 59.5208C24.047 59.504 23.7965 59.5366 23.5594 59.6167C23.3224 59.6967 23.1034 59.8227 22.915 59.9873C22.7266 60.152 22.5725 60.3522 22.4615 60.5764C22.3505 60.8007 22.2847 61.0446 22.268 61.2942C22.2341 61.7984 22.4019 62.2954 22.7345 62.6758C24.4524 64.2993 26.7264 65.2038 29.09 65.2038C31.4536 65.2038 33.7277 64.2993 35.4455 62.6758C35.7526 62.2946 35.9007 61.8095 35.8589 61.3217C35.817 60.8339 35.5885 60.3811 35.221 60.0577C34.8535 59.7342 34.3753 59.5652 33.8861 59.5857C33.397 59.6062 32.9347 59.8148 32.5955 60.1678Z"
            fill="currentColor" fill-opacity="0.88" />
    </g>
    <defs>
        <clipPath id="clip0_80_4443">
            <rect width="91.2" height="91.2" fill="currentColor" transform="translate(0.599609 0.601562)" />
        </clipPath>
    </defs>
</svg>
