<svg width="92" height="92" viewBox="0 0 92 92" fill="none" xmlns="http://www.w3.org/2000/svg">
    <path fill-rule="evenodd" clip-rule="evenodd"
        d="M16.3693 12.0656C19.309 11.4777 22.1692 13.3582 22.8043 16.2766C22.8076 16.2894 22.8136 16.3126 22.8231 16.3459C22.8548 16.4577 22.9234 16.6815 23.0445 16.9981C23.2864 17.6308 23.7377 18.6337 24.5243 19.8575C25.741 21.7499 27.8029 24.239 31.2527 26.7286C34.9554 25.7877 39.7113 24.8236 44.0569 24.5735C44.7419 24.5323 45.4351 24.511 46.1355 24.511C46.8357 24.511 47.5289 24.5323 48.214 24.5735C52.5595 24.8236 57.3154 25.7877 61.0181 26.7286C64.468 24.239 66.5301 21.7499 67.7465 19.8575C68.5331 18.6337 68.9844 17.6308 69.2263 16.9981C69.3475 16.6815 69.416 16.4577 69.4477 16.3459C69.4572 16.3127 69.4633 16.2894 69.4665 16.2766C70.1016 13.3582 72.9619 11.4776 75.9015 12.0656C78.872 12.6597 80.7983 15.5493 80.2042 18.5197L80.2004 18.5389C80.1514 18.7715 80.0992 18.9945 80.0009 19.3407C79.8856 19.7472 79.7159 20.2799 79.4729 20.9158C78.9863 22.1884 78.2048 23.8752 76.9741 25.7896C75.2522 28.468 72.6834 31.5407 68.8969 34.5241C69.2738 36.3365 69.5519 38.466 69.5519 40.755C69.5519 44.3531 68.5514 47.0636 66.959 49.3144C65.446 51.4532 63.4239 53.1265 61.5325 54.6917L61.4398 54.7684C58.9557 56.8245 56.567 58.8184 54.7426 61.7829C52.944 64.7057 51.6203 68.7086 51.6203 74.825C51.6203 77.8543 49.1646 80.31 46.1355 80.31C43.1062 80.31 40.6505 77.8543 40.6505 74.825C40.6505 68.7086 39.3268 64.7057 37.5282 61.7829C35.7038 58.8184 33.3154 56.8245 30.8312 54.7684L30.7383 54.6917C28.8469 53.1265 26.8249 51.4532 25.3119 49.3144C23.7195 47.0636 22.7189 44.3531 22.7189 40.755C22.7189 38.466 22.997 36.3365 23.3741 34.5241C19.5875 31.5407 17.0187 28.468 15.2968 25.7896C14.0662 23.8752 13.2846 22.1884 12.7981 20.9158C12.5549 20.2799 12.3853 19.7472 12.27 19.3407C12.2123 19.1374 12.1681 18.9655 12.135 18.8278L12.1313 18.8125L12.0706 18.54L12.0666 18.5197C11.4725 15.5493 13.3989 12.6597 16.3693 12.0656ZM17.114 15.7891C18.0219 15.6075 18.9055 16.1914 19.0961 17.0947L19.1012 17.1187L19.1083 17.1486L19.1092 17.1522C19.1186 17.1913 19.1342 17.2535 19.1574 17.3373L19.1701 17.3825C19.2308 17.5964 19.3343 17.9271 19.4977 18.3543C19.8242 19.2085 20.3898 20.4482 21.3302 21.9109C22.8883 24.3345 25.4958 27.4034 29.8073 30.3537L30.5248 30.8447L31.3651 30.6224C35.0619 29.6446 39.9519 28.613 44.2777 28.3643L44.2832 28.3641C44.8929 28.3273 45.5107 28.3083 46.1355 28.3083C46.7602 28.3083 47.378 28.3273 47.9876 28.3641L47.9931 28.3643C52.319 28.613 57.2091 29.6446 60.9059 30.6224L61.7463 30.8447L62.4636 30.3537C66.775 27.4034 69.3826 24.3345 70.9406 21.9109C71.881 20.4482 72.4466 19.2085 72.7732 18.3543C72.9364 17.9271 73.0401 17.5963 73.1007 17.3825C73.1311 17.2757 73.1506 17.1981 73.1618 17.1521L73.1626 17.1483L73.1698 17.1186L73.1747 17.0947C73.3653 16.1914 74.249 15.6075 75.1569 15.7891C76.0681 15.9714 76.66 16.8556 76.4825 17.7667C76.4508 17.9163 76.4189 18.0539 76.3479 18.304C76.2615 18.6085 76.1269 19.0343 75.926 19.5598C75.5241 20.6109 74.8569 22.0609 73.78 23.736C72.1485 26.2739 69.5941 29.3009 65.6428 32.2324L64.6244 32.9879L64.9322 34.2178C65.3837 36.0238 65.7547 38.2955 65.7547 40.755C65.7547 42.0947 65.583 43.2378 65.2794 44.2424C65.2274 44.238 65.1748 44.236 65.1219 44.236H27.1492C27.096 44.236 27.0434 44.238 26.9914 44.2424C26.6878 43.2378 26.5162 42.0947 26.5162 40.755C26.5162 38.2955 26.8872 36.0238 27.3388 34.2178L27.6464 32.9879L26.628 32.2324C22.6768 29.3009 20.1223 26.2739 18.4909 23.736C17.414 22.0609 16.7468 20.6109 16.3449 19.5598C16.144 19.0343 16.0094 18.6085 15.923 18.304L15.9162 18.2801C15.8787 18.1468 15.8507 18.0378 15.8307 17.9551L15.7868 17.7584C15.6145 16.8503 16.2056 15.9708 17.114 15.7891ZM29.1228 48.0332C30.2307 49.3325 31.6262 50.4973 33.2521 51.8432L33.3222 51.9011C35.7553 53.9148 38.5869 56.2581 40.7622 59.7928C42.9842 63.4034 44.4478 68.1189 44.4478 74.825C44.4478 75.7571 45.2033 76.5127 46.1355 76.5127C47.0676 76.5127 47.823 75.7571 47.823 74.825C47.823 68.1189 49.2867 63.4034 51.5086 59.7928C53.6839 56.2581 56.5155 53.9148 58.9486 51.9011L59.0187 51.8432C60.6447 50.4973 62.0402 49.3325 63.148 48.0332H29.1228Z"
        fill="currentColor" fill-opacity="0.88" />
</svg>
