<svg width="92" height="92" viewBox="0 0 92 92" fill="none" xmlns="http://www.w3.org/2000/svg">
    <path
        d="M70.9758 30.4431C71.9976 30.6782 73.0166 30.0403 73.2515 29.0182C73.4865 27.9964 72.8484 26.9774 71.8266 26.7425L59.2658 23.8549C58.2439 23.6198 57.2251 24.2578 56.9901 25.2798C56.7552 26.3017 57.3931 27.3207 58.415 27.5555L70.9758 30.4431Z"
        fill="currentColor" fill-opacity="0.88" />
    <path fill-rule="evenodd" clip-rule="evenodd"
        d="M65.1188 42.3362C73.5075 42.3362 80.3078 35.5358 80.3078 27.1471C80.3078 18.7584 73.5075 11.958 65.1188 11.958C56.73 11.958 49.9297 18.7584 49.9297 27.1471C49.9297 35.5358 56.73 42.3362 65.1188 42.3362ZM65.1188 38.5389C71.4103 38.5389 76.5106 33.4386 76.5106 27.1471C76.5106 20.8556 71.4103 15.7553 65.1188 15.7553C58.8273 15.7553 53.727 20.8556 53.727 27.1471C53.727 33.4386 58.8273 38.5389 65.1188 38.5389Z"
        fill="currentColor" fill-opacity="0.88" />
    <path fill-rule="evenodd" clip-rule="evenodd"
        d="M32.4228 18.1214C31.1935 15.2131 27.0822 14.9197 25.4307 17.6225L12.5149 38.7589C11.025 41.1971 12.6909 44.3099 15.5966 44.5173L38.1265 46.1248C41.0322 46.3322 43.1461 43.4892 42.0372 40.8654L32.4228 18.1214ZM28.6871 19.5793C28.6842 19.5827 28.6786 19.5899 28.671 19.6024L15.7752 40.7061L15.7782 40.7082C15.7819 40.7107 15.7878 40.7139 15.7979 40.7173C15.8074 40.7208 15.8289 40.7268 15.8668 40.7295L38.3967 42.3371C38.4347 42.3399 38.4578 42.3369 38.4696 42.3346C38.4821 42.3323 38.4909 42.3291 38.4979 42.3257C38.507 42.3215 38.5161 42.3154 38.5243 42.308L28.9254 19.6C28.9218 19.5914 28.9187 19.5857 28.9168 19.5821C28.9056 19.5757 28.8715 19.5595 28.8149 19.5554C28.7522 19.551 28.7103 19.5648 28.6966 19.5715L28.692 19.5742L28.6899 19.5761L28.6871 19.5793Z"
        fill="currentColor" fill-opacity="0.88" />
    <path fill-rule="evenodd" clip-rule="evenodd"
        d="M67.7505 69.5994C73.4525 66.9405 75.9196 60.1626 73.2605 54.4604C70.6017 48.7584 63.8238 46.2915 58.1218 48.9504L37.4728 58.5791C31.7706 61.2382 29.3037 68.0159 31.9626 73.7181C34.6216 79.42 41.3994 81.8871 47.1015 79.2281L67.7505 69.5994ZM39.0775 62.0206C35.2761 63.7933 33.6315 68.3119 35.4041 72.1132C37.1768 75.9146 41.6954 77.5592 45.4968 75.7866L53.9761 71.8325L47.5576 58.0682L39.0775 62.0206ZM57.4176 70.2278L50.9985 56.4618L59.7265 52.3919C63.528 50.6193 68.0465 52.2639 69.8191 56.0653C71.5916 59.8666 69.947 64.3853 66.1456 66.1579L57.4176 70.2278Z"
        fill="currentColor" fill-opacity="0.88" />
</svg>
