<svg width="24" height="24" viewBox="0 0 24 24" fill="none" xmlns="http://www.w3.org/2000/svg">
<circle cx="12" cy="12" r="11" stroke="#FF7700" stroke-width="2"/>
<path d="M10.5858 5.41421C11.3668 4.63316 12.6332 4.63317 13.4142 5.41421L18.5858 10.5858C19.3668 11.3668 19.3668 12.6332 18.5858 13.4142L13.4142 18.5858C12.6332 19.3668 11.3668 19.3668 10.5858 18.5858L5.41421 13.4142C4.63316 12.6332 4.63317 11.3668 5.41421 10.5858L10.5858 5.41421Z" fill="#FF7700"/>
<path d="M10.9393 5.76777C11.5251 5.18198 12.4749 5.18198 13.0607 5.76777L18.2322 10.9393C18.818 11.5251 18.818 12.4749 18.2322 13.0607L13.0607 18.2322C12.4749 18.818 11.5251 18.818 10.9393 18.2322L5.76777 13.0607C5.18198 12.4749 5.18198 11.5251 5.76777 10.9393L10.9393 5.76777Z" stroke="black" stroke-opacity="0.08"/>
</svg>
