<svg xmlns="http://www.w3.org/2000/svg" width="74" height="74" stroke="#000" stroke-linecap="round" stroke-linejoin="round" fill="#fff" fill-rule="evenodd">
    <path d="M16.0475 26.7933c-2.9232 0-5.6934 1.2874-7.5479 3.5084s-2.5986 5.1436-2.0283 7.9621c.3754 1.8621 1.3055 3.5723 2.6724 4.9147s3.1055 2.2566 4.9998 2.6268 3.857.1808 5.6418-.5455 3.3093-1.9576 4.3815-3.5358 1.6464-3.4338 1.6464-5.3327c-.0057-5.2991-4.3745-9.5927-9.7657-9.598h0zm0 16.8045c-2.9656 0-5.6385-1.7554-6.7733-4.4488s-.5074-5.7923 1.5893-7.8537c1.0258-1.0077 2.3326-1.6938 3.7533-1.972 2.154-.4212 4.386.1285 6.0819 1.4969s2.6809 3.4137 2.6809 5.5711c-.0025 1.9108-.7746 3.7426-2.1503 5.0934s-3.2378 2.1108-5.1818 2.1131h0zm21.6897-16.8045c-1.9323 0-3.8195.5628-5.4259 1.6174s-2.8574 2.554-3.5969 4.3073a9.466 9.466 0 0 0-.5557 5.5458c.7714 3.8079 3.7986 6.7844 7.6722 7.5415 1.8948.3711 3.8583.1808 5.6419-.5455s3.3092-1.9576 4.3827-3.5358 1.6451-3.4338 1.6451-5.3327c-.0057-5.2991-4.373-9.5927-9.7634-9.598h0zm0 16.8045c-2.9663 0-5.6391-1.7554-6.7737-4.4488-.5557-1.3171-.6999-2.7657-.4175-4.1634s.9815-2.6825 2.0072-3.6903 2.3303-1.6938 3.7528-1.972 2.8967-.1354 4.2359.41 2.485 1.4693 3.2897 2.6545 1.2354 2.5778 1.2354 4.0035c-.001 1.9108-.7749 3.7426-2.1491 5.0934s-3.2373 2.1108-5.1807 2.1131h0zM71.75 38.8891l-.8673-.403c-.5705-.2506-1.1438-.4971-1.7359-.7145-.0758-.0292-.1536-.0546-.2313-.084.0178-.1609.0322-.323.0433-.4828.0265-.3217.0287-.6447.0324-.9752a8.351 8.351 0 0 0-.0751-1.0309c-.1844-1.3345-.6398-2.6183-1.3398-3.7757-.6968-1.1657-1.6381-2.1726-2.7592-2.9546-1.1311-.776-2.4248-1.2946-3.7862-1.5169a10.968 10.968 0 0 0-4.0109.0893c-1.3438.2788-2.5996.8767-3.6565 1.7385-.167.134-.3284.276-.4774.4229v-1.8706h-2.4258V53.5h2.4224V31.939c.1562-.2051.3202-.4035.4931-.5897.36-.3886.7597-.7409 1.1917-1.0506.8552-.6034 1.8381-1.008 2.8768-1.1831 1.0552-.1783 2.1352-.173 3.1891.0157 1.031.1759 2.0071.5774 2.859 1.1729 1.68 1.1828 2.8255 3.1646 3.0795 5.1854.0317.2465.0475.4957.0482.7453-.0077.2372-.0118.4797-.0309.7169-.3631-.0951-.7288-.1825-1.1009-.2585-1.2672-.2511-2.5941-.3926-3.9735-.26-.7113.0656-1.4095.2234-2.0793.4716a5.864 5.864 0 0 0-1.9392 1.1832c-.5927.5494-1.0362 1.2378-1.2872 2.0004-.2529.7748-.2903 1.6025-.1095 2.3971s.588 1.5317 1.1641 2.1226c.5726.5794 1.2894 1.0014 2.0792 1.2226 1.5318.4188 3.0753.183 4.3829-.4052 1.291-.5878 2.4104-1.49 3.2463-2.6223a9.756 9.756 0 0 0 1.4227-2.7306c.4976.1863.9928.3909 1.4854.6003l.7746.3494.4559.2238L72.5 39.2767l-.75-.3876zm-6.7312 2.4866c-.5983.7941-1.3881 1.4293-2.2976 1.8488-.8755.4019-1.8729.505-2.6798.2773-.3735-.0982-.7129-.2939-.9811-.5669s-.4546-.6137-.5407-.9848a2.17 2.17 0 0 1 .0608-1.1354 2.203 2.203 0 0 1 .6295-.9537c.6019-.5646 1.5414-.8928 2.5631-.9969s2.1312 0 3.2258.2152c.3721.0729.7431.1649 1.1124.2631-.2541.7286-.6229 1.4151-1.0924 2.0333h0zm-62.112.2233V20H.5v22.3731c0 1.8282 1.2762 3.1521 2.5565 3.7868l1.615-1.8515c-1.0255-.5614-1.7647-1.2023-1.7647-2.7094z" stroke="none" fill="#025f4c" fill-rule="nonzero"/>
</svg>