<svg width="51" height="38" viewBox="0 0 51 38" fill="none" xmlns="http://www.w3.org/2000/svg">
<path fill-rule="evenodd" clip-rule="evenodd" d="M42.6424 25.7273C49.109 22.6969 51.907 14.972 48.8913 8.47306C45.8759 1.97438 38.1891 -0.837197 31.7225 2.19315L8.30444 13.1672C1.8376 16.1978 -0.960104 23.9226 2.0553 30.4215C5.07091 36.9201 12.7576 39.7319 19.2244 36.7014L42.6424 25.7273ZM10.1244 17.0896C5.81314 19.11 3.948 24.2599 5.95826 28.5923C7.96875 32.9249 13.0933 34.7993 17.4045 32.7791L27.0209 28.2725L19.7416 12.5849L10.1244 17.0896ZM30.9238 26.4435L23.6439 10.754L33.5424 6.11547C37.8536 4.09524 42.9781 5.96963 44.9884 10.3022C46.9986 14.6346 45.1335 19.7847 40.8223 21.805L30.9238 26.4435Z" fill="white" fill-opacity="0.88"/>
</svg>
