<svg width="92" height="93" viewBox="0 0 92 93" fill="none" xmlns="http://www.w3.org/2000/svg">
<path fill-rule="evenodd" clip-rule="evenodd" d="M34.7418 76.8448H44.235V84.4393H48.0322V76.8448H57.5254V73.0475H65.12C69.3142 73.0475 72.7145 69.6475 72.7145 65.4532V20.1028C72.7145 15.9085 69.3142 12.5083 65.12 12.5083H53.7282L51.5789 10.2976C48.5967 7.23022 43.6705 7.23022 40.6883 10.2976L38.5391 12.5083H27.1473C22.953 12.5083 19.5527 15.9085 19.5527 20.1028V65.453C19.5527 69.6475 22.953 73.0475 27.1473 73.0475H34.7418V76.8448ZM51.0055 15.1553C51.7205 15.8907 52.7025 16.3056 53.7282 16.3056H65.12C67.2172 16.3056 68.9172 18.0057 68.9172 20.1028V53.1854C68.39 52.7764 67.8039 52.372 67.161 51.9978C63.6964 49.9816 58.6847 48.9324 52.7636 52.4259C47.8881 55.3023 43.3029 56.0806 38.3148 56.1867C36.0919 56.234 33.8195 56.148 31.3827 56.0557C31.0505 56.043 30.7148 56.0303 30.3761 56.0179C28.1585 55.9361 25.8216 55.8645 23.35 55.9046V20.1028C23.35 18.0057 25.05 16.3056 27.1473 16.3056H38.5391C39.5647 16.3056 40.5467 15.8907 41.2617 15.1553L43.411 12.9446C44.9022 11.4109 47.3651 11.4109 48.8563 12.9446L51.0055 15.1553ZM23.35 59.7024V65.453C23.35 67.5502 25.05 69.2503 27.1473 69.2503H65.12C67.2172 69.2503 68.9172 67.5502 68.9172 65.4532V58.4837C68.7505 58.2733 68.5212 57.999 68.2324 57.6891C67.5365 56.9428 66.5265 56.0221 65.251 55.2797C62.7941 53.8501 59.2619 53.0008 54.6932 55.6963C49.0786 59.0089 43.7909 59.8684 38.3957 59.983C36.0519 60.033 33.6588 59.942 31.2354 59.8501C30.903 59.8374 30.5696 59.8249 30.2362 59.8125C28.0093 59.7303 25.7326 59.6618 23.35 59.7024Z" fill="white" fill-opacity="0.88"/>
</svg>
