<svg width="92" height="92" viewBox="0 0 92 92" fill="none" xmlns="http://www.w3.org/2000/svg">
<path fill-rule="evenodd" clip-rule="evenodd" d="M25.2486 17.6522C24.2 17.6522 23.35 18.5023 23.35 19.5509V78.4086C23.35 79.4572 24.2 80.3072 25.2486 80.3072H67.0186C68.0672 80.3072 68.9172 79.4572 68.9172 78.4086V19.5509C68.9172 18.5023 68.0672 17.6522 67.0186 17.6522H56.4179V13.855H67.0186C70.1644 13.855 72.7145 16.4051 72.7145 19.5509V78.4086C72.7145 81.5544 70.1644 84.1045 67.0186 84.1045H25.2486C22.1028 84.1045 19.5527 81.5544 19.5527 78.4086V19.5509C19.5527 16.4051 22.1028 13.855 25.2486 13.855H35.8493V17.6522H25.2486Z" fill="white" fill-opacity="0.88"/>
<path fill-rule="evenodd" clip-rule="evenodd" d="M32.8418 13.8551C32.8418 10.7093 35.3919 8.15918 38.5377 8.15918H53.7268C56.8726 8.15918 59.4227 10.7093 59.4227 13.8551V17.6524C59.4227 20.7982 56.8726 23.3483 53.7268 23.3483H38.5377C35.3919 23.3483 32.8418 20.7982 32.8418 17.6524V13.8551ZM38.5377 11.9564C37.4891 11.9564 36.6391 12.8065 36.6391 13.8551V17.6524C36.6391 18.7009 37.4891 19.551 38.5377 19.551H53.7268C54.7754 19.551 55.6254 18.7009 55.6254 17.6524V13.8551C55.6254 12.8065 54.7754 11.9564 53.7268 11.9564H38.5377Z" fill="white" fill-opacity="0.88"/>
<path fill-rule="evenodd" clip-rule="evenodd" d="M29.0469 40.4397C29.0469 39.391 29.8969 38.541 30.9455 38.541H44.2359C45.2846 38.541 46.1346 39.391 46.1346 40.4397C46.1346 41.4883 45.2846 42.3383 44.2359 42.3383H30.9455C29.8969 42.3383 29.0469 41.4883 29.0469 40.4397Z" fill="white" fill-opacity="0.88"/>
<path fill-rule="evenodd" clip-rule="evenodd" d="M29.0469 30.9445C29.0469 29.8959 29.8969 29.0459 30.9455 29.0459H60.3743C61.423 29.0459 62.273 29.8959 62.273 30.9445C62.273 31.9931 61.423 32.8432 60.3743 32.8432H30.9455C29.8969 32.8432 29.0469 31.9931 29.0469 30.9445Z" fill="white" fill-opacity="0.88"/>
<path fill-rule="evenodd" clip-rule="evenodd" d="M32.8441 55.6269V59.4241H36.6414V55.6269H32.8441ZM30.9455 51.8296C29.8969 51.8296 29.0469 52.6796 29.0469 53.7282V61.3228C29.0469 62.3714 29.8969 63.2214 30.9455 63.2214H38.54C39.5887 63.2214 40.4387 62.3714 40.4387 61.3228V53.7282C40.4387 52.6796 39.5887 51.8296 38.54 51.8296H30.9455Z" fill="white" fill-opacity="0.88"/>
<path fill-rule="evenodd" clip-rule="evenodd" d="M53.7291 55.6248C54.7789 55.6248 55.6277 54.7759 55.6277 53.7262C55.6277 52.6764 54.7789 51.8275 53.7291 51.8275C52.6794 51.8275 51.8305 52.6764 51.8305 53.7262C51.8305 54.7759 52.6794 55.6248 53.7291 55.6248ZM53.7291 59.4221C56.8761 59.4221 59.425 56.8732 59.425 53.7262C59.425 50.5792 56.8761 48.0303 53.7291 48.0303C50.5821 48.0303 48.0332 50.5792 48.0332 53.7262C48.0332 56.8732 50.5821 59.4221 53.7291 59.4221Z" fill="white" fill-opacity="0.88"/>
<path fill-rule="evenodd" clip-rule="evenodd" d="M46.1352 67.5509C46.1593 67.5228 46.1931 67.486 46.2394 67.4406C46.5502 67.1364 47.1515 66.7335 48.093 66.3337C49.9915 65.527 52.3338 65.122 53.7297 65.122C55.1256 65.122 57.4679 65.527 59.3664 66.3337C60.3079 66.7335 60.9092 67.1364 61.22 67.4406C61.2663 67.486 61.3001 67.5228 61.3242 67.5509V70.8179H46.1352V67.5509ZM53.7297 61.3247C49.9277 61.3247 42.3379 63.3485 42.3379 67.3658V74.6151H65.1215V67.3658C65.1215 63.3485 57.5317 61.3247 53.7297 61.3247Z" fill="white" fill-opacity="0.88"/>
</svg>
