<svg width="92" height="93" viewBox="0 0 92 93" fill="none" xmlns="http://www.w3.org/2000/svg">
<path d="M76.5102 59.7152V33.2127C76.5091 32.3453 76.2765 31.4933 75.8354 30.7415C75.3943 29.9896 74.7601 29.3643 73.9961 28.9276L49.9467 15.1983C48.788 14.5366 47.4712 14.188 46.1305 14.188C44.7897 14.188 43.4729 14.5366 42.3142 15.1983L18.268 28.9276C17.504 29.3643 16.8698 29.9896 16.4287 30.7415C15.9876 31.4933 15.755 32.3453 15.7539 33.2127V59.7152C15.7544 60.5831 15.9868 61.4358 16.428 62.1882C16.8691 62.9406 17.5035 63.5665 18.268 64.0034L42.3174 77.7327C43.4764 78.3935 44.7931 78.7416 46.1336 78.7416C47.4742 78.7416 48.7909 78.3935 49.9499 77.7327L73.9993 64.0034C74.7632 63.5661 75.397 62.94 75.8375 62.1877C76.2781 61.4353 76.51 60.5828 76.5102 59.7152Z" stroke="white" stroke-width="2.84795" stroke-linecap="round" stroke-linejoin="round"/>
<path fill-rule="evenodd" clip-rule="evenodd" d="M15.9805 30.1927C16.4395 29.4071 17.4442 29.1449 18.2246 29.607L46.1321 46.1337L74.0395 29.607C74.8199 29.1449 75.8246 29.4071 76.2836 30.1927C76.7426 30.9783 76.4822 31.9898 75.7018 32.4519L47.7713 48.9922V78.9917C47.7713 79.9032 47.0374 80.642 46.1321 80.642C45.2267 80.642 44.4928 79.9032 44.4928 78.9917V48.9922L16.5623 32.4519C15.7819 31.9898 15.5215 30.9783 15.9805 30.1927Z" fill="white"/>
</svg>
