<svg width="56" height="56" viewBox="0 0 56 56" fill="none" xmlns="http://www.w3.org/2000/svg">
<path d="M12.25 12.25L14.4375 47.25C14.5414 49.2723 16.0125 50.75 17.9375 50.75H38.0625C39.9952 50.75 41.4389 49.2723 41.5625 47.25L43.75 12.25" stroke="#FF4242" stroke-width="3" stroke-linecap="round" stroke-linejoin="round"/>
<path d="M8.75 12.25H47.25H8.75Z" fill="#FF4242"/>
<path d="M8.75 12.25H47.25" stroke="#FF4242" stroke-width="3" stroke-miterlimit="10" stroke-linecap="round"/>
<path d="M21 12.25V7.87501C20.999 7.53001 21.0662 7.18821 21.1978 6.86927C21.3293 6.55034 21.5226 6.26056 21.7666 6.0166C22.0105 5.77265 22.3003 5.57933 22.6193 5.44777C22.9382 5.31621 23.28 5.249 23.625 5.25001H32.375C32.72 5.249 33.0618 5.31621 33.3807 5.44777C33.6997 5.57933 33.9895 5.77265 34.2334 6.0166C34.4774 6.26056 34.6707 6.55034 34.8022 6.86927C34.9338 7.18821 35.001 7.53001 35 7.87501V12.25M28 19.25V43.75M20.125 19.25L21 43.75M35.875 19.25L35 43.75" stroke="#FF4242" stroke-width="3" stroke-linecap="round" stroke-linejoin="round"/>
</svg>
