<svg width="51" height="50" viewBox="0 0 51 50" fill="none" xmlns="http://www.w3.org/2000/svg">
<path d="M27.5362 11.0968C29.7945 11.0968 31.6421 9.24906 31.6421 6.99076C31.6421 4.73246 29.7945 2.88477 27.5362 2.88477C25.2779 2.88477 23.4302 4.73246 23.4302 6.99076C23.4302 9.24906 25.2779 11.0968 27.5362 11.0968ZM19.9401 18.0769L14.1917 47.0242H18.503L22.1984 30.6002L26.5097 34.7062V47.0242H30.6157V31.6267L26.3044 27.5207L27.5362 21.3617C30.2051 24.4412 34.311 26.4942 38.8276 26.4942V22.3882C34.9269 22.3882 31.6421 20.3352 29.9998 17.461L27.9468 14.1763C26.7971 12.3491 24.4977 11.61 22.5063 12.4517L12.1387 16.8451V26.4942H16.2447V19.514L19.9401 18.0769Z" fill="white"/>
</svg>
